<?xml version="1.0" encoding="UTF-8" standalone="no"?>
<svg width="152px" height="92px" viewBox="0 0 152 92" version="1.1" xmlns="http://www.w3.org/2000/svg" xmlns:xlink="http://www.w3.org/1999/xlink" xmlns:sketch="http://www.bohemiancoding.com/sketch/ns">
    <!-- Generator: Sketch 3.4.4 (17249) - http://www.bohemiancoding.com/sketch -->
    <title>Shape</title>
    <desc>Created with Sketch.</desc>
    <defs></defs>
    <g id="Page-1" stroke="none" stroke-width="1" fill="none" fill-rule="evenodd" sketch:type="MSPage">
        <g id="Artboard-5" sketch:type="MSArtboardGroup" transform="translate(-232.000000, -6213.000000)" fill="#1D252F">
            <g id="Votre-espace-à-vous-Copy-5-+-Vous-regroupez-votre-Copy-5-+-Shape" sketch:type="MSLayerGroup" transform="translate(70.000000, 6213.000000)">
                <path d="M295.063064,0 L180.936936,0 C170.478043,0 162,8.46238596 162,18.9019649 L162,73.0980351 C162,83.537614 170.478043,92 180.936936,92 L295.063064,92 C305.521957,92 314,83.537614 314,73.0980351 L314,18.9019649 C314,8.46238596 305.521957,0 295.063064,0 L295.063064,0 Z M254.170213,17.754386 L265.489362,17.754386 L265.489362,29.0526316 L254.170213,29.0526316 L254.170213,17.754386 L254.170213,17.754386 Z M254.170213,32.2807018 L265.489362,32.2807018 L265.489362,43.5789474 L254.170213,43.5789474 L254.170213,32.2807018 L254.170213,32.2807018 Z M254.170213,46.8070175 L265.489362,46.8070175 L265.489362,58.1052632 L254.170213,58.1052632 L254.170213,46.8070175 L254.170213,46.8070175 Z M239.617021,17.754386 L250.93617,17.754386 L250.93617,29.0526316 L239.617021,29.0526316 L239.617021,17.754386 L239.617021,17.754386 Z M239.617021,32.2807018 L250.93617,32.2807018 L250.93617,43.5789474 L239.617021,43.5789474 L239.617021,32.2807018 L239.617021,32.2807018 Z M239.617021,46.8070175 L250.93617,46.8070175 L250.93617,58.1052632 L239.617021,58.1052632 L239.617021,46.8070175 L239.617021,46.8070175 Z M225.06383,17.754386 L236.382979,17.754386 L236.382979,29.0526316 L225.06383,29.0526316 L225.06383,17.754386 L225.06383,17.754386 Z M225.06383,32.2807018 L236.382979,32.2807018 L236.382979,43.5789474 L225.06383,43.5789474 L225.06383,32.2807018 L225.06383,32.2807018 Z M225.06383,46.8070175 L236.382979,46.8070175 L236.382979,58.1052632 L225.06383,58.1052632 L225.06383,46.8070175 L225.06383,46.8070175 Z M210.510638,17.754386 L221.829787,17.754386 L221.829787,29.0526316 L210.510638,29.0526316 L210.510638,17.754386 L210.510638,17.754386 Z M210.510638,32.2807018 L221.829787,32.2807018 L221.829787,43.5789474 L210.510638,43.5789474 L210.510638,32.2807018 L210.510638,32.2807018 Z M210.510638,46.8070175 L221.829787,46.8070175 L221.829787,58.1052632 L210.510638,58.1052632 L210.510638,46.8070175 L210.510638,46.8070175 Z M195.957447,17.754386 L207.276596,17.754386 L207.276596,29.0526316 L195.957447,29.0526316 L195.957447,17.754386 L195.957447,17.754386 Z M195.957447,32.2807018 L207.276596,32.2807018 L207.276596,43.5789474 L195.957447,43.5789474 L195.957447,32.2807018 L195.957447,32.2807018 Z M195.957447,46.8070175 L207.276596,46.8070175 L207.276596,58.1052632 L195.957447,58.1052632 L195.957447,46.8070175 L195.957447,46.8070175 Z M192.723404,58.1052632 L181.404255,58.1052632 L181.404255,46.8070175 L192.723404,46.8070175 L192.723404,58.1052632 L192.723404,58.1052632 Z M192.723404,43.5789474 L181.404255,43.5789474 L181.404255,32.2807018 L192.723404,32.2807018 L192.723404,43.5789474 L192.723404,43.5789474 Z M192.723404,29.0526316 L181.404255,29.0526316 L181.404255,17.754386 L192.723404,17.754386 L192.723404,29.0526316 L192.723404,29.0526316 Z M280.042553,75.8596491 L195.957447,75.8596491 L195.957447,64.5614035 L280.042553,64.5614035 L280.042553,75.8596491 L280.042553,75.8596491 Z M280.042553,58.1052632 L268.723404,58.1052632 L268.723404,46.8070175 L280.042553,46.8070175 L280.042553,58.1052632 L280.042553,58.1052632 Z M280.042553,43.5789474 L268.723404,43.5789474 L268.723404,32.2807018 L280.042553,32.2807018 L280.042553,43.5789474 L280.042553,43.5789474 Z M280.042553,29.0526316 L268.723404,29.0526316 L268.723404,17.754386 L280.042553,17.754386 L280.042553,29.0526316 L280.042553,29.0526316 Z M294.595745,58.1052632 L283.276596,58.1052632 L283.276596,46.8070175 L294.595745,46.8070175 L294.595745,58.1052632 L294.595745,58.1052632 Z M294.595745,43.5789474 L283.276596,43.5789474 L283.276596,32.2807018 L294.595745,32.2807018 L294.595745,43.5789474 L294.595745,43.5789474 Z M294.595745,29.0526316 L283.276596,29.0526316 L283.276596,17.754386 L294.595745,17.754386 L294.595745,29.0526316 L294.595745,29.0526316 Z" id="Shape" sketch:type="MSShapeGroup"></path>
            </g>
        </g>
    </g>
</svg>