<?xml version="1.0" encoding="UTF-8" standalone="no"?>
<svg width="176px" height="150px" viewBox="0 0 176 150" version="1.1" xmlns="http://www.w3.org/2000/svg" xmlns:xlink="http://www.w3.org/1999/xlink" xmlns:sketch="http://www.bohemiancoding.com/sketch/ns">
    <!-- Generator: Sketch 3.4.4 (17249) - http://www.bohemiancoding.com/sketch -->
    <title>Shape</title>
    <desc>Created with Sketch.</desc>
    <defs></defs>
    <g id="Page-1" stroke="none" stroke-width="1" fill="none" fill-rule="evenodd" sketch:type="MSPage">
        <g id="Artboard-5" sketch:type="MSArtboardGroup" transform="translate(-246.000000, -4997.000000)" fill="#1D252F">
            <g id="Vos-membres-sont-aut-+-Vous-regroupez-votre-Copy-3-+-Shape" sketch:type="MSLayerGroup" transform="translate(70.000000, 4997.000000)">
                <path d="M313.824117,3.03931885 C308.661082,0.958517733 302.96639,-0.0628633749 296.746,0.00299253143 C293.086,0.0509925314 289.244,0.478992531 285.242,1.25899253 C281.216,2.04699253 277.278,3.02499253 273.43,4.20099253 L267.032,6.49099253 L273.65,4.77899253 C280.3,3.59099253 286.856,3.75499253 293.35,5.29499253 C297.976755,6.39330333 302.344163,8.11534443 306.484592,10.4809547 L303.218,13.7929925 C305.722487,13.5534462 308.322471,13.4082169 311.018855,13.3609252 C313.420827,14.9977162 315.665643,16.6654439 317.76,18.3629925 L316.801474,13.448066 C321.617586,13.7536881 326.266525,14.7387183 330.784,16.4009925 C337.044,18.7089925 342.602,22.2009925 347.482,26.8689925 L352.05,31.9509925 L347.984,26.5089925 C345.432,23.4009925 342.692,20.4029925 339.772,17.5229925 C336.87,14.6549925 333.904,12.1749925 330.88,10.1109925 C325.724,6.61299253 320.402,4.31099253 314.938,3.18899253 C314.664,3.13699253 314.398,3.09699253 314.124,3.04899253 C314.032,3.03499253 313.944,3.02299253 313.856,3.00699253 L313.824117,3.03931883 L313.824117,3.03931885 Z M251.152924,59.6023437 C244.793749,54.3016027 237.337279,49.9811098 228.78,46.6689925 C222.77,44.3549925 216.216,42.5509925 209.166,41.2149925 C202.078,39.8689925 195.002,38.9029925 187.95,38.3189925 L176,37.8829925 L187.928,39.4069925 C199.568,41.8029925 210.172,46.3449925 219.78,53.0989925 C228.04343,58.9133504 235.095978,65.9612939 241.005733,74.3458748 L237.986,88.2929925 C240.619924,86.2483725 243.38387,84.2305611 246.282106,82.2426621 C248.011147,84.9731886 249.625992,87.68166 251.13,90.3689925 L253.573128,77.4807802 C262.278195,72.0662163 271.522434,68.3277144 281.394,66.2009925 C292.866,63.7309925 304.408,63.6789925 316.056,66.0129925 L327.636,69.2629925 L316.464,65.0029925 C309.742,62.7909925 302.848,60.9229925 295.796,59.3949925 C288.784,57.8809925 282.044,56.9829925 275.606,56.7689925 C266.89581,56.4954573 258.740763,57.4472815 251.152924,59.6023437 L251.152924,59.6023437 Z M287.464,125.886993 C280.894,123.764993 274.304,122.174993 267.648,121.612993 C261.292,121.076993 254.608,121.392993 248.36,122.600993 C241.246,123.976993 234.108,126.552993 227.522,130.220993 C227.148,130.208993 226.776,130.192993 226.396,130.192993 C226.372,130.208993 226.344,130.226993 226.316,130.244993 C225.032,130.250993 223.71,130.312993 222.354,130.464993 C218.198,130.926993 214.074,131.932993 210.094,133.234993 C205.838,134.626993 201.646,136.264993 197.554,138.100993 C194.85,139.396993 193.518,140.048993 190.886,141.350993 C193.574,140.172993 194.928,139.594993 197.678,138.464993 C204.394,136.352993 210.588,135.018993 217.342,135.654993 C219.954,135.896993 222.552,136.754993 224.834,137.854993 C224.836,137.910993 224.836,137.944993 224.836,138.002993 C224.93,142.184993 224.97,144.292993 225.02,148.530993 C226.78,146.634993 228.762,144.664993 230.982,142.610993 C232.976,144.688993 234.666,146.964993 236.064,149.370993 C236.902,145.154993 237.336,143.028993 238.224,138.754993 C243.22,135.216993 248.674,132.330993 254.182,130.234993 C264.626,126.258993 275.408,125.256993 286.866,127.046993 C291.218,128.378993 293.374,129.132993 297.64,130.818993 C293.652,128.654993 291.612,127.668993 287.464,125.886993 Z" id="Shape" sketch:type="MSShapeGroup"></path>
            </g>
        </g>
    </g>
</svg>