<?xml version="1.0" encoding="UTF-8" standalone="no"?>
<svg width="118px" height="124px" viewBox="0 0 118 124" version="1.1" xmlns="http://www.w3.org/2000/svg" xmlns:xlink="http://www.w3.org/1999/xlink" xmlns:sketch="http://www.bohemiancoding.com/sketch/ns">
    <!-- Generator: Sketch 3.4.4 (17249) - http://www.bohemiancoding.com/sketch -->
    <title>Oval</title>
    <desc>Created with Sketch.</desc>
    <defs></defs>
    <g id="Page-1" stroke="none" stroke-width="1" fill="none" fill-rule="evenodd" sketch:type="MSPage">
        <g id="Artboard-5" sketch:type="MSArtboardGroup" transform="translate(-264.000000, -4440.000000)" fill="#1D252F">
            <g id="Ambiance-toujours-ze-+-Vous-regroupez-votre-Copy-2-+-Oval" sketch:type="MSLayerGroup" transform="translate(70.000000, 4440.000000)">
                <path d="M252.677126,33.3868104 C261.67148,33.3868104 268.962844,26.0954463 268.962844,17.101093 C268.962844,8.1067397 261.67148,0.815375684 252.677126,0.815375684 C243.682773,0.815375684 236.391409,8.1067397 236.391409,17.101093 C236.391409,26.0954463 243.682773,33.3868104 252.677126,33.3868104 Z M252.677126,118.269222 L290.933529,123.485662 C296.109882,124.188454 301.056982,121.099178 302.688059,116.133287 C304.319136,111.167396 302.171927,105.745505 297.584366,103.242516 L270.773064,88.6191943 L272.074668,67.7834981 L277.810999,80.0792147 C278.213131,80.936094 278.760582,81.7190612 279.429549,82.3867756 L297.484146,100.441372 C299.071377,102.028603 301.148432,102.821593 303.227993,102.821593 C305.308807,102.821593 307.385862,102.027351 308.973093,100.441372 C312.146302,97.2694157 312.146302,92.1243818 308.973093,88.9524252 L291.930716,71.9113011 L280.940362,48.1930329 C277.953812,42.174834 273.614295,38.3978003 267.120052,38.3978003 L238.234201,38.3978003 C231.739958,38.3978003 227.401693,42.174834 224.415143,48.1930329 L213.423537,71.8286198 L196.379907,88.9110845 C193.206698,92.0830411 193.206698,97.248119 196.379907,100.421328 C197.967138,102.008559 200.045446,102.812823 202.125007,102.812823 C204.204568,102.812823 206.282876,102.023592 207.870107,100.437614 L225.924704,82.3855228 C226.593671,81.7178084 227.141122,80.936094 227.542001,80.0792147 L233.279584,67.7834981 L234.582442,88.6204471 L207.77114,103.242516 C203.182326,105.745505 201.035117,111.167396 202.666194,116.133287 C204.297271,121.099178 209.243118,124.188454 214.420724,123.485662 L252.677126,118.269222 Z" id="Oval" sketch:type="MSShapeGroup"></path>
            </g>
        </g>
    </g>
</svg>