<?xml version="1.0" encoding="UTF-8" standalone="no"?>
<svg width="138px" height="140px" viewBox="0 0 138 140" version="1.1" xmlns="http://www.w3.org/2000/svg" xmlns:xlink="http://www.w3.org/1999/xlink" xmlns:sketch="http://www.bohemiancoding.com/sketch/ns">
    <!-- Generator: Sketch 3.4.4 (17249) - http://www.bohemiancoding.com/sketch -->
    <title>Oval</title>
    <desc>Created with Sketch.</desc>
    <defs></defs>
    <g id="Page-1" stroke="none" stroke-width="1" fill="none" fill-rule="evenodd" sketch:type="MSPage">
        <g id="Artboard-5" sketch:type="MSArtboardGroup" transform="translate(-252.000000, -5637.000000)" fill="#1D252F">
            <g id="Membres-No-limit-+-Vous-regroupez-votre-Copy-4-+-Oval" sketch:type="MSLayerGroup" transform="translate(70.000000, 5637.000000)">
                <path d="M300.134706,112.5321 L301.20992,112.5321 C303.6401,112.5321 305.60936,110.56284 305.60936,108.13266 L305.61074,108.13266 L305.61074,92.24058 C305.61074,89.8104 303.64148,87.84114 301.2113,87.84114 L287.13668,87.84114 C284.7065,87.84114 282.73724,89.8104 282.73724,92.24058 L282.73724,108.13266 C282.73724,110.56284 284.7065,112.5321 287.13668,112.5321 L288.211894,112.5321 C288.206276,112.611872 288.20342,112.692404 288.20342,112.7736 L288.20342,135.70644 C288.20342,137.5791 289.7228,139.09848 291.59546,139.09848 L296.75114,139.09848 C298.6238,139.09848 300.14318,137.5791 300.14318,135.70644 L300.14318,112.7736 C300.14318,112.692404 300.140324,112.611872 300.134706,112.5321 L300.134706,112.5321 Z M271.354798,112.5321 L272.42864,112.5321 C274.85882,112.5321 276.82808,110.56284 276.82808,108.13266 L276.82808,92.24058 C276.82808,89.8104 274.85882,87.84114 272.42864,87.84114 L258.35402,87.84114 C255.92384,87.84114 253.95458,89.8104 253.95458,92.24058 L253.95458,108.13266 C253.95458,110.56284 255.92384,112.5321 258.35402,112.5321 L259.430614,112.5321 C259.424996,112.611872 259.42214,112.692404 259.42214,112.7736 L259.42214,135.70644 C259.42214,137.5791 260.94152,139.09848 262.81418,139.09848 L267.96986,139.09848 C269.84252,139.09848 271.36328,137.5791 271.36328,135.70644 L271.36328,112.7736 C271.36328,112.692404 271.360421,112.611872 271.354798,112.5321 L271.354798,112.5321 Z M242.570773,112.5321 L243.64736,112.5321 C246.07616,112.5321 248.04542,110.56284 248.04542,108.13266 L248.04542,92.24058 C248.04542,89.8104 246.07616,87.84114 243.64736,87.84114 L229.57136,87.84114 C227.14118,87.84114 225.17192,89.8104 225.17192,92.24058 L225.17192,108.13266 C225.17192,110.56284 227.14256,112.5321 229.57136,112.5321 L230.647954,112.5321 C230.642336,112.611872 230.63948,112.692404 230.63948,112.7736 L230.63948,135.70644 C230.63948,137.5791 232.15886,139.09848 234.03152,139.09848 L239.1872,139.09848 C241.06124,139.09848 242.57924,137.5791 242.57924,135.70644 L242.57924,112.7736 C242.57924,112.692404 242.576386,112.611872 242.570773,112.5321 L242.570773,112.5321 Z M213.789486,112.5321 L214.8647,112.5321 C217.2935,112.5321 219.26276,110.56284 219.26276,108.13266 L219.26276,92.24058 C219.26276,89.8104 217.2935,87.84114 214.8647,87.84114 L200.7887,87.84114 C198.35852,87.84114 196.38926,89.8104 196.38926,92.24058 L196.38926,108.13266 C196.38926,110.56284 198.3599,112.5321 200.7887,112.5321 L201.865294,112.5321 C201.859676,112.611872 201.85682,112.692404 201.85682,112.7736 L201.85682,135.70644 C201.85682,137.5791 203.3762,139.09848 205.24886,139.09848 L210.40592,139.09848 C212.27858,139.09848 213.79796,137.5791 213.79796,135.70644 L213.79796,112.7736 C213.79796,112.692404 213.795104,112.611872 213.789486,112.5321 L213.789486,112.5321 Z M314.526823,40.26564 L315.60056,40.26564 C318.03074,40.26564 320,38.295 320,35.8662 L320,19.97274 C320,17.54256 318.03074,15.5733 315.60056,15.5733 L301.52594,15.5733 C299.09714,15.5733 297.1265,17.54256 297.1265,19.97274 L297.1265,35.8662 C297.1265,38.29638 299.09714,40.26564 301.52594,40.26564 L302.602426,40.26564 C302.59688,40.3449573 302.59406,40.4250283 302.59406,40.50576 L302.59406,63.4386 C302.59406,65.31126 304.11344,66.83064 305.9861,66.83064 L311.14316,66.83064 C313.01582,66.83064 314.5352,65.31126 314.5352,63.4386 L314.5352,40.50576 C314.5352,40.4250323 314.532376,40.3449612 314.526823,40.26564 L314.526823,40.26564 Z M285.745543,40.26564 L286.82066,40.26564 C289.24946,40.26564 291.21872,38.295 291.21872,35.8662 L291.21872,19.97274 C291.21872,17.54256 289.24946,15.5733 286.82066,15.5733 L272.74466,15.5733 C270.31586,15.5733 268.34522,17.54256 268.34522,19.97274 L268.34522,35.8662 C268.34522,38.29638 270.31586,40.26564 272.74466,40.26564 L273.821146,40.26564 C273.8156,40.3449573 273.81278,40.4250283 273.81278,40.50576 L273.81278,63.4386 C273.81278,65.31126 275.33216,66.83064 277.20482,66.83064 L282.36188,66.83064 C284.23454,66.83064 285.75392,65.31126 285.75392,63.4386 L285.75392,40.50576 C285.75392,40.4250323 285.751096,40.3449612 285.745543,40.26564 L285.745543,40.26564 Z M256.96151,40.26564 L258.038,40.26564 C260.4668,40.26564 262.43606,38.295 262.43606,35.8662 L262.43606,35.8662 L262.43606,19.97274 C262.43606,17.54256 260.4668,15.5733 258.038,15.5733 L243.962,15.5733 C241.53182,15.5733 239.56256,17.54256 239.56256,19.97274 L239.56256,35.8662 C239.56256,38.29638 241.5332,40.26564 243.962,40.26564 L245.038486,40.26564 C245.03294,40.3449573 245.03012,40.4250283 245.03012,40.50576 L245.03012,63.4386 C245.03012,65.31126 246.5495,66.83064 248.42216,66.83064 L253.57784,66.83064 C255.45188,66.83064 256.96988,65.31126 256.96988,63.4386 L256.96988,40.50576 C256.96988,40.4250323 256.967059,40.3449612 256.96151,40.26564 L256.96151,40.26564 Z M228.180223,40.26564 L229.25672,40.26564 C231.68552,40.26564 233.65478,38.295 233.65478,35.8662 L233.65478,19.97274 C233.65478,17.54256 231.68552,15.5733 229.25672,15.5733 L215.18072,15.5733 C212.75054,15.5733 210.78128,17.54256 210.78128,19.97274 L210.78128,35.8662 C210.78128,38.29638 212.75192,40.26564 215.18072,40.26564 L216.255826,40.26564 C216.25028,40.3449573 216.24746,40.4250283 216.24746,40.50576 L216.24746,63.4386 C216.24746,65.31126 217.76546,66.83064 219.6395,66.83064 L224.79656,66.83064 C226.66922,66.83064 228.1886,65.31126 228.1886,63.4386 L228.1886,40.50576 C228.1886,40.4250323 228.185776,40.3449612 228.180223,40.26564 L228.180223,40.26564 Z M199.39757,40.26564 L200.47406,40.26564 C202.90286,40.26564 204.87212,38.295 204.87212,35.8662 L204.8735,35.8662 L204.8735,19.97274 C204.8735,17.54256 202.90424,15.5733 200.47544,15.5733 L186.39944,15.5733 C183.96926,15.5733 182,17.54256 182,19.97274 L182,35.8662 C182,38.295 183.96926,40.26564 186.39806,40.26564 L187.474546,40.26564 C187.469,40.3449573 187.46618,40.4250283 187.46618,40.50576 L187.46618,63.4386 C187.46618,65.31126 188.98418,66.83064 190.85822,66.83064 L196.0139,66.83064 C197.88794,66.83064 199.40594,65.31126 199.40594,63.4386 L199.40594,40.50576 C199.40594,40.4250323 199.403119,40.3449612 199.39757,40.26564 L199.39757,40.26564 Z M193.43606,13.70616 C197.220912,13.70616 200.28914,10.6379316 200.28914,6.85308 C200.28914,3.06822843 197.220912,0 193.43606,0 C189.651208,0 186.58298,3.06822843 186.58298,6.85308 C186.58298,10.6379316 189.651208,13.70616 193.43606,13.70616 L193.43606,13.70616 Z M222.21872,13.70616 C226.003572,13.70616 229.0718,10.6379316 229.0718,6.85308 C229.0718,3.06822843 226.003572,0 222.21872,0 C218.433868,0 215.36564,3.06822843 215.36564,6.85308 C215.36564,10.6379316 218.433868,13.70616 222.21872,13.70616 L222.21872,13.70616 Z M251,13.70616 C254.784852,13.70616 257.85308,10.6379316 257.85308,6.85308 C257.85308,3.06822843 254.784852,0 251,0 C247.215148,0 244.14692,3.06822843 244.14692,6.85308 C244.14692,10.6379316 247.215148,13.70616 251,13.70616 L251,13.70616 Z M279.78266,13.70478 C283.566749,13.70478 286.63436,10.6371694 286.63436,6.85308 C286.63436,3.06899058 283.566749,0.00138 279.78266,0.00138 C275.998571,0.00138 272.93096,3.06899058 272.93096,6.85308 C272.93096,10.6371694 275.998571,13.70478 279.78266,13.70478 L279.78266,13.70478 Z M308.56394,13.70478 C312.348029,13.70478 315.41564,10.6371694 315.41564,6.85308 C315.41564,3.06899058 312.348029,0.00138 308.56394,0.00138 C304.779851,0.00138 301.71224,3.06899058 301.71224,6.85308 C301.71224,10.6371694 304.779851,13.70478 308.56394,13.70478 L308.56394,13.70478 Z M207.82808,85.97262 C211.612932,85.97262 214.68116,82.9043916 214.68116,79.11954 C214.68116,75.3346884 211.612932,72.26646 207.82808,72.26646 C204.043228,72.26646 200.975,75.3346884 200.975,79.11954 C200.975,82.9043916 204.043228,85.97262 207.82808,85.97262 L207.82808,85.97262 Z M236.60936,85.97262 C240.394212,85.97262 243.46244,82.9043916 243.46244,79.11954 C243.46244,75.3346884 240.394212,72.26646 236.60936,72.26646 C232.824508,72.26646 229.75628,75.3346884 229.75628,79.11954 C229.75628,82.9043916 232.824508,85.97262 236.60936,85.97262 L236.60936,85.97262 Z M265.39202,85.97262 C269.176872,85.97262 272.2451,82.9043916 272.2451,79.11954 C272.2451,75.3346884 269.176872,72.26646 265.39202,72.26646 C261.607168,72.26646 258.53894,75.3346884 258.53894,79.11954 C258.53894,82.9043916 261.607168,85.97262 265.39202,85.97262 L265.39202,85.97262 Z M294.1733,85.97262 C297.958152,85.97262 301.02638,82.9043916 301.02638,79.11954 C301.02638,75.3346884 297.958152,72.26646 294.1733,72.26646 C290.388448,72.26646 287.32022,75.3346884 287.32022,79.11954 C287.32022,82.9043916 290.388448,85.97262 294.1733,85.97262 L294.1733,85.97262 Z" id="Oval" sketch:type="MSShapeGroup"></path>
            </g>
        </g>
    </g>
</svg>