<?xml version="1.0" encoding="UTF-8" standalone="no"?>
<svg width="180px" height="89px" viewBox="0 0 180 89" version="1.1" xmlns="http://www.w3.org/2000/svg" xmlns:xlink="http://www.w3.org/1999/xlink" xmlns:sketch="http://www.bohemiancoding.com/sketch/ns">
    <!-- Generator: Sketch 3.4.4 (17249) - http://www.bohemiancoding.com/sketch -->
    <title>Shape</title>
    <desc>Created with Sketch.</desc>
    <defs></defs>
    <g id="Page-1" stroke="none" stroke-width="1" fill="none" fill-rule="evenodd" sketch:type="MSPage">
        <g id="Artboard-5" sketch:type="MSArtboardGroup" transform="translate(-242.000000, -3249.000000)" fill="#1D252F">
            <g id="Votre-espace-à-vous-+-Vous-regroupez-votre-+-Shape" sketch:type="MSLayerGroup" transform="translate(70.000000, 3249.000000)">
                <path d="M347,28.5908557 C344.25,28.5908557 338.818,31.7728557 334.93,35.6608557 L329.07,41.5208557 C325.182,45.4088557 317.5,48.5908557 312,48.5908557 L212,48.5908557 C206.5,48.5908557 198.818,45.4088557 194.928,41.5208557 L189.07,35.6608557 C185.182,31.7728557 179.75,28.5908557 177,28.5908557 C174.25,28.5908557 172,33.0908557 172,38.5908557 L172,68.5908557 C172,74.0908557 176.5,78.5908557 182,78.5908557 L192,78.5908557 L192,88.5908557 L202,88.5908557 L202,78.5908557 L322,78.5908557 L322,88.5908557 L332,88.5908557 L332,78.5908557 L342,78.5908557 C347.5,78.5908557 352,74.0908557 352,68.5908557 L352,38.5908557 C352,33.0908557 349.75,28.5908557 347,28.5908557 Z M194.928,38.5208557 C198.818,42.4088557 206.5,45.5908557 212,45.5908557 L252,45.5908557 C257.5,45.5908557 262,41.0908557 262,35.5908557 C262,41.0908557 266.5,45.5908557 272,45.5908557 L312,45.5908557 C317.5,45.5908557 325.182,42.4088557 329.07,38.5208557 L334.93,32.6608557 C338.818,28.7728557 342,21.0908557 342,15.5908557 L342,10.5908557 C342,5.09085569 337.5,0.590855692 332,0.590855692 L277,0.590855692 C271.5,0.590855692 265.876,1.71485569 264.5,3.09085569 C263.124,4.46685569 262,10.0908557 262,15.5908557 C262,10.0908557 260.876,4.46685569 259.5,3.09085569 C258.124,1.71485569 252.5,0.590855692 247,0.590855692 L192,0.590855692 C186.5,0.590855692 182,5.09085569 182,10.5908557 L182,15.5908557 C182,21.0908557 185.182,28.7728557 189.072,32.6608557 L194.928,38.5208557 Z" id="Shape" sketch:type="MSShapeGroup"></path>
            </g>
        </g>
    </g>
</svg>