<?xml version="1.0" encoding="UTF-8" standalone="no"?>
<svg width="90px" height="132px" viewBox="0 0 90 132" version="1.1" xmlns="http://www.w3.org/2000/svg" xmlns:xlink="http://www.w3.org/1999/xlink" xmlns:sketch="http://www.bohemiancoding.com/sketch/ns">
    <!-- Generator: Sketch 3.4.4 (17249) - http://www.bohemiancoding.com/sketch -->
    <title>Shape</title>
    <desc>Created with Sketch.</desc>
    <defs></defs>
    <g id="Page-1" stroke="none" stroke-width="1" fill="none" fill-rule="evenodd" sketch:type="MSPage">
        <g id="Artboard-5" sketch:type="MSArtboardGroup" transform="translate(-276.000000, -3827.000000)" fill="#1D252F">
            <g id="Gestion-d’accès-sans-+-Vous-regroupez-votre-Copy-+-Shape" sketch:type="MSLayerGroup" transform="translate(70.000000, 3827.000000)">
                <path d="M284.57,56.88 L284.57,55.35 L284.57,33.57 C284.57,15.03 269.54,5.68434189e-14 251,5.68434189e-14 C232.46,5.68434189e-14 217.43,15.03 217.43,33.57 L217.43,55.35 L217.43,56.88 C210.32,64.8 206,75.33 206,86.85 C206,111.69 226.16,131.85 251,131.85 C275.84,131.85 296,111.69 296,86.85 C296,75.33 291.68,64.8 284.57,56.88 L284.57,56.88 Z M226.52,33.93 C226.52,20.34 237.5,9.36 251.09,9.36 C264.68,9.36 275.66,20.34 275.66,33.93 L275.66,49.14 C268.64,44.55 260.18,41.85 251.09,41.85 C242,41.85 233.63,44.55 226.52,49.14 L226.52,33.93 L226.52,33.93 Z M255.41,102.69 C255.41,105.12 253.43,107.1 251,107.1 C248.57,107.1 246.59,105.12 246.59,102.69 L246.59,88.56 L246.59,85.41 C243.8,83.88 241.91,80.91 241.91,77.49 C241.91,75.87 242.36,74.43 243.08,73.08 C244.61,70.29 247.58,68.4 251.09,68.4 C254.51,68.4 257.48,70.29 259.1,73.08 C259.82,74.43 260.27,75.87 260.27,77.49 C260.27,80.91 258.38,83.88 255.59,85.41 L255.59,88.56 L255.59,102.69 L255.41,102.69 Z" id="Shape" sketch:type="MSShapeGroup"></path>
            </g>
        </g>
    </g>
</svg>