<?xml version="1.0" encoding="UTF-8" standalone="no"?>
<svg width="134px" height="151px" viewBox="0 0 134 151" version="1.1" xmlns="http://www.w3.org/2000/svg" xmlns:xlink="http://www.w3.org/1999/xlink" xmlns:sketch="http://www.bohemiancoding.com/sketch/ns">
    <!-- Generator: Sketch 3.4.4 (17249) - http://www.bohemiancoding.com/sketch -->
    <title>path11 + Shape</title>
    <desc>Created with Sketch.</desc>
    <defs></defs>
    <g id="Page-1" stroke="none" stroke-width="1" fill="none" fill-rule="evenodd" sketch:type="MSPage">
        <g id="Artboard-6-Copy-2" sketch:type="MSArtboardGroup" transform="translate(-412.000000, -1507.000000)">
            <g id="Group" sketch:type="MSLayerGroup" transform="translate(0.000000, 997.000000)">
                <g transform="translate(310.000000, 510.000000)" id="path11-+-Shape" sketch:type="MSShapeGroup">
                    <g transform="translate(112.000000, 0.000000)">
                        <path d="M91.8143527,12.6906026 C113.039555,28.7634958 120.005507,58.1263573 108.59767,82.0881755 C102.572799,94.9251961 92.3191451,104.279314 80.818479,109.789228 C79.2869487,110.640689 78.385058,112.202809 79.234037,113.734381 C81.2203588,118.699702 84.8072352,123.894827 88.8979687,125.215199 C77.9701841,127.931625 67.5585229,124.350415 60.7015129,117.614415 C58.9222642,115.89289 56.4320853,114.802322 54.0109307,114.79302 C42.8760729,114.265651 31.6844572,110.234134 22.036638,102.928274 C0.0721266837,85.7342642 -6.10160429,54.3988263 7.46740218,30.2962084 C23.9736868,-0.0947431537 63.9108347,-8.62656959 91.8143527,12.6906026 L91.8143527,12.6906026 L91.8143527,12.6906026 Z" id="path11" fill="#1D252F"></path>
                        <path d="M90.9697325,55.4744134 C90.8780657,55.1150797 90.5891321,54.839346 90.226865,54.7630793 L89.7831978,54.6706792 L89.7831978,48.4659388 L90.5069986,47.8470047 C90.7929989,47.6035378 90.9125324,47.2163374 90.8142656,46.8540703 C90.7159989,46.4918032 90.4175319,46.2182696 90.0479314,46.1515362 L85.9815935,45.413802 L85.9830602,40.1895294 L85.9815935,40.0817293 L86.7303277,39.4422619 C87.0155947,39.1980616 87.1358615,38.8108611 87.0375947,38.4493274 C86.9393279,38.086327 86.6408609,37.8127933 86.2712605,37.7460599 L53.4054232,31.8155865 C53.1502229,31.7686532 52.8884226,31.8265865 52.676489,31.9747201 L27.2099934,49.7353402 C26.7289262,50.0022739 24.9674575,51.2115419 25.0004576,54.5724124 C25.0378576,58.2222165 27.1975267,59.8795517 27.2899268,59.9484852 C27.3023935,59.9580185 27.3163269,59.9638852 27.3295269,59.9726852 C27.3515269,59.9880852 27.3735269,60.0020185 27.3962603,60.0152186 C27.4204603,60.0291519 27.4453937,60.0408853 27.4710604,60.0526186 C27.4937937,60.0636186 27.5165271,60.073152 27.5414605,60.081952 C27.5693272,60.0922186 27.5971939,60.099552 27.6257939,60.1068853 C27.6419272,60.1120187 27.6573273,60.1186187 27.6734606,60.1222853 L29.177529,60.437619 C28.9333287,61.1012865 28.7675952,61.9328874 28.7785952,62.9778886 C28.7969285,64.7862906 29.3359292,66.1048255 29.8866631,66.9840931 L28.7213951,67.7958941 C28.2373946,68.065761 26.4788592,69.2772291 26.513326,72.6329662 C26.5499927,76.2827704 28.7089284,77.9437723 28.8035286,78.009039 C28.8849286,78.0647724 29.0477288,78.1505725 29.1855957,78.1821059 L63.6625681,85.4164474 C63.6662348,85.4171807 63.6699015,85.4186474 63.6735682,85.4193807 L64.9048362,85.6775144 C64.9708363,85.6914477 65.038303,85.6980477 65.1043031,85.6980477 C65.3331034,85.6980477 65.5575036,85.6166476 65.7349705,85.4655808 L88.3942629,66.1099588 C88.6765965,65.8686919 88.7968633,65.4880914 88.7051966,65.129491 C88.6127965,64.7701573 88.3245961,64.4944236 87.9615957,64.4181569 L87.5567953,64.3338235 L87.5567953,59.1044175 L90.6580655,56.4556145 C90.9411325,56.2136142 91.0621326,55.8330138 90.9697325,55.4744134 L90.9697325,55.4744134 Z M63.4389012,59.0318174 C63.6684348,59.0318174 63.8928351,58.9504174 64.0703019,58.7986172 L84.049258,41.7331978 L84.049258,47.9122715 L63.2592343,65.5944249 L63.2592343,59.0127508 C63.3201011,59.0237508 63.3795012,59.0318174 63.4389012,59.0318174 L63.4389012,59.0318174 Z M28.7147951,51.7666759 L61.3114988,58.6064836 L61.3114988,65.1844911 L28.7147951,58.3586167 L28.7147951,51.7666759 L28.7147951,51.7666759 Z M30.2276635,76.4118372 L30.2276635,69.8250297 L62.8236339,76.6663041 L62.8236339,83.2531116 L30.2276635,76.4118372 L30.2276635,76.4118372 Z M32.5083328,66.7648262 L32.5083328,61.1364865 L62.1504331,67.3558936 C62.1540998,67.3566269 62.1570331,67.3580936 62.1606998,67.3588269 L63.3919678,67.6169605 C63.4587012,67.6308939 63.5254347,67.6374939 63.5914347,67.6374939 C63.820235,67.6374939 64.0453686,67.5560938 64.2228354,67.405027 L64.7618361,66.9437598 L65.0874364,67.0119598 L65.0874364,73.5965673 L32.5083328,66.7648262 L32.5083328,66.7648262 Z M85.6119931,65.9280919 L64.7787027,83.6637787 L64.7721027,77.0733046 C64.8315028,77.0850379 64.8916362,77.091638 64.9517696,77.091638 C65.1805699,77.091638 65.4049701,77.0109712 65.582437,76.859171 L66.6817049,75.9205033 L67.1679055,76.0224367 C67.2339055,76.0363701 67.3013723,76.0429701 67.366639,76.0429701 C67.5961726,76.0429701 67.8205729,75.96157 67.9980397,75.8105032 L85.6119931,60.7580861 L85.6119931,65.9280919 L85.6119931,65.9280919 Z M87.8735956,56.276681 L67.0432386,74.0065011 L67.0359053,67.4189603 C67.0960387,67.4299603 67.1554388,67.4372937 67.2148388,67.4372937 C67.4443724,67.4372937 67.6687727,67.3558936 67.8462396,67.2048267 L87.876529,50.094674 L87.8735956,56.276681 L87.8735956,56.276681 Z" id="Shape" fill="#FFFFFF"></path>
                    </g>
                </g>
            </g>
        </g>
    </g>
</svg>