<?xml version="1.0" encoding="UTF-8" standalone="no"?>
<svg width="88px" height="93px" viewBox="0 0 88 93" version="1.1" xmlns="http://www.w3.org/2000/svg" xmlns:xlink="http://www.w3.org/1999/xlink" xmlns:sketch="http://www.bohemiancoding.com/sketch/ns">
    <!-- Generator: Sketch 3.4.4 (17249) - http://www.bohemiancoding.com/sketch -->
    <title>path11 copy + Shape</title>
    <desc>Created with Sketch.</desc>
    <defs></defs>
    <g id="Page-1" stroke="none" stroke-width="1" fill="none" fill-rule="evenodd" sketch:type="MSPage">
        <g id="Artboard-6-Copy-2" sketch:type="MSArtboardGroup" transform="translate(-300.000000, -1634.000000)">
            <g id="Group" sketch:type="MSLayerGroup" transform="translate(0.000000, 997.000000)">
                <g transform="translate(310.000000, 510.000000)" id="path11-copy-+-Shape" sketch:type="MSShapeGroup">
                    <g transform="translate(0.000000, 127.000000)">
                        <path d="M38.1223348,0.290914191 C53.7940361,2.26347055 66.0820747,15.3540718 67.3286873,31.1345226 C68.0410373,39.562718 65.5478121,47.4529434 61.2737118,53.7292591 C60.7394492,54.6258756 60.7394492,55.7018154 61.6298868,56.2397853 C64.123112,58.2123417 67.5067748,59.8262514 70,59.2882815 C65.1916371,63.9506875 58.7804865,65.2059506 53.2597736,63.7713641 C51.8350735,63.4127175 50.2322858,63.5920408 48.9856732,64.3093341 C43.1087852,67.3578302 36.1633721,68.6130934 29.0398715,67.7164769 C12.6558201,65.3852739 0.189694081,51.0394095 0.0116065655,34.5416654 C-0.52265598,13.9194854 17.464183,-2.39893538 38.1223348,0.290914191 L38.1223348,0.290914191 L38.1223348,0.290914191 Z" id="path11-copy" fill="#1D252F"></path>
                        <path d="M17.5841748,31.6218149 L17.5841748,47.3604748 C17.5841748,47.7473746 17.8970414,48.0602412 18.2839412,48.0602412 L47.138151,48.0602412 C47.5245438,48.0602412 47.8374103,47.7473746 47.8374103,47.3604748 L47.8374103,31.6218149 L17.5841748,31.6218149 Z M47.7532355,27.4252446 L42.8959437,27.4252446 L40.4776929,30.3399239 L47.7532355,30.3399239 L47.7532355,27.4252446 Z M37.2126233,27.4252446 L34.7943725,30.3399239 L39.0396222,30.3399239 L41.424913,27.4252446 L37.2126233,27.4252446 Z M30.7833924,27.4252446 L28.3651416,30.3399239 L33.3557947,30.3399239 L35.7410855,27.4252446 L30.7833924,27.4252446 Z M25.4494481,27.4252446 L23.0311973,30.3399239 L26.9275779,30.3399239 L29.31439,27.4252446 L25.4494481,27.4252446 Z M22.1407699,23.7088764 C21.9496018,23.3813045 21.6691881,23.0532256 21.2827954,23.0532256 L18.1992594,23.0532256 C17.8128666,23.0532256 17.5,23.3660922 17.5,23.752485 L17.5,27.4247375 L17.5,28.0367796 L17.5,30.3399239 L21.5946478,30.3399239 L23.9814598,27.4252446 L24.7547525,26.4344159 L22.1407699,23.7088764 Z M34.8628279,20.4772738 L38.8834424,23.7646548 L42.6789147,23.1064687 L38.6583002,19.8185806 L34.8628279,20.4772738 Z M29.0659222,21.4828078 L33.0865367,24.7706959 L37.059486,24.081071 L33.0398856,20.7931829 L29.0659222,21.4828078 Z M47.9043445,21.2444815 L47.5559825,19.2329066 C47.467244,18.7192374 47.0996131,18.354649 46.7360388,18.4180336 L40.4817495,19.5031787 L44.5028712,22.7915738 L47.4074089,22.2875392 C47.7719974,22.2236475 47.9935901,21.7581506 47.9043445,21.2444815 Z M26.9686512,25.7300858 L31.2625803,25.0866049 L27.2414587,21.7987168 L24.1690784,22.3316549 C24.0636063,22.3504167 23.9748678,22.4097448 23.897285,22.4868205 L26.9686512,25.7300858 Z" id="Shape" fill="#FFFFFF"></path>
                    </g>
                </g>
            </g>
        </g>
    </g>
</svg>