<?xml version="1.0" encoding="UTF-8" standalone="no"?>
<svg width="170px" height="44px" viewBox="0 0 170 44" version="1.1" xmlns="http://www.w3.org/2000/svg" xmlns:xlink="http://www.w3.org/1999/xlink" xmlns:sketch="http://www.bohemiancoding.com/sketch/ns">
    <!-- Generator: Sketch 3.4.4 (17249) - http://www.bohemiancoding.com/sketch -->
    <title>Group</title>
    <desc>Created with Sketch.</desc>
    <defs></defs>
    <g id="Page-1" stroke="none" stroke-width="1" fill="none" fill-rule="evenodd" sketch:type="MSPage">
        <g id="Artboard-6" sketch:type="MSArtboardGroup" transform="translate(-235.000000, -81.000000)">
            <g id="Group" sketch:type="MSLayerGroup" transform="translate(238.000000, 84.000000)">
                <path d="M110.067358,18.1151399 L109.635359,23.252381 C109.001105,30.9428571 102.477348,36.9142857 94.7756906,36.9142857 C94.4132597,36.9142857 93.960221,36.8238095 93.5977901,36.8238095 C89.6348242,36.5539996 86.0299796,34.6749839 83.4952273,31.7199657 C82.97821,32.9405741 82.1228454,33.997587 81.0033149,34.7428571 C80.0972376,35.3761905 79.0099448,35.8285714 77.8320442,35.9190476 C77.560221,36.0095238 77.2883978,36.0095238 77.0165746,36.0095238 C75.1138122,36.0095238 73.3922652,35.2857143 72.0331492,33.9285714 L66.8685083,28.8619048 L67.0497238,30.0380952 C67.2309392,31.9380952 66.5966851,33.9285714 65.3281768,35.4666667 C64.0596685,37.0047619 62.1569061,37.9095238 60.1635359,37.9095238 L60.0729282,37.9095238 C56.4486188,37.9095238 53.4585635,35.1047619 53.0055249,31.4857143 L52.7247241,29.0764104 C49.9102641,34.2671658 44.4113161,37.8190476 38.0552486,37.8190476 C32.8634259,37.8190476 28.2434822,35.4206433 25.1913275,31.6984976 C23.1798813,34.3815064 20.1488578,36.1285981 16.4,36.552381 L9.06077348,37.3666667 L8.3359116,37.3666667 C5.07403315,37.3666667 2.3558011,34.9238095 1.99337017,31.7571429 L0.0906077348,15.0190476 C-0.0906077348,13.3904762 0.362430939,11.7619048 1.44972376,10.4047619 C2.53701657,9.04761905 4.07734807,8.23333333 5.70828729,8.05238095 L12.9569061,7.23809524 C13.5005525,7.14761905 14.0441989,7.14761905 14.5878453,7.14761905 C18.5923894,7.14761905 21.9655894,8.77622355 24.3065373,11.6731392 C27.3060455,7.3118166 32.3333376,4.43333333 38.0552486,4.43333333 C43.0249125,4.43333333 47.4705918,6.63087303 50.5188295,10.0834254 C50.291454,6.70944563 52.5961379,3.5872955 55.9049724,2.8047619 C56.4486188,2.71428571 56.9922652,2.62380952 57.5359116,2.62380952 C59.3480663,2.62380952 61.2508287,3.43809524 62.6099448,4.7952381 L67.6839779,9.77142857 L67.5933702,8.68571429 C67.1403315,4.97619048 69.5867403,1.53809524 73.120442,0.814285714 C73.5734807,0.723809524 74.1171271,0.633333333 74.5701657,0.633333333 C78.0477049,0.633333333 81.0864916,3.17440321 81.5276298,6.70439447 C82.6215737,4.35453663 85.0059657,2.71428571 87.7082873,2.71428571 C87.8895028,2.71428571 88.0707182,2.71428571 88.3425414,2.8047619 C90.2453039,2.8952381 91.8762431,3.8 93.0541436,5.15714286 C94.2320442,6.51428571 94.8662983,8.32380952 94.6850829,10.1333333 L93.6883978,21.9857143 C93.6883978,22.6190476 94.1414365,23.1619048 94.7756906,23.252381 L94.8662983,23.252381 C95.5005525,23.252381 95.9535912,22.8 96.0441989,22.1666667 L97.040884,10.3142857 C97.3127072,6.78571429 100.302762,3.98095238 103.836464,3.98095238 L104.38011,3.98095238 C107.076692,4.24365155 109.29586,6.03185378 110.20591,8.44585258 C111.243915,7.68289174 112.529615,7.23809524 113.893923,7.23809524 C114.528177,7.23809524 115.071823,7.32857143 115.61547,7.41904762 L127.485083,10.947619 C129.116022,11.4 130.565746,12.5761905 131.290608,14.1142857 C132.01547,15.652381 132.106077,17.4619048 131.471823,19.0904762 C130.565746,21.352381 128.300552,22.8904762 125.763536,22.8904762 C125.129282,22.8904762 124.495028,22.8 123.951381,22.6190476 L121.323757,31.5761905 C120.508287,34.2 118.152486,36.0095238 115.434254,36.0095238 C114.709392,36.0095238 113.893923,35.8285714 113.169061,35.5571429 C110.269613,34.3809524 108.729282,31.1238095 109.635359,28.047619 L112.262983,19.1809524 L112.172376,19.1809524 C111.413153,18.9703633 110.693199,18.6029231 110.067358,18.1151399 Z M144.066298,2.62380952 C136.092818,3.61904762 129.840884,10.2238095 129.20663,18.1857143 C128.844199,22.4380952 130.112707,26.4190476 132.287293,29.5857143 C132.559116,30.0380952 132.559116,30.5809524 132.106077,30.852381 C130.837569,31.847619 129.116022,32.6619048 127.847514,32.3904762 C130.293923,34.7428571 133.555801,35.3761905 136.364641,34.652381 C137.089503,34.4714286 137.904972,34.5619048 138.539227,34.9238095 C141.529282,36.4619048 145.062983,37.0952381 148.687293,36.6428571 C157.023204,35.4666667 163.365746,28.2285714 163.456354,19.9047619 C163.728177,9.5 154.576796,1.26666667 144.066298,2.62380952 L144.066298,2.62380952 Z" id="path27" stroke="#FFFFFF" stroke-width="3" fill="#1D252F" sketch:type="MSShapeGroup"></path>
                <path d="M144.066298,2.62380952 C136.092818,3.61904762 129.840884,10.2238095 129.20663,18.1857143 C128.844199,22.4380952 130.112707,26.4190476 132.287293,29.5857143 C132.559116,30.0380952 132.559116,30.5809524 132.106077,30.852381 C130.837569,31.847619 129.116022,32.6619048 127.847514,32.3904762 C130.293923,34.7428571 133.555801,35.3761905 136.364641,34.652381 C137.089503,34.4714286 137.904972,34.5619048 138.539227,34.9238095 C141.529282,36.4619048 145.062983,37.0952381 148.687293,36.6428571 C157.023204,35.4666667 163.365746,28.2285714 163.456354,19.9047619 C163.728177,9.5 154.576796,1.26666667 144.066298,2.62380952 L144.066298,2.62380952 Z" id="path11" fill="#FC2063" sketch:type="MSShapeGroup"></path>
                <path d="M108.185635,11.0380952 C107.551381,12.6666667 107.641989,14.4761905 108.366851,16.0142857 C109.091713,17.552381 110.541436,18.7285714 112.172376,19.1809524 L112.262983,19.1809524 L109.635359,28.047619 C108.729282,31.1238095 110.269613,34.3809524 113.169061,35.5571429 C113.893923,35.8285714 114.709392,36.0095238 115.434254,36.0095238 C118.152486,36.0095238 120.508287,34.2 121.323757,31.5761905 L123.951381,22.6190476 C124.495028,22.8 125.129282,22.8904762 125.763536,22.8904762 C128.300552,22.8904762 130.565746,21.352381 131.471823,19.0904762 C132.106077,17.4619048 132.01547,15.652381 131.290608,14.1142857 C130.565746,12.5761905 129.116022,11.4 127.485083,10.947619 L115.61547,7.41904762 C115.071823,7.32857143 114.528177,7.23809524 113.893923,7.23809524 C111.356906,7.23809524 109.091713,8.77619048 108.185635,11.0380952 Z" id="path19-path" fill="#1D252F" sketch:type="MSShapeGroup"></path>
                <path d="M156.38895,19.1809524 L152.039779,19.7238095 C152.40221,20.2666667 153.036464,20.5380952 153.761326,20.447619 L154.667403,20.3571429 C155.21105,20.2666667 155.664088,20.6285714 155.664088,21.1714286 C155.754696,21.7142857 155.392265,22.1666667 154.848619,22.1666667 L153.942541,22.2571429 C151.949171,22.5285714 150.046409,20.9904762 149.865193,19 C149.59337,17.0095238 151.133702,15.1095238 153.127072,14.9285714 C155.120442,14.6571429 157.023204,16.1952381 157.20442,18.1857143 C157.20442,18.6380952 156.841989,19.0904762 156.38895,19.1809524 L156.38895,19.1809524 Z" id="path11-path" fill="#FFFFFF" sketch:type="MSShapeGroup"></path>
                <path d="M153.308287,16.7380952 C152.583425,16.8285714 152.039779,17.2809524 151.858564,17.8238095 L155.029834,17.4619048 C154.576796,16.9190476 153.942541,16.647619 153.308287,16.7380952 L153.308287,16.7380952 Z" id="path9" fill="#FC2063" sketch:type="MSShapeGroup"></path>
                <path d="M18.7558011,21.4428571 C18.5745856,19.6333333 16.9436464,16.7380952 14.0441989,16.7380952 L13.5005525,16.7380952 L10.3292818,17.1904762 C9.78563536,17.2809524 9.42320442,17.7333333 9.42320442,18.2761905 L10.3292818,26.6904762 C10.4198895,27.2333333 10.7823204,27.5952381 11.3259669,27.5952381 L11.4165746,27.5952381 L14.5878453,27.2333333 C17.8497238,26.7809524 19.0276243,23.3428571 18.7558011,21.4428571 L18.7558011,21.4428571 Z" id="path25" fill="#FFFFFF" sketch:type="MSShapeGroup"></path>
                <path d="M15.040884,22.6190476 C15.040884,22.7095238 14.9502762,22.8 14.9502762,22.8904762 C14.9502762,22.9809524 14.8596685,23.0714286 14.8596685,23.1619048 C14.7690608,23.252381 14.7690608,23.3428571 14.678453,23.3428571 L14.5878453,23.4333333 L14.4972376,23.4333333 C14.4972376,23.4333333 14.4066298,23.4333333 14.4066298,23.5238095 L14.3160221,23.5238095 L13.681768,23.6142857 L13.319337,20.447619 L13.8629834,20.3571429 L13.9535912,20.3571429 C14.4972376,20.3571429 15.040884,21.352381 15.1314917,21.8047619 C15.2220994,21.9857143 15.1314917,22.2571429 15.040884,22.6190476 L15.040884,22.6190476 Z" id="path25-path" fill="#FFFFFF" sketch:type="MSShapeGroup"></path>
                <path d="M18.7558011,21.4428571 C18.5745856,19.6333333 16.9436464,16.7380952 14.0441989,16.7380952 L13.5005525,16.7380952 L10.3292818,17.1904762 C9.78563536,17.2809524 9.42320442,17.7333333 9.42320442,18.2761905 L10.3292818,26.6904762 C10.4198895,27.2333333 10.7823204,27.5952381 11.3259669,27.5952381 L11.4165746,27.5952381 L14.5878453,27.2333333 C17.8497238,26.7809524 19.0276243,23.3428571 18.7558011,21.4428571 L18.7558011,21.4428571 Z" id="path25-path" fill="#FFFFFF" sketch:type="MSShapeGroup"></path>
                <path d="M15.040884,22.6190476 C15.040884,22.7095238 14.9502762,22.8 14.9502762,22.8904762 C14.9502762,22.9809524 14.8596685,23.0714286 14.8596685,23.1619048 C14.7690608,23.252381 14.7690608,23.3428571 14.678453,23.3428571 L14.5878453,23.4333333 L14.4972376,23.4333333 C14.4972376,23.4333333 14.4066298,23.4333333 14.4066298,23.5238095 L14.3160221,23.5238095 L13.681768,23.6142857 L13.319337,20.447619 L13.8629834,20.3571429 L13.9535912,20.3571429 C14.4972376,20.3571429 15.040884,21.352381 15.1314917,21.8047619 C15.2220994,21.9857143 15.1314917,22.2571429 15.040884,22.6190476 L15.040884,22.6190476 Z" id="path25-path" fill="#FFFFFF" sketch:type="MSShapeGroup"></path>
                <path d="M18.7558011,21.4428571 C18.5745856,19.6333333 16.9436464,16.7380952 14.0441989,16.7380952 L13.5005525,16.7380952 L10.3292818,17.1904762 C9.78563536,17.2809524 9.42320442,17.7333333 9.42320442,18.2761905 L10.3292818,26.6904762 C10.4198895,27.2333333 10.7823204,27.5952381 11.3259669,27.5952381 L11.4165746,27.5952381 L14.5878453,27.2333333 C17.8497238,26.7809524 19.0276243,23.3428571 18.7558011,21.4428571 L18.7558011,21.4428571 Z" id="path25-path" fill="#FFFFFF" sketch:type="MSShapeGroup"></path>
                <path d="M15.040884,22.6190476 C15.040884,22.7095238 14.9502762,22.8 14.9502762,22.8904762 C14.9502762,22.9809524 14.8596685,23.0714286 14.8596685,23.1619048 C14.7690608,23.252381 14.7690608,23.3428571 14.678453,23.3428571 L14.5878453,23.4333333 L14.4972376,23.4333333 C14.4972376,23.4333333 14.4066298,23.4333333 14.4066298,23.5238095 L14.3160221,23.5238095 L13.681768,23.6142857 L13.319337,20.447619 L13.8629834,20.3571429 L13.9535912,20.3571429 C14.4972376,20.3571429 15.040884,21.352381 15.1314917,21.8047619 C15.2220994,21.9857143 15.1314917,22.2571429 15.040884,22.6190476 L15.040884,22.6190476 Z" id="path25-path" fill="#FFFFFF" sketch:type="MSShapeGroup"></path>
                <path d="M15.8563536,33.0238095 L8.60773481,33.8380952 L8.3359116,33.8380952 C6.97679558,33.8380952 5.79889503,32.8428571 5.61767956,31.3952381 L3.62430939,14.6571429 C3.44309392,13.1190476 4.53038674,11.852381 6.07071823,11.6714286 L13.319337,10.8571429 C13.7723757,10.8571429 14.1348066,10.7666667 14.4972376,10.7666667 C19.6618785,10.7666667 23.2861878,14.6571429 24.0110497,20.9 C24.8265193,27.5952381 21.5646409,32.3 15.8563536,33.0238095 L15.8563536,33.0238095 Z" id="path27-path" fill="#FFFFFF" sketch:type="MSShapeGroup"></path>
                <path d="M22.3801105,21.0809524 C21.9270718,17.1904762 18.6651934,13.2095238 14.0441989,13.2095238 C13.7723757,13.2095238 13.4099448,13.2095238 13.1381215,13.3 L9.87624309,13.5714286 C8.60773481,13.752381 7.52044199,14.2952381 6.79558011,15.2904762 C6.07071823,16.2857143 5.70828729,17.4619048 5.79889503,18.6380952 L6.70497238,27.052381 C6.97679558,29.4047619 8.97016575,31.1238095 11.3259669,31.1238095 L11.8696133,31.1238095 L15.040884,30.7619048 C20.4773481,30.1285714 22.7425414,24.7 22.3801105,21.0809524 L22.3801105,21.0809524 Z" id="path29" sketch:type="MSShapeGroup"></path>
                <path d="M14.678453,27.1428571 L11.5071823,27.5047619 L11.4165746,27.5047619 C10.9635359,27.5047619 10.5104972,27.1428571 10.4198895,26.6 L9.51381215,18.1857143 C9.42320442,17.6428571 9.87624309,17.1904762 10.4198895,17.1 L13.5911602,16.7380952 L14.1348066,16.7380952 C17.0342541,16.7380952 18.6651934,19.5428571 18.8464088,21.4428571 C19.0276243,23.3428571 17.8497238,26.7809524 14.678453,27.1428571 L14.678453,27.1428571 Z" id="path29-path" sketch:type="MSShapeGroup"></path>
                <path d="M18.7558011,21.4428571 C18.5745856,19.6333333 16.9436464,16.7380952 14.0441989,16.7380952 L13.5005525,16.7380952 L10.3292818,17.1904762 C9.78563536,17.2809524 9.42320442,17.7333333 9.42320442,18.2761905 L10.3292818,26.6904762 C10.4198895,27.2333333 10.7823204,27.5952381 11.3259669,27.5952381 L11.4165746,27.5952381 L14.5878453,27.2333333 C17.8497238,26.7809524 19.0276243,23.3428571 18.7558011,21.4428571 L18.7558011,21.4428571 Z" id="path31" fill="#1D252F" sketch:type="MSShapeGroup"></path>
                <path d="M38.0552486,8.05238095 C45.3038674,8.05238095 51.1027624,13.9333333 51.1027624,21.0809524 C51.1027624,28.2285714 45.3038674,34.2 38.0552486,34.2 C30.8066298,34.2 25.0077348,28.3190476 25.0077348,21.1714286 C25.0077348,14.0238095 30.8066298,8.05238095 38.0552486,8.05238095 L38.0552486,8.05238095 Z" id="path37" fill="#FFFFFF" sketch:type="MSShapeGroup"></path>
                <path d="M38.0552486,15.0190476 C34.7027624,15.0190476 31.8939227,17.7333333 31.8939227,21.1714286 C31.8939227,24.5190476 34.6121547,27.3238095 38.0552486,27.3238095 C41.4983425,27.3238095 44.2165746,24.6095238 44.2165746,21.1714286 C44.2165746,17.7333333 41.4077348,15.0190476 38.0552486,15.0190476 L38.0552486,15.0190476 L38.0552486,15.0190476 Z" id="path41-path" fill="#1D252F" sketch:type="MSShapeGroup"></path>
                <path d="M74.5701657,4.25238095 C76.2917127,4.25238095 77.8320442,5.51904762 78.0132597,7.32857143 L80.4596685,28.3190476 C80.640884,29.5857143 80.0972376,30.9428571 79.0099448,31.6666667 C78.5569061,32.0285714 78.0132597,32.2095238 77.4696133,32.2095238 L77.1071823,32.2095238 C76.201105,32.2095238 75.3856354,31.847619 74.6607735,31.2142857 L64.7845304,21.7142857 C64.5127072,21.4428571 64.1502762,21.352381 63.878453,21.352381 C63.1535912,21.352381 62.4287293,21.9857143 62.519337,22.8904762 L63.4254144,30.4904762 C63.6972376,32.4809524 62.1569061,34.2904762 60.0729282,34.2904762 C60.0729282,34.2904762 60.0729282,34.2904762 59.9823204,34.2904762 C58.1701657,34.2904762 56.720442,32.8428571 56.5392265,31.1238095 L54.0928177,10.1333333 C53.9116022,8.41428571 54.998895,6.78571429 56.720442,6.42380952 C56.9922652,6.33333333 57.2640884,6.33333333 57.4453039,6.33333333 C58.3513812,6.33333333 59.3480663,6.78571429 59.9823204,7.41904762 L69.5867403,16.9190476 C69.8585635,17.1904762 70.2209945,17.2809524 70.5834254,17.2809524 C71.3082873,17.2809524 72.0331492,16.647619 71.9425414,15.7428571 L71.1270718,8.32380952 C70.9458564,6.51428571 72.0331492,4.7952381 73.8453039,4.43333333 C74.0265193,4.25238095 74.2983425,4.25238095 74.5701657,4.25238095 L74.5701657,4.25238095 Z" id="path45" fill="#FFFFFF" sketch:type="MSShapeGroup"></path>
                <path d="M148.506077,22.8904762 C147.962431,22.9809524 147.509392,22.6190476 147.509392,22.0761905 L147.146961,18.8190476 C147.056354,18.0952381 146.331492,17.552381 145.60663,17.6428571 C144.881768,17.7333333 144.338122,18.4571429 144.338122,19.1809524 L144.700552,22.4380952 C144.79116,22.9809524 144.428729,23.4333333 143.885083,23.4333333 C143.341436,23.5238095 142.888398,23.1619048 142.888398,22.6190476 L142.525967,19.3619048 C142.435359,18.6380952 141.710497,18.0952381 140.985635,18.0952381 C140.260773,18.1857143 139.717127,18.9095238 139.807735,19.6333333 L140.170166,22.8904762 C140.260773,23.4333333 139.898343,23.8857143 139.354696,23.8857143 C138.81105,23.9761905 138.358011,23.6142857 138.358011,23.0714286 L137.99558,19.8142857 C137.814365,18.0047619 139.082873,16.4666667 140.80442,16.1952381 C141.710497,16.1047619 142.616575,16.3761905 143.250829,16.9190476 C143.794475,16.2857143 144.519337,15.8333333 145.425414,15.652381 C147.237569,15.4714286 148.777901,16.7380952 149.049724,18.4571429 L149.412155,21.7142857 C149.412155,22.347619 149.049724,22.8 148.506077,22.8904762 L148.506077,22.8904762 Z" id="path11-path" fill="#FFFFFF" sketch:type="MSShapeGroup"></path>
                <path d="M136.727072,24.247619 C136.183425,24.3380952 135.730387,23.9761905 135.730387,23.4333333 C135.730387,22.8904762 136.00221,22.4380952 136.545856,22.4380952 C137.089503,22.347619 137.542541,22.7095238 137.542541,23.252381 C137.542541,23.7047619 137.18011,24.1571429 136.727072,24.247619 L136.727072,24.247619 Z" id="path11-path" fill="#FFFFFF" sketch:type="MSShapeGroup"></path>
                <path d="M113.893923,10.8571429 C114.165746,10.8571429 114.437569,10.8571429 114.618785,10.947619 L126.488398,14.4761905 C127.938122,14.9285714 128.662983,16.4666667 128.119337,17.8238095 C127.756906,18.8190476 126.760221,19.3619048 125.763536,19.3619048 C125.491713,19.3619048 125.21989,19.3619048 125.038674,19.2714286 L122.501657,18.547619 L122.229834,18.547619 C121.776796,18.547619 121.414365,18.8190476 121.233149,19.2714286 L117.880663,30.7619048 C117.518232,31.847619 116.521547,32.5714286 115.434254,32.5714286 C115.162431,32.5714286 114.8,32.4809524 114.528177,32.3904762 C113.350276,31.9380952 112.716022,30.4904762 113.078453,29.2238095 L116.430939,17.9142857 C116.612155,17.3714286 116.249724,16.8285714 115.796685,16.647619 L113.169061,15.9238095 C111.719337,15.4714286 110.994475,13.9333333 111.538122,12.5761905 C111.900552,11.4904762 112.897238,10.8571429 113.893923,10.8571429 L113.893923,10.8571429 Z" id="path19" fill="#FFFFFF" sketch:type="MSShapeGroup"></path>
                <path d="M87.7082873,6.33333333 L87.9801105,6.33333333 C89.7922652,6.51428571 91.0607735,8.05238095 90.9701657,9.77142857 L89.9734807,21.6238095 C89.7922652,24.247619 91.6950276,26.6 94.3226519,26.7809524 L94.6850829,26.7809524 C97.1314917,26.7809524 99.2154696,24.8809524 99.4872928,22.347619 L100.483978,10.4952381 C100.665193,8.77619048 102.024309,7.50952381 103.745856,7.50952381 L104.01768,7.50952381 C105.829834,7.69047619 107.098343,9.22857143 107.007735,10.947619 L106.01105,22.9809524 C105.558011,28.8619048 100.574586,33.2952381 94.7756906,33.2952381 L93.8696133,33.2952381 C87.7082873,32.752381 83.0872928,27.3238095 83.5403315,21.1714286 L84.5370166,9.31904762 C84.6276243,7.6 86.0773481,6.33333333 87.7082873,6.33333333 L87.7082873,6.33333333 Z" id="path15" fill="#FFFFFF" sketch:type="MSShapeGroup"></path>
            </g>
        </g>
    </g>
</svg>