<?xml version="1.0" encoding="UTF-8" standalone="no"?>
<svg width="88px" height="98px" viewBox="0 0 88 98" version="1.1" xmlns="http://www.w3.org/2000/svg" xmlns:xlink="http://www.w3.org/1999/xlink" xmlns:sketch="http://www.bohemiancoding.com/sketch/ns">
    <!-- Generator: Sketch 3.4.4 (17249) - http://www.bohemiancoding.com/sketch -->
    <title>path11 copy 2 + Shape</title>
    <desc>Created with Sketch.</desc>
    <defs></defs>
    <g id="Page-1" stroke="none" stroke-width="1" fill="none" fill-rule="evenodd" sketch:type="MSPage">
        <g id="Artboard-6-Copy-2" sketch:type="MSArtboardGroup" transform="translate(-798.000000, -1532.000000)">
            <g id="Group" sketch:type="MSLayerGroup" transform="translate(0.000000, 997.000000)">
                <g transform="translate(310.000000, 510.000000)" id="path11-copy-2-+-Shape" sketch:type="MSShapeGroup">
                    <g transform="translate(498.000000, 25.000000)">
                        <path d="M17.6654349,4.55060891 C3.87381904,12.250254 -2.61562635,28.9908284 2.1399955,44.0891969 C4.63677356,52.1705346 9.90418219,58.5522456 16.2182083,62.770438 C17.0494463,63.401628 17.4525005,64.3992221 16.8284282,65.2315829 C15.2556827,67.9944839 12.7229864,70.7584173 10.2097812,71.1935989 C16.4145856,73.715262 22.8291307,72.4774624 27.4104411,69.0792416 C28.5970487,68.2130082 30.1503032,67.778859 31.5748451,67.9769324 C38.1657875,68.6019279 45.0756922,67.16399 51.3446085,63.6641514 C65.6623524,55.3651239 71.8466879,37.3939771 65.831644,22.0308224 C58.601799,2.71013172 35.8117043,-5.68205604 17.6654349,4.55060891 L17.6654349,4.55060891 L17.6654349,4.55060891 Z" id="path11-copy-2" fill="#1D252F"></path>
                        <path d="M53.0957968,46.0472014 C51.7216013,47.0429814 49.575343,46.9692023 48.2539829,45.7125774 C46.8517037,44.3793174 45.9825381,42.7656967 44.6668898,41.153504 C44.0428613,40.3900092 43.4512004,39.9587583 42.0394013,40.4242808 C39.2657826,41.3405698 36.2693985,41.5595271 33.392013,41.4957439 C31.049645,41.4771801 28.4226325,41.3734134 25.6485378,40.4585523 C24.2372147,39.9925539 23.6455538,40.4233288 23.0220012,41.1877756 C21.705877,42.7994923 20.8371874,44.412161 19.4344322,45.746373 C18.1140241,47.0020459 15.9672898,47.076777 14.5926183,46.080045 C12.6339017,44.661106 12.1888471,43.4520805 12.6891171,41.5571472 C13.4749837,38.5788509 15.0029253,32.6098824 15.7611843,29.6239702 C17.2691342,23.6873693 18.6285739,22.7201489 23.956378,22.4593041 C25.1877753,22.3993288 26.79616,22.3912369 27.8209757,24.0586449 C28.2741223,24.796436 29.0423771,24.6783895 29.7625565,24.6769615 L37.9258586,24.6769615 C38.646514,24.6783895 39.4133408,24.7631164 39.8679154,24.0253253 C40.8917791,22.3579173 42.4996878,22.3650572 43.7315611,22.4255085 C49.0593652,22.6868293 50.4254688,23.6516698 51.9272308,29.5906506 C52.9330068,33.5718669 53.8578637,37.3060421 54.999298,41.5233516 C55.5119439,43.4159049 55.0549893,44.6277864 53.0957968,46.0472014 L53.0957968,46.0472014 Z M27.2588265,30.7406528 L25.1178041,30.7406528 L25.1178041,28.5996305 C25.1178041,27.969414 24.6065863,27.4581961 23.9763698,27.4581961 L23.0886404,27.4581961 C22.457948,27.4581961 21.9472061,27.969414 21.9472061,28.5996305 L21.9472061,30.7406528 L19.8061838,30.7406528 C19.1759673,30.7406528 18.6647495,31.2513947 18.6647495,31.8820871 L18.6647495,32.7698165 C18.6647495,33.4000329 19.1759673,33.9112508 19.8061838,33.9112508 L21.9472061,33.9112508 L21.9472061,36.0527491 C21.9472061,36.6829656 22.458424,37.1932315 23.0886404,37.1932315 L23.9763698,37.1932315 C24.6065863,37.1932315 25.1178041,36.6829656 25.1178041,36.0527491 L25.1178041,33.9112508 L27.2588265,33.9112508 C27.8890429,33.9112508 28.3997848,33.4000329 28.3997848,32.7698165 L28.3997848,31.8825631 C28.3997848,31.2518707 27.8890429,30.7406528 27.2588265,30.7406528 L27.2588265,30.7406528 Z M43.316018,27.4048848 C42.1322202,27.4048848 41.1711877,28.3654413 41.1711877,29.5497151 C41.1711877,30.7335129 42.1322202,31.6935934 43.316018,31.6935934 C44.5002918,31.6935934 45.4613243,30.7335129 45.4613243,29.5497151 C45.4608483,28.3654413 44.5002918,27.4048848 43.316018,27.4048848 L43.316018,27.4048848 Z M40.1934955,32.7712445 C39.0101736,32.7712445 38.0496171,33.731325 38.0496171,34.9151228 C38.0496171,36.0993966 39.0101736,37.0599531 40.1934955,37.0599531 C41.3777693,37.0599531 42.3383257,36.0993966 42.3383257,34.9151228 C42.3383257,33.731325 41.3777693,32.7712445 40.1934955,32.7712445 L40.1934955,32.7712445 Z M46.4385406,32.7712445 C45.2533148,32.7712445 44.2946623,33.731325 44.2946623,34.9151228 C44.2946623,36.0993966 45.2533148,37.0599531 46.4385406,37.0599531 C47.6228144,37.0599531 48.5824189,36.0993966 48.5824189,34.9151228 C48.5824189,33.731325 47.6228144,32.7712445 46.4385406,32.7712445 L46.4385406,32.7712445 Z" id="Shape" fill="#FFFFFF"></path>
                    </g>
                </g>
            </g>
        </g>
    </g>
</svg>