<?xml version="1.0" encoding="UTF-8" standalone="no"?>
<svg width="173px" height="182px" viewBox="0 0 173 182" version="1.1" xmlns="http://www.w3.org/2000/svg" xmlns:xlink="http://www.w3.org/1999/xlink" xmlns:sketch="http://www.bohemiancoding.com/sketch/ns">
    <!-- Generator: Sketch 3.4.4 (17249) - http://www.bohemiancoding.com/sketch -->
    <title>path11 copy 3 + Group</title>
    <desc>Created with Sketch.</desc>
    <defs></defs>
    <g id="Page-1" stroke="none" stroke-width="1" fill="none" fill-rule="evenodd" sketch:type="MSPage">
        <g id="Artboard-6-Copy-2" sketch:type="MSArtboardGroup" transform="translate(-928.000000, -1507.000000)">
            <g id="Group" sketch:type="MSLayerGroup" transform="translate(0.000000, 997.000000)">
                <g transform="translate(310.000000, 510.000000)" id="path11-copy-3-+-Group" sketch:type="MSShapeGroup">
                    <g transform="translate(628.000000, 0.000000)">
                        <path d="M48.8131135,5.61244876 C15.5642923,18.4764337 -4.22216067,53.7652927 1.63732027,88.8973424 C4.66487643,107.686467 14.4201203,123.550703 27.1971616,134.919056 C28.8552981,136.584783 29.4409582,138.933737 27.7836445,140.59444 C23.396952,146.262288 16.8648957,151.633377 11.1116629,151.820331 C24.1803003,159.373516 38.904606,158.61314 50.2146176,152.466603 C53.1396277,150.905657 56.7474966,150.421944 59.8681381,151.307198 C74.3984578,154.753481 90.2928499,153.701369 105.40595,147.854103 C140.019667,133.818153 159.512878,95.6916021 150.922785,59.5770533 C140.867718,14.2636883 92.5923,-11.5403686 48.8131135,5.61244876 L48.8131135,5.61244876 L48.8131135,5.61244876 Z" id="path11-copy-3" fill="#1D252F"></path>
                        <g id="Group" transform="translate(46.000000, 45.000000)" fill="#FFFFFF">
                            <path d="M29.64321,37.4099545 L29.64321,41.7210682 L14.2,35.0786136 L14.2,31.3924318 L29.64321,24.7506818 L29.64321,29.0920909 L18.88245,33.2059318 L29.64321,37.4099545 L29.64321,37.4099545 Z" id="Shape"></path>
                            <path d="M39.192,24.6590909 L34.89295,42.2234091 C34.75024,42.8018409 34.62528,43.2597955 34.51736,43.5944545 C34.41015,43.9298182 34.24614,44.1926136 34.02675,44.3779091 C33.80665,44.5667273 33.48644,44.6597273 33.06683,44.6597273 C32.02313,44.6597273 31.50057,44.2116364 31.50057,43.3196818 C31.50057,43.0857727 31.60352,42.5024091 31.808,41.5681818 L36.09143,24.0038636 C36.3165,23.0696364 36.53092,22.4299091 36.7354,22.0846818 C36.94059,21.7394545 37.33961,21.5668409 37.93388,21.5668409 C38.44579,21.5668409 38.83629,21.6887273 39.10751,21.9325 C39.37873,22.1762727 39.51434,22.5116364 39.51434,22.9378864 C39.51434,23.2528182 39.40642,23.8263182 39.192,24.6590909 L39.192,24.6590909 Z" id="Shape"></path>
                            <path d="M56.8,35.0786136 L41.35679,41.7513636 L41.35679,37.44025 L52.14879,33.2362273 L41.35679,29.0920909 L41.35679,24.8112727 L56.8,31.4227273 L56.8,35.0786136 L56.8,35.0786136 Z" id="Shape"></path>
                            <path d="M66.74,0 L4.26,0 C1.90777,0 0,1.89311364 0,4.22727273 L0,57.7727273 C0,60.1068864 1.90777,62 4.26,62 L66.74,62 C69.09294,62 71,60.1061818 71,57.7727273 L71,4.22727273 C71,1.89240909 69.09294,0 66.74,0 L66.74,0 Z M56.09,2.81818182 C57.65555,2.81818182 58.93,4.08213636 58.93,5.63636364 C58.93,7.19059091 57.65555,8.45454545 56.09,8.45454545 C54.52445,8.45454545 53.25,7.19059091 53.25,5.63636364 C53.25,4.08213636 54.52445,2.81818182 56.09,2.81818182 L56.09,2.81818182 Z M48.28,2.81818182 C49.84555,2.81818182 51.12,4.08213636 51.12,5.63636364 C51.12,7.19059091 49.84555,8.45454545 48.28,8.45454545 C46.71445,8.45454545 45.44,7.19059091 45.44,5.63636364 C45.44,4.08213636 46.71445,2.81818182 48.28,2.81818182 L48.28,2.81818182 Z M66.74,57.7727273 L4.26,57.7727273 L4.26,11.2727273 L66.74,11.2727273 L66.74,57.7727273 L66.74,57.7727273 Z M63.9,8.45454545 C62.33445,8.45454545 61.06,7.19059091 61.06,5.63636364 C61.06,4.08213636 62.33445,2.81818182 63.9,2.81818182 C65.46555,2.81818182 66.74,4.08213636 66.74,5.63636364 C66.74,7.19059091 65.46555,8.45454545 63.9,8.45454545 L63.9,8.45454545 Z" id="Shape"></path>
                        </g>
                    </g>
                </g>
            </g>
        </g>
    </g>
</svg>