<?xml version="1.0" encoding="UTF-8" standalone="no"?>
<!-- Generator: Adobe Illustrator 18.0.0, SVG Export Plug-In . SVG Version: 6.00 Build 0)  -->

<svg
   xmlns:dc="http://purl.org/dc/elements/1.1/"
   xmlns:cc="http://creativecommons.org/ns#"
   xmlns:rdf="http://www.w3.org/1999/02/22-rdf-syntax-ns#"
   xmlns:svg="http://www.w3.org/2000/svg"
   xmlns="http://www.w3.org/2000/svg"
   xmlns:sodipodi="http://sodipodi.sourceforge.net/DTD/sodipodi-0.dtd"
   xmlns:inkscape="http://www.inkscape.org/namespaces/inkscape"
   version="1.1"
   id="Calque_1"
   x="0px"
   y="0px"
   viewBox="0 0 136.26905 132.1833"
   xml:space="preserve"
   inkscape:version="0.48.5 r10040"
   width="100%"
   height="100%"
   sodipodi:docname="favicon.svg"><metadata
   id="metadata25"><rdf:RDF><cc:Work
       rdf:about=""><dc:format>image/svg+xml</dc:format><dc:type
         rdf:resource="http://purl.org/dc/dcmitype/StillImage" /></cc:Work></rdf:RDF></metadata><defs
   id="defs23" /><sodipodi:namedview
   pagecolor="#ffffff"
   bordercolor="#666666"
   borderopacity="1"
   objecttolerance="10"
   gridtolerance="10"
   guidetolerance="10"
   inkscape:pageopacity="0"
   inkscape:pageshadow="2"
   inkscape:window-width="1920"
   inkscape:window-height="1017"
   id="namedview21"
   showgrid="false"
   inkscape:zoom="6.2105263"
   inkscape:cx="16.929661"
   inkscape:cy="66.088845"
   inkscape:window-x="-8"
   inkscape:window-y="-8"
   inkscape:window-maximized="1"
   inkscape:current-layer="g9"
   fit-margin-left="10"
   fit-margin-top="10"
   fit-margin-right="10"
   fit-margin-bottom="10" />
<style
   type="text/css"
   id="style3">
	.st0{fill:#FC2063;}
	.st1{fill:#FFFFFF;}
</style>
<g
   id="g5"
   transform="matrix(2.9582781,0,0,2.9582781,10,9.8926616)">
	<path
   class="st0"
   d="M 17.9,0.2 C 9.1,1.3 2.2,8.6 1.5,17.4 c -0.4,4.7 1,9.1 3.4,12.6 0.3,0.5 0.3,1.1 -0.2,1.4 -1.4,1.1 -3.3,2 -4.7,1.7 2.7,2.6 6.3,3.3 9.4,2.5 0.8,-0.2 1.7,-0.1 2.4,0.3 3.3,1.7 7.2,2.4 11.2,1.9 C 32.2,36.5 39.2,28.5 39.3,19.3 39.5,7.7 29.5,-1.3 17.9,0.2 z"
   id="path7"
   inkscape:connector-curvature="0"
   style="fill:#fc2063" />
</g>
<g
   id="g9"
   transform="matrix(0.9994421,0,0,1.0435181,48.167658,45.758447)">
	<g
   id="g11"
   transform="matrix(2.6620824,0,0,2.6250765,-31.784989,-32.586496)">
		<g
   id="g13">
			<path
   class="st1"
   d="m 21.9,8.5 -7.3,0 c -1.5,0 -2.7,1.2 -2.7,2.7 L 12,28 c 0,1.5 1.2,2.7 2.7,2.7 l 7.3,0 c 5.7,0 9.4,-4.4 9.4,-11.1 0,-6.7 -3.8,-11.1 -9.5,-11.1 z"
   id="path15"
   inkscape:connector-curvature="0"
   style="fill:#ffffff" />
		</g>
	</g>
	<g
   id="g17"
   transform="matrix(2.6620824,0,0,2.6250765,-31.784989,-32.586496)">
		<path
   class="st0"
   d="m 21.405354,24.454302 -3.027036,0 c -0.521903,0 -0.939425,-0.413273 -0.939425,-0.929865 l 0,-7.748874 c 0,-0.516592 0.417522,-0.929865 0.939425,-0.929865 l 3.027036,0 c 3.027035,0 3.711326,2.996231 3.711326,4.855961 0,1.653093 -0.684291,4.649325 -3.711326,4.752643 z"
   id="path19"
   inkscape:connector-curvature="0"
   style="fill:#fc2063"
   sodipodi:nodetypes="cssssssc" />
	</g>
</g>
</svg>