<?xml version="1.0" encoding="utf-8"?>
<!-- Generator: Adobe Illustrator 18.0.0, SVG Export Plug-In . SVG Version: 6.00 Build 0)  -->
<!DOCTYPE svg PUBLIC "-//W3C//DTD SVG 1.1//EN" "http://www.w3.org/Graphics/SVG/1.1/DTD/svg11.dtd">
<svg version="1.1" id="Calque_1" xmlns="http://www.w3.org/2000/svg" xmlns:xlink="http://www.w3.org/1999/xlink" x="0px" y="0px"
	 viewBox="0 0 39.3 38" style="enable-background:new 0 0 39.3 38;" xml:space="preserve">
<style type="text/css">
	.st0{fill:#FC2063;}
	.st1{fill:#FFFFFF;}
</style>
<g>
	<path class="st0" d="M17.9,0.2C9.1,1.3,2.2,8.6,1.5,17.4c-0.4,4.7,1,9.1,3.4,12.6c0.3,0.5,0.3,1.1-0.2,1.4c-1.4,1.1-3.3,2-4.7,1.7
		c2.7,2.6,6.3,3.3,9.4,2.5c0.8-0.2,1.7-0.1,2.4,0.3c3.3,1.7,7.2,2.4,11.2,1.9c9.2-1.3,16.2-9.3,16.3-18.5
		C39.5,7.7,29.5-1.3,17.9,0.2z"/>
</g>
<g>
	<g>
		<g>
			<path class="st1" d="M21.9,8.5l-7.3,0c-1.5,0-2.7,1.2-2.7,2.7L12,28c0,1.5,1.2,2.7,2.7,2.7l7.3,0c5.7,0,9.4-4.4,9.4-11.1
				S27.6,8.5,21.9,8.5z"/>
		</g>
	</g>
	<g>
		<path class="st0" d="M21.4,24.3l-2.9,0c-0.5,0-0.9-0.4-0.9-0.9l0-7.5c0-0.5,0.4-0.9,0.9-0.9l2.9,0c2.9,0,4.2,2.9,4.2,4.7
			C25.6,21.3,24.3,24.2,21.4,24.3z"/>
	</g>
</g>
</svg>
