<?xml version="1.0" encoding="UTF-8" standalone="no"?>
<!-- Created with Inkscape (http://www.inkscape.org/) -->

<svg
   xmlns:dc="http://purl.org/dc/elements/1.1/"
   xmlns:cc="http://creativecommons.org/ns#"
   xmlns:rdf="http://www.w3.org/1999/02/22-rdf-syntax-ns#"
   xmlns:svg="http://www.w3.org/2000/svg"
   xmlns="http://www.w3.org/2000/svg"
   xmlns:sodipodi="http://sodipodi.sourceforge.net/DTD/sodipodi-0.dtd"
   xmlns:inkscape="http://www.inkscape.org/namespaces/inkscape"
   width="26.064867"
   height="20"
   id="svg2"
   version="1.1"
   inkscape:version="0.48.5 r10040"
   sodipodi:docname="connect.svg">
  <defs
     id="defs4" />
  <sodipodi:namedview
     id="base"
     pagecolor="#ffffff"
     bordercolor="#666666"
     borderopacity="1.0"
     inkscape:pageopacity="0.0"
     inkscape:pageshadow="2"
     inkscape:zoom="3.959798"
     inkscape:cx="19.096203"
     inkscape:cy="-36.13186"
     inkscape:document-units="px"
     inkscape:current-layer="layer3"
     showgrid="false"
     fit-margin-top="0"
     fit-margin-left="0"
     fit-margin-right="0"
     fit-margin-bottom="0"
     inkscape:window-width="1920"
     inkscape:window-height="1017"
     inkscape:window-x="-8"
     inkscape:window-y="-8"
     inkscape:window-maximized="1" />
  <metadata
     id="metadata7">
    <rdf:RDF>
      <cc:Work
         rdf:about="">
        <dc:format>image/svg+xml</dc:format>
        <dc:type
           rdf:resource="http://purl.org/dc/dcmitype/StillImage" />
        <dc:title />
      </cc:Work>
    </rdf:RDF>
  </metadata>
  <g
     inkscape:groupmode="layer"
     id="layer3"
     inkscape:label="prise"
     transform="translate(-18.982706,-32.218755)"
     style="display:inline">
    <path
       style="fill:#4fedc0;fill-opacity:1"
       d="m 27.960907,42.927404 c -0.118529,-0.157747 -0.170672,-0.281467 -0.202097,-0.479484 -0.05966,-0.376006 0.0935,-0.760825 0.404766,-1.016993 0.162286,-0.133542 0.309772,-0.195971 0.532284,-0.225291 0.111279,-0.01469 1.211726,-0.0232 2.445449,-0.01899 1.23372,0.0042 2.260396,0.0025 2.28151,-0.0038 0.02526,-0.0075 0.06892,-0.114175 0.12769,-0.311864 0.296619,-0.997988 0.927375,-1.906736 1.768437,-2.547815 0.728359,-0.555187 1.638784,-0.906492 2.553823,-0.985463 0.398867,-0.0344 3.239487,-0.03452 3.347011,-1.34e-4 0.180195,0.05765 0.184818,0.08987 0.176183,1.228233 -0.0034,0.420121 0.0051,0.773161 0.01852,0.784528 0.01347,0.01128 0.680343,0.02118 1.482128,0.02177 0.801794,4.21e-4 1.511401,0.01457 1.576928,0.03103 0.291963,0.07337 0.521624,0.320385 0.563583,0.606172 0.0349,0.237807 -0.01575,0.402518 -0.180124,0.585353 -0.134162,0.149196 -0.222196,0.201865 -0.395992,0.236809 -0.05648,0.01133 -0.76767,0.01937 -1.580411,0.01781 -1.058727,-0.0021 -1.479492,0.0082 -1.483997,0.03612 -0.0034,0.02139 -0.0092,0.668348 -0.0128,1.437593 -0.0045,0.968647 0.0051,1.405553 0.03137,1.421156 0.02088,0.01234 0.683206,0.02349 1.471948,0.02471 0.788742,0.0013 1.494295,0.01347 1.567885,0.02732 0.182944,0.0344 0.448442,0.24083 0.519379,0.403814 0.196641,0.451844 -0.09888,0.968736 -0.58814,1.028689 -0.102463,0.01242 -0.807944,0.02063 -1.567788,0.01798 -0.759843,-0.0025 -1.394678,0.0057 -1.41077,0.01853 -0.01613,0.0128 -0.0304,0.363447 -0.03187,0.779038 -0.0038,1.105587 -8.42e-4,1.054058 -0.06954,1.140451 -0.036,0.04516 -0.09226,0.08305 -0.139921,0.09429 -0.116298,0.02737 -2.927152,0.01655 -3.2794,-0.01263 -1.093079,-0.0906 -2.151024,-0.556442 -2.934158,-1.291976 -0.523935,-0.492102 -0.871021,-0.969118 -1.151149,-1.582073 -0.139096,-0.30437 -0.231063,-0.556636 -0.295453,-0.810429 -0.03709,-0.146219 -0.05632,-0.183589 -0.09679,-0.188254 -0.02779,-0.0034 -1.059637,-0.0077 -2.293024,-0.01002 -1.233387,-0.0025 -2.298506,-0.0082 -2.366926,-0.01297 -0.06842,-0.0048 -0.181584,-0.02905 -0.251482,-0.05382 -0.165531,-0.05868 -0.435832,-0.254677 -0.5371,-0.389458 z"
       id="path2996"
       inkscape:connector-curvature="0" />
  </g>
  <g
     inkscape:label="donut"
     inkscape:groupmode="layer"
     id="layer1"
     transform="translate(-926.68023,-343.83697)"
     style="display:inline">
    <path
       style="fill:#4fedc0;fill-opacity:1;fill-rule:nonzero;stroke:none"
       d="m 936.73285,350.15307 c -2.036,-0.0262 -3.71034,1.60844 -3.73653,3.64443 -0.0262,2.03596 1.60847,3.71034 3.64443,3.73653 1.37183,0.0177 2.5726,-0.72321 3.22342,-1.8288 l -1.09202,0 c -0.52092,0.58291 -1.29009,0.94497 -2.1314,0.93414 -1.54291,-0.0199 -2.76964,-1.28582 -2.74976,-2.82871 0.0199,-1.54292 1.28579,-2.7828 2.82871,-2.76293 0.90773,0.0117 1.70748,0.45302 2.21034,1.13149 l 1.05254,0 c -0.60212,-1.18688 -1.82957,-2.00788 -3.24973,-2.02615 z"
       id="path34"
       inkscape:connector-curvature="0" />
    <path
       style="fill:#4fedc0;fill-opacity:1;fill-rule:nonzero;stroke:none"
       d="m 936.81179,343.83781 c -5.51277,-0.071 -10.05975,4.36744 -10.13072,9.88075 -0.071,5.51327 4.35481,10.04657 9.86759,10.11757 3.30979,0.0426 6.26809,-1.53713 8.11774,-3.99966 -0.52973,-0.15757 -1.02652,-0.37684 -1.48672,-0.65784 -1.56749,1.9087 -3.94796,3.1129 -6.60471,3.07869 -4.64238,-0.0598 -8.37484,-3.8832 -8.31509,-8.5256 0.0598,-4.64238 3.88322,-8.37487 8.5256,-8.31509 2.65623,0.0342 5.02095,1.30179 6.53892,3.24972 0.46202,-0.26591 0.95887,-0.47452 1.48672,-0.61837 -1.78601,-2.50521 -4.69287,-4.16759 -7.99933,-4.21017 z"
       id="path22"
       inkscape:connector-curvature="0" />
  </g>
</svg>
