<?xml version="1.0" encoding="UTF-8" standalone="no"?>
<svg
   xmlns:dc="http://purl.org/dc/elements/1.1/"
   xmlns:cc="http://creativecommons.org/ns#"
   xmlns:rdf="http://www.w3.org/1999/02/22-rdf-syntax-ns#"
   xmlns:svg="http://www.w3.org/2000/svg"
   xmlns="http://www.w3.org/2000/svg"
   xmlns:sodipodi="http://sodipodi.sourceforge.net/DTD/sodipodi-0.dtd"
   xmlns:inkscape="http://www.inkscape.org/namespaces/inkscape"
   viewBox="0 0 15.77 21.510001"
   height="21.51"
   width="15.77"
   xml:space="preserve"
   version="1.1"
   id="svg2"
   inkscape:version="0.48.5 r10040"
   sodipodi:docname="deop.svg"><sodipodi:namedview
     pagecolor="#ffffff"
     bordercolor="#666666"
     borderopacity="1"
     objecttolerance="10"
     gridtolerance="10"
     guidetolerance="10"
     inkscape:pageopacity="0"
     inkscape:pageshadow="2"
     inkscape:window-width="1920"
     inkscape:window-height="1017"
     id="namedview14"
     showgrid="false"
     fit-margin-top="0"
     fit-margin-left="0"
     fit-margin-right="0"
     fit-margin-bottom="0"
     inkscape:zoom="21.436579"
     inkscape:cx="11.375076"
     inkscape:cy="6.7025672"
     inkscape:window-x="-8"
     inkscape:window-y="-8"
     inkscape:window-maximized="1"
     inkscape:current-layer="svg2" /><metadata
     id="metadata8"><rdf:RDF><cc:Work
         rdf:about=""><dc:format>image/svg+xml</dc:format><dc:type
           rdf:resource="http://purl.org/dc/dcmitype/StillImage" /></cc:Work></rdf:RDF></metadata><defs
     id="defs6"><clipPath
       id="clipPath16"
       clipPathUnits="userSpaceOnUse"><path
         id="path18"
         d="m 0,140.918 103,0 L 103,0 0,0 0,140.918 z"
         inkscape:connector-curvature="0" /></clipPath></defs><g
     transform="matrix(1.25,0,0,-1.25,-1.2620095e-4,21.510375)"
     id="g10"><g
       id="g12"><g
         clip-path="url(#clipPath16)"
         id="g14"><g
           transform="translate(50.9658,92.4953)"
           id="g20"><path
             id="path22"
             style="fill:#ffffff;fill-opacity:1;fill-rule:nonzero;stroke:none"
             d="m -44.723144,-81.200105 -0.02352,0 c -0.120526,-0.488454 -0.241051,-1.102564 -0.373213,-1.570381 l -0.481123,-1.726686 1.792942,0 -0.50562,1.726686 c -0.143917,0.47954 -0.28894,1.081927 -0.409466,1.570381"
             inkscape:connector-curvature="0" /></g><g
           transform="translate(65.7071,37.4953)"
           id="g24"><path
             id="path26"
             style="fill:#ffffff;fill-opacity:1;fill-rule:nonzero;stroke:none"
             d="m -57.658849,-32.916352 -0.626023,2.075931 -2.321957,0 -0.578009,-2.075931 -1.900606,0 2.478615,8.059496 2.406227,0 2.514871,-8.059496 -1.973118,0 z M -59.39851,-20.287 c 0,0 -0.796645,-2.148832 -6.30849,-2.148832 l 0,-8.813059 c 0,-3.482923 6.30849,-6.246109 6.30849,-6.246109 0,0 6.30751,2.763186 6.30751,6.246109 l 0,8.813059 c -5.511845,0 -6.30751,2.148832 -6.30751,2.148832"
             inkscape:connector-curvature="0" /></g></g></g></g></svg>