<?xml version="1.0" encoding="UTF-8" standalone="no"?>
<svg
   xmlns:dc="http://purl.org/dc/elements/1.1/"
   xmlns:cc="http://creativecommons.org/ns#"
   xmlns:rdf="http://www.w3.org/1999/02/22-rdf-syntax-ns#"
   xmlns:svg="http://www.w3.org/2000/svg"
   xmlns="http://www.w3.org/2000/svg"
   xmlns:sodipodi="http://sodipodi.sourceforge.net/DTD/sodipodi-0.dtd"
   xmlns:inkscape="http://www.inkscape.org/namespaces/inkscape"
   viewBox="0 0 15.77 21.509997"
   height="21.509996"
   width="15.77"
   xml:space="preserve"
   version="1.1"
   id="svg2"
   inkscape:version="0.48.5 r10040"
   sodipodi:docname="deop-w.svg"><sodipodi:namedview
     pagecolor="#ffffff"
     bordercolor="#666666"
     borderopacity="1"
     objecttolerance="10"
     gridtolerance="10"
     guidetolerance="10"
     inkscape:pageopacity="0"
     inkscape:pageshadow="2"
     inkscape:window-width="1920"
     inkscape:window-height="1017"
     id="namedview14"
     showgrid="false"
     inkscape:zoom="21.436579"
     inkscape:cx="22.192178"
     inkscape:cy="19.286827"
     inkscape:window-x="-8"
     inkscape:window-y="-8"
     inkscape:window-maximized="1"
     inkscape:current-layer="layer2"
     fit-margin-left="0"
     fit-margin-bottom="0"
     fit-margin-right="0"
     fit-margin-top="0" /><metadata
     id="metadata8"><rdf:RDF><cc:Work
         rdf:about=""><dc:format>image/svg+xml</dc:format><dc:type
           rdf:resource="http://purl.org/dc/dcmitype/StillImage" /><dc:title /></cc:Work></rdf:RDF></metadata><defs
     id="defs6"><clipPath
       id="clipPath16"
       clipPathUnits="userSpaceOnUse"><path
         id="path18"
         d="m 0,140.918 103,0 L 103,0 0,0 0,140.918 z"
         inkscape:connector-curvature="0" /></clipPath></defs><g
     transform="matrix(1.25,0,0,-1.25,33.832057,40.793721)"
     id="g10"><g
       id="g12"
       style="fill:none"><g
         clip-path="url(#clipPath16)"
         id="g14"
         style="fill:none"><g
           transform="translate(50.9658,92.4953)"
           id="g20"
           style="fill:none" /><g
           transform="translate(65.7071,37.4953)"
           id="g24"
           style="fill:none" /></g></g></g><g
     inkscape:groupmode="layer"
     id="layer1"
     inkscape:label="shield"
     style="display:inline"
     transform="translate(38.019685,-128.79678)"><path
       inkscape:connector-curvature="0"
       style="fill:none;stroke:#4fedc0;stroke-width:1.83276677;stroke-linejoin:miter;stroke-miterlimit:4;stroke-opacity:1;stroke-dasharray:none"
       d="m -30.134143,129.71316 c 0,0 -0.880076,2.45717 -6.969159,2.45717 l 0,10.07768 c 0,3.9827 6.969159,7.14238 6.969159,7.14238 0,0 6.968075,-3.15968 6.968075,-7.14238 l 0,-10.07768 c -6.089082,0 -6.968075,-2.45717 -6.968075,-2.45717"
       id="path26" /></g><g
     inkscape:groupmode="layer"
     id="layer2"
     inkscape:label="a"
     style="display:inline"
     transform="translate(38.019685,-128.79678)"><path
       id="path3784"
       style="fill:#4fedc0;fill-opacity:1;stroke:none"
       d="m -28.170946,143.73958 -0.711947,-2.4437 -2.640652,0 -0.657342,2.4437 -2.161471,0 2.818813,-9.48732 2.736488,0 2.860045,9.48732 -2.243934,0 z m -2.053418,-7.9061 -0.02674,0 c -0.137068,0.57499 -0.274137,1.29789 -0.424437,1.84859 l -0.547159,2.03259 2.039029,0 -0.575018,-2.03259 c -0.163673,-0.5645 -0.328602,-1.2736 -0.46567,-1.84859"
       inkscape:connector-curvature="0" /></g></svg>