<?xml version="1.0" encoding="UTF-8" standalone="no"?>
<svg
   xmlns:dc="http://purl.org/dc/elements/1.1/"
   xmlns:cc="http://creativecommons.org/ns#"
   xmlns:rdf="http://www.w3.org/1999/02/22-rdf-syntax-ns#"
   xmlns:svg="http://www.w3.org/2000/svg"
   xmlns="http://www.w3.org/2000/svg"
   xmlns:sodipodi="http://sodipodi.sourceforge.net/DTD/sodipodi-0.dtd"
   xmlns:inkscape="http://www.inkscape.org/namespaces/inkscape"
   viewBox="0 0 130.875 175.53275"
   height="175.53275"
   width="130.875"
   xml:space="preserve"
   version="1.1"
   id="svg2"
   inkscape:version="0.48.5 r10040"
   sodipodi:docname="deop-w.svg"><sodipodi:namedview
     pagecolor="#ffffff"
     bordercolor="#666666"
     borderopacity="1"
     objecttolerance="10"
     gridtolerance="10"
     guidetolerance="10"
     inkscape:pageopacity="0"
     inkscape:pageshadow="2"
     inkscape:window-width="1920"
     inkscape:window-height="1017"
     id="namedview14"
     showgrid="false"
     inkscape:zoom="1.8947438"
     inkscape:cx="196.22164"
     inkscape:cy="100.96247"
     inkscape:window-x="-8"
     inkscape:window-y="-8"
     inkscape:window-maximized="1"
     inkscape:current-layer="layer2"
     fit-margin-left="0"
     fit-margin-bottom="0"
     fit-margin-right="0"
     fit-margin-top="2" /><metadata
     id="metadata8"><rdf:RDF><cc:Work
         rdf:about=""><dc:format>image/svg+xml</dc:format><dc:type
           rdf:resource="http://purl.org/dc/dcmitype/StillImage" /><dc:title></dc:title></cc:Work></rdf:RDF></metadata><defs
     id="defs6"><clipPath
       id="clipPath16"
       clipPathUnits="userSpaceOnUse"><path
         id="path18"
         d="m 0,140.918 103,0 L 103,0 0,0 0,140.918 z"
         inkscape:connector-curvature="0" /></clipPath></defs><g
     transform="matrix(1.25,0,0,-1.25,33.832055,194.81648)"
     id="g10"><g
       id="g12"
       style="fill:none"><g
         clip-path="url(#clipPath16)"
         id="g14"
         style="fill:none"><g
           transform="translate(50.9658,92.4953)"
           id="g20"
           style="fill:none" /><g
           transform="translate(65.7071,37.4953)"
           id="g24"
           style="fill:none" /></g></g></g><g
     inkscape:groupmode="layer"
     id="layer1"
     inkscape:label="shield"
     style="display:inline"
     transform="translate(38.019683,25.225983)"><path
       inkscape:connector-curvature="0"
       style="fill:none;stroke:#4fedc0;stroke-width:15;stroke-linejoin:miter;stroke-miterlimit:4;stroke-opacity:1;stroke-dasharray:none"
       d="m 27.422317,-15.725983 c 0,0 -7.317,19.7966262 -57.942002,19.7966262 l 0,81.1923738 c 0,32.087253 57.942002,57.543753 57.942002,57.543753 0,0 57.933,-25.4565 57.933,-57.543753 l 0,-81.1923738 c -50.625,0 -57.933,-19.7966262 -57.933,-19.7966262"
       id="path26" /></g><g
     inkscape:groupmode="layer"
     id="layer2"
     inkscape:label="a"
     style="display:inline"
     transform="translate(38.019683,25.225983)"><path
       id="path3784"
       style="fill:#4fedc0;fill-opacity:1;stroke:none"
       d="m 43.744456,97.280118 -5.919167,-19.688083 -21.954539,0 -5.465183,19.688083 -17.9705948,0 23.4357778,-76.436113 22.751327,0 23.778582,76.436113 -18.656203,0 z m -17.072239,-63.696756 -0.222359,0 c -1.139593,4.632492 -2.279186,10.456694 -3.528801,14.893462 l -4.549106,16.375859 16.952605,0 -4.780733,-16.375859 C 29.183029,43.928875 27.81181,38.215854 26.672217,33.583362"
       inkscape:connector-curvature="0" /></g></svg>