<?xml version="1.0" encoding="UTF-8" standalone="no"?>
<svg
   xmlns:dc="http://purl.org/dc/elements/1.1/"
   xmlns:cc="http://creativecommons.org/ns#"
   xmlns:rdf="http://www.w3.org/1999/02/22-rdf-syntax-ns#"
   xmlns:svg="http://www.w3.org/2000/svg"
   xmlns="http://www.w3.org/2000/svg"
   xmlns:sodipodi="http://sodipodi.sourceforge.net/DTD/sodipodi-0.dtd"
   xmlns:inkscape="http://www.inkscape.org/namespaces/inkscape"
   viewBox="0 0 15.77 21.509997"
   height="21.509996"
   width="15.77"
   xml:space="preserve"
   version="1.1"
   id="svg2"
   inkscape:version="0.48.5 r10040"
   sodipodi:docname="deop-w.svg"><sodipodi:namedview
     pagecolor="#ffffff"
     bordercolor="#666666"
     borderopacity="1"
     objecttolerance="10"
     gridtolerance="10"
     guidetolerance="10"
     inkscape:pageopacity="0"
     inkscape:pageshadow="2"
     inkscape:window-width="1920"
     inkscape:window-height="1017"
     id="namedview14"
     showgrid="false"
     inkscape:zoom="21.436579"
     inkscape:cx="14.16851"
     inkscape:cy="6.1892007"
     inkscape:window-x="-8"
     inkscape:window-y="-8"
     inkscape:window-maximized="1"
     inkscape:current-layer="layer4"
     fit-margin-left="0"
     fit-margin-bottom="0"
     fit-margin-right="0"
     fit-margin-top="0"
     showguides="true"
     inkscape:guide-bbox="true"><sodipodi:guide
       orientation="1,0"
       position="-19.172835,24.164303"
       id="guide2996" /></sodipodi:namedview><metadata
     id="metadata8"><rdf:RDF><cc:Work
         rdf:about=""><dc:format>image/svg+xml</dc:format><dc:type
           rdf:resource="http://purl.org/dc/dcmitype/StillImage" /><dc:title /></cc:Work></rdf:RDF></metadata><defs
     id="defs6"><clipPath
       id="clipPath16"
       clipPathUnits="userSpaceOnUse"><path
         id="path18"
         d="m 0,140.918 103,0 L 103,0 0,0 0,140.918 z"
         inkscape:connector-curvature="0" /></clipPath></defs><g
     transform="matrix(1.25,0,0,-1.25,33.832057,40.793721)"
     id="g10"><g
       id="g12"
       style="fill:none"><g
         clip-path="url(#clipPath16)"
         id="g14"
         style="fill:none"><g
           transform="translate(50.9658,92.4953)"
           id="g20"
           style="fill:none" /><g
           transform="translate(65.7071,37.4953)"
           id="g24"
           style="fill:none" /></g></g></g><g
     inkscape:groupmode="layer"
     id="layer1"
     inkscape:label="shield"
     style="display:inline"
     transform="translate(38.019685,-128.79678)"><path
       inkscape:connector-curvature="0"
       style="fill:none;stroke:#4fedc0;stroke-width:1.83276677;stroke-linejoin:miter;stroke-miterlimit:4;stroke-opacity:1;stroke-dasharray:none"
       d="m -30.134143,129.71316 c 0,0 -0.880076,2.45717 -6.969159,2.45717 l 0,10.07768 c 0,3.9827 6.969159,7.14238 6.969159,7.14238 0,0 6.968075,-3.15968 6.968075,-7.14238 l 0,-10.07768 c -6.089082,0 -6.968075,-2.45717 -6.968075,-2.45717"
       id="path26" /></g><g
     inkscape:groupmode="layer"
     id="layer2"
     inkscape:label="a"
     style="display:none"
     transform="translate(38.019685,-128.79678)"><path
       id="path3784"
       style="fill:#4fedc0;fill-opacity:1;stroke:none"
       d="m -28.170946,143.73958 -0.711947,-2.4437 -2.640652,0 -0.657342,2.4437 -2.161471,0 2.818813,-9.48732 2.736488,0 2.860045,9.48732 -2.243934,0 z m -2.053418,-7.9061 -0.02674,0 c -0.137068,0.57499 -0.274137,1.29789 -0.424437,1.84859 l -0.547159,2.03259 2.039029,0 -0.575018,-2.03259 c -0.163673,-0.5645 -0.328602,-1.2736 -0.46567,-1.84859"
       inkscape:connector-curvature="0" /></g><g
     inkscape:groupmode="layer"
     id="layer3"
     inkscape:label="test"
     style="display:none"><text
       xml:space="preserve"
       style="font-size:13.05622387px;font-style:normal;font-variant:normal;font-weight:bold;font-stretch:normal;line-height:125%;letter-spacing:0px;word-spacing:0px;fill:#000000;fill-opacity:1;stroke:none;display:inline;font-family:Segoe UI;-inkscape-font-specification:Segoe UI Bold"
       x="3.6238711"
       y="14.400584"
       id="text2992"
       sodipodi:linespacing="125%"
       transform="scale(0.96029727,1.0413442)"><tspan
         sodipodi:role="line"
         id="tspan2994"
         x="3.6238711"
         y="14.400584">AM</tspan></text>
</g><g
     inkscape:groupmode="layer"
     id="layer4"
     inkscape:label="star"><path
       sodipodi:type="star"
       id="path2998"
       sodipodi:sides="6"
       sodipodi:cx="-5.9711022"
       sodipodi:cy="9.474494"
       sodipodi:r1="2.0313854"
       sodipodi:r2="4.0627708"
       sodipodi:arg1="0.97323987"
       sodipodi:arg2="1.4968386"
       inkscape:flatsided="false"
       inkscape:rounded="0"
       inkscape:randomized="0"
       d="m -4.828196,11.153866 -0.8427068,2.372293 -1.1831255,-2.222193 -2.4758188,0.456341 1.3329125,-2.1357134 -1.633112,-1.9159516 2.5160381,0.086479 0.8427068,-2.3722923 1.1831256,2.2221927 2.4758187,-0.4563406 -1.3329125,2.135713 1.633112,1.9159517 z"
       transform="matrix(-1.2332105,-0.09382255,0.08887066,-1.3019251,-0.19284145,22.597253)"
       inkscape:transform-center-x="-0.8239045"
       inkscape:transform-center-y="-0.3002077"
       style="fill:#4fedc0;fill-opacity:1;display:inline" /></g></svg>