<?xml version="1.0" encoding="UTF-8" standalone="no"?>
<svg
   xmlns:dc="http://purl.org/dc/elements/1.1/"
   xmlns:cc="http://creativecommons.org/ns#"
   xmlns:rdf="http://www.w3.org/1999/02/22-rdf-syntax-ns#"
   xmlns:svg="http://www.w3.org/2000/svg"
   xmlns="http://www.w3.org/2000/svg"
   viewBox="0 0 128.75 176.14751"
   height="176.14751"
   width="128.75"
   xml:space="preserve"
   version="1.1"
   id="svg2"><metadata
     id="metadata8"><rdf:RDF><cc:Work
         rdf:about=""><dc:format>image/svg+xml</dc:format><dc:type
           rdf:resource="http://purl.org/dc/dcmitype/StillImage" /></cc:Work></rdf:RDF></metadata><defs
     id="defs6"><clipPath
       id="clipPath16"
       clipPathUnits="userSpaceOnUse"><path
         id="path18"
         d="m 0,140.918 103,0 L 103,0 0,0 0,140.918 Z" /></clipPath></defs><g
     transform="matrix(1.25,0,0,-1.25,0,176.1475)"
     id="g10"><g
       id="g12"><g
         clip-path="url(#clipPath16)"
         id="g14"><g
           transform="translate(50.9658,92.4953)"
           id="g20"><path
             id="path22"
             style="fill:#ffffff;fill-opacity:1;fill-rule:nonzero;stroke:none"
             d="M 0,0 -0.192,0 C -1.176,-4 -2.16,-9.029 -3.239,-12.86 L -7.167,-27 7.471,-27 3.343,-12.86 C 2.168,-8.933 0.984,-4 0,0" /></g><g
           transform="translate(65.7071,37.4953)"
           id="g24"><path
             id="path26"
             style="fill:#ffffff;fill-opacity:1;fill-rule:nonzero;stroke:none"
             d="M 0,0 -5.111,17 -24.068,17 -28.787,0 -44.304,0 -24.068,66 -4.423,66 16.109,0 0,0 Z m -14.203,103.423 c 0,0 -6.504,-17.597 -51.504,-17.597 l 0,-72.171 c 0,-28.522 51.504,-51.15 51.504,-51.15 0,0 51.496,22.628 51.496,51.15 l 0,72.171 c -45,0 -51.496,17.597 -51.496,17.597" /></g></g></g></g></svg>