<?xml version="1.0" encoding="UTF-8" standalone="no"?>
<!-- Created with Inkscape (http://www.inkscape.org/) -->

<svg
   xmlns:dc="http://purl.org/dc/elements/1.1/"
   xmlns:cc="http://creativecommons.org/ns#"
   xmlns:rdf="http://www.w3.org/1999/02/22-rdf-syntax-ns#"
   xmlns:svg="http://www.w3.org/2000/svg"
   xmlns="http://www.w3.org/2000/svg"
   xmlns:sodipodi="http://sodipodi.sourceforge.net/DTD/sodipodi-0.dtd"
   xmlns:inkscape="http://www.inkscape.org/namespaces/inkscape"
   width="61.909283"
   height="47.503994"
   id="svg2"
   version="1.1"
   inkscape:version="0.48.5 r10040"
   sodipodi:docname="disconnect.svg">
  <defs
     id="defs4" />
  <sodipodi:namedview
     id="base"
     pagecolor="#ffffff"
     bordercolor="#666666"
     borderopacity="1.0"
     inkscape:pageopacity="0.0"
     inkscape:pageshadow="2"
     inkscape:zoom="3.959798"
     inkscape:cx="112.90612"
     inkscape:cy="7.9247095"
     inkscape:document-units="px"
     inkscape:current-layer="layer1"
     showgrid="false"
     fit-margin-top="0"
     fit-margin-left="0"
     fit-margin-right="0"
     fit-margin-bottom="0"
     inkscape:window-width="1920"
     inkscape:window-height="1017"
     inkscape:window-x="-8"
     inkscape:window-y="-8"
     inkscape:window-maximized="1" />
  <metadata
     id="metadata7">
    <rdf:RDF>
      <cc:Work
         rdf:about="">
        <dc:format>image/svg+xml</dc:format>
        <dc:type
           rdf:resource="http://purl.org/dc/dcmitype/StillImage" />
        <dc:title></dc:title>
      </cc:Work>
    </rdf:RDF>
  </metadata>
  <g
     inkscape:groupmode="layer"
     id="layer3"
     inkscape:label="prise"
     transform="translate(-1.0604985,-18.466755)">
    <path
       style="fill:#f54f4f;fill-opacity:1"
       d="m 22.385528,43.901936 c -0.28153,-0.37468 -0.40538,-0.66854 -0.48002,-1.13887 -0.1417,-0.89309 0.22207,-1.80711 0.9614,-2.415561 0.38546,-0.31719 0.73577,-0.46547 1.26428,-0.53511 0.26431,-0.0349 2.87809,-0.0551 5.80843,-0.0451 2.93033,0.01 5.36889,0.006 5.41904,-0.009 0.06,-0.0179 0.16371,-0.27119 0.30329,-0.74074 0.70453,-2.37042 2.2027,-4.52888 4.20039,-6.05157 1.73,-1.31868 3.89244,-2.1531 6.06584,-2.34067 0.94739,-0.0817 7.69443,-0.082 7.94982,-3.2e-4 0.428,0.13692 0.43898,0.21345 0.41847,2.9173 -0.008,0.99787 0.0122,1.83641 0.044,1.86341 0.032,0.0268 1.61595,0.0503 3.52035,0.0517 1.90442,10e-4 3.58988,0.0346 3.74552,0.0737 0.69347,0.17427 1.23896,0.76098 1.33862,1.43978 0.0829,0.56484 -0.0374,0.95606 -0.42783,1.39033 -0.31866,0.35437 -0.52776,0.47947 -0.94056,0.56247 -0.13414,0.0269 -1.82337,0.046 -3.75379,0.0423 -2.51469,-0.005 -3.51409,0.0195 -3.52479,0.0858 -0.008,0.0508 -0.0219,1.587461 -0.0304,3.414571 -0.0107,2.30073 0.0122,3.33847 0.0745,3.37553 0.0496,0.0293 1.62275,0.0558 3.49617,0.0587 1.87342,0.003 3.54925,0.032 3.72404,0.0649 0.43453,0.0817 1.06514,0.57202 1.23363,0.95914 0.46706,1.07322 -0.23485,2.30094 -1.39695,2.44334 -0.24337,0.0295 -1.91903,0.049 -3.72381,0.0427 -1.80478,-0.006 -3.31264,0.0135 -3.35086,0.044 -0.0383,0.0304 -0.0722,0.86326 -0.0757,1.85037 -0.009,2.62599 -0.002,2.5036 -0.16517,2.7088 -0.0855,0.10727 -0.21913,0.19726 -0.33234,0.22397 -0.27623,0.065 -6.95257,0.0393 -7.78923,-0.03 -2.59628,-0.2152 -5.10911,-1.32166 -6.96921,-3.0687 -1.24445,-1.16884 -2.06885,-2.30185 -2.73421,-3.75774 -0.33038,-0.72294 -0.54882,-1.32212 -0.70176,-1.92493 -0.0881,-0.3473 -0.13377,-0.43606 -0.2299,-0.44714 -0.066,-0.008 -2.51685,-0.0183 -5.44639,-0.0238 -2.92954,-0.006 -5.45941,-0.0194 -5.62192,-0.0308 -0.16252,-0.0115 -0.4313,-0.069 -0.59732,-0.12783 -0.39317,-0.13939 -1.03519,-0.60491 -1.27572,-0.92504 z"
       id="path2996"
       inkscape:connector-curvature="0" />
  </g>
  <g
     inkscape:label="donut"
     inkscape:groupmode="layer"
     id="layer1"
     transform="translate(-908.75802,-330.08497)"
     style="display:inline">
    <path
       style="fill:#f54f4f;fill-opacity:1;fill-rule:nonzero;stroke:none"
       d="m 24.9375,33.46875 c -4.8359,-0.0623 -8.8128,3.82037 -8.875,8.65625 -0.0623,4.83582 3.82043,8.8128 8.65625,8.875 3.258367,0.04198 6.110426,-1.717752 7.65625,-4.34375 l -2.59375,0 c -1.237294,1.384526 -3.064232,2.244487 -5.0625,2.21875 -3.66473,-0.04723 -6.57845,-3.05408 -6.53125,-6.71875 0.04716,-3.66474 3.05402,-6.6097 6.71875,-6.5625 2.156056,0.02774 4.055626,1.076005 5.25,2.6875 l 2.5,0 c -1.430162,-2.819067 -4.345582,-4.769102 -7.71875,-4.8125 z"
       transform="translate(907.69752,311.61822)"
       id="path34"
       inkscape:connector-curvature="0" />
    <path
       style="fill:#f54f4f;fill-opacity:1;fill-rule:nonzero;stroke:none"
       d="M 25.125,18.46875 C 12.03106,18.30011 1.23109,28.8423 1.0625,41.9375 0.89384,55.03263 11.40606,65.80012 24.5,65.96875 c 7.861409,0.101198 14.887972,-3.650994 19.28125,-9.5 -1.258201,-0.374254 -2.438189,-0.895057 -3.53125,-1.5625 -3.723093,4.533542 -9.377202,7.393758 -15.6875,7.3125 -11.02657,-0.14198 -19.89193,-9.22336 -19.75,-20.25 0.142,-11.02657 9.22343,-19.89197 20.25,-19.75 6.309085,0.08124 11.925758,3.092026 15.53125,7.71875 1.097371,-0.63159 2.2775,-1.127081 3.53125,-1.46875 -4.24212,-5.950383 -11.146494,-9.898864 -19,-10 z"
       transform="translate(907.69752,311.61822)"
       id="path22"
       inkscape:connector-curvature="0" />
  </g>
</svg>
