<?xml version="1.0" encoding="UTF-8" standalone="no"?>
<!-- Created with Inkscape (http://www.inkscape.org/) -->

<svg
   xmlns:dc="http://purl.org/dc/elements/1.1/"
   xmlns:cc="http://creativecommons.org/ns#"
   xmlns:rdf="http://www.w3.org/1999/02/22-rdf-syntax-ns#"
   xmlns:svg="http://www.w3.org/2000/svg"
   xmlns="http://www.w3.org/2000/svg"
   xmlns:sodipodi="http://sodipodi.sourceforge.net/DTD/sodipodi-0.dtd"
   xmlns:inkscape="http://www.inkscape.org/namespaces/inkscape"
   width="26.035334"
   height="19.977341"
   id="svg2"
   version="1.1"
   inkscape:version="0.48.5 r10040"
   sodipodi:docname="disconnect.svg">
  <defs
     id="defs4" />
  <sodipodi:namedview
     id="base"
     pagecolor="#ffffff"
     bordercolor="#666666"
     borderopacity="1.0"
     inkscape:pageopacity="0.0"
     inkscape:pageshadow="2"
     inkscape:zoom="3.959798"
     inkscape:cx="67.828064"
     inkscape:cy="7.9247171"
     inkscape:document-units="px"
     inkscape:current-layer="layer1"
     showgrid="false"
     fit-margin-top="0"
     fit-margin-left="0"
     fit-margin-right="0"
     fit-margin-bottom="0"
     inkscape:window-width="1920"
     inkscape:window-height="1017"
     inkscape:window-x="-8"
     inkscape:window-y="-8"
     inkscape:window-maximized="1" />
  <metadata
     id="metadata7">
    <rdf:RDF>
      <cc:Work
         rdf:about="">
        <dc:format>image/svg+xml</dc:format>
        <dc:type
           rdf:resource="http://purl.org/dc/dcmitype/StillImage" />
        <dc:title />
      </cc:Work>
    </rdf:RDF>
  </metadata>
  <g
     inkscape:groupmode="layer"
     id="layer3"
     inkscape:label="prise"
     transform="translate(-1.0604975,-45.993416)">
    <path
       style="fill:#f54f4f;fill-opacity:1"
       d="M 10.028529,56.689929 C 9.910134,56.532361 9.8580501,56.408781 9.826661,56.210988 c -0.059591,-0.37558 0.093389,-0.759962 0.404307,-1.01584 0.162102,-0.133391 0.309421,-0.195749 0.531681,-0.225035 0.111153,-0.01468 1.210352,-0.02317 2.442678,-0.01897 1.232321,0.0042 2.257834,0.0025 2.278924,-0.0038 0.02523,-0.0075 0.06885,-0.114047 0.127545,-0.311511 0.296283,-0.996857 0.926324,-1.904576 1.766433,-2.544928 0.727534,-0.554558 1.636927,-0.905465 2.550929,-0.984346 0.398416,-0.03436 3.235817,-0.03448 3.343219,-1.35e-4 0.179991,0.05758 0.184608,0.08976 0.175983,1.226842 -0.0034,0.419645 0.0051,0.772284 0.0185,0.783639 0.01346,0.01127 0.679572,0.02115 1.480448,0.02174 0.800885,4.2e-4 1.509689,0.01455 1.575142,0.03099 0.291632,0.07329 0.521032,0.320022 0.562943,0.605485 0.03486,0.237538 -0.01573,0.402061 -0.179919,0.584689 -0.13401,0.149027 -0.221945,0.201637 -0.395544,0.236542 -0.05641,0.01131 -0.7668,0.01934 -1.578619,0.01779 -1.057528,-0.0021 -1.477816,0.0082 -1.482316,0.03608 -0.0034,0.02136 -0.0092,0.667591 -0.01278,1.435964 -0.0045,0.967549 0.0051,1.403961 0.03133,1.419546 0.02086,0.01232 0.682432,0.02347 1.47028,0.02469 0.787848,0.0013 1.492602,0.01346 1.566108,0.02729 0.182738,0.03436 0.447934,0.240557 0.518791,0.403357 0.196418,0.451332 -0.09876,0.967637 -0.587473,1.027522 -0.102347,0.01241 -0.80703,0.02061 -1.566012,0.01796 -0.758982,-0.0025 -1.393098,0.0057 -1.409171,0.0185 -0.01611,0.01278 -0.03036,0.363035 -0.03184,0.778155 -0.0038,1.104334 -8.41e-4,1.052864 -0.06946,1.139159 -0.03596,0.04511 -0.09215,0.08296 -0.139762,0.09419 -0.116166,0.02734 -2.923835,0.01653 -3.275684,-0.01262 -1.09184,-0.0905 -2.148586,-0.555811 -2.930832,-1.290511 -0.523342,-0.491545 -0.870035,-0.968021 -1.149846,-1.580281 -0.138938,-0.304025 -0.2308,-0.556004 -0.295118,-0.80951 -0.03705,-0.146054 -0.05626,-0.183381 -0.09668,-0.188041 -0.02776,-0.0034 -1.058436,-0.0077 -2.290426,-0.01001 -1.231989,-0.0025 -2.295901,-0.0082 -2.364243,-0.01295 -0.06835,-0.0048 -0.181379,-0.02902 -0.251197,-0.05376 -0.165343,-0.05862 -0.435339,-0.254389 -0.536491,-0.389016 z"
       id="path2996"
       inkscape:connector-curvature="0" />
  </g>
  <g
     inkscape:label="donut"
     inkscape:groupmode="layer"
     id="layer1"
     transform="translate(-908.75802,-357.61163)"
     style="display:inline">
    <path
       style="fill:#f54f4f;fill-opacity:1;fill-rule:nonzero;stroke:none"
       d="m 918.79926,363.92057 c -2.03369,-0.0262 -3.70614,1.60662 -3.7323,3.6403 -0.0262,2.03366 1.60665,3.70614 3.6403,3.7323 1.37028,0.0177 2.56968,-0.72239 3.21976,-1.82672 l -1.09077,0 c -0.52033,0.58224 -1.28864,0.94389 -2.12899,0.93307 -1.54116,-0.0199 -2.7665,-1.28436 -2.74665,-2.8255 0.0198,-1.54118 1.28434,-2.77965 2.8255,-2.7598 0.90671,0.0117 1.70556,0.4525 2.20784,1.1302 l 1.05135,0 c -0.60144,-1.18553 -1.82749,-2.0056 -3.24604,-2.02385 z"
       id="path34"
       inkscape:connector-curvature="0" />
    <path
       style="fill:#f54f4f;fill-opacity:1;fill-rule:nonzero;stroke:none"
       d="m 918.87811,357.61247 c -5.50653,-0.0709 -10.04835,4.36249 -10.11925,9.86955 -0.0709,5.50703 4.34988,10.03519 9.85641,10.10611 3.30604,0.0426 6.26099,-1.53539 8.10854,-3.99513 -0.52912,-0.15739 -1.02536,-0.37641 -1.48503,-0.6571 -1.56571,1.90654 -3.94349,3.10937 -6.59723,3.0752 -4.63711,-0.0597 -8.36535,-3.87879 -8.30566,-8.51594 0.0597,-4.63711 3.87882,-8.36537 8.51593,-8.30566 2.65323,0.0342 5.01526,1.30032 6.53152,3.24604 0.46149,-0.26561 0.95778,-0.47398 1.48503,-0.61767 -1.78398,-2.50237 -4.68755,-4.16287 -7.99026,-4.2054 z"
       id="path22"
       inkscape:connector-curvature="0" />
  </g>
</svg>
