<?xml version="1.0" encoding="UTF-8" standalone="no"?>
<svg
   xmlns:dc="http://purl.org/dc/elements/1.1/"
   xmlns:cc="http://creativecommons.org/ns#"
   xmlns:rdf="http://www.w3.org/1999/02/22-rdf-syntax-ns#"
   xmlns:svg="http://www.w3.org/2000/svg"
   xmlns="http://www.w3.org/2000/svg"
   xmlns:sodipodi="http://sodipodi.sourceforge.net/DTD/sodipodi-0.dtd"
   xmlns:inkscape="http://www.inkscape.org/namespaces/inkscape"
   viewBox="0 0 47.40625 47.40625"
   height="47.40625"
   width="47.40625"
   xml:space="preserve"
   version="1.1"
   id="svg2"
   inkscape:version="0.48.5 r10040"
   sodipodi:docname="hello.svg"><sodipodi:namedview
     pagecolor="#ffffff"
     bordercolor="#666666"
     borderopacity="1"
     objecttolerance="10"
     gridtolerance="10"
     guidetolerance="10"
     inkscape:pageopacity="0"
     inkscape:pageshadow="2"
     inkscape:window-width="1920"
     inkscape:window-height="1017"
     id="namedview18"
     showgrid="false"
     inkscape:zoom="13.77648"
     inkscape:cx="23.703125"
     inkscape:cy="23.703125"
     inkscape:window-x="-8"
     inkscape:window-y="-8"
     inkscape:window-maximized="1"
     inkscape:current-layer="layer2"
     fit-margin-top="0"
     fit-margin-left="0"
     fit-margin-right="0"
     fit-margin-bottom="0" /><metadata
     id="metadata8"><rdf:RDF><cc:Work
         rdf:about=""><dc:format>image/svg+xml</dc:format><dc:type
           rdf:resource="http://purl.org/dc/dcmitype/StillImage" /><dc:title></dc:title></cc:Work></rdf:RDF></metadata><defs
     id="defs6"><clipPath
       id="clipPath16"
       clipPathUnits="userSpaceOnUse"><path
         id="path18"
         d="m 0,38 57.651,0 0,-38 L 0,0 0,38 z"
         inkscape:connector-curvature="0" /></clipPath><clipPath
       id="clipPath16-1"
       clipPathUnits="userSpaceOnUse"><path
         inkscape:connector-curvature="0"
         id="path18-7"
         d="m 0,38 57.651,0 0,-38 L 0,0 0,38 z" /></clipPath><clipPath
       id="clipPath16-1-4"
       clipPathUnits="userSpaceOnUse"><path
         inkscape:connector-curvature="0"
         id="path18-7-0"
         d="m 0,38 57.651,0 0,-38 L 0,0 0,38 z" /></clipPath></defs><g
     inkscape:groupmode="layer"
     id="layer2"
     inkscape:label="calque"
     style="display:inline"
     transform="translate(-0.27784594,-1.6123306)"><path
       style="fill:#3aebb9;fill-opacity:1;display:inline"
       d="m 23.996596,1.6123305 c -13.089045,0 -23.71875006,10.6297055 -23.71875006,23.7187505 0,13.089045 10.62970506,23.6875 23.71875006,23.6875 13.089045,0 23.6875,-10.598455 23.6875,-23.6875 0,-13.089045 -10.598455,-23.7187505 -23.6875,-23.7187505 z m 0,3.8125 c 10.984374,0 19.875,8.9218765 19.875,19.9062505 0,10.984374 -8.890626,19.875 -19.875,19.875 -10.984374,0 -19.9062502,-8.890626 -19.9062502,-19.875 0,-10.984374 8.9218762,-19.9062505 19.9062502,-19.9062505 z"
       id="path2995"
       inkscape:connector-curvature="0" /><g
       transform="matrix(1.25,0,0,-1.25,0.23122098,49.065956)"
       style="display:inline"
       clip-path="url(#clipPath16-1-4)"
       id="g14"><g
         transform="translate(32.6563,10.7061)"
         id="g20" /><g
         transform="translate(55.6506,17)"
         id="g24" /><g
         transform="translate(42.3726,5.333)"
         id="g28" /><g
         transform="translate(18.9998,24.3174)"
         id="g32"><path
           id="path34"
           style="fill:#3aebb9;fill-opacity:1;fill-rule:nonzero;stroke:none"
           d="m 0,0 c -2.932,0 -5.318,-2.385 -5.318,-5.317 0,-2.932 2.386,-5.317 5.318,-5.317 2.932,0 5.317,2.385 5.317,5.317 C 5.317,-2.385 2.932,0 0,0 m 0,-12.333 c -3.869,0 -7.016,3.147 -7.016,7.016 0,3.869 3.147,7.016 7.016,7.016 3.868,0 7.016,-3.147 7.016,-7.016 0,-3.869 -3.148,-7.016 -7.016,-7.016"
           inkscape:connector-curvature="0" /></g></g></g></svg>