<?xml version="1.0" encoding="UTF-8" standalone="no"?>
<svg
   xmlns:dc="http://purl.org/dc/elements/1.1/"
   xmlns:cc="http://creativecommons.org/ns#"
   xmlns:rdf="http://www.w3.org/1999/02/22-rdf-syntax-ns#"
   xmlns:svg="http://www.w3.org/2000/svg"
   xmlns="http://www.w3.org/2000/svg"
   viewBox="0 0 72.063248 47.5"
   height="47.5"
   width="72.063248"
   xml:space="preserve"
   version="1.1"
   id="svg2"><metadata
     id="metadata8"><rdf:RDF><cc:Work
         rdf:about=""><dc:format>image/svg+xml</dc:format><dc:type
           rdf:resource="http://purl.org/dc/dcmitype/StillImage" /></cc:Work></rdf:RDF></metadata><defs
     id="defs6"><clipPath
       id="clipPath16"
       clipPathUnits="userSpaceOnUse"><path
         id="path18"
         d="m 0,38 57.651,0 0,-38 L 0,0 0,38 Z" /></clipPath></defs><g
     transform="matrix(1.25,0,0,-1.25,0,47.5)"
     id="g10"><g
       id="g12"><g
         clip-path="url(#clipPath16)"
         id="g14"><g
           transform="translate(32.6563,10.7061)"
           id="g20"><path
             id="path22"
             style="fill:#3aebb9;fill-opacity:1;fill-rule:nonzero;stroke:none"
             d="m 0,0 c -2.811,-4.611 -7.873,-7.706 -13.656,-7.706 -8.823,0 -16,7.178 -16,16 0,8.822 7.177,16 16,16 5.778,0 10.836,-3.09 13.648,-7.693 l 2.18,2.18 c -3.406,5.125 -9.227,8.513 -15.828,8.513 -10.477,0 -19,-8.523 -19,-19 0,-10.477 8.523,-19 19,-19 6.605,0 12.428,3.392 15.834,8.521 L 0,0 Z" /></g><g
           transform="translate(55.6506,17)"
           id="g24"><path
             id="path26"
             style="fill:#3aebb9;fill-opacity:1;fill-rule:nonzero;stroke:none"
             d="m 0,0 -24.945,0 c -1.105,0 -2,0.896 -2,2 0,1.104 0.895,2 2,2 L 0,4 C 1.104,4 2,3.104 2,2 2,0.896 1.104,0 0,0" /></g><g
           transform="translate(42.3726,5.333)"
           id="g28"><path
             id="path30"
             style="fill:#3aebb9;fill-opacity:1;fill-rule:nonzero;stroke:none"
             d="m 0,0 c -0.512,0 -1.024,0.195 -1.414,0.586 l -11.668,11.667 c -0.781,0.781 -0.781,2.047 0,2.828 l 11.668,11.668 c 0.781,0.781 2.047,0.781 2.828,0 0.781,-0.781 0.781,-2.047 0,-2.828 L -8.839,13.667 1.414,3.414 C 2.195,2.633 2.195,1.367 1.414,0.586 1.024,0.195 0.512,0 0,0" /></g><g
           transform="translate(18.9998,24.3174)"
           id="g32"><path
             id="path34"
             style="fill:#3aebb9;fill-opacity:1;fill-rule:nonzero;stroke:none"
             d="m 0,0 c -2.932,0 -5.318,-2.385 -5.318,-5.317 0,-2.932 2.386,-5.317 5.318,-5.317 2.932,0 5.317,2.385 5.317,5.317 C 5.317,-2.385 2.932,0 0,0 m 0,-12.333 c -3.869,0 -7.016,3.147 -7.016,7.016 0,3.869 3.147,7.016 7.016,7.016 3.868,0 7.016,-3.147 7.016,-7.016 0,-3.869 -3.148,-7.016 -7.016,-7.016" /></g></g></g></g></svg>