<?xml version="1.0" encoding="utf-8"?>
<!-- Generator: Adobe Illustrator 18.0.0, SVG Export Plug-In . SVG Version: 6.00 Build 0)  -->
<!DOCTYPE svg PUBLIC "-//W3C//DTD SVG 1.1//EN" "http://www.w3.org/Graphics/SVG/1.1/DTD/svg11.dtd">
<svg version="1.1" id="Mode_Isolation" xmlns="http://www.w3.org/2000/svg" xmlns:xlink="http://www.w3.org/1999/xlink" x="0px"
	 y="0px" viewBox="0 0 1896 1902" style="enable-background:new 0 0 1896 1902;" xml:space="preserve">
<style type="text/css">
	.st0{fill:#FFFFFF;}
	.st1{fill:none;}
</style>
<g>
	<g>
		<path class="st0" d="M1704.1-76.9c-0.8,0.1-1.4,0.6-1.6,1.2l3.5-0.4C1705.5-76.7,1704.8-77,1704.1-76.9z"/>
		<path class="st0" d="M1693.9-92.5c-8.8,1.1-15.7,8.4-16.4,17.2c-0.4,4.7,1,9.1,3.4,12.6c0.3,0.5,0.3,1.1-0.2,1.4
			c-1.4,1.1-3.3,2-4.7,1.7c2.7,2.6,6.3,3.3,9.4,2.5c0.8-0.2,1.7-0.1,2.4,0.3c3.3,1.7,7.2,2.4,11.2,1.9c9.2-1.3,16.2-9.3,16.3-18.5
			C1715.6-84.9,1705.5-94,1693.9-92.5z M1685.8-68.6c-0.6,0.1-1.1-0.3-1.1-0.9s0.3-1.1,0.9-1.1c0.6-0.1,1.1,0.3,1.1,0.9
			C1686.7-69.2,1686.3-68.7,1685.8-68.6z M1698.8-70.1c-0.6,0.1-1.1-0.3-1.1-0.9l-0.4-3.6c-0.1-0.8-0.9-1.4-1.7-1.3
			c-0.8,0.1-1.4,0.9-1.4,1.7l0.4,3.6c0.1,0.6-0.3,1.1-0.9,1.1c-0.6,0.1-1.1-0.3-1.1-0.9l-0.4-3.6c-0.1-0.8-0.9-1.4-1.7-1.4
			c-0.8,0.1-1.4,0.9-1.3,1.7l0.4,3.6c0.1,0.6-0.3,1.1-0.9,1.1c-0.6,0.1-1.1-0.3-1.1-0.9l-0.4-3.6c-0.2-2,1.2-3.7,3.1-4
			c1-0.1,2,0.2,2.7,0.8c0.6-0.7,1.4-1.2,2.4-1.4c2-0.2,3.7,1.2,4,3.1l0.4,3.6C1699.8-70.7,1699.4-70.2,1698.8-70.1z M1707.5-74.2
			l-4.8,0.6c0.4,0.6,1.1,0.9,1.9,0.8l1-0.1c0.6-0.1,1.1,0.3,1.1,0.9c0.1,0.6-0.3,1.1-0.9,1.1l-1,0.1c-2.2,0.3-4.3-1.4-4.5-3.6
			c-0.3-2.2,1.4-4.3,3.6-4.5c2.2-0.3,4.3,1.4,4.5,3.6C1708.4-74.8,1708-74.3,1707.5-74.2z"/>
	</g>
	<g>
		<path class="st0" d="M1631.7-88.4c0.1,0,0.2,0,0.3,0c2,0.2,3.4,1.9,3.3,3.8l-1.1,13.1c-0.2,2.9,1.9,5.5,4.8,5.7c0.1,0,0.3,0,0.4,0
			c2.7,0,5-2.1,5.3-4.9l1.1-13.1c0.2-1.9,1.7-3.3,3.6-3.3c0.1,0,0.2,0,0.3,0c2,0.2,3.4,1.9,3.3,3.8l-1.1,13.1
			c-0.5,6.5-6,11.4-12.4,11.4c-0.3,0-0.7,0-1,0c-6.8-0.6-11.9-6.6-11.4-13.4l1.1-13.1C1628.3-87,1629.9-88.4,1631.7-88.4
			 M1631.7-92.4C1631.7-92.4,1631.7-92.4,1631.7-92.4c-3.9,0-7.2,3.1-7.5,7l-1.1,13.1c-0.4,4.4,1,8.6,3.9,12
			c2.8,3.3,6.8,5.4,11.2,5.7c0.4,0,0.9,0.1,1.3,0.1c8.5,0,15.7-6.6,16.4-15.1l1.1-13.1c0.3-4.2-2.8-7.8-6.9-8.2c-0.2,0-0.4,0-0.6,0
			c-3.9,0-7.2,3.1-7.5,7l-1.1,13.1c-0.1,0.7-0.6,1.2-1.3,1.2c0,0-0.1,0-0.1,0c-0.7-0.1-1.2-0.7-1.2-1.4l1.1-13.1
			c0.2-2-0.5-4-1.8-5.5c-1.3-1.5-3.1-2.5-5.2-2.6C1632.2-92.4,1631.9-92.4,1631.7-92.4L1631.7-92.4z"/>
	</g>
	<g>
		<path class="st0" d="M1660.6-83.4c0.3,0,0.6,0,0.8,0.1l13.1,3.9c1.6,0.5,2.4,2.2,1.8,3.7c-0.4,1.1-1.5,1.7-2.6,1.7
			c-0.3,0-0.6,0-0.8-0.1l-2.8-0.8c-0.1,0-0.2,0-0.3,0c-0.5,0-0.9,0.3-1.1,0.8l-3.7,12.7c-0.4,1.2-1.5,2-2.7,2c-0.3,0-0.7-0.1-1-0.2
			c-1.3-0.5-2-2.1-1.6-3.5l3.7-12.5c0.2-0.6-0.2-1.2-0.7-1.4l-2.9-0.8c-1.6-0.5-2.4-2.2-1.8-3.7
			C1658.4-82.7,1659.5-83.4,1660.6-83.4 M1660.6-87.4c-2.8,0-5.3,1.7-6.3,4.2c-0.7,1.8-0.6,3.8,0.2,5.5c0.8,1.7,2.4,3,4.2,3.5l0.1,0
			l-2.9,9.8c-1,3.4,0.7,7,3.9,8.3c0.8,0.3,1.7,0.5,2.5,0.5c3,0,5.6-2,6.5-4.9l2.9-9.9c0.6,0.2,1.3,0.3,2,0.3c2.8,0,5.3-1.7,6.3-4.2
			c0.7-1.8,0.6-3.8-0.2-5.5c-0.8-1.7-2.4-3-4.2-3.5l-13.1-3.9C1661.9-87.3,1661.3-87.4,1660.6-87.4L1660.6-87.4z"/>
	</g>
	<g>
		<g>
			<path class="st0" d="M1555.6-71.7c-0.2-2-2-5.2-5.2-5.2c-0.2,0-0.4,0-0.6,0l-3.5,0.4c-0.6,0.1-1,0.6-1,1.2l1,9.3
				c0.1,0.6,0.5,1,1.1,1c0,0,0.1,0,0.1,0l3.5-0.4C1554.6-65.8,1555.9-69.5,1555.6-71.7z M1551.5-70.4c0,0.1-0.1,0.2-0.1,0.3
				c0,0.1-0.1,0.2-0.1,0.3c-0.1,0.1-0.1,0.2-0.2,0.2c0,0-0.1,0.1-0.1,0.1c0,0-0.1,0-0.1,0c0,0-0.1,0-0.1,0.1c0,0-0.1,0-0.1,0
				l-0.7,0.1l-0.4-3.5l0.6-0.1c0.1,0,0.1,0,0.1,0c0.6,0,1.2,1.1,1.3,1.6C1551.7-71.1,1551.6-70.8,1551.5-70.4z M1555.6-71.7
				c-0.2-2-2-5.2-5.2-5.2c-0.2,0-0.4,0-0.6,0l-3.5,0.4c-0.6,0.1-1,0.6-1,1.2l1,9.3c0.1,0.6,0.5,1,1.1,1c0,0,0.1,0,0.1,0l3.5-0.4
				C1554.6-65.8,1555.9-69.5,1555.6-71.7z M1551.5-70.4c0,0.1-0.1,0.2-0.1,0.3c0,0.1-0.1,0.2-0.1,0.3c-0.1,0.1-0.1,0.2-0.2,0.2
				c0,0-0.1,0.1-0.1,0.1c0,0-0.1,0-0.1,0c0,0-0.1,0-0.1,0.1c0,0-0.1,0-0.1,0l-0.7,0.1l-0.4-3.5l0.6-0.1c0.1,0,0.1,0,0.1,0
				c0.6,0,1.2,1.1,1.3,1.6C1551.7-71.1,1551.6-70.8,1551.5-70.4z M1555.6-71.7c-0.2-2-2-5.2-5.2-5.2c-0.2,0-0.4,0-0.6,0l-3.5,0.4
				c-0.6,0.1-1,0.6-1,1.2l1,9.3c0.1,0.6,0.5,1,1.1,1c0,0,0.1,0,0.1,0l3.5-0.4C1554.6-65.8,1555.9-69.5,1555.6-71.7z M1551.5-70.4
				c0,0.1-0.1,0.2-0.1,0.3c0,0.1-0.1,0.2-0.1,0.3c-0.1,0.1-0.1,0.2-0.2,0.2c0,0-0.1,0.1-0.1,0.1c0,0-0.1,0-0.1,0c0,0-0.1,0-0.1,0.1
				c0,0-0.1,0-0.1,0l-0.7,0.1l-0.4-3.5l0.6-0.1c0.1,0,0.1,0,0.1,0c0.6,0,1.2,1.1,1.3,1.6C1551.7-71.1,1551.6-70.8,1551.5-70.4z"/>
			<path class="st0" d="M1563.8-79.1c-2.4-5.3-7-8.4-12.8-8.4c-0.6,0-1.2,0-1.8,0.1l-8,0.9c-1.8,0.2-3.5,1.1-4.7,2.6
				c-1.2,1.5-1.7,3.3-1.5,5.1l2.1,18.5c0.4,3.5,3.4,6.2,7,6.2c0.3,0,0.5,0,0.8,0l8.1-0.9c5.3-0.6,9.3-3.6,11.3-8.1l-2.6-5.7l0.2-7.3
				L1563.8-79.1z M1552.4-58.9l-8,0.9c-0.1,0-0.2,0-0.3,0c-1.5,0-2.8-1.1-3-2.7l-2.1-18.5c-0.2-1.7,1-3.1,2.7-3.3l8-0.9
				c0.5,0,0.9-0.1,1.3-0.1c5.7,0,9.7,4.3,10.5,11.2C1562.3-64.9,1558.7-59.6,1552.4-58.9z"/>
			<path class="st1" d="M1559.6-72.1c-0.5-4.3-4.1-8.7-9.2-8.7c-0.3,0-0.7,0-1,0.1l-3.5,0.4c-1.4,0.2-2.6,0.8-3.4,1.9
				c-0.8,1.1-1.2,2.4-1.1,3.7l1,9.3c0.3,2.6,2.5,4.5,5.1,4.5c0.2,0,0.4,0,0.6,0l3.5-0.4C1557.5-62.1,1560.1-68.1,1559.6-72.1z
				 M1551.1-65.4l-3.5,0.4c0,0-0.1,0-0.1,0c-0.5,0-1-0.4-1.1-1l-1-9.3c-0.1-0.6,0.4-1.1,1-1.2l3.5-0.4c0.2,0,0.4,0,0.6,0
				c3.2,0,5,3.1,5.2,5.2C1555.9-69.5,1554.6-65.8,1551.1-65.4z"/>
		</g>
		<path class="st0" d="M1555.6-71.7c-0.2-2-2-5.2-5.2-5.2c-0.2,0-0.4,0-0.6,0l-3.5,0.4c-0.6,0.1-1,0.6-1,1.2l1,9.3
			c0.1,0.6,0.5,1,1.1,1c0,0,0.1,0,0.1,0l3.5-0.4C1554.6-65.8,1555.9-69.5,1555.6-71.7z M1551.5-70.4c0,0.1-0.1,0.2-0.1,0.3
			c0,0.1-0.1,0.2-0.1,0.3c-0.1,0.1-0.1,0.2-0.2,0.2c0,0-0.1,0.1-0.1,0.1c0,0-0.1,0-0.1,0c0,0-0.1,0-0.1,0.1c0,0-0.1,0-0.1,0
			l-0.7,0.1l-0.4-3.5l0.7-0.1h0.1c0.6,0,1.2,1.1,1.3,1.6C1551.7-71.1,1551.6-70.8,1551.5-70.4z"/>
	</g>
	<g>
		<g>
			<path class="st0" d="M1576.9-86.5c8,0,14.4,6.5,14.4,14.4s-6.5,14.4-14.4,14.4s-14.4-6.5-14.4-14.4S1568.9-86.5,1576.9-86.5
				 M1576.9-90.5c-10.2,0-18.4,8.3-18.4,18.4s8.3,18.4,18.4,18.4s18.4-8.3,18.4-18.4S1587.1-90.5,1576.9-90.5L1576.9-90.5z"/>
		</g>
		<g>
			<path class="st0" d="M1576.9-74.8c1.5,0,2.8,1.2,2.8,2.8s-1.2,2.8-2.8,2.8s-2.8-1.2-2.8-2.8S1575.4-74.8,1576.9-74.8
				 M1576.9-78.8c-3.7,0-6.8,3-6.8,6.8c0,3.7,3,6.8,6.8,6.8s6.8-3,6.8-6.8C1583.7-75.8,1580.6-78.8,1576.9-78.8L1576.9-78.8z"/>
		</g>
	</g>
	<g>
		<path class="st0" d="M1617.2-90.7c1.9,0,3.6,1.4,3.8,3.4l2.7,23.2c0.2,1.4-0.4,2.9-1.6,3.7c-0.5,0.4-1.1,0.6-1.7,0.6
			c-0.1,0-0.3,0-0.4,0c-1,0-1.9-0.4-2.7-1.1l-10.7-10.6c-0.3-0.3-0.7-0.4-1-0.4c-0.8,0-1.6,0.7-1.5,1.7l1,8.4
			c0.3,2.2-1.4,4.2-3.7,4.2c0,0,0,0-0.1,0c-2,0-3.6-1.6-3.8-3.5l-2.7-23.2c-0.2-1.9,1-3.7,2.9-4.1c0.3-0.1,0.6-0.1,0.8-0.1
			c1,0,2.1,0.5,2.8,1.2l10.6,10.5c0.3,0.3,0.7,0.4,1.1,0.4c0.8,0,1.6-0.7,1.5-1.7l-0.9-8.2c-0.2-2,1-3.9,3-4.3
			C1616.6-90.7,1616.9-90.7,1617.2-90.7 M1617.2-94.7c-0.5,0-1.1,0.1-1.6,0.2c-3.9,0.8-6.6,4.6-6.1,8.7l0.1,1.2l-5.6-5.5
			c-1.5-1.5-3.6-2.4-5.6-2.4c-0.6,0-1.2,0.1-1.8,0.2c-3.8,0.9-6.4,4.6-5.9,8.5l2.7,23.2c0.5,4,3.8,7.1,7.8,7.1l0.1,0
			c2.2,0,4.3-1,5.7-2.7c1.4-1.7,2.1-3.9,1.9-6l-0.2-1.3l5.7,5.6c1.5,1.5,3.4,2.3,5.5,2.3c0.3,0,0.6,0,0.9-0.1
			c1.3-0.1,2.5-0.6,3.5-1.3c2.4-1.6,3.7-4.5,3.3-7.5l-2.7-23.2C1624.5-91.7,1621.1-94.7,1617.2-94.7L1617.2-94.7z"/>
	</g>
</g>
<rect id="_x3C_Tranche_x3E_" x="1534" y="-96" class="st1" width="182" height="43"/>
</svg>
