<?xml version="1.0" encoding="utf-8"?>
<!-- Generator: Adobe Illustrator 18.0.0, SVG Export Plug-In . SVG Version: 6.00 Build 0)  -->
<!DOCTYPE svg PUBLIC "-//W3C//DTD SVG 1.1//EN" "http://www.w3.org/Graphics/SVG/1.1/DTD/svg11.dtd">
<svg version="1.1" id="Calque_1" xmlns="http://www.w3.org/2000/svg" xmlns:xlink="http://www.w3.org/1999/xlink" x="0px" y="0px"
	 viewBox="0 0 182 40.5" style="enable-background:new 0 0 182 40.5;" xml:space="preserve">
<style type="text/css">
	.st0{fill:#FFFFFF;}
	.st1{fill:#E2E2E2;}
	.st2{fill:none;}
</style>
<g>
	<g>
		<path class="st0" d="M170.1,16.6c-0.8,0.1-1.4,0.6-1.6,1.2l3.5-0.4C171.5,16.8,170.8,16.5,170.1,16.6z"/>
		<path class="st0" d="M159.9,1c-8.8,1.1-15.7,8.4-16.4,17.2c-0.4,4.7,1,9.1,3.4,12.6c0.3,0.5,0.3,1.1-0.2,1.4
			c-1.4,1.1-3.3,2-4.7,1.7c2.7,2.6,6.3,3.3,9.4,2.5c0.8-0.2,1.7-0.1,2.4,0.3c3.3,1.7,7.2,2.4,11.2,1.9c9.2-1.3,16.2-9.3,16.3-18.5
			C181.6,8.6,171.5-0.5,159.9,1z M151.8,24.9c-0.6,0.1-1.1-0.3-1.1-0.9s0.3-1.1,0.9-1.1c0.6-0.1,1.1,0.3,1.1,0.9
			C152.7,24.3,152.3,24.8,151.8,24.9z M164.8,23.4c-0.6,0.1-1.1-0.3-1.1-0.9l-0.4-3.6c-0.1-0.8-0.9-1.4-1.7-1.3
			c-0.8,0.1-1.4,0.9-1.4,1.7l0.4,3.6c0.1,0.6-0.3,1.1-0.9,1.1c-0.6,0.1-1.1-0.3-1.1-0.9l-0.4-3.6c-0.1-0.8-0.9-1.4-1.7-1.4
			c-0.8,0.1-1.4,0.9-1.3,1.7l0.4,3.6c0.1,0.6-0.3,1.1-0.9,1.1c-0.6,0.1-1.1-0.3-1.1-0.9l-0.4-3.6c-0.2-2,1.2-3.7,3.1-4
			c1-0.1,2,0.2,2.7,0.8c0.6-0.7,1.4-1.2,2.4-1.4c2-0.2,3.7,1.2,4,3.1l0.4,3.6C165.8,22.8,165.4,23.3,164.8,23.4z M173.5,19.3
			l-4.8,0.6c0.4,0.6,1.1,0.9,1.9,0.8l1-0.1c0.6-0.1,1.1,0.3,1.1,0.9c0.1,0.6-0.3,1.1-0.9,1.1l-1,0.1c-2.2,0.3-4.3-1.4-4.5-3.6
			c-0.3-2.2,1.4-4.3,3.6-4.5c2.2-0.3,4.3,1.4,4.5,3.6C174.4,18.7,174,19.2,173.5,19.3z"/>
	</g>
	<g>
		<path class="st0" d="M97.7,5.1c0.1,0,0.2,0,0.3,0c2,0.2,3.4,1.9,3.3,3.8L100.2,22c-0.2,2.9,1.9,5.5,4.8,5.7c0.1,0,0.3,0,0.4,0
			c2.7,0,5-2.1,5.3-4.9l1.1-13.1c0.2-1.9,1.7-3.3,3.6-3.3c0.1,0,0.2,0,0.3,0c2,0.2,3.4,1.9,3.3,3.8l-1.1,13.1
			c-0.5,6.5-6,11.4-12.4,11.4c-0.3,0-0.7,0-1,0c-6.8-0.6-11.9-6.6-11.4-13.4l1.1-13.1C94.3,6.5,95.9,5.1,97.7,5.1 M97.7,1.1
			C97.7,1.1,97.7,1.1,97.7,1.1c-3.9,0-7.2,3.1-7.5,7l-1.1,13.1c-0.4,4.4,1,8.6,3.9,12c2.8,3.3,6.8,5.4,11.2,5.7
			c0.4,0,0.9,0.1,1.3,0.1c8.5,0,15.7-6.6,16.4-15.1l1.1-13.1c0.3-4.2-2.8-7.8-6.9-8.2c-0.2,0-0.4,0-0.6,0c-3.9,0-7.2,3.1-7.5,7
			l-1.1,13.1c-0.1,0.7-0.6,1.2-1.3,1.2c0,0-0.1,0-0.1,0c-0.7-0.1-1.2-0.7-1.2-1.4l1.1-13.1c0.2-2-0.5-4-1.8-5.5
			c-1.3-1.5-3.1-2.5-5.2-2.6C98.2,1.1,97.9,1.1,97.7,1.1L97.7,1.1L97.7,1.1z"/>
	</g>
	<g>
		<path class="st0" d="M126.6,10.1c0.3,0,0.6,0,0.8,0.1l13.1,3.9c1.6,0.5,2.4,2.2,1.8,3.7c-0.4,1.1-1.5,1.7-2.6,1.7
			c-0.3,0-0.6,0-0.8-0.1l-2.8-0.8c-0.1,0-0.2,0-0.3,0c-0.5,0-0.9,0.3-1.1,0.8L131,32c-0.4,1.2-1.5,2-2.7,2c-0.3,0-0.7-0.1-1-0.2
			c-1.3-0.5-2-2.1-1.6-3.5l3.7-12.5c0.2-0.6-0.2-1.2-0.7-1.4l-2.9-0.8c-1.6-0.5-2.4-2.2-1.8-3.7C124.4,10.8,125.5,10.1,126.6,10.1
			 M126.6,6.1c-2.8,0-5.3,1.7-6.3,4.2c-0.7,1.8-0.6,3.8,0.2,5.5c0.8,1.7,2.4,3,4.2,3.5l0.1,0l-2.9,9.8c-1,3.4,0.7,7,3.9,8.3
			c0.8,0.3,1.7,0.5,2.5,0.5c3,0,5.6-2,6.5-4.9l2.9-9.9c0.6,0.2,1.3,0.3,2,0.3c2.8,0,5.3-1.7,6.3-4.2c0.7-1.8,0.6-3.8-0.2-5.5
			c-0.8-1.7-2.4-3-4.2-3.5l-13.1-3.9C127.9,6.2,127.3,6.1,126.6,6.1L126.6,6.1z"/>
	</g>
	<g>
		<g>
			<g>
				<path class="st0" d="M17,10c5.7,0,9.7,4.2,10.5,11.1c0.8,7.4-2.7,12.7-9.1,13.4l-8,0.9c-0.1,0-0.2,0-0.3,0c-1.5,0-2.8-1.1-3-2.7
					L5,14.3c-0.2-1.7,1-3.1,2.7-3.3l8-0.9C16.1,10,16.5,10,17,10 M17,6c-0.6,0-1.2,0-1.8,0.1L7.2,7C5.3,7.2,3.6,8.1,2.5,9.6
					c-1.2,1.5-1.7,3.3-1.5,5.2L3,33.2c0.4,3.6,3.4,6.2,7,6.2c0.3,0,0.5,0,0.8,0l8-0.9c4.2-0.5,7.8-2.6,10.1-5.9
					c2.2-3.2,3-7.3,2.5-11.9C30.4,11.8,24.8,6,17,6L17,6z"/>
			</g>
		</g>
		<g>
			<path class="st0" d="M16.4,20.6c0.6,0,1.2,1.1,1.3,1.6c0,0.3-0.2,1.8-1,1.9L16,24.2l-0.4-3.5l0.6-0.1
				C16.3,20.6,16.3,20.6,16.4,20.6 M16.4,16.6c-0.2,0-0.4,0-0.6,0l-3.5,0.4c-0.6,0.1-1,0.6-1,1.2l1,9.3c0.1,0.6,0.5,1,1.1,1
				c0,0,0.1,0,0.1,0l3.5-0.4c3.5-0.4,4.8-4.2,4.5-6.3C21.4,19.8,19.6,16.6,16.4,16.6L16.4,16.6z"/>
		</g>
	</g>
	<g>
		<g>
			<path class="st1" d="M42.9,37.9c-9.1,0-16.4-7.4-16.4-16.4S33.8,5,42.9,5s16.4,7.4,16.4,16.4S52,37.9,42.9,37.9z"/>
			<path class="st0" d="M42.9,7c8,0,14.4,6.5,14.4,14.4c0,8-6.5,14.4-14.4,14.4s-14.4-6.5-14.4-14.4C28.5,13.5,34.9,7,42.9,7
				 M42.9,3c-10.2,0-18.4,8.3-18.4,18.4c0,10.2,8.3,18.4,18.4,18.4c10.2,0,18.4-8.3,18.4-18.4C61.3,11.3,53.1,3,42.9,3L42.9,3z"/>
		</g>
		<g>
			<path class="st1" d="M42.9,26.2c-2.6,0-4.8-2.1-4.8-4.8s2.1-4.8,4.8-4.8s4.8,2.1,4.8,4.8S45.5,26.2,42.9,26.2z"/>
			<path class="st0" d="M42.9,18.7c1.5,0,2.8,1.2,2.8,2.8s-1.2,2.8-2.8,2.8c-1.5,0-2.8-1.2-2.8-2.8S41.4,18.7,42.9,18.7 M42.9,14.7
				c-3.7,0-6.8,3-6.8,6.8c0,3.7,3,6.8,6.8,6.8s6.8-3,6.8-6.8C49.7,17.7,46.6,14.7,42.9,14.7L42.9,14.7z"/>
		</g>
	</g>
	<g>
		<path class="st0" d="M83.2,2.8c1.9,0,3.6,1.4,3.8,3.4l2.7,23.2c0.2,1.4-0.4,2.9-1.6,3.7c-0.5,0.4-1.1,0.6-1.7,0.6
			c-0.1,0-0.3,0-0.4,0c-1,0-1.9-0.4-2.7-1.1L72.4,22.1c-0.3-0.3-0.7-0.4-1-0.4c-0.8,0-1.6,0.7-1.5,1.7l1,8.4
			c0.3,2.2-1.4,4.2-3.7,4.2c0,0,0,0-0.1,0c-2,0-3.6-1.6-3.8-3.5L60.6,9.2c-0.2-1.9,1-3.7,2.9-4.1C63.8,5,64,4.9,64.3,4.9
			c1,0,2.1,0.5,2.8,1.2l10.6,10.5c0.3,0.3,0.7,0.4,1.1,0.4c0.8,0,1.6-0.7,1.5-1.7l-0.9-8.2c-0.2-2,1-3.9,3-4.3
			C82.6,2.8,82.9,2.8,83.2,2.8 M83.2-1.2c-0.5,0-1.1,0.1-1.6,0.2c-3.9,0.8-6.6,4.6-6.1,8.7l0.1,1.2L70,3.3c-1.5-1.5-3.6-2.4-5.6-2.4
			c-0.6,0-1.2,0.1-1.8,0.2c-3.8,0.9-6.4,4.6-5.9,8.5l2.7,23.2c0.5,4,3.8,7.1,7.8,7.1l0.1,0c2.2,0,4.3-1,5.7-2.7
			c1.4-1.7,2.1-3.9,1.9-6l-0.2-1.3l5.7,5.6c1.5,1.5,3.4,2.3,5.5,2.3c0.3,0,0.6,0,0.9-0.1c1.3-0.1,2.5-0.6,3.5-1.3
			c2.4-1.6,3.7-4.5,3.3-7.5L90.9,5.7C90.5,1.8,87.1-1.2,83.2-1.2L83.2-1.2z"/>
	</g>
</g>
<rect id="_x3C_Tranche_x3E_" y="-0.5" class="st2" width="182" height="41"/>
</svg>
