<?xml version="1.0" encoding="UTF-8" standalone="no"?>
<svg
   xmlns:dc="http://purl.org/dc/elements/1.1/"
   xmlns:cc="http://creativecommons.org/ns#"
   xmlns:rdf="http://www.w3.org/1999/02/22-rdf-syntax-ns#"
   xmlns:svg="http://www.w3.org/2000/svg"
   xmlns="http://www.w3.org/2000/svg"
   xmlns:sodipodi="http://sodipodi.sourceforge.net/DTD/sodipodi-0.dtd"
   xmlns:inkscape="http://www.inkscape.org/namespaces/inkscape"
   viewBox="0 0 15.97225 10.6473"
   height="10.6473"
   width="15.97225"
   xml:space="preserve"
   version="1.1"
   id="svg2"
   inkscape:version="0.48.5 r10040"
   sodipodi:docname="badge_crown_pink.svg"><sodipodi:namedview
     pagecolor="#ffffff"
     bordercolor="#666666"
     borderopacity="1"
     objecttolerance="10"
     gridtolerance="10"
     guidetolerance="10"
     inkscape:pageopacity="0"
     inkscape:pageshadow="2"
     inkscape:window-width="1920"
     inkscape:window-height="1017"
     id="namedview3007"
     showgrid="false"
     inkscape:zoom="77.954037"
     inkscape:cx="5.7796966"
     inkscape:cy="5.3236499"
     inkscape:window-x="-8"
     inkscape:window-y="-8"
     inkscape:window-maximized="1"
     inkscape:current-layer="g10" /><metadata
     id="metadata8"><rdf:RDF><cc:Work
         rdf:about=""><dc:format>image/svg+xml</dc:format><dc:type
           rdf:resource="http://purl.org/dc/dcmitype/StillImage" /></cc:Work></rdf:RDF></metadata><defs
     id="defs6"><clipPath
       id="clipPath16"
       clipPathUnits="userSpaceOnUse"><path
         id="path18"
         d="m 0,8.518 12.778,0 L 12.778,0 0,0 0,8.518 Z" /></clipPath></defs><g
     transform="matrix(1.25,0,0,-1.25,0,10.6473)"
     id="g10"><g
       id="g12"><g
         clip-path="url(#clipPath16)"
         id="g14"><g
           transform="translate(12.6511,5.5491)"
           id="g20"><path
             id="path22"
             style="fill:#fbec4d;fill-opacity:1;fill-rule:nonzero;stroke:none"
             d="m 0,0 c 0.259,0.458 0.109,1.056 -0.348,1.315 -0.469,0.269 -1.057,0.109 -1.316,-0.349 -0.239,-0.408 -0.139,-0.937 0.21,-1.225 -0.798,-0.678 -3.238,-2.75 -3.258,-2.75 l -1.445,4.055 c 0.509,0.03 0.897,0.448 0.897,0.956 0,0.528 -0.428,0.967 -0.976,0.967 l -0.05,0 c -0.538,0 -0.976,-0.439 -0.976,-0.967 0,-0.508 0.388,-0.926 0.896,-0.956 L -7.81,-3.009 c -0.01,0 -2.451,2.072 -3.268,2.75 0.369,0.288 0.469,0.817 0.229,1.225 -0.269,0.458 -0.856,0.618 -1.325,0.349 -0.448,-0.259 -0.617,-0.857 -0.348,-1.315 0.259,-0.439 0.807,-0.608 1.275,-0.379 l 0.896,-5.17 8.189,0 0.897,5.17 C -0.807,-0.608 -0.259,-0.438 0,0" /></g></g></g></g></svg>