<?xml version="1.0" encoding="UTF-8" standalone="no"?>
<!-- Created with Inkscape (http://www.inkscape.org/) -->

<svg
   xmlns:dc="http://purl.org/dc/elements/1.1/"
   xmlns:cc="http://creativecommons.org/ns#"
   xmlns:rdf="http://www.w3.org/1999/02/22-rdf-syntax-ns#"
   xmlns:svg="http://www.w3.org/2000/svg"
   xmlns="http://www.w3.org/2000/svg"
   xmlns:xlink="http://www.w3.org/1999/xlink"
   xmlns:sodipodi="http://sodipodi.sourceforge.net/DTD/sodipodi-0.dtd"
   xmlns:inkscape="http://www.inkscape.org/namespaces/inkscape"
   id="svg3033"
   version="1.1"
   inkscape:version="0.48.5 r10040"
   width="480"
   height="320"
   viewBox="72 -57 202 118"
   sodipodi:docname="police-hat.svg">
  <g
     inkscape:groupmode="layer"
     id="layer3"
     inkscape:label="vecto ok"
     style="display:inline" width="40">
    <path
       style="fill:#02e0b6;fill-opacity:1;stroke:none"
       d="m 223.69232,316.5672 c -26.9579,-2.35933 -65.06371,-15.5271 -88.5,-30.58189 -11.19438,-7.19094 -45.96692,-39.90151 -47.47805,-44.66266 -0.90127,-2.83964 -3.02523,-3.04086 -32.2529,-3.05552 -27.23095,-0.0136 -27.23095,-0.0136 -27.757319,-2.26365 -0.289503,-1.2375 -2.047239,-11.72278 -3.906079,-23.30063 C 20.043824,189.32001 17.629753,182.72164 8.555198,171.03986 3.483831,164.51144 2.546126,165.70609 20.600645,155.69371 37.04689,146.57323 60.9287,121.58112 83.85034,89.50348 c 6.38644,-8.9375 11.81947,-16.25 12.0734,-16.25 33.50061,0 101.13075,-30.10818 136.76858,-60.88783 8.50909,-7.34913 7.28852,-7.32052 15.45069,-0.36217 36.49268,31.11048 92.43673,56.82871 132.26833,60.80553 6.71902,0.67083 6.71902,0.67083 15.81339,13.65257 28.086,40.09128 58.12151,70.5362 75.3938,76.42146 6.23824,2.12558 6.42258,2.92023 1.78944,7.71372 -8.58151,8.8785 -16.05238,33.05516 -18.82088,60.90672 -0.67096,6.75 -0.67096,6.75 -28.28286,6.76365 -31.02521,0.0153 -31.49062,0.0722 -33.13758,4.04832 -0.65418,1.57934 -2.02008,3.13516 -3.03533,3.45739 -1.01525,0.32223 -3.40164,2.7052 -5.30309,5.2955 -30.86992,42.05323 -101.40899,70.7261 -161.13591,65.49886 z m 42.5,-21.24811 c 39.31298,-3.97495 80.3414,-21.4971 101.99305,-43.55853 5.39803,-5.50019 5.03082,-5.918 -6.49305,-7.3877 -4.95,-0.6313 -19.125,-2.47073 -31.5,-4.08762 -93.87503,-12.2655 -83.0207,-11.30055 -119,-10.5791 -29.82302,0.598 -34.47684,0.93772 -56.5,4.12443 -46.37767,6.71076 -50.47134,8.71903 -38.99108,19.12819 36.46427,33.06215 90.90225,48.3854 150.49108,42.36033 z m 90.46899,-66.01544 c 4.0577,-6.56549 -91.72091,-20.03032 -132.46899,-18.62286 -25.7619,0.88983 -65.50403,6.93095 -84,12.76867 -14.30141,4.51383 -8.59022,4.62814 15.5,0.31021 43.01221,-7.70949 189.03877,-3.30075 198.3273,5.98777 0.79611,0.79612 2.00043,0.5938 2.64169,-0.44379 z M 122.43159,219.22671 c 7.96585,-3.06897 39.3929,-10.67403 46.76073,-11.31567 3.575,-0.31134 20.225,-1.97787 37,-3.70341 40.9763,-4.21496 60.45816,-3.7775 96.5,2.16692 28.84507,4.75745 33.19928,5.71524 50.16151,11.03391 7.23883,2.2698 13.90959,3.83985 14.82391,3.48899 2.37738,-0.91229 1.42765,-4.08233 -1.34099,-4.47602 -1.28433,-0.18262 -6.81594,-3.18227 -12.29246,-6.66587 -34.08062,-21.67861 -78.27873,-31.34969 -99.03948,-21.67104 -16.03458,7.47531 -12.95224,7.4968 -29.15712,-0.20324 -16.1087,-7.65434 -39.67246,-5.20788 -69.25573,7.19034 -9.86396,4.13395 -24.83916,12.05145 -35.6282,18.83689 -2.05071,1.28973 -4.38665,2.34497 -5.19098,2.34497 -2.12882,0 -2.94004,1.8618 -1.54411,3.5438 1.55447,1.87302 1.92766,1.84707 8.20292,-0.57057 z m -35.03342,-3.49497 c 3.69973,-4.25507 10.19636,-7.47826 15.07309,-7.47826 3.72833,0 5.42759,-0.75419 10.82193,-4.80313 6.09487,-4.57475 17.41087,-11.4033 26.6811,-16.10048 2.35508,-1.19331 15.40508,-5.54283 29,-9.66559 33.14051,-10.05012 31.41636,-9.27494 28.83293,-12.9633 -1.18381,-1.69011 -1.16485,-3.13947 0.13041,-9.97251 1.27673,-6.73533 1.32149,-9.3942 0.28406,-16.87567 -1.23146,-8.88069 -1.23146,-8.88069 8.60082,-18.75 10.65813,-10.69828 10.53436,-10.63167 15.32071,-8.24393 3.80339,1.89738 12.7296,1.28529 16.40842,-1.12517 1.96693,-1.28878 2.49645,-1.28954 4.32861,-0.006 3.90214,2.73317 12.40106,3.01144 17.20008,0.56316 4.26194,-2.17428 4.26194,-2.17428 13.77338,7.1343 12.15642,11.89713 11.84588,11.23696 9.78112,20.79326 -1.60265,7.41749 -1.60043,8.25003 0.0399,14.94347 1.03316,4.21589 1.47757,8.47173 1.09667,10.50211 -0.80372,4.2842 -1.22113,4.05714 14.70307,7.99799 22.47608,5.56228 44.51747,15.48191 65.36493,29.41721 11.42162,7.63468 12.09393,7.93805 16.49284,7.44223 4.39524,-0.49541 4.82058,-0.30432 10.23356,4.5977 5.64771,5.1146 5.64771,5.1146 23.88713,5.09929 22.60855,-0.019 21.76755,0.47012 23.18683,-13.48469 0.96921,-9.52963 3.38639,-19.10823 6.16075,-24.41331 2.84803,-5.44593 3.46969,-4.60936 -8.83011,-11.88274 -17.03561,-10.0741 -41.2541,-37.31507 -51.8711,-58.34488 -7.29637,-14.45241 -5.35392,-13.22202 -24.09202,-15.26036 -17.25348,-1.87683 -20.70364,-2.889 -45.31496,-13.294 -14.11237,-5.96633 -49.02205,-25.8223 -55,-31.28297 -4.04487,-3.69486 -13.87044,-10.77802 -16.807,-12.116 -2.13943,-0.97479 -3.42788,-0.28106 -12.82438,6.90498 -35.66668,27.27639 -88.17262,50.18903 -115.01174,50.18903 -9.11427,0 -9.43357,0.20532 -13.80555,8.87726 -13.56019,26.89702 -42.47504,60.47038 -58.62651,68.07191 -3.80865,1.79251 -7.04724,3.37216 -7.19686,3.51034 -0.14962,0.13817 1.4925,5.17704 3.64916,11.19747 2.16157,6.03415 4.25018,14.06432 4.6543,17.89463 1.46752,13.9093 0.61135,13.41411 23.22519,13.43308 18.25662,0.0153 18.25662,0.0153 20.44924,-2.50643 z M 249.45603,182.256 c 6.42638,-2.40441 21.30737,-12.42952 24.09584,-16.23301 1.89847,-2.58952 1.936,-3.20979 0.72705,-12.01525 -0.96116,-7.00067 -1.00561,-10.74072 -0.18068,-15.20317 1.68038,-9.09001 1.45206,-10.20741 -3.09327,-15.13852 -6.1367,-6.65752 -7.00776,-6.9374 -13.37628,-4.29779 -5.43637,2.25325 -5.43637,2.25325 -10.7057,0.0692 -5.71862,-2.37023 -7.81151,-2.66448 -9.28067,-1.30481 -2.99488,2.77167 -8.35023,3.25852 -13.0373,1.18521 -6.21146,-2.74762 -6.06987,-2.78596 -12.6627,3.42865 -6.41146,6.04365 -6.44125,6.1606 -4.10964,16.13111 1.55136,6.63396 1.55224,7.57704 0.0128,13.70552 -2.90233,11.55424 0.0423,16.29153 15.34632,24.6891 13.69824,7.51645 17.54433,8.24626 26.26421,4.98373 z"
       id="path3045-2"
       inkscape:connector-curvature="0" />
  </g>
</svg>
