<?xml version="1.0" encoding="UTF-8" standalone="no"?>
<svg
   xmlns:dc="http://purl.org/dc/elements/1.1/"
   xmlns:cc="http://creativecommons.org/ns#"
   xmlns:rdf="http://www.w3.org/1999/02/22-rdf-syntax-ns#"
   xmlns:svg="http://www.w3.org/2000/svg"
   xmlns="http://www.w3.org/2000/svg"
   xmlns:sodipodi="http://sodipodi.sourceforge.net/DTD/sodipodi-0.dtd"
   xmlns:inkscape="http://www.inkscape.org/namespaces/inkscape"
   viewBox="0 0 116.89879 116.89879"
   height="116.8988"
   width="116.8988"
   xml:space="preserve"
   version="1.1"
   id="svg2"
   inkscape:version="0.48.5 r10040"
   sodipodi:docname="settings.svg"><sodipodi:namedview
     pagecolor="#ffffff"
     bordercolor="#666666"
     borderopacity="1"
     objecttolerance="10"
     gridtolerance="10"
     guidetolerance="10"
     inkscape:pageopacity="0"
     inkscape:pageshadow="2"
     inkscape:window-width="1858"
     inkscape:window-height="1057"
     id="namedview12"
     showgrid="false"
     inkscape:zoom="2.2518565"
     inkscape:cx="15.742738"
     inkscape:cy="23.535026"
     inkscape:window-x="-8"
     inkscape:window-y="-8"
     inkscape:window-maximized="1"
     inkscape:current-layer="svg2"
     fit-margin-top="0"
     fit-margin-left="0"
     fit-margin-right="0"
     fit-margin-bottom="0" /><metadata
     id="metadata8"><rdf:RDF><cc:Work
         rdf:about=""><dc:format>image/svg+xml</dc:format><dc:type
           rdf:resource="http://purl.org/dc/dcmitype/StillImage" /><dc:title /></cc:Work></rdf:RDF></metadata><defs
     id="defs6"><clipPath
       id="clipPath16"
       clipPathUnits="userSpaceOnUse"><path
         id="path18"
         d="m 0,29.643 29.643,0 L 29.643,0 0,0 0,29.643 z"
         inkscape:connector-curvature="0" /></clipPath></defs><g
     transform="matrix(2.4143243,0,0,-2.4143243,21.880948,94.505704)"
     id="g10"><g
       id="g12"><g
         clip-path="url(#clipPath16)"
         id="g14"><g
           transform="translate(14.8213,10.0975)"
           id="g20"><path
             id="path22"
             style="fill:#dadada;fill-opacity:1;fill-rule:nonzero;stroke:none"
             d="m 0,0 c -2.607,0 -4.722,2.115 -4.722,4.724 0,2.609 2.115,4.724 4.722,4.724 2.609,0 4.724,-2.115 4.724,-4.724 C 4.724,2.115 2.609,0 0,0 m 14.821,3.108 0,3.375 -0.476,0.156 -3.611,1.178 -0.965,2.326 1.854,3.919 -2.385,2.385 -0.447,-0.226 -3.388,-1.721 -2.326,0.964 -1.463,4.081 -3.373,0 -0.154,-0.476 -1.18,-3.611 -2.325,-0.963 -3.92,1.851 -2.385,-2.386 0.228,-0.446 1.719,-3.387 -0.963,-2.325 -4.082,-1.462 0,-3.373 0.477,-0.156 3.612,-1.178 0.961,-2.329 -1.851,-3.918 2.384,-2.386 0.448,0.227 3.387,1.721 2.327,-0.965 1.462,-4.081 3.373,0 0.154,0.476 1.18,3.612 2.325,0.963 3.921,-1.852 2.385,2.387 -0.227,0.446 -1.72,3.387 0.964,2.326 4.08,1.461 z"
             inkscape:connector-curvature="0" /></g></g></g></g><path
     sodipodi:type="arc"
     style="fill:none;stroke:#dadada;stroke-width:7.18293333;stroke-linejoin:miter;stroke-miterlimit:4;stroke-opacity:1;stroke-dasharray:none"
     id="path3759"
     sodipodi:cx="8.511095"
     sodipodi:cy="26.749157"
     sodipodi:rx="40.427704"
     sodipodi:ry="40.427704"
     d="m 48.938799,26.749157 a 40.427704,40.427704 0 1 1 -80.855408,0 40.427704,40.427704 0 1 1 80.855408,0 z"
     transform="matrix(1.3278169,0,0,1.3278169,47.148223,22.931416)" /></svg>