<?xml version="1.0" encoding="UTF-8" standalone="no"?>
<svg
   xmlns:dc="http://purl.org/dc/elements/1.1/"
   xmlns:cc="http://creativecommons.org/ns#"
   xmlns:rdf="http://www.w3.org/1999/02/22-rdf-syntax-ns#"
   xmlns:svg="http://www.w3.org/2000/svg"
   xmlns="http://www.w3.org/2000/svg"
   viewBox="0 0 243.14 235.79375"
   height="235.79375"
   width="243.14"
   xml:space="preserve"
   version="1.1"
   id="svg2"><metadata
     id="metadata8"><rdf:RDF><cc:Work
         rdf:about=""><dc:format>image/svg+xml</dc:format><dc:type
           rdf:resource="http://purl.org/dc/dcmitype/StillImage" /></cc:Work></rdf:RDF></metadata><defs
     id="defs6"><clipPath
       id="clipPath16"
       clipPathUnits="userSpaceOnUse"><path
         id="path18"
         d="m 0,188.635 194.512,0 L 194.512,0 0,0 0,188.635 Z" /></clipPath></defs><g
     transform="matrix(1.25,0,0,-1.25,0,235.79375)"
     id="g10"><g
       id="g12"><g
         clip-path="url(#clipPath16)"
         id="g14"><g
           transform="translate(193.1695,66.3279)"
           id="g20"><path
             id="path22"
             style="fill:#d11953;fill-opacity:1;fill-rule:nonzero;stroke:none"
             d="m 0,0 c 0,-36.632 -42.942,-66.328 -95.913,-66.328 -52.972,0 -95.914,29.696 -95.914,66.328 0,36.632 42.942,66.328 95.914,66.328 C -42.942,66.328 0,36.632 0,0" /></g><g
           transform="translate(193.0123,73.3279)"
           id="g24"><path
             id="path26"
             style="fill:#ff1760;fill-opacity:1;fill-rule:nonzero;stroke:none"
             d="m 0,0 c 0,-37.725 -42.871,-68.307 -95.756,-68.307 -52.885,0 -95.756,30.582 -95.756,68.307 0,37.725 42.871,68.307 95.756,68.307 C -42.871,68.307 0,37.725 0,0" /></g><g
           transform="translate(93.6162,107.8139)"
           id="g28"><path
             id="path30"
             style="fill:#d11953;fill-opacity:1;fill-rule:nonzero;stroke:none"
             d="m 0,0 c -23.478,0 -33.852,-16.38 -28.392,-27.3 5.46,-10.92 9.828,-5.46 9.828,-5.46 6.552,9.828 15.47,10.492 22.204,10.706 6.734,0.214 19.838,-4.7 22.022,-10.706 4.368,-2.184 14.742,6.006 12.012,17.472 C 24.57,-0.546 9.282,0.546 0,0" /></g><g
           transform="translate(131.473,87.6119)"
           id="g32"><path
             id="path34"
             style="fill:none;stroke:#f8f8f8;stroke-width:2.4460001;stroke-linecap:butt;stroke-linejoin:round;stroke-miterlimit:10;stroke-dasharray:none;stroke-opacity:1"
             d="m 0,0 c 0,-10.931 -15.319,-19.792 -34.217,-19.792 -18.897,0 -34.217,8.861 -34.217,19.792 0,10.931 15.32,19.792 34.217,19.792 C -15.319,19.792 0,10.931 0,0 Z" /></g><g
           transform="translate(74.6874,72.7057)"
           id="g36"><path
             id="path38"
             style="fill:none;stroke:#f8f8f8;stroke-width:2.89899993;stroke-linecap:butt;stroke-linejoin:round;stroke-miterlimit:10;stroke-dasharray:none;stroke-opacity:1"
             d="M 0,0 C 0,7.21 10.104,13.054 22.569,13.054 35.033,13.054 45.138,7.21 45.138,0" /></g><g
           transform="translate(97.2561,34.2911)"
           id="g40"><path
             id="path42"
             style="fill:#d11953;fill-opacity:1;fill-rule:nonzero;stroke:none"
             d="m 0,0 c -48.812,0 -88.382,22.76 -88.382,50.837 0,28.076 39.57,50.837 88.382,50.837 48.812,0 88.382,-22.761 88.382,-50.837 C 88.382,22.76 48.812,0 0,0 m 0,107.343 c -52.885,0 -95.756,-30.582 -95.756,-68.306 0,-37.725 42.871,-68.307 95.756,-68.307 52.885,0 95.756,30.582 95.756,68.307 0,37.724 -42.871,68.306 -95.756,68.306" /></g><g
           transform="translate(175.7845,41.2834)"
           id="g44"><path
             id="path46"
             style="fill:#d11953;fill-opacity:1;fill-rule:nonzero;stroke:none"
             d="m 0,0 c 0,-4.021 -9.452,-7.28 -21.112,-7.28 -11.66,0 -21.112,3.259 -21.112,7.28 0,4.021 9.452,7.28 21.112,7.28 C -9.452,7.28 0,4.021 0,0" /></g><g
           transform="translate(160.6733,84.0228)"
           id="g48"><path
             id="path50"
             style="fill:none;stroke:#fcee39;stroke-width:3.49900007;stroke-linecap:butt;stroke-linejoin:miter;stroke-miterlimit:10;stroke-dasharray:none;stroke-opacity:1"
             d="M 0,0 C 9.101,-6.825 21.659,3.003 16.199,12.831" /></g><g
           transform="translate(152.2103,85.6608)"
           id="g52"><path
             id="path54"
             style="fill:none;stroke:#fcee39;stroke-width:3.49900007;stroke-linecap:butt;stroke-linejoin:miter;stroke-miterlimit:10;stroke-dasharray:none;stroke-opacity:1"
             d="M 0,0 C -16.834,1.365 -9.19,21.021 -9.19,21.021" /></g><g
           transform="translate(146.296,67.9157)"
           id="g56"><path
             id="path58"
             style="fill:none;stroke:#fcee39;stroke-width:3.49900007;stroke-linecap:butt;stroke-linejoin:miter;stroke-miterlimit:10;stroke-dasharray:none;stroke-opacity:1"
             d="M 0,0 C -5.12,-13.176 -1.221,-23.405 -0.911,-27.3" /></g><g
           transform="translate(152.302,65.1857)"
           id="g60"><path
             id="path62"
             style="fill:none;stroke:#fcee39;stroke-width:3.49900007;stroke-linecap:butt;stroke-linejoin:miter;stroke-miterlimit:10;stroke-dasharray:none;stroke-opacity:1"
             d="M 0,0 C 1.367,-17.582 15.834,-9.282 15.834,-9.282" /></g><g
           transform="translate(153.3422,96.7383)"
           id="g64"><path
             id="path66"
             style="fill:#ff1760;fill-opacity:1;fill-rule:nonzero;stroke:none"
             d="m 0,0 c 0.689,-3.803 4.331,-6.328 8.134,-5.638 3.803,0.689 6.327,4.33 5.638,8.133 C 13.083,6.298 9.442,8.823 5.638,8.134 1.835,7.445 -0.689,3.803 0,0" /></g><g
           transform="translate(153.3422,96.7383)"
           id="g68"><path
             id="path70"
             style="fill:none;stroke:#fcee39;stroke-width:3.49900007;stroke-linecap:butt;stroke-linejoin:miter;stroke-miterlimit:10;stroke-dasharray:none;stroke-opacity:1"
             d="m 0,0 c 0.689,-3.803 4.331,-6.328 8.134,-5.638 3.803,0.689 6.327,4.33 5.638,8.133 C 13.083,6.298 9.442,8.823 5.638,8.134 1.835,7.445 -0.689,3.803 0,0 Z" /></g><g
           transform="translate(155.7593,82.3847)"
           id="g72"><path
             id="path74"
             style="fill:none;stroke:#fcee39;stroke-width:13.10400009;stroke-linecap:round;stroke-linejoin:bevel;stroke-miterlimit:10;stroke-dasharray:none;stroke-opacity:1"
             d="M 0,0 C -4.368,-6.552 -5.641,-13.923 -5.641,-13.923" /></g><g
           transform="translate(96.4233,37.8254)"
           id="g76"><path
             id="path78"
             style="fill:#d11953;fill-opacity:1;fill-rule:nonzero;stroke:none"
             d="m 0,0 c -0.217,-4.015 -13.411,-6.566 -29.47,-5.698 -16.06,0.868 -28.902,4.826 -28.685,8.841 0.217,4.014 13.411,6.566 29.47,5.698 C -12.626,7.973 0.217,4.015 0,0" /></g><g
           transform="translate(58.9022,47.373)"
           id="g80"><path
             id="path82"
             style="fill:none;stroke:#243a6e;stroke-width:13.10400009;stroke-linecap:round;stroke-linejoin:bevel;stroke-miterlimit:10;stroke-dasharray:none;stroke-opacity:1"
             d="M 0,0 C 5.311,-6.496 15.129,-6.129 15.129,-6.129" /></g><g
           transform="translate(56.985,60.1299)"
           id="g84"><path
             id="path86"
             style="fill:#ff1760;fill-opacity:1;fill-rule:nonzero;stroke:none"
             d="m 0,0 c -1.202,-3.673 -5.154,-5.677 -8.827,-4.476 -3.673,1.202 -5.677,5.154 -4.476,8.827 1.202,3.674 5.154,5.678 8.827,4.476 C -0.802,7.625 1.202,3.673 0,0" /></g><g
           transform="translate(56.985,60.1299)"
           id="g88"><path
             id="path90"
             style="fill:none;stroke:#243a6e;stroke-width:3.49900007;stroke-linecap:butt;stroke-linejoin:miter;stroke-miterlimit:10;stroke-dasharray:none;stroke-opacity:1"
             d="m 0,0 c -1.202,-3.673 -5.154,-5.677 -8.827,-4.476 -3.673,1.202 -5.677,5.154 -4.476,8.827 1.202,3.674 5.154,5.678 8.827,4.476 C -0.802,7.625 1.202,3.673 0,0 Z" /></g><g
           transform="translate(43.8178,57.9018)"
           id="g92"><path
             id="path94"
             style="fill:none;stroke:#243a6e;stroke-width:3.49900007;stroke-linecap:butt;stroke-linejoin:miter;stroke-miterlimit:10;stroke-dasharray:none;stroke-opacity:1"
             d="M 0,0 C -9.138,-4.988 -11.524,-11.64 9.837,-11.276" /></g><g
           transform="translate(60.2691,51.9614)"
           id="g96"><path
             id="path98"
             style="fill:none;stroke:#243a6e;stroke-width:3.49900007;stroke-linecap:butt;stroke-linejoin:miter;stroke-miterlimit:10;stroke-dasharray:none;stroke-opacity:1"
             d="M 0,0 C 8.605,-1.553 16.026,6.978 15.739,12.897" /></g><g
           transform="translate(75.4399,44.7275)"
           id="g100"><path
             id="path102"
             style="fill:none;stroke:#243a6e;stroke-width:3.49900007;stroke-linecap:butt;stroke-linejoin:miter;stroke-miterlimit:10;stroke-dasharray:none;stroke-opacity:1"
             d="M 0,0 C 8.851,10.906 17.38,14.141 14.821,0.898" /></g><g
           transform="translate(75.5283,37.3666)"
           id="g104"><path
             id="path106"
             style="fill:none;stroke:#243a6e;stroke-width:3.49900007;stroke-linecap:butt;stroke-linejoin:miter;stroke-miterlimit:10;stroke-dasharray:none;stroke-opacity:1"
             d="M 0,0 C 6.117,1.729 17.581,4.927 23.463,2.28" /></g><g
           transform="translate(193.0123,73.3279)"
           id="g108"><path
             id="path110"
             style="fill:none;stroke:#ffffff;stroke-width:3;stroke-linecap:butt;stroke-linejoin:miter;stroke-miterlimit:10;stroke-dasharray:none;stroke-opacity:1"
             d="m 0,0 c 0,-37.725 -42.871,-68.307 -95.756,-68.307 -52.885,0 -95.756,30.582 -95.756,68.307 0,37.725 42.871,68.307 95.756,68.307 C -42.871,68.307 0,37.725 0,0 Z" /></g><g
           transform="translate(155.3935,123.0483)"
           id="g112"><path
             id="path114"
             style="fill:#d11953;fill-opacity:1;fill-rule:nonzero;stroke:none"
             d="m 0,0 c -0.479,-3.735 -11.594,-8.572 -24.825,-10.804 -13.231,-2.232 -23.568,-1.014 -23.088,2.72 0.479,3.735 11.593,8.572 24.824,10.804 C -9.858,4.952 0.479,3.735 0,0" /></g><g
           transform="translate(147.4312,139.2058)"
           id="g116"><path
             id="path118"
             style="fill:none;stroke:#fcee39;stroke-width:13.10400009;stroke-linecap:round;stroke-linejoin:bevel;stroke-miterlimit:10;stroke-dasharray:none;stroke-opacity:1"
             d="M 0,0 C -1.61,-8.235 -8.407,-11.192 -8.407,-11.192" /></g><g
           transform="translate(156.3859,152.3757)"
           id="g120"><path
             id="path122"
             style="fill:#ff1760;fill-opacity:1;fill-rule:nonzero;stroke:none"
             d="m 0,0 c -1.621,-3.508 -5.78,-5.038 -9.288,-3.417 -3.509,1.621 -5.039,5.78 -3.417,9.288 1.621,3.509 5.78,5.039 9.288,3.417 C 0.092,7.667 1.621,3.508 0,0" /></g><g
           transform="translate(156.3859,152.3757)"
           id="g124"><path
             id="path126"
             style="fill:none;stroke:#fcee39;stroke-width:3.49900007;stroke-linecap:butt;stroke-linejoin:miter;stroke-miterlimit:10;stroke-dasharray:none;stroke-opacity:1"
             d="m 0,0 c -1.621,-3.508 -5.78,-5.038 -9.288,-3.417 -3.509,1.621 -5.039,5.78 -3.417,9.288 1.621,3.509 5.78,5.039 9.288,3.417 C 0.092,7.667 1.621,3.508 0,0 Z" /></g><g
           transform="translate(134.6627,128.5992)"
           id="g128"><path
             id="path130"
             style="fill:none;stroke:#fcee39;stroke-width:3.49900007;stroke-linecap:butt;stroke-linejoin:miter;stroke-miterlimit:10;stroke-dasharray:none;stroke-opacity:1"
             d="M 0,0 C -12.51,12.765 -14.662,-7.081 -14.662,-7.081" /></g><g
           transform="translate(146.6283,127.7136)"
           id="g132"><path
             id="path134"
             style="fill:none;stroke:#fcee39;stroke-width:3.49900007;stroke-linecap:butt;stroke-linejoin:miter;stroke-miterlimit:10;stroke-dasharray:none;stroke-opacity:1"
             d="M 0,0 -24.33,-18.053" /></g><g
           transform="translate(151.9261,139.3515)"
           id="g136"><path
             id="path138"
             style="fill:none;stroke:#fcee39;stroke-width:3.49900007;stroke-linecap:butt;stroke-linejoin:miter;stroke-miterlimit:10;stroke-dasharray:none;stroke-opacity:1"
             d="M 0,0 C 12.732,-9.279 0.751,-13.518 0.751,-13.518" /></g><g
           transform="translate(145.5757,143.3017)"
           id="g140"><path
             id="path142"
             style="fill:none;stroke:#fcee39;stroke-width:3.49900007;stroke-linecap:butt;stroke-linejoin:miter;stroke-miterlimit:10;stroke-dasharray:none;stroke-opacity:1"
             d="M 0,0 C -4.61,-4.994 -18.2,4.368 -21.112,12.376" /></g><g
           transform="translate(97.2999,122.1637)"
           id="g144"><path
             id="path146"
             style="fill:#d11953;fill-opacity:1;fill-rule:nonzero;stroke:none"
             d="m 0,0 c 0,-4.021 -9.452,-7.28 -21.112,-7.28 -11.66,0 -21.112,3.259 -21.112,7.28 0,4.021 9.452,7.28 21.112,7.28 C -9.452,7.28 0,4.021 0,0" /></g><g
           transform="translate(68.0551,165.9229)"
           id="g148"><path
             id="path150"
             style="fill:none;stroke:#29ecb8;stroke-width:3.49900007;stroke-linecap:butt;stroke-linejoin:miter;stroke-miterlimit:10;stroke-dasharray:none;stroke-opacity:1"
             d="M 0,0 C -16.653,-11.739 -3.822,-12.558 1.638,-13.377" /></g><g
           transform="translate(76.5181,167.5609)"
           id="g152"><path
             id="path154"
             style="fill:none;stroke:#29ecb8;stroke-width:3.49900007;stroke-linecap:butt;stroke-linejoin:miter;stroke-miterlimit:10;stroke-dasharray:none;stroke-opacity:1"
             d="M 0,0 C 9.841,-0.203 17.434,17.592 17.434,17.592" /></g><g
           transform="translate(79.2481,149.2699)"
           id="g156"><path
             id="path158"
             style="fill:none;stroke:#29ecb8;stroke-width:3.49900007;stroke-linecap:butt;stroke-linejoin:miter;stroke-miterlimit:10;stroke-dasharray:none;stroke-opacity:1"
             d="M 0,0 C 5.12,-13.176 4.406,-22.859 4.095,-26.754" /></g><g
           transform="translate(72.5026,146.3661)"
           id="g160"><path
             id="path162"
             style="fill:none;stroke:#29ecb8;stroke-width:3.49900007;stroke-linecap:butt;stroke-linejoin:miter;stroke-miterlimit:10;stroke-dasharray:none;stroke-opacity:1"
             d="M 0,0 C -1.367,-17.582 -6.421,-26.524 -6.421,-26.524" /></g><g
           transform="translate(75.3862,178.6384)"
           id="g164"><path
             id="path166"
             style="fill:#ff1760;fill-opacity:1;fill-rule:nonzero;stroke:none"
             d="m 0,0 c -0.689,-3.803 -4.331,-6.328 -8.134,-5.638 -3.803,0.689 -6.327,4.33 -5.638,8.133 0.689,3.803 4.33,6.328 8.134,5.639 C -1.835,7.445 0.689,3.803 0,0" /></g><g
           transform="translate(75.3862,178.6384)"
           id="g168"><path
             id="path170"
             style="fill:none;stroke:#29ecb8;stroke-width:3.49900007;stroke-linecap:butt;stroke-linejoin:miter;stroke-miterlimit:10;stroke-dasharray:none;stroke-opacity:1"
             d="m 0,0 c -0.689,-3.803 -4.331,-6.328 -8.134,-5.638 -3.803,0.689 -6.327,4.33 -5.638,8.133 0.689,3.803 4.33,6.328 8.134,5.639 C -1.835,7.445 0.689,3.803 0,0 Z" /></g><g
           transform="translate(72.9691,164.2849)"
           id="g172"><path
             id="path174"
             style="fill:none;stroke:#29ecb8;stroke-width:13.10400009;stroke-linecap:round;stroke-linejoin:bevel;stroke-miterlimit:10;stroke-dasharray:none;stroke-opacity:1"
             d="M 0,0 C 4.368,-6.552 2.184,-13.377 2.184,-13.377" /></g><g
           transform="translate(53.2378,95.2049)"
           id="g176"><path
             id="path178"
             style="fill:#d11953;fill-opacity:1;fill-rule:nonzero;stroke:none"
             d="m 0,0 c 0,-4.021 -9.452,-7.28 -21.112,-7.28 -11.66,0 -21.112,3.259 -21.112,7.28 0,4.021 9.452,7.28 21.112,7.28 C -9.452,7.28 0,4.021 0,0" /></g><g
           transform="translate(33.384,120.3318)"
           id="g180"><path
             id="path182"
             style="fill:none;stroke:#fcee39;stroke-width:3.49900007;stroke-linecap:butt;stroke-linejoin:miter;stroke-miterlimit:10;stroke-dasharray:none;stroke-opacity:1"
             d="M 0,0 C 9.009,-12.285 3.132,-19.31 2.821,-23.205" /></g><g
           transform="translate(26.377,118.6028)"
           id="g184"><path
             id="path186"
             style="fill:none;stroke:#fcee39;stroke-width:3.49900007;stroke-linecap:butt;stroke-linejoin:miter;stroke-miterlimit:10;stroke-dasharray:none;stroke-opacity:1"
             d="M 0,0 C 2.184,-9.828 3.276,-24.388 3.276,-24.388" /></g><g
           transform="translate(29.5221,149.7004)"
           id="g188"><path
             id="path190"
             style="fill:#ff1760;fill-opacity:1;fill-rule:nonzero;stroke:none"
             d="m 0,0 c -0.689,-3.803 -4.331,-6.328 -8.134,-5.638 -3.803,0.689 -6.327,4.33 -5.638,8.133 0.689,3.803 4.33,6.328 8.134,5.639 C -1.835,7.445 0.689,3.803 0,0" /></g><g
           transform="translate(29.5221,149.7004)"
           id="g192"><path
             id="path194"
             style="fill:none;stroke:#fcee39;stroke-width:3.49900007;stroke-linecap:butt;stroke-linejoin:miter;stroke-miterlimit:10;stroke-dasharray:none;stroke-opacity:1"
             d="m 0,0 c -0.689,-3.803 -4.331,-6.328 -8.134,-5.638 -3.803,0.689 -6.327,4.33 -5.638,8.133 0.689,3.803 4.33,6.328 8.134,5.639 C -1.835,7.445 0.689,3.803 0,0 Z" /></g><g
           transform="translate(27.105,135.3468)"
           id="g196"><path
             id="path198"
             style="fill:none;stroke:#fcee39;stroke-width:13.10400009;stroke-linecap:round;stroke-linejoin:bevel;stroke-miterlimit:10;stroke-dasharray:none;stroke-opacity:1"
             d="M 0,0 C 4.368,-6.552 2.184,-13.377 2.184,-13.377" /></g><g
           transform="translate(23.465,137.8948)"
           id="g200"><path
             id="path202"
             style="fill:none;stroke:#fcee39;stroke-width:3.49900007;stroke-linecap:butt;stroke-linejoin:miter;stroke-miterlimit:10;stroke-dasharray:none;stroke-opacity:1"
             d="M 0,0 C -14.924,-8.372 -10.92,-12.012 0.364,-12.74" /></g><g
           transform="translate(30.745,138.9868)"
           id="g204"><path
             id="path206"
             style="fill:none;stroke:#fcee39;stroke-width:3.02800012;stroke-linecap:butt;stroke-linejoin:miter;stroke-miterlimit:10;stroke-dasharray:none;stroke-opacity:1"
             d="M 0,0 C 12.542,-1.456 12.542,-4.004 2.727,-12.376" /></g></g></g></g></svg>