<?xml version="1.0" encoding="UTF-8" standalone="no"?>
<svg
   xmlns:dc="http://purl.org/dc/elements/1.1/"
   xmlns:cc="http://creativecommons.org/ns#"
   xmlns:rdf="http://www.w3.org/1999/02/22-rdf-syntax-ns#"
   xmlns:svg="http://www.w3.org/2000/svg"
   xmlns="http://www.w3.org/2000/svg"
   viewBox="0 0 332.55374 233.31375"
   height="233.31375"
   width="332.55374"
   xml:space="preserve"
   version="1.1"
   id="svg2"><metadata
     id="metadata8"><rdf:RDF><cc:Work
         rdf:about=""><dc:format>image/svg+xml</dc:format><dc:type
           rdf:resource="http://purl.org/dc/dcmitype/StillImage" /></cc:Work></rdf:RDF></metadata><defs
     id="defs6"><clipPath
       id="clipPath16"
       clipPathUnits="userSpaceOnUse"><path
         id="path18"
         d="m 0,186.651 266.043,0 L 266.043,0 0,0 0,186.651 Z" /></clipPath><clipPath
       id="clipPath128"
       clipPathUnits="userSpaceOnUse"><path
         id="path130"
         d="m 0.757462,128.005 87.865038,0 0,-87.8653 -87.865038,0 0,87.8653 z" /></clipPath><clipPath
       id="clipPath160"
       clipPathUnits="userSpaceOnUse"><path
         id="path162"
         d="m 177.42,128.005 87.865,0 0,-87.8653 -87.865,0 0,87.8653 z" /></clipPath><clipPath
       id="clipPath276"
       clipPathUnits="userSpaceOnUse"><path
         id="path278"
         d="M 117.356,186.651 C 73.024,179.088 39.275,140.488 39.275,94 l 0,0 c 0,-51.915 42.085,-94 94,-94 l 0,0 c 51.915,0 94,42.085 94,94 l 0,0 c 0,11.27 -1.986,22.076 -5.622,32.089 l 0,0 c -1.49,-0.526 -3.052,-0.912 -4.69,-1.093 l 0,0 c -6.583,-0.734 -12.787,1.669 -17.142,6.007 l 0,0 c -3.347,-4.66 -8.562,-7.952 -14.714,-8.637 l 0,0 c -10.76,-1.199 -20.52,5.961 -22.812,16.297 l 0,0 c -2.201,-1.127 -4.629,-1.903 -7.232,-2.192 l 0,0 c -11.525,-1.284 -21.908,7.018 -23.192,18.542 l 0,0 c -0.566,5.086 0.739,9.947 3.359,13.904 l 0,0 c -9.062,1.252 -16.501,8.342 -17.874,17.734 z" /></clipPath><clipPath
       id="clipPath392"
       clipPathUnits="userSpaceOnUse"><path
         id="path394"
         d="m 53.9418,177.333 154.0002,0 0,-153.9997 -154.0002,0 0,153.9997 z" /></clipPath><clipPath
       id="clipPath412"
       clipPathUnits="userSpaceOnUse"><path
         id="path414"
         d="m 0,186.651 266.043,0 L 266.043,0 0,0 0,186.651 Z" /></clipPath></defs><g
     transform="matrix(1.25,0,0,-1.25,0,233.31375)"
     id="g10"><g
       id="g12"><g
         clip-path="url(#clipPath16)"
         id="g14"><g
           transform="translate(64.2888,44.7548)"
           id="g20"><path
             id="path22"
             style="fill:#de1359;fill-opacity:1;fill-rule:nonzero;stroke:none"
             d="m 0,0 c -5.901,-2.948 -12.554,-4.615 -19.599,-4.615 -7.045,0 -13.697,1.667 -19.599,4.615 -7.404,-1.074 -12.166,-2.741 -12.166,-4.615 0,-3.24 14.222,-5.867 31.765,-5.867 17.543,0 31.765,2.627 31.765,5.867 C 12.166,-2.741 7.404,-1.074 0,0" /></g><g
           transform="translate(44.69,128.0048)"
           id="g24"><path
             id="path26"
             style="fill:#29ecb8;fill-opacity:1;fill-rule:nonzero;stroke:none"
             d="m 0,0 c -5.1,0 -9.996,-0.872 -14.55,-2.47 -0.566,-1.381 -1.183,-2.706 -1.997,-3.824 -2.697,-3.707 -8.314,-6.074 -9.76,-10.527 -1.395,-4.297 1.711,-9.494 1.711,-14.256 0,-4.762 -3.106,-9.959 -1.711,-14.256 1.446,-4.453 7.062,-6.82 9.76,-10.527 2.725,-3.744 3.259,-9.807 7.003,-12.531 3.707,-2.698 9.625,-1.351 14.078,-2.797 4.297,-1.396 8.272,-6.01 13.034,-6.01 4.762,0 8.737,4.614 13.034,6.01 1.372,0.445 2.884,0.625 4.427,0.74 5.587,7.37 8.904,16.555 8.904,26.515 C 43.933,-19.669 24.263,0 0,0" /></g><g
           transform="translate(58.8292,84.0723)"
           id="g28"><path
             id="path30"
             style="fill:#ff1760;fill-opacity:1;fill-rule:nonzero;stroke:none"
             d="m 0,0 c 0,-7.809 -6.33,-14.139 -14.139,-14.139 -7.809,0 -14.139,6.33 -14.139,14.139 0,7.809 6.33,14.139 14.139,14.139 C -6.33,14.139 0,7.809 0,0" /></g><g
           transform="translate(58.8292,84.0723)"
           id="g32"><path
             id="path34"
             style="fill:none;stroke:#f8f8f8;stroke-width:1.51499999;stroke-linecap:butt;stroke-linejoin:round;stroke-miterlimit:10;stroke-dasharray:none;stroke-opacity:1"
             d="m 0,0 c 0,-7.809 -6.33,-14.139 -14.139,-14.139 -7.809,0 -14.139,6.33 -14.139,14.139 0,7.809 6.33,14.139 14.139,14.139 C -6.33,14.139 0,7.809 0,0 Z" /></g><g
           transform="translate(54.0761,100.4221)"
           id="g36"><path
             id="path38"
             style="fill:none;stroke:#fcee39;stroke-width:2.33999991;stroke-linecap:round;stroke-linejoin:round;stroke-miterlimit:10;stroke-dasharray:none;stroke-opacity:1"
             d="M 0,0 0,5.468" /></g><g
           transform="translate(68.3556,95.0139)"
           id="g40"><path
             id="path42"
             style="fill:none;stroke:#ff1760;stroke-width:2.33999991;stroke-linecap:round;stroke-linejoin:round;stroke-miterlimit:10;stroke-dasharray:none;stroke-opacity:1"
             d="M 0,0 -5.468,0" /></g><g
           transform="translate(38.4345,62.4332)"
           id="g44"><path
             id="path46"
             style="fill:none;stroke:#fcee39;stroke-width:2.33999991;stroke-linecap:round;stroke-linejoin:round;stroke-miterlimit:10;stroke-dasharray:none;stroke-opacity:1"
             d="M 0,0 -5.468,0" /></g><g
           transform="translate(15.6059,88.8081)"
           id="g48"><path
             id="path50"
             style="fill:none;stroke:#fcee39;stroke-width:2.33999991;stroke-linecap:round;stroke-linejoin:round;stroke-miterlimit:10;stroke-dasharray:none;stroke-opacity:1"
             d="M 0,0 -5.468,0" /></g><g
           transform="translate(21.2198,104.766)"
           id="g52"><path
             id="path54"
             style="fill:none;stroke:#fcee39;stroke-width:2.33999991;stroke-linecap:round;stroke-linejoin:round;stroke-miterlimit:10;stroke-dasharray:none;stroke-opacity:1"
             d="M 0,0 0,5.468" /></g><g
           transform="translate(75.5097,90.2416)"
           id="g56"><path
             id="path58"
             style="fill:none;stroke:#ffffff;stroke-width:2.33999991;stroke-linecap:round;stroke-linejoin:round;stroke-miterlimit:10;stroke-dasharray:none;stroke-opacity:1"
             d="M 0,0 -3.866,-3.866" /></g><g
           transform="translate(60.7699,111.7598)"
           id="g60"><path
             id="path62"
             style="fill:none;stroke:#ffffff;stroke-width:2.33999991;stroke-linecap:round;stroke-linejoin:round;stroke-miterlimit:10;stroke-dasharray:none;stroke-opacity:1"
             d="M 0,0 -3.866,3.866" /></g><g
           transform="translate(70.9652,101.5645)"
           id="g64"><path
             id="path66"
             style="fill:none;stroke:#ffffff;stroke-width:2.33999991;stroke-linecap:round;stroke-linejoin:round;stroke-miterlimit:10;stroke-dasharray:none;stroke-opacity:1"
             d="M 0,0 -3.866,3.866" /></g><g
           transform="translate(24.4213,75.4113)"
           id="g68"><path
             id="path70"
             style="fill:none;stroke:#ffffff;stroke-width:2.33999991;stroke-linecap:round;stroke-linejoin:round;stroke-miterlimit:10;stroke-dasharray:none;stroke-opacity:1"
             d="M 0,0 -3.866,3.866" /></g><g
           transform="translate(62.2071,68.0851)"
           id="g72"><path
             id="path74"
             style="fill:none;stroke:#ffffff;stroke-width:2.33999991;stroke-linecap:round;stroke-linejoin:round;stroke-miterlimit:10;stroke-dasharray:none;stroke-opacity:1"
             d="M 0,0 0,5.468" /></g><g
           transform="translate(47.1514,111.6367)"
           id="g76"><path
             id="path78"
             style="fill:none;stroke:#ffffff;stroke-width:2.33999991;stroke-linecap:round;stroke-linejoin:round;stroke-miterlimit:10;stroke-dasharray:none;stroke-opacity:1"
             d="M 0,0 0,5.468" /></g><g
           transform="translate(24.1011,52.9758)"
           id="g80"><path
             id="path82"
             style="fill:none;stroke:#ffffff;stroke-width:2.33999991;stroke-linecap:round;stroke-linejoin:round;stroke-miterlimit:10;stroke-dasharray:none;stroke-opacity:1"
             d="M 0,0 0,5.468" /></g><g
           transform="translate(70.1287,59.9952)"
           id="g84"><path
             id="path86"
             style="fill:none;stroke:#ff1760;stroke-width:2.33999991;stroke-linecap:round;stroke-linejoin:round;stroke-miterlimit:10;stroke-dasharray:none;stroke-opacity:1"
             d="M 0,0 -5.468,0" /></g><g
           transform="translate(22.6983,65.7578)"
           id="g88"><path
             id="path90"
             style="fill:none;stroke:#ff1760;stroke-width:2.33999991;stroke-linecap:round;stroke-linejoin:round;stroke-miterlimit:10;stroke-dasharray:none;stroke-opacity:1"
             d="M 0,0 -5.468,0" /></g><g
           transform="translate(72.362,74.5239)"
           id="g92"><path
             id="path94"
             style="fill:none;stroke:#ff1760;stroke-width:2.33999991;stroke-linecap:round;stroke-linejoin:round;stroke-miterlimit:10;stroke-dasharray:none;stroke-opacity:1"
             d="M 0,0 -3.866,3.866" /></g><g
           transform="translate(22.328,91.984)"
           id="g96"><path
             id="path98"
             style="fill:none;stroke:#ff1760;stroke-width:2.33999991;stroke-linecap:round;stroke-linejoin:round;stroke-miterlimit:10;stroke-dasharray:none;stroke-opacity:1"
             d="M 0,0 0,5.468" /></g><g
           transform="translate(54.6141,60.8817)"
           id="g100"><path
             id="path102"
             style="fill:none;stroke:#243a6e;stroke-width:2.33999991;stroke-linecap:round;stroke-linejoin:round;stroke-miterlimit:10;stroke-dasharray:none;stroke-opacity:1"
             d="M 0,0 -5.468,0" /></g><g
           transform="translate(36.9583,112.9768)"
           id="g104"><path
             id="path106"
             style="fill:none;stroke:#243a6e;stroke-width:2.33999991;stroke-linecap:round;stroke-linejoin:round;stroke-miterlimit:10;stroke-dasharray:none;stroke-opacity:1"
             d="M 0,0 -5.468,0" /></g><g
           transform="translate(15.9006,74.18)"
           id="g108"><path
             id="path110"
             style="fill:none;stroke:#243a6e;stroke-width:2.33999991;stroke-linecap:round;stroke-linejoin:round;stroke-miterlimit:10;stroke-dasharray:none;stroke-opacity:1"
             d="M 0,0 -5.468,0" /></g><g
           transform="translate(34.2965,100.4063)"
           id="g112"><path
             id="path114"
             style="fill:none;stroke:#243a6e;stroke-width:2.33999991;stroke-linecap:round;stroke-linejoin:round;stroke-miterlimit:10;stroke-dasharray:none;stroke-opacity:1"
             d="M 0,0 0,5.468" /></g><g
           transform="translate(79.6214,74.3735)"
           id="g116"><path
             id="path118"
             style="fill:none;stroke:#243a6e;stroke-width:2.33999991;stroke-linecap:round;stroke-linejoin:round;stroke-miterlimit:10;stroke-dasharray:none;stroke-opacity:1"
             d="M 0,0 0,5.468" /></g><g
           transform="translate(54.2978,48.7806)"
           id="g120"><path
             id="path122"
             style="fill:none;stroke:#243a6e;stroke-width:2.33999991;stroke-linecap:round;stroke-linejoin:round;stroke-miterlimit:10;stroke-dasharray:none;stroke-opacity:1"
             d="M 0,0 0,5.468" /></g><g
           id="g124"><g
             id="g126" /><g
             id="g132"><g
               style="opacity:0.19999701"
               id="g134"
               clip-path="url(#clipPath128)"><g
                 id="g136"
                 transform="translate(44.69,46.0354)"><path
                   id="path138"
                   style="fill:#1d1d1b;fill-opacity:1;fill-rule:nonzero;stroke:none"
                   d="m 0,0 c -22.583,0 -40.89,18.307 -40.89,40.89 0,22.582 18.307,40.889 40.89,40.889 22.583,0 40.89,-18.307 40.89,-40.889 C 40.89,18.307 22.583,0 0,0 m 0,81.969 c -24.263,0 -43.933,-19.669 -43.933,-43.932 0,-24.263 19.67,-43.933 43.933,-43.933 24.263,0 43.933,19.67 43.933,43.933 C 43.933,62.3 24.263,81.969 0,81.969" /></g></g></g></g><g
           transform="translate(88.6225,84.0723)"
           id="g140"><path
             id="path142"
             style="fill:none;stroke:#f8f8f8;stroke-width:1.51499999;stroke-linecap:butt;stroke-linejoin:round;stroke-miterlimit:10;stroke-dasharray:none;stroke-opacity:1"
             d="m 0,0 c 0,-24.263 -19.669,-43.933 -43.933,-43.933 -24.263,0 -43.932,19.67 -43.932,43.933 0,24.263 19.669,43.933 43.932,43.933 C -19.669,43.933 0,24.263 0,0 Z" /></g><g
           transform="translate(240.9513,44.7548)"
           id="g144"><path
             id="path146"
             style="fill:#de1359;fill-opacity:1;fill-rule:nonzero;stroke:none"
             d="m 0,0 c -5.901,-2.948 -12.554,-4.615 -19.599,-4.615 -7.045,0 -13.697,1.667 -19.599,4.615 -7.404,-1.074 -12.166,-2.741 -12.166,-4.615 0,-3.24 14.222,-5.867 31.765,-5.867 17.543,0 31.765,2.627 31.765,5.867 C 12.166,-2.741 7.404,-1.074 0,0" /></g><g
           transform="translate(256.697,72.8146)"
           id="g148"><path
             id="path150"
             style="fill:#fcee39;fill-opacity:1;fill-rule:nonzero;stroke:none"
             d="m 0,0 c -2.502,2.502 -2.705,4.133 -2.972,8.912 -0.313,5.597 -0.785,14.056 -8.905,22.177 -8.12,8.12 -16.579,8.592 -22.176,8.904 -4.779,0.267 -6.411,0.471 -8.913,2.973 -2.501,2.502 -2.705,4.133 -2.972,8.911 -0.027,0.497 -0.057,1.017 -0.092,1.557 -7.352,-1.867 -13.954,-5.6 -19.291,-10.656 0.991,-4.405 3.113,-9.368 7.956,-14.211 8.12,-8.121 16.579,-8.593 22.176,-8.906 4.78,-0.267 6.411,-0.47 8.913,-2.972 2.501,-2.502 2.705,-4.133 2.972,-8.912 0.312,-5.597 0.784,-14.056 8.905,-22.176 3.104,-3.104 6.257,-5.088 9.281,-6.376 C 0.057,-15.87 4.033,-9.717 6.33,-2.794 3.43,-2.523 1.987,-1.987 0,0" /></g><g
           transform="translate(216.9004,44.9022)"
           id="g152"><path
             id="path154"
             style="fill:#fcee39;fill-opacity:1;fill-rule:nonzero;stroke:none"
             d="m 0,0 c -0.313,5.597 -0.785,14.056 -8.905,22.176 -8.12,8.12 -16.579,8.593 -22.176,8.905 -3.983,0.223 -5.78,0.406 -7.716,1.907 1.155,-8.536 4.767,-16.287 10.105,-22.523 2.296,-0.307 3.629,-0.929 5.388,-2.688 1.54,-1.54 2.208,-2.753 2.557,-4.57 6.104,-4.338 13.363,-7.151 21.232,-7.881 C 0.216,-3.475 0.113,-2.02 0,0" /></g><g
           id="g156"><g
             id="g158" /><g
             id="g164"><g
               style="opacity:0.19999701"
               id="g166"
               clip-path="url(#clipPath160)"><g
                 id="g168"
                 transform="translate(221.3525,46.0354)"><path
                   id="path170"
                   style="fill:#1d1d1b;fill-opacity:1;fill-rule:nonzero;stroke:none"
                   d="m 0,0 c -22.583,0 -40.89,18.307 -40.89,40.89 0,22.582 18.307,40.889 40.89,40.889 22.583,0 40.89,-18.307 40.89,-40.889 C 40.89,18.307 22.583,0 0,0 m 0,81.969 c -24.263,0 -43.933,-19.669 -43.933,-43.932 0,-24.263 19.67,-43.933 43.933,-43.933 24.263,0 43.933,19.67 43.933,43.933 C 43.933,62.3 24.263,81.969 0,81.969" /></g></g></g></g><g
           transform="translate(265.2851,84.0723)"
           id="g172"><path
             id="path174"
             style="fill:none;stroke:#f8f8f8;stroke-width:1.51499999;stroke-linecap:butt;stroke-linejoin:round;stroke-miterlimit:10;stroke-dasharray:none;stroke-opacity:1"
             d="m 0,0 c 0,-24.263 -19.669,-43.933 -43.933,-43.933 -24.263,0 -43.932,19.67 -43.932,43.933 0,24.263 19.669,43.933 43.932,43.933 C -19.669,43.933 0,24.263 0,0 Z" /></g><g
           transform="translate(235.4917,84.0723)"
           id="g176"><path
             id="path178"
             style="fill:#ff1760;fill-opacity:1;fill-rule:nonzero;stroke:none"
             d="m 0,0 c 0,-7.809 -6.33,-14.139 -14.139,-14.139 -7.809,0 -14.139,6.33 -14.139,14.139 0,7.809 6.33,14.139 14.139,14.139 C -6.33,14.139 0,7.809 0,0" /></g><g
           transform="translate(235.4917,84.0723)"
           id="g180"><path
             id="path182"
             style="fill:none;stroke:#f8f8f8;stroke-width:1.51499999;stroke-linecap:butt;stroke-linejoin:round;stroke-miterlimit:10;stroke-dasharray:none;stroke-opacity:1"
             d="m 0,0 c 0,-7.809 -6.33,-14.139 -14.139,-14.139 -7.809,0 -14.139,6.33 -14.139,14.139 0,7.809 6.33,14.139 14.139,14.139 C -6.33,14.139 0,7.809 0,0 Z" /></g><g
           transform="translate(238.504,73.3181)"
           id="g184"><path
             id="path186"
             style="fill:none;stroke:#29ecb8;stroke-width:2.33999991;stroke-linecap:round;stroke-linejoin:round;stroke-miterlimit:10;stroke-dasharray:none;stroke-opacity:1"
             d="M 0,0 5.468,0" /></g><g
           transform="translate(233.0957,59.0386)"
           id="g188"><path
             id="path190"
             style="fill:none;stroke:#ff1760;stroke-width:2.33999991;stroke-linecap:round;stroke-linejoin:round;stroke-miterlimit:10;stroke-dasharray:none;stroke-opacity:1"
             d="M 0,0 0,5.468" /></g><g
           transform="translate(200.515,88.9597)"
           id="g192"><path
             id="path194"
             style="fill:none;stroke:#29ecb8;stroke-width:2.33999991;stroke-linecap:round;stroke-linejoin:round;stroke-miterlimit:10;stroke-dasharray:none;stroke-opacity:1"
             d="M 0,0 0,5.468" /></g><g
           transform="translate(226.8899,111.7883)"
           id="g196"><path
             id="path198"
             style="fill:none;stroke:#29ecb8;stroke-width:2.33999991;stroke-linecap:round;stroke-linejoin:round;stroke-miterlimit:10;stroke-dasharray:none;stroke-opacity:1"
             d="M 0,0 0,5.468" /></g><g
           transform="translate(242.8478,106.1743)"
           id="g200"><path
             id="path202"
             style="fill:none;stroke:#29ecb8;stroke-width:2.33999991;stroke-linecap:round;stroke-linejoin:round;stroke-miterlimit:10;stroke-dasharray:none;stroke-opacity:1"
             d="M 0,0 5.468,0" /></g><g
           transform="translate(228.3234,51.8845)"
           id="g204"><path
             id="path206"
             style="fill:none;stroke:#ffffff;stroke-width:2.33999991;stroke-linecap:round;stroke-linejoin:round;stroke-miterlimit:10;stroke-dasharray:none;stroke-opacity:1"
             d="M 0,0 -3.866,3.866" /></g><g
           transform="translate(249.8416,66.6243)"
           id="g208"><path
             id="path210"
             style="fill:none;stroke:#ffffff;stroke-width:2.33999991;stroke-linecap:round;stroke-linejoin:round;stroke-miterlimit:10;stroke-dasharray:none;stroke-opacity:1"
             d="M 0,0 3.866,3.866" /></g><g
           transform="translate(239.6463,56.429)"
           id="g212"><path
             id="path214"
             style="fill:none;stroke:#ffffff;stroke-width:2.33999991;stroke-linecap:round;stroke-linejoin:round;stroke-miterlimit:10;stroke-dasharray:none;stroke-opacity:1"
             d="M 0,0 3.866,3.866" /></g><g
           transform="translate(213.4931,102.9729)"
           id="g216"><path
             id="path218"
             style="fill:none;stroke:#ffffff;stroke-width:2.33999991;stroke-linecap:round;stroke-linejoin:round;stroke-miterlimit:10;stroke-dasharray:none;stroke-opacity:1"
             d="M 0,0 3.866,3.866" /></g><g
           transform="translate(206.1669,65.1871)"
           id="g220"><path
             id="path222"
             style="fill:none;stroke:#ffffff;stroke-width:2.33999991;stroke-linecap:round;stroke-linejoin:round;stroke-miterlimit:10;stroke-dasharray:none;stroke-opacity:1"
             d="M 0,0 5.468,0" /></g><g
           transform="translate(249.7186,80.2428)"
           id="g224"><path
             id="path226"
             style="fill:none;stroke:#ffffff;stroke-width:2.33999991;stroke-linecap:round;stroke-linejoin:round;stroke-miterlimit:10;stroke-dasharray:none;stroke-opacity:1"
             d="M 0,0 5.468,0" /></g><g
           transform="translate(191.0577,103.2931)"
           id="g228"><path
             id="path230"
             style="fill:none;stroke:#ffffff;stroke-width:2.33999991;stroke-linecap:round;stroke-linejoin:round;stroke-miterlimit:10;stroke-dasharray:none;stroke-opacity:1"
             d="M 0,0 5.468,0" /></g><g
           transform="translate(198.077,57.2655)"
           id="g232"><path
             id="path234"
             style="fill:none;stroke:#ff1760;stroke-width:2.33999991;stroke-linecap:round;stroke-linejoin:round;stroke-miterlimit:10;stroke-dasharray:none;stroke-opacity:1"
             d="M 0,0 0,5.468" /></g><g
           transform="translate(203.8396,104.6959)"
           id="g236"><path
             id="path238"
             style="fill:none;stroke:#ff1760;stroke-width:2.33999991;stroke-linecap:round;stroke-linejoin:round;stroke-miterlimit:10;stroke-dasharray:none;stroke-opacity:1"
             d="M 0,0 0,5.468" /></g><g
           transform="translate(212.6057,55.0322)"
           id="g240"><path
             id="path242"
             style="fill:none;stroke:#ff1760;stroke-width:2.33999991;stroke-linecap:round;stroke-linejoin:round;stroke-miterlimit:10;stroke-dasharray:none;stroke-opacity:1"
             d="M 0,0 3.866,3.866" /></g><g
           transform="translate(230.0659,105.0661)"
           id="g244"><path
             id="path246"
             style="fill:none;stroke:#ff1760;stroke-width:2.33999991;stroke-linecap:round;stroke-linejoin:round;stroke-miterlimit:10;stroke-dasharray:none;stroke-opacity:1"
             d="M 0,0 5.468,0" /></g><g
           transform="translate(198.9636,72.7801)"
           id="g248"><path
             id="path250"
             style="fill:none;stroke:#243a6e;stroke-width:2.33999991;stroke-linecap:round;stroke-linejoin:round;stroke-miterlimit:10;stroke-dasharray:none;stroke-opacity:1"
             d="M 0,0 0,5.468" /></g><g
           transform="translate(251.0587,90.4359)"
           id="g252"><path
             id="path254"
             style="fill:none;stroke:#243a6e;stroke-width:2.33999991;stroke-linecap:round;stroke-linejoin:round;stroke-miterlimit:10;stroke-dasharray:none;stroke-opacity:1"
             d="M 0,0 0,5.468" /></g><g
           transform="translate(212.2618,111.4936)"
           id="g256"><path
             id="path258"
             style="fill:none;stroke:#243a6e;stroke-width:2.33999991;stroke-linecap:round;stroke-linejoin:round;stroke-miterlimit:10;stroke-dasharray:none;stroke-opacity:1"
             d="M 0,0 0,5.468" /></g><g
           transform="translate(238.4881,93.0977)"
           id="g260"><path
             id="path262"
             style="fill:none;stroke:#243a6e;stroke-width:2.33999991;stroke-linecap:round;stroke-linejoin:round;stroke-miterlimit:10;stroke-dasharray:none;stroke-opacity:1"
             d="M 0,0 5.468,0" /></g><g
           transform="translate(212.4554,47.7728)"
           id="g264"><path
             id="path266"
             style="fill:none;stroke:#243a6e;stroke-width:2.33999991;stroke-linecap:round;stroke-linejoin:round;stroke-miterlimit:10;stroke-dasharray:none;stroke-opacity:1"
             d="M 0,0 5.468,0" /></g><g
           transform="translate(186.8625,73.0964)"
           id="g268"><path
             id="path270"
             style="fill:none;stroke:#243a6e;stroke-width:2.33999991;stroke-linecap:round;stroke-linejoin:round;stroke-miterlimit:10;stroke-dasharray:none;stroke-opacity:1"
             d="M 0,0 5.468,0" /></g></g></g><g
       id="g272"><g
         clip-path="url(#clipPath276)"
         id="g274"><g
           transform="translate(207.9418,100.3333)"
           id="g280"><path
             id="path282"
             style="fill:#ff1760;fill-opacity:1;fill-rule:nonzero;stroke:none"
             d="m 0,0 c 0,-42.526 -34.474,-77 -77,-77 -42.526,0 -77,34.474 -77,77 0,42.526 34.474,77 77,77 C -34.474,77 0,42.526 0,0" /></g><g
           transform="translate(165.2923,31.422)"
           id="g284"><path
             id="path286"
             style="fill:#de1359;fill-opacity:1;fill-rule:nonzero;stroke:none"
             d="m 0,0 c -10.343,-5.166 -22.003,-8.089 -34.351,-8.089 -12.347,0 -24.007,2.923 -34.35,8.089 -12.977,-1.882 -21.323,-4.805 -21.323,-8.089 0,-5.679 24.926,-10.282 55.673,-10.282 30.748,0 55.674,4.603 55.674,10.282 C 21.323,-4.805 12.977,-1.882 0,0" /></g><g
           transform="translate(130.9418,177.3333)"
           id="g288"><path
             id="path290"
             style="fill:#243a6e;fill-opacity:1;fill-rule:nonzero;stroke:none"
             d="m 0,0 c -8.939,0 -17.519,-1.528 -25.501,-4.329 -0.993,-2.42 -2.075,-4.743 -3.5,-6.702 -4.729,-6.497 -14.572,-10.646 -17.106,-18.452 -2.446,-7.531 2.999,-16.639 2.999,-24.985 0,-8.347 -5.445,-17.455 -2.999,-24.986 2.534,-7.805 12.377,-11.955 17.105,-18.451 4.776,-6.562 5.713,-17.188 12.275,-21.964 6.497,-4.728 16.869,-2.367 24.674,-4.902 7.531,-2.445 14.498,-10.533 22.844,-10.533 8.346,0 15.313,8.088 22.844,10.533 2.405,0.781 5.055,1.096 7.759,1.298 C 71.186,-110.557 77,-94.458 77,-77 77,-34.474 42.526,0 0,0" /></g><g
           transform="translate(155.7234,100.3333)"
           id="g292"><path
             id="path294"
             style="fill:#ff1760;fill-opacity:1;fill-rule:nonzero;stroke:none"
             d="m 0,0 c 0,-13.687 -11.095,-24.782 -24.782,-24.782 -13.686,0 -24.781,11.095 -24.781,24.782 0,13.687 11.095,24.782 24.781,24.782 C -11.095,24.782 0,13.687 0,0" /></g><g
           transform="translate(155.7234,100.3333)"
           id="g296"><path
             id="path298"
             style="fill:none;stroke:#f8f8f8;stroke-width:2.65499997;stroke-linecap:butt;stroke-linejoin:round;stroke-miterlimit:10;stroke-dasharray:none;stroke-opacity:1"
             d="m 0,0 c 0,-13.687 -11.095,-24.782 -24.782,-24.782 -13.686,0 -24.781,11.095 -24.781,24.782 0,13.687 11.095,24.782 24.781,24.782 C -11.095,24.782 0,13.687 0,0 Z" /></g><g
           transform="translate(147.3928,128.9895)"
           id="g300"><path
             id="path302"
             style="fill:none;stroke:#fcee39;stroke-width:4.10099983;stroke-linecap:round;stroke-linejoin:round;stroke-miterlimit:10;stroke-dasharray:none;stroke-opacity:1"
             d="M 0,0 0,9.584" /></g><g
           transform="translate(172.4202,119.5106)"
           id="g304"><path
             id="path306"
             style="fill:none;stroke:#ff1760;stroke-width:4.10099983;stroke-linecap:round;stroke-linejoin:round;stroke-miterlimit:10;stroke-dasharray:none;stroke-opacity:1"
             d="M 0,0 -9.584,0" /></g><g
           transform="translate(119.978,62.4068)"
           id="g308"><path
             id="path310"
             style="fill:none;stroke:#fcee39;stroke-width:4.10099983;stroke-linecap:round;stroke-linejoin:round;stroke-miterlimit:10;stroke-dasharray:none;stroke-opacity:1"
             d="M 0,0 -9.584,0" /></g><g
           transform="translate(79.9665,108.6337)"
           id="g312"><path
             id="path314"
             style="fill:none;stroke:#fcee39;stroke-width:4.10099983;stroke-linecap:round;stroke-linejoin:round;stroke-miterlimit:10;stroke-dasharray:none;stroke-opacity:1"
             d="M 0,0 -9.584,0" /></g><g
           transform="translate(89.806,136.6029)"
           id="g316"><path
             id="path318"
             style="fill:none;stroke:#fcee39;stroke-width:4.10099983;stroke-linecap:round;stroke-linejoin:round;stroke-miterlimit:10;stroke-dasharray:none;stroke-opacity:1"
             d="M 0,0 0,9.584" /></g><g
           transform="translate(184.9591,111.1462)"
           id="g320"><path
             id="path322"
             style="fill:none;stroke:#ffffff;stroke-width:4.10099983;stroke-linecap:round;stroke-linejoin:round;stroke-miterlimit:10;stroke-dasharray:none;stroke-opacity:1"
             d="M 0,0 -6.777,-6.777" /></g><g
           transform="translate(159.1248,148.8609)"
           id="g324"><path
             id="path326"
             style="fill:none;stroke:#ffffff;stroke-width:4.10099983;stroke-linecap:round;stroke-linejoin:round;stroke-miterlimit:10;stroke-dasharray:none;stroke-opacity:1"
             d="M 0,0 -6.777,6.777" /></g><g
           transform="translate(176.994,130.9917)"
           id="g328"><path
             id="path330"
             style="fill:none;stroke:#ffffff;stroke-width:4.10099983;stroke-linecap:round;stroke-linejoin:round;stroke-miterlimit:10;stroke-dasharray:none;stroke-opacity:1"
             d="M 0,0 -6.777,6.777" /></g><g
           transform="translate(95.4172,85.1533)"
           id="g332"><path
             id="path334"
             style="fill:none;stroke:#ffffff;stroke-width:4.10099983;stroke-linecap:round;stroke-linejoin:round;stroke-miterlimit:10;stroke-dasharray:none;stroke-opacity:1"
             d="M 0,0 -6.777,6.777" /></g><g
           transform="translate(161.6439,72.3127)"
           id="g336"><path
             id="path338"
             style="fill:none;stroke:#ffffff;stroke-width:4.10099983;stroke-linecap:round;stroke-linejoin:round;stroke-miterlimit:10;stroke-dasharray:none;stroke-opacity:1"
             d="M 0,0 0,9.584" /></g><g
           transform="translate(135.256,148.6452)"
           id="g340"><path
             id="path342"
             style="fill:none;stroke:#ffffff;stroke-width:4.10099983;stroke-linecap:round;stroke-linejoin:round;stroke-miterlimit:10;stroke-dasharray:none;stroke-opacity:1"
             d="M 0,0 0,9.584" /></g><g
           transform="translate(94.856,45.831)"
           id="g344"><path
             id="path346"
             style="fill:none;stroke:#ffffff;stroke-width:4.10099983;stroke-linecap:round;stroke-linejoin:round;stroke-miterlimit:10;stroke-dasharray:none;stroke-opacity:1"
             d="M 0,0 0,9.584" /></g><g
           transform="translate(175.5279,58.1337)"
           id="g348"><path
             id="path350"
             style="fill:none;stroke:#ff1760;stroke-width:4.10099983;stroke-linecap:round;stroke-linejoin:round;stroke-miterlimit:10;stroke-dasharray:none;stroke-opacity:1"
             d="M 0,0 -9.584,0" /></g><g
           transform="translate(92.3972,68.2337)"
           id="g352"><path
             id="path354"
             style="fill:none;stroke:#ff1760;stroke-width:4.10099983;stroke-linecap:round;stroke-linejoin:round;stroke-miterlimit:10;stroke-dasharray:none;stroke-opacity:1"
             d="M 0,0 -9.584,0" /></g><g
           transform="translate(179.4422,83.5979)"
           id="g356"><path
             id="path358"
             style="fill:none;stroke:#ff1760;stroke-width:4.10099983;stroke-linecap:round;stroke-linejoin:round;stroke-miterlimit:10;stroke-dasharray:none;stroke-opacity:1"
             d="M 0,0 -6.777,6.777" /></g><g
           transform="translate(91.7483,114.2001)"
           id="g360"><path
             id="path362"
             style="fill:none;stroke:#ff1760;stroke-width:4.10099983;stroke-linecap:round;stroke-linejoin:round;stroke-miterlimit:10;stroke-dasharray:none;stroke-opacity:1"
             d="M 0,0 0,9.584" /></g><g
           transform="translate(148.3356,59.6875)"
           id="g364"><path
             id="path366"
             style="fill:none;stroke:#29ecb8;stroke-width:4.10099983;stroke-linecap:round;stroke-linejoin:round;stroke-miterlimit:10;stroke-dasharray:none;stroke-opacity:1"
             d="M 0,0 -9.584,0" /></g><g
           transform="translate(117.3906,150.9939)"
           id="g368"><path
             id="path370"
             style="fill:none;stroke:#29ecb8;stroke-width:4.10099983;stroke-linecap:round;stroke-linejoin:round;stroke-miterlimit:10;stroke-dasharray:none;stroke-opacity:1"
             d="M 0,0 -9.584,0" /></g><g
           transform="translate(80.4829,82.9952)"
           id="g372"><path
             id="path374"
             style="fill:none;stroke:#29ecb8;stroke-width:4.10099983;stroke-linecap:round;stroke-linejoin:round;stroke-miterlimit:10;stroke-dasharray:none;stroke-opacity:1"
             d="M 0,0 -9.584,0" /></g><g
           transform="translate(112.7252,128.9617)"
           id="g376"><path
             id="path378"
             style="fill:none;stroke:#29ecb8;stroke-width:4.10099983;stroke-linecap:round;stroke-linejoin:round;stroke-miterlimit:10;stroke-dasharray:none;stroke-opacity:1"
             d="M 0,0 0,9.584" /></g><g
           transform="translate(192.1656,83.3344)"
           id="g380"><path
             id="path382"
             style="fill:none;stroke:#29ecb8;stroke-width:4.10099983;stroke-linecap:round;stroke-linejoin:round;stroke-miterlimit:10;stroke-dasharray:none;stroke-opacity:1"
             d="M 0,0 0,9.584" /></g><g
           transform="translate(147.7812,38.478)"
           id="g384"><path
             id="path386"
             style="fill:none;stroke:#29ecb8;stroke-width:4.10099983;stroke-linecap:round;stroke-linejoin:round;stroke-miterlimit:10;stroke-dasharray:none;stroke-opacity:1"
             d="M 0,0 0,9.584" /></g><g
           id="g388"><g
             id="g390" /><g
             id="g396"><g
               style="opacity:0.19999701"
               id="g398"
               clip-path="url(#clipPath392)"><g
                 id="g400"
                 transform="translate(130.9418,33.6665)"><path
                   id="path402"
                   style="fill:#1d1d1b;fill-opacity:1;fill-rule:nonzero;stroke:none"
                   d="m 0,0 c -39.58,0 -71.667,32.086 -71.667,71.667 0,39.58 32.087,71.666 71.667,71.666 39.58,0 71.667,-32.086 71.667,-71.666 C 71.667,32.086 39.58,0 0,0 m 0,143.667 c -42.526,0 -77,-34.474 -77,-77 0,-42.526 34.474,-77 77,-77 42.526,0 77,34.474 77,77 0,42.526 -34.474,77 -77,77" /></g></g></g></g><g
           transform="translate(207.9418,100.3333)"
           id="g404"><path
             id="path406"
             style="fill:none;stroke:#f8f8f8;stroke-width:2.65499997;stroke-linecap:butt;stroke-linejoin:round;stroke-miterlimit:10;stroke-dasharray:none;stroke-opacity:1"
             d="m 0,0 c 0,-42.526 -34.474,-77 -77,-77 -42.526,0 -77,34.474 -77,77 0,42.526 34.474,77 77,77 C -34.474,77 0,42.526 0,0 Z" /></g></g></g><g
       id="g408"><g
         clip-path="url(#clipPath412)"
         id="g410"><g
           transform="translate(179.4039,184.5807)"
           id="g416"><path
             id="path418"
             style="fill:#ffffff;fill-opacity:1;fill-rule:nonzero;stroke:none"
             d="m 0,0 c -8.765,-1.136 -15.679,-8.39 -16.408,-17.198 -0.391,-4.732 0.961,-9.092 3.445,-12.582 0.324,-0.455 0.264,-1.089 -0.18,-1.428 -1.388,-1.058 -3.274,-1.95 -4.722,-1.736 2.748,-2.569 6.282,-3.298 9.405,-2.538 0.808,0.197 1.657,0.121 2.399,-0.256 3.31,-1.684 7.164,-2.434 11.217,-1.872 9.191,1.273 16.212,9.261 16.326,18.539 C 21.623,-7.557 11.59,1.502 0,0" /></g><g
           transform="translate(170.999,162.7776)"
           id="g420"><path
             id="path422"
             style="fill:#ff1760;fill-opacity:1;fill-rule:nonzero;stroke:none"
             d="m 0,0 c -0.565,-0.065 -0.965,-0.569 -0.9,-1.134 0.065,-0.565 0.569,-0.965 1.134,-0.9 0.565,0.065 0.965,0.569 0.9,1.134 C 1.069,-0.335 0.565,0.065 0,0" /></g><g
           transform="translate(180.8257,170.0907)"
           id="g424"><path
             id="path426"
             style="fill:#ff1760;fill-opacity:1;fill-rule:nonzero;stroke:none"
             d="m 0,0 c -1.001,-0.115 -1.845,-0.615 -2.42,-1.357 -0.712,0.594 -1.664,0.887 -2.665,0.772 -1.97,-0.227 -3.376,-1.999 -3.149,-3.969 l 0.409,-3.559 c 0.064,-0.556 0.578,-0.964 1.134,-0.9 0.556,0.064 0.964,0.578 0.9,1.134 L -6.2,-4.32 c -0.097,0.842 0.507,1.604 1.349,1.701 0.843,0.097 1.604,-0.508 1.701,-1.35 l 0.41,-3.559 c 0.064,-0.556 0.578,-0.964 1.134,-0.9 0.556,0.064 0.964,0.578 0.9,1.134 l -0.41,3.559 c -0.097,0.842 0.508,1.604 1.35,1.701 0.842,0.097 1.604,-0.507 1.701,-1.35 l 0.409,-3.559 c 0.064,-0.556 0.578,-0.964 1.134,-0.9 0.557,0.064 0.964,0.578 0.9,1.134 L 3.969,-3.15 C 3.742,-1.179 1.97,0.227 0,0" /></g><g
           transform="translate(187.8932,167.813)"
           id="g428"><path
             id="path430"
             style="fill:#ff1760;fill-opacity:1;fill-rule:nonzero;stroke:none"
             d="M 0,0 C 0.28,0.644 0.884,1.132 1.647,1.22 2.394,1.306 3.108,0.969 3.527,0.406 L 0,0 Z m 1.413,3.254 c -2.241,-0.258 -3.858,-2.296 -3.6,-4.536 0.258,-2.24 2.296,-3.857 4.536,-3.6 l 1.017,0.117 c 0.556,0.064 0.964,0.578 0.9,1.134 -0.064,0.556 -0.578,0.964 -1.134,0.9 L 2.115,-2.848 c -0.763,-0.088 -1.46,0.235 -1.881,0.814 l 4.815,0.554 c 0.556,0.064 0.963,0.578 0.899,1.134 -0.257,2.241 -2.295,3.857 -4.535,3.6" /></g></g></g></g></svg>