<?xml version="1.0" encoding="UTF-8" standalone="no"?>
<svg
   xmlns:dc="http://purl.org/dc/elements/1.1/"
   xmlns:cc="http://creativecommons.org/ns#"
   xmlns:rdf="http://www.w3.org/1999/02/22-rdf-syntax-ns#"
   xmlns:svg="http://www.w3.org/2000/svg"
   xmlns="http://www.w3.org/2000/svg"
   xmlns:sodipodi="http://sodipodi.sourceforge.net/DTD/sodipodi-0.dtd"
   xmlns:inkscape="http://www.inkscape.org/namespaces/inkscape"
   viewBox="0 0 116.88938 116.93088"
   height="116.93088"
   width="116.88938"
   xml:space="preserve"
   version="1.1"
   id="svg2"
   inkscape:version="0.48.5 r10040"
   sodipodi:docname="permanent.svg"><sodipodi:namedview
     pagecolor="#ffffff"
     bordercolor="#666666"
     borderopacity="1"
     objecttolerance="10"
     gridtolerance="10"
     guidetolerance="10"
     inkscape:pageopacity="0"
     inkscape:pageshadow="2"
     inkscape:window-width="1920"
     inkscape:window-height="1057"
     id="namedview14"
     showgrid="false"
     inkscape:zoom="3.2898234"
     inkscape:cx="6.8046889"
     inkscape:cy="61.20227"
     inkscape:window-x="1912"
     inkscape:window-y="-8"
     inkscape:window-maximized="1"
     inkscape:current-layer="svg2"
     fit-margin-top="0"
     fit-margin-left="0"
     fit-margin-right="0"
     fit-margin-bottom="0" /><metadata
     id="metadata8"><rdf:RDF><cc:Work
         rdf:about=""><dc:format>image/svg+xml</dc:format><dc:type
           rdf:resource="http://purl.org/dc/dcmitype/StillImage" /><dc:title></dc:title></cc:Work></rdf:RDF></metadata><defs
     id="defs6"><clipPath
       id="clipPath16"
       clipPathUnits="userSpaceOnUse"><path
         id="path18"
         d="m 0,57.389 38,0 L 38,0 0,0 0,57.389 z"
         inkscape:connector-curvature="0" /></clipPath></defs><path
     sodipodi:type="arc"
     style="fill:none;stroke:#ffffff;stroke-width:7.18293333000000000;stroke-linejoin:miter;stroke-miterlimit:4;stroke-opacity:1;stroke-dasharray:none"
     id="path3759"
     sodipodi:cx="8.511095"
     sodipodi:cy="26.749157"
     sodipodi:rx="40.427704"
     sodipodi:ry="40.427704"
     d="m 48.938799,26.749157 a 40.427704,40.427704 0 1 1 -80.855408,0 40.427704,40.427704 0 1 1 80.855408,0 z"
     transform="matrix(1.3278169,0,0,1.3278169,47.1375,22.946336)" /><g
     transform="matrix(1.25,0,0,-1.25,35.337131,91.596796)"
     id="g10"><g
       id="g12"><g
         clip-path="url(#clipPath16)"
         id="g14"><g
           transform="translate(38,5.6693)"
           id="g20"><path
             id="path22"
             style="fill:#ffffff;fill-opacity:1;fill-rule:nonzero;stroke:none"
             d="m 0,0 c 0,-3.131 -2.538,-5.669 -5.669,-5.669 l -26.662,0 C -35.462,-5.669 -38,-3.131 -38,0 l 0,26.661 c 0,3.131 2.538,5.67 5.669,5.67 l 26.662,0 C -2.538,32.331 0,29.792 0,26.661 L 0,0 z"
             inkscape:connector-curvature="0" /></g><g
           transform="translate(7.3616,37.0498)"
           id="g24"><path
             id="path26"
             style="fill:none;stroke:#ffffff;stroke-width:4;stroke-linecap:butt;stroke-linejoin:miter;stroke-miterlimit:10;stroke-opacity:1;stroke-dasharray:none"
             d="m 0,0 0,6.701 c 0,6.428 5.211,11.638 11.638,11.638 6.428,0 11.639,-5.21 11.639,-11.638 l 0,-6.701"
             inkscape:connector-curvature="0" /></g></g></g></g></svg>