<?xml version="1.0" encoding="UTF-8" standalone="no"?>
<!-- Generator: Adobe Illustrator 18.0.0, SVG Export Plug-In . SVG Version: 6.00 Build 0)  -->

<svg
   xmlns:dc="http://purl.org/dc/elements/1.1/"
   xmlns:cc="http://creativecommons.org/ns#"
   xmlns:rdf="http://www.w3.org/1999/02/22-rdf-syntax-ns#"
   xmlns:svg="http://www.w3.org/2000/svg"
   xmlns="http://www.w3.org/2000/svg"
   xmlns:sodipodi="http://sodipodi.sourceforge.net/DTD/sodipodi-0.dtd"
   xmlns:inkscape="http://www.inkscape.org/namespaces/inkscape"
   version="1.1"
   id="Mode_Isolation"
   x="0px"
   y="0px"
   viewBox="0 0 184 44.5"
   style="enable-background:new 0 0 184 44.5;"
   xml:space="preserve"
   inkscape:version="0.48.5 r10040"
   width="100%"
   height="100%"
   sodipodi:docname="logo-onecolor-w.svg"><metadata
   id="metadata51"><rdf:RDF><cc:Work
       rdf:about=""><dc:format>image/svg+xml</dc:format><dc:type
         rdf:resource="http://purl.org/dc/dcmitype/StillImage" /><dc:title /></cc:Work></rdf:RDF></metadata><defs
   id="defs49" /><sodipodi:namedview
   pagecolor="#ffffff"
   bordercolor="#666666"
   borderopacity="1"
   objecttolerance="10"
   gridtolerance="10"
   guidetolerance="10"
   inkscape:pageopacity="0"
   inkscape:pageshadow="2"
   inkscape:window-width="1920"
   inkscape:window-height="1017"
   id="namedview47"
   showgrid="false"
   inkscape:zoom="5.3955323"
   inkscape:cx="77.256733"
   inkscape:cy="18.528972"
   inkscape:window-x="-8"
   inkscape:window-y="-8"
   inkscape:window-maximized="1"
   inkscape:current-layer="g5" />
<style
   type="text/css"
   id="style3">
	.st0{fill:#FFFFFF;}
	.st1{fill:none;}
</style>
<g
   id="g5">
	<g
   id="g7">
		<path
   class="st0"
   d="M171.2,19.5c-0.8,0.1-1.4,0.6-1.6,1.2l3.5-0.4C172.6,19.7,171.9,19.4,171.2,19.5z"
   id="path9"
   style="fill:#ffffff;fill-opacity:1" />
		<path
   class="st0"
   d="M161,3.9c-8.8,1.1-15.7,8.4-16.4,17.2c-0.4,4.7,1,9.1,3.4,12.6c0.3,0.5,0.3,1.1-0.2,1.4    c-1.4,1.1-3.3,2-4.7,1.7c2.7,2.6,6.3,3.3,9.4,2.5c0.8-0.2,1.7-0.1,2.4,0.3c3.3,1.7,7.2,2.4,11.2,1.9c9.2-1.3,16.2-9.3,16.3-18.5    C182.7,11.5,172.6,2.4,161,3.9z M152.9,27.8c-0.6,0.1-1.1-0.3-1.1-0.9s0.3-1.1,0.9-1.1c0.6-0.1,1.1,0.3,1.1,0.9    C153.8,27.2,153.4,27.7,152.9,27.8z M165.9,26.3c-0.6,0.1-1.1-0.3-1.1-0.9l-0.4-3.6c-0.1-0.8-0.9-1.4-1.7-1.3    c-0.8,0.1-1.4,0.9-1.4,1.7l0.4,3.6c0.1,0.6-0.3,1.1-0.9,1.1c-0.6,0.1-1.1-0.3-1.1-0.9l-0.4-3.6c-0.1-0.8-0.9-1.4-1.7-1.4    c-0.8,0.1-1.4,0.9-1.3,1.7l0.4,3.6c0.1,0.6-0.3,1.1-0.9,1.1c-0.6,0.1-1.1-0.3-1.1-0.9l-0.4-3.6c-0.2-2,1.2-3.7,3.1-4    c1-0.1,2,0.2,2.7,0.8c0.6-0.7,1.4-1.2,2.4-1.4c2-0.2,3.7,1.2,4,3.1l0.4,3.6C166.9,25.7,166.5,26.2,165.9,26.3z M174.6,22.2    l-4.8,0.6c0.4,0.6,1.1,0.9,1.9,0.8l1-0.1c0.6-0.1,1.1,0.3,1.1,0.9c0.1,0.6-0.3,1.1-0.9,1.1l-1,0.1c-2.2,0.3-4.3-1.4-4.5-3.6    c-0.3-2.2,1.4-4.3,3.6-4.5c2.2-0.3,4.3,1.4,4.5,3.6C175.5,21.6,175.1,22.1,174.6,22.2z"
   id="path11"
   style="fill:#ffffff;fill-opacity:1" />
	</g>
	<g
   id="g13">
		<path
   class="st0"
   d="M98.8,8c0.1,0,0.2,0,0.3,0c2,0.2,3.4,1.9,3.3,3.8l-1.1,13.1c-0.2,2.9,1.9,5.5,4.8,5.7c0.1,0,0.3,0,0.4,0    c2.7,0,5-2.1,5.3-4.9l1.1-13.1c0.2-1.9,1.7-3.3,3.6-3.3c0.1,0,0.2,0,0.3,0c2,0.2,3.4,1.9,3.3,3.8L119,26.4    c-0.5,6.5-6,11.4-12.4,11.4c-0.3,0-0.7,0-1,0c-6.8-0.6-11.9-6.6-11.4-13.4l1.1-13.1C95.4,9.4,97,8,98.8,8 M98.8,4    C98.8,4,98.8,4,98.8,4c-3.9,0-7.2,3.1-7.5,7L90.2,24c-0.4,4.4,1,8.6,3.9,12c2.8,3.3,6.8,5.4,11.2,5.7c0.4,0,0.9,0.1,1.3,0.1    c8.5,0,15.7-6.6,16.4-15.1l1.1-13.1c0.3-4.2-2.8-7.8-6.9-8.2c-0.2,0-0.4,0-0.6,0c-3.9,0-7.2,3.1-7.5,7l-1.1,13.1    c-0.1,0.7-0.6,1.2-1.3,1.2c0,0-0.1,0-0.1,0c-0.7-0.1-1.2-0.7-1.2-1.4l1.1-13.1c0.2-2-0.5-4-1.8-5.5c-1.3-1.5-3.1-2.5-5.2-2.6    C99.2,4,99,4,98.8,4L98.8,4z"
   id="path15"
   style="fill:#ffffff;fill-opacity:1" />
	</g>
	<g
   id="g17">
		<path
   class="st0"
   d="M127.7,13c0.3,0,0.6,0,0.8,0.1l13.1,3.9c1.6,0.5,2.4,2.2,1.8,3.7c-0.4,1.1-1.5,1.7-2.6,1.7    c-0.3,0-0.6,0-0.8-0.1l-2.8-0.8c-0.1,0-0.2,0-0.3,0c-0.5,0-0.9,0.3-1.1,0.8l-3.7,12.7c-0.4,1.2-1.5,2-2.7,2c-0.3,0-0.7-0.1-1-0.2    c-1.3-0.5-2-2.1-1.6-3.5l3.7-12.5c0.2-0.6-0.2-1.2-0.7-1.4l-2.9-0.8c-1.6-0.5-2.4-2.2-1.8-3.7C125.5,13.7,126.6,13,127.7,13     M127.7,9c-2.8,0-5.3,1.7-6.3,4.2c-0.7,1.8-0.6,3.8,0.2,5.5c0.8,1.7,2.4,3,4.2,3.5l0.1,0l-2.9,9.8c-1,3.4,0.7,7,3.9,8.3    c0.8,0.3,1.7,0.5,2.5,0.5c3,0,5.6-2,6.5-4.9l2.9-9.9c0.6,0.2,1.3,0.3,2,0.3c2.8,0,5.3-1.7,6.3-4.2c0.7-1.8,0.6-3.8-0.2-5.5    c-0.8-1.7-2.4-3-4.2-3.5l-13.1-3.9C129,9.1,128.4,9,127.7,9L127.7,9z"
   id="path19"
   style="fill:#ffffff;fill-opacity:1" />
	</g>
	<g
   id="g21">
		<g
   id="g23">
			<path
   class="st0"
   d="M22.7,24.7c-0.2-2-2-5.2-5.2-5.2c-0.2,0-0.4,0-0.6,0L13.4,20c-0.6,0.1-1,0.6-1,1.2l1,9.3     c0.1,0.6,0.5,1,1.1,1c0,0,0.1,0,0.1,0l3.5-0.4C21.7,30.6,23,26.8,22.7,24.7z M18.6,26c0,0.1-0.1,0.2-0.1,0.3     c0,0.1-0.1,0.2-0.1,0.3c-0.1,0.1-0.1,0.2-0.2,0.2c0,0-0.1,0.1-0.1,0.1c0,0-0.1,0-0.1,0c0,0-0.1,0-0.1,0.1c0,0-0.1,0-0.1,0     l-0.7,0.1l-0.4-3.5l0.6-0.1c0.1,0,0.1,0,0.1,0c0.6,0,1.2,1.1,1.3,1.6C18.8,25.3,18.7,25.6,18.6,26z M22.7,24.7     c-0.2-2-2-5.2-5.2-5.2c-0.2,0-0.4,0-0.6,0L13.4,20c-0.6,0.1-1,0.6-1,1.2l1,9.3c0.1,0.6,0.5,1,1.1,1c0,0,0.1,0,0.1,0l3.5-0.4     C21.7,30.6,23,26.8,22.7,24.7z M18.6,26c0,0.1-0.1,0.2-0.1,0.3c0,0.1-0.1,0.2-0.1,0.3c-0.1,0.1-0.1,0.2-0.2,0.2     c0,0-0.1,0.1-0.1,0.1c0,0-0.1,0-0.1,0c0,0-0.1,0-0.1,0.1c0,0-0.1,0-0.1,0l-0.7,0.1l-0.4-3.5l0.6-0.1c0.1,0,0.1,0,0.1,0     c0.6,0,1.2,1.1,1.3,1.6C18.8,25.3,18.7,25.6,18.6,26z M22.7,24.7c-0.2-2-2-5.2-5.2-5.2c-0.2,0-0.4,0-0.6,0L13.4,20     c-0.6,0.1-1,0.6-1,1.2l1,9.3c0.1,0.6,0.5,1,1.1,1c0,0,0.1,0,0.1,0l3.5-0.4C21.7,30.6,23,26.8,22.7,24.7z M18.6,26     c0,0.1-0.1,0.2-0.1,0.3c0,0.1-0.1,0.2-0.1,0.3c-0.1,0.1-0.1,0.2-0.2,0.2c0,0-0.1,0.1-0.1,0.1c0,0-0.1,0-0.1,0c0,0-0.1,0-0.1,0.1     c0,0-0.1,0-0.1,0l-0.7,0.1l-0.4-3.5l0.6-0.1c0.1,0,0.1,0,0.1,0c0.6,0,1.2,1.1,1.3,1.6C18.8,25.3,18.7,25.6,18.6,26z"
   id="path25" />
			<path
   class="st0"
   d="M30.9,17.3c-2.4-5.3-7-8.4-12.8-8.4c-0.6,0-1.2,0-1.8,0.1l-8,0.9c-1.8,0.2-3.5,1.1-4.7,2.6     c-1.2,1.5-1.7,3.3-1.5,5.1l2.1,18.5c0.4,3.5,3.4,6.2,7,6.2c0.3,0,0.5,0,0.8,0l8.1-0.9c5.3-0.6,9.3-3.6,11.3-8.1l-2.6-5.7l0.2-7.3     L30.9,17.3z M19.5,37.5l-8,0.9c-0.1,0-0.2,0-0.3,0c-1.5,0-2.8-1.1-3-2.7L6,17.2c-0.2-1.7,1-3.1,2.7-3.3l8-0.9     c0.5,0,0.9-0.1,1.3-0.1c5.7,0,9.7,4.3,10.5,11.2C29.4,31.5,25.8,36.7,19.5,37.5z"
   id="path27"
   style="fill:#ffffff;fill-opacity:1" />
			<path
   class="st1"
   d="M26.7,24.3c-0.5-4.3-4.1-8.7-9.2-8.7c-0.3,0-0.7,0-1,0.1L12.9,16c-1.4,0.2-2.6,0.8-3.4,1.9     c-0.8,1.1-1.2,2.4-1.1,3.7l1,9.3c0.3,2.6,2.5,4.5,5.1,4.5c0.2,0,0.4,0,0.6,0l3.5-0.4C24.6,34.3,27.1,28.3,26.7,24.3z M18.2,31     l-3.5,0.4c0,0-0.1,0-0.1,0c-0.5,0-1-0.4-1.1-1l-1-9.3c-0.1-0.6,0.4-1.1,1-1.2l3.5-0.4c0.2,0,0.4,0,0.6,0c3.2,0,5,3.1,5.2,5.2     C23,26.8,21.7,30.6,18.2,31z"
   id="path29" />
		</g>
		<path
   class="st0"
   d="M22.7,24.7c-0.2-2-2-5.2-5.2-5.2c-0.2,0-0.4,0-0.6,0L13.4,20c-0.6,0.1-1,0.6-1,1.2l1,9.3c0.1,0.6,0.5,1,1.1,1    c0,0,0.1,0,0.1,0l3.5-0.4C21.7,30.6,23,26.8,22.7,24.7z M18.6,26c0,0.1-0.1,0.2-0.1,0.3c0,0.1-0.1,0.2-0.1,0.3    c-0.1,0.1-0.1,0.2-0.2,0.2c0,0-0.1,0.1-0.1,0.1c0,0-0.1,0-0.1,0c0,0-0.1,0-0.1,0.1c0,0-0.1,0-0.1,0l-0.7,0.1l-0.4-3.5l0.7-0.1h0.1    c0.6,0,1.2,1.1,1.3,1.6C18.8,25.3,18.7,25.6,18.6,26z"
   id="path31"
   style="fill:#ffffff;fill-opacity:1" />
	</g>
	<g
   id="g33">
		<g
   id="g35">
			<path
   class="st0"
   d="M44,9.9c8,0,14.4,6.5,14.4,14.4S52,38.8,44,38.8s-14.4-6.5-14.4-14.4S36,9.9,44,9.9 M44,5.9     c-10.2,0-18.4,8.3-18.4,18.4S33.8,42.8,44,42.8s18.4-8.3,18.4-18.4S54.2,5.9,44,5.9L44,5.9z"
   id="path37"
   style="fill:#ffffff;fill-opacity:1" />
		</g>
		<g
   id="g39">
			<path
   class="st0"
   d="M44,21.6c1.5,0,2.8,1.2,2.8,2.8s-1.2,2.8-2.8,2.8s-2.8-1.2-2.8-2.8S42.5,21.6,44,21.6 M44,17.6     c-3.7,0-6.8,3-6.8,6.8c0,3.7,3,6.8,6.8,6.8s6.8-3,6.8-6.8C50.8,20.6,47.7,17.6,44,17.6L44,17.6z"
   id="path41"
   style="fill:#ffffff;fill-opacity:1" />
		</g>
	</g>
	<g
   id="g43">
		<path
   class="st0"
   d="M84.3,5.7c1.9,0,3.6,1.4,3.8,3.4l2.7,23.2c0.2,1.4-0.4,2.9-1.6,3.7c-0.5,0.4-1.1,0.6-1.7,0.6    c-0.1,0-0.3,0-0.4,0c-1,0-1.9-0.4-2.7-1.1L73.5,25c-0.3-0.3-0.7-0.4-1-0.4c-0.8,0-1.6,0.7-1.5,1.7l1,8.4c0.3,2.2-1.4,4.2-3.7,4.2    c0,0,0,0-0.1,0c-2,0-3.6-1.6-3.8-3.5l-2.7-23.2c-0.2-1.9,1-3.7,2.9-4.1c0.3-0.1,0.6-0.1,0.8-0.1c1,0,2.1,0.5,2.8,1.2l10.6,10.5    c0.3,0.3,0.7,0.4,1.1,0.4c0.8,0,1.6-0.7,1.5-1.7l-0.9-8.2c-0.2-2,1-3.9,3-4.3C83.7,5.7,84,5.7,84.3,5.7 M84.3,1.7    c-0.5,0-1.1,0.1-1.6,0.2c-3.9,0.8-6.6,4.6-6.1,8.7l0.1,1.2l-5.6-5.5c-1.5-1.5-3.6-2.4-5.6-2.4c-0.6,0-1.2,0.1-1.8,0.2    c-3.8,0.9-6.4,4.6-5.9,8.5l2.7,23.2c0.5,4,3.8,7.1,7.8,7.1l0.1,0c2.2,0,4.3-1,5.7-2.7c1.4-1.7,2.1-3.9,1.9-6l-0.2-1.3l5.7,5.6    c1.5,1.5,3.4,2.3,5.5,2.3c0.3,0,0.6,0,0.9-0.1c1.3-0.1,2.5-0.6,3.5-1.3c2.4-1.6,3.7-4.5,3.3-7.5L92,8.6    C91.6,4.6,88.2,1.7,84.3,1.7L84.3,1.7z"
   id="path45"
   style="fill:#ffffff;fill-opacity:1" />
	</g>

</g>
</svg>