<?xml version="1.0" encoding="UTF-8" standalone="no"?>
<!-- Created with Inkscape (http://www.inkscape.org/) -->

<svg
   xmlns:dc="http://purl.org/dc/elements/1.1/"
   xmlns:cc="http://creativecommons.org/ns#"
   xmlns:rdf="http://www.w3.org/1999/02/22-rdf-syntax-ns#"
   xmlns:svg="http://www.w3.org/2000/svg"
   xmlns="http://www.w3.org/2000/svg"
   xmlns:sodipodi="http://sodipodi.sourceforge.net/DTD/sodipodi-0.dtd"
   xmlns:inkscape="http://www.inkscape.org/namespaces/inkscape"
   id="svg2"
   version="1.1"
   inkscape:version="0.48.5 r10040"
   width="20"
   height="20"
   sodipodi:docname="topic-w.svg">
  <metadata
     id="metadata8">
    <rdf:RDF>
      <cc:Work
         rdf:about="">
        <dc:format>image/svg+xml</dc:format>
        <dc:type
           rdf:resource="http://purl.org/dc/dcmitype/StillImage" />
        <dc:title />
      </cc:Work>
    </rdf:RDF>
  </metadata>
  <defs
     id="defs6" />
  <sodipodi:namedview
     pagecolor="#ffffff"
     bordercolor="#666666"
     borderopacity="1"
     objecttolerance="10"
     gridtolerance="10"
     guidetolerance="10"
     inkscape:pageopacity="0"
     inkscape:pageshadow="2"
     inkscape:window-width="1920"
     inkscape:window-height="1057"
     id="namedview4"
     showgrid="false"
     fit-margin-top="0"
     fit-margin-left="0"
     fit-margin-right="0"
     fit-margin-bottom="0"
     inkscape:zoom="1.5128205"
     inkscape:cx="-368.46108"
     inkscape:cy="-27.798137"
     inkscape:window-x="1912"
     inkscape:window-y="-8"
     inkscape:window-maximized="1"
     inkscape:current-layer="layer2" />
  <g
     inkscape:groupmode="layer"
     id="layer2"
     inkscape:label="Calque"
     transform="translate(-74.581902,-70.693205)">
    <path
       style="fill:#4fedc0;fill-opacity:1"
       d="m 83.864721,90.683363 c -0.390505,0.04496 -0.680631,-0.06307 -0.927761,-0.345446 -0.122714,-0.140215 -0.240179,-0.328294 -0.829156,-1.327611 -0.17316,-0.293797 -0.380644,-0.642535 -0.686244,-1.153427 -0.08617,-0.144052 -0.260195,-0.42531 -0.38673,-0.625022 -0.126533,-0.19971 -0.298847,-0.472121 -0.382917,-0.605357 -0.263283,-0.41725 -0.794124,-1.157344 -0.851404,-1.187017 -0.03014,-0.01562 -0.180922,0.0011 -0.33508,0.03695 -0.86224,0.201006 -1.446496,0.04845 -1.956168,-0.510789 -0.1025,-0.112467 -0.113689,-0.11419 -0.36471,-0.05615 -0.474586,0.109723 -0.967982,3.61e-4 -1.355694,-0.300618 l -0.197026,-0.152926 -0.504964,-1.171773 -0.504965,-1.171772 0.02113,-0.240857 c 0.04104,-0.467888 0.352556,-0.85727 0.851601,-1.064456 l 0.257972,-0.107102 0.01818,-0.241028 c 0.02407,-0.319221 0.227766,-0.715867 0.481642,-0.937888 0.356611,-0.311862 0.643602,-0.437604 2.361862,-1.03482 2.709135,-0.941614 3.662598,-1.358762 4.794185,-2.097493 0.716872,-0.467994 1.482063,-1.181696 1.954749,-1.823216 0.341534,-0.463524 0.773759,-1.239144 0.948603,-1.70226 0.06178,-0.163656 0.132068,-0.294193 0.15618,-0.29008 0.05104,0.0087 5.252623,12.058382 5.226924,12.108392 -0.0095,0.01846 -0.288835,-0.06964 -0.620788,-0.195756 -1.349787,-0.512797 -2.680507,-0.723666 -4.164385,-0.659897 -0.845274,0.03633 -2.033535,0.228688 -1.993044,0.322645 0.0096,0.02236 0.126133,0.122958 0.258887,0.223552 0.880222,0.667001 0.87182,1.557278 -0.02257,2.392026 -0.379842,0.354512 -0.383868,0.367512 -0.185274,0.598335 0.386405,0.449116 1.052123,1.442023 1.23902,1.847984 0.161659,0.351149 0.157523,0.476799 -0.02238,0.67963 -0.09455,0.106596 -0.180804,0.14129 -1.105191,0.444543 -0.551449,0.180912 -1.079967,0.337821 -1.174475,0.348703 z m 9.769149,-5.244455 c -0.33089,0.01314 -0.610498,-0.0728 -0.859046,-0.26406 -0.128361,-0.09878 -0.233212,-0.334907 -3.012865,-6.785104 -2.779651,-6.450197 -2.879083,-6.688124 -2.857345,-6.836751 0.0579,-0.395689 0.285888,-0.656932 0.690633,-0.791344 0.404744,-0.134414 0.772621,-0.07106 1.114361,0.191918 0.12458,0.09587 0.190827,0.234582 1.047647,2.193684 l 0.914657,2.091345 0.456017,0.04627 c 1.118158,0.113463 2.068386,0.732335 2.550265,1.660952 0.503798,0.970862 0.277015,2.183003 -0.557743,2.98108 l -0.288453,0.275777 0.885174,2.109379 c 0.870119,2.0735 0.884719,2.112378 0.858263,2.285748 -0.03166,0.207449 -0.1363,0.405493 -0.294252,0.556893 -0.131288,0.125841 -0.476531,0.277423 -0.647311,0.284211 z"
       id="path3809"
       inkscape:connector-curvature="0"
       inkscape:transform-center-x="1.6314193" />
  </g>
</svg>
