<?xml version="1.0" encoding="UTF-8" standalone="no"?>
<svg width="45px" height="75px" viewBox="0 0 45 75" version="1.1" xmlns="http://www.w3.org/2000/svg" xmlns:xlink="http://www.w3.org/1999/xlink" xmlns:sketch="http://www.bohemiancoding.com/sketch/ns">
    <!-- Generator: Sketch 3.4.4 (17249) - http://www.bohemiancoding.com/sketch -->
    <title>Shape + Oval 604 + Group</title>
    <desc>Created with Sketch.</desc>
    <defs></defs>
    <g id="Page-1" stroke="none" stroke-width="1" fill="none" fill-rule="evenodd" sketch:type="MSPage">
        <g id="19-copy-4" sketch:type="MSArtboardGroup" transform="translate(-250.000000, -725.000000)">
            <g id="Shape-+-Oval-604-+-Group" sketch:type="MSLayerGroup" transform="translate(236.000000, 722.000000)">
                <path d="M55.1433603,8.3041315 L12.5675927,82.560408 C12.5675927,82.560408 17.4209493,100.084323 27.6610717,86.1120687 C32.8929734,85.2384798 37.2601136,81.8325371 39.4417962,77.2064186 C41.7152999,78.4468459 44.326316,79.1523405 47.103179,79.1523405 C55.9064672,79.1523405 63.0429415,72.0618835 63.0429415,63.3153611 C63.0429415,62.374447 62.9603532,61.4526963 62.801988,60.5568773 C67.9890447,57.9442625 71.5441477,52.5959151 71.5441477,46.4225833 C71.5441477,41.6258632 69.3977925,37.327219 66.0072483,34.4230015 C65.8571749,30.3994162 64.1963286,26.7594236 61.5717833,24.0465667 C64.8500729,14.4643441 55.1433603,8.3041315 55.1433603,8.3041315 Z" id="Shape" fill="#F5F8FA" sketch:type="MSShapeGroup" transform="translate(42.055870, 49.911210) rotate(160.000000) translate(-42.055870, -49.911210) "></path>
                <ellipse id="Oval-604" fill="#F5F8FA" sketch:type="MSShapeGroup" cx="30.5" cy="76.5" rx="12.5" ry="10.5"></ellipse>
                <g id="Group" transform="translate(26.000000, 39.000000)" fill="#353F4C" sketch:type="MSShapeGroup">
                    <path d="M6.0000462,21.8012326 L4.08179977,19.9139911 C3.77314415,19.6105685 3.28906122,19.5662948 2.9285611,19.8089148 L0.920491062,21.160149 C0.556976731,21.40454 0.427365486,21.8702996 0.611835444,22.2616794 L2.05624728,25.318928 C2.18163862,25.5839801 2.43242131,25.7717007 2.7266087,25.8201066 C2.77664467,25.8283711 2.82668064,25.8325033 2.87671661,25.8325033 C3.11966234,25.8325033 3.35537395,25.7362817 3.52718421,25.5615481 L6.01029453,23.0403067 C6.35210652,22.6932007 6.34728377,22.1424355 6.0000462,21.8012326 L6.0000462,21.8012326 Z" id="Path"></path>
                    <path d="M7.53554186,6.4653175 C7.71001126,6.5578894 7.89831524,6.60154118 8.08431346,6.60154118 C8.46399577,6.60154118 8.83522362,6.41715001 9.05427111,6.08449329 L11.3492739,2.60138171 C11.5552554,2.28904565 11.5898418,1.89843741 11.4453474,1.55599667 C11.3000843,1.21280331 10.9918806,0.962181839 10.6214214,0.884662286 L6.72698763,0.0703306679 C6.20050507,-0.0395514173 5.66556805,0.221606689 5.43960327,0.700271115 L4.13761575,3.45710727 C3.88167606,3.9982389 4.09918637,4.64022122 4.63412339,4.92471046 L7.53554186,6.4653175 Z" id="Path"></path>
                    <path d="M13.1055063,14.9926697 C11.5812249,14.9926697 10.3441269,16.2040617 10.3441269,17.6966698 C10.3441269,19.1892778 11.5812249,20.4006699 13.1055063,20.4006699 C14.6297877,20.4006699 15.8668857,19.1892778 15.8668857,17.6966698 C15.8668857,16.2040617 14.6297877,14.9926697 13.1055063,14.9926697 L13.1055063,14.9926697 Z" id="Path"></path>
                    <path d="M19.7715366,10.1875726 C20.8770593,10.1875726 21.7742952,9.30898057 21.7742952,8.22642971 C21.7742952,7.14387886 20.8770593,6.26528686 19.7715366,6.26528686 C18.6660138,6.26528686 17.7687779,7.14387886 17.7687779,8.22642971 C17.7687779,9.30996114 18.6660138,10.1875726 19.7715366,10.1875726 L19.7715366,10.1875726 Z" id="Path"></path>
                </g>
            </g>
        </g>
    </g>
</svg>