<?xml version="1.0" encoding="utf-8"?>
<!-- Generator: Adobe Illustrator 16.0.0, SVG Export Plug-In . SVG Version: 6.00 Build 0)  -->
<!DOCTYPE svg PUBLIC "-//W3C//DTD SVG 1.1//EN" "http://www.w3.org/Graphics/SVG/1.1/DTD/svg11.dtd">
<svg version="1.1" id="Layer_1" xmlns="http://www.w3.org/2000/svg" xmlns:xlink="http://www.w3.org/1999/xlink" x="0px" y="0px"
	 width="30px" height="83px" viewBox="0 0 30 83" enable-background="new 0 0 30 83" xml:space="preserve">
<g>
	<path fill="none" d="M20.882,76.07c-1.137,0.285-2.337,0.443-3.583,0.443c-6.903,0-12.5-4.701-12.5-10.5
		c0-2.365,0.942-4.543,2.516-6.299c-2.393-0.61-3.949-4.102-4.977-6.926c-2.111-5.801-0.601-12.043,3.381-16.272
		c-0.455-0.789-0.849-1.627-1.17-2.51c-2.992-8.219,1.29-17.323,9.562-20.333c2.609-0.95,5.305-1.18,7.865-0.792
		C22.443,7.789,25.383,3.094,30,0.483H1.384V83H30v-0.217C28.121,82.209,23.347,80.377,20.882,76.07z"/>
	<path fill="#FFFFFF" d="M21.976,12.882c-2.561-0.388-5.255-0.158-7.865,0.792C5.839,16.685,1.557,25.789,4.549,34.007
		c0.321,0.883,0.715,1.721,1.17,2.51c-3.981,4.229-5.492,10.471-3.381,16.272c1.027,2.824,3.809,5.601,4.977,6.926
		c0.001,0.002,0,0.002,0,0.002c-1.573,1.756-2.516,3.932-2.516,6.299c0,5.797,5.597,10.498,12.5,10.498
		c1.246,0,2.446-0.158,3.583-0.443c2.465,4.307,7.239,6.139,9.118,6.715V0.484C25.383,3.095,22.443,7.789,21.976,12.882z
		 M16.809,49.555l-2.483,2.52c-0.172,0.176-0.407,0.271-0.649,0.271c-0.05,0-0.101-0.004-0.15-0.012
		c-0.294-0.049-0.545-0.236-0.67-0.502l-1.444-3.057c-0.185-0.393-0.055-0.857,0.31-1.102l2.008-1.354
		c0.36-0.24,0.844-0.197,1.153,0.105l1.918,1.887C17.146,48.656,17.15,49.207,16.809,49.555z M19.854,32.596
		c-0.22,0.335-0.591,0.52-0.971,0.52c-0.187,0-0.375-0.044-0.549-0.137l-2.901-1.54c-0.535-0.284-0.752-0.927-0.497-1.468
		l1.302-2.757c0.227-0.479,0.762-0.74,1.288-0.63l3.896,0.813c0.37,0.077,0.679,0.328,0.823,0.671
		c0.146,0.343,0.11,0.733-0.096,1.045L19.854,32.596z M23.903,46.914c-1.523,0-2.761-1.211-2.761-2.703s1.237-2.706,2.761-2.706
		c1.524,0,2.763,1.213,2.763,2.706S25.429,46.914,23.903,46.914z M26.802,37.435c-1.105,0-2.003-0.877-2.003-1.961
		c0-1.082,0.896-1.96,2.003-1.96c1.105,0,2.003,0.878,2.003,1.96C28.805,36.558,27.906,37.435,26.802,37.435z"/>
	<path fill="#37414E" d="M14.881,46.428c-0.31-0.303-0.793-0.348-1.153-0.105l-2.008,1.354c-0.363,0.244-0.493,0.709-0.31,1.102
		l1.444,3.057c0.125,0.266,0.376,0.453,0.67,0.502c0.05,0.008,0.101,0.012,0.15,0.012c0.243,0,0.479-0.096,0.649-0.271l2.483-2.52
		c0.342-0.348,0.337-0.898-0.01-1.24L14.881,46.428z"/>
	<path fill="#37414E" d="M22.243,28.069c-0.145-0.343-0.453-0.594-0.823-0.671l-3.896-0.813c-0.525-0.11-1.062,0.15-1.288,0.63
		l-1.302,2.757c-0.256,0.541-0.039,1.184,0.497,1.468l2.901,1.54c0.174,0.093,0.362,0.137,0.549,0.137
		c0.379,0,0.751-0.185,0.97-0.518l2.295-3.482C22.354,28.803,22.389,28.412,22.243,28.069z"/>
	<ellipse fill="#37414E" cx="23.903" cy="44.21" rx="2.762" ry="2.704"/>
	<ellipse fill="#37414E" cx="26.802" cy="35.474" rx="2.003" ry="1.961"/>
</g>
</svg>
