<?xml version="1.0" encoding="UTF-8" standalone="no"?>
<svg width="15px" height="17px" viewBox="0 0 15 17" version="1.1" xmlns="http://www.w3.org/2000/svg" xmlns:xlink="http://www.w3.org/1999/xlink" xmlns:sketch="http://www.bohemiancoding.com/sketch/ns">
    <!-- Generator: Sketch 3.4.4 (17249) - http://www.bohemiancoding.com/sketch -->
    <title>Shape</title>
    <desc>Created with Sketch.</desc>
    <defs></defs>
    <g id="Page-1" stroke="none" stroke-width="1" fill="none" fill-rule="evenodd" sketch:type="MSPage">
        <g id="discussion-copy" sketch:type="MSArtboardGroup" transform="translate(-15.000000, -1288.000000)" fill="#F15261">
            <g id="Rectangle-910-+-Group" sketch:type="MSLayerGroup" transform="translate(0.000000, 56.000000)">
                <g id="Group" sketch:type="MSShapeGroup">
                    <g id="Group-Copy-10" transform="translate(15.000000, 1228.000000)">
                        <path d="M13.9197027,9.67345404 C14.0195027,8.47147816 14.3744407,7.36812422 15,6.35682864 L12.6005923,4 C11.8424151,4.64104258 10.9790524,4.99598057 10.0005747,5.05841869 C9.10439416,5.13835968 8.25415863,4.97073605 7.45525364,4.5555478 C6.63346027,4.9576089 5.78659068,5.12523253 4.90454706,5.05841869 C3.99187341,4.9784777 3.16789219,4.66073331 2.43058383,4.09761215 L0.0244442187,6.45326272 C0.616175832,7.47886353 0.945869299,8.55259723 1.01049528,9.67345404 C1.0411253,10.1894521 0.891004536,10.8994964 0.554747493,11.8177238 C0.378372428,12.3271583 0.245754535,12.7687691 0.154874253,13.1380123 C0.0705575469,13.5040579 0.0180489396,13.8019433 0.000377773675,14.0254415 C-0.0117395972,15.0039192 0.267633121,15.8871409 0.840683787,16.6727504 C1.28885821,17.2456328 2.02734465,17.879102 3.05294546,18.5714751 C4.17498035,19.1324084 5.04389682,19.4962661 5.65195323,19.6517724 C5.82614044,19.7318817 5.99713,19.808625 6.1560022,19.8818341 C6.3148744,19.9563896 6.48468589,20.0287573 6.66223903,20.1086983 C7.0446094,20.3333745 7.31304282,20.5777415 7.45542193,20.8296818 C7.62859936,20.5568727 7.90359636,20.3190693 8.26846386,20.1086983 C8.52595799,19.9981272 8.74407067,19.902703 8.91926766,19.8183862 C9.09463294,19.742821 9.22489468,19.6857684 9.30062825,19.6517724 C9.4300485,19.5883245 9.60086977,19.5159569 9.80686508,19.4360159 C10.0150482,19.3550651 10.2715326,19.2572847 10.5783377,19.1478917 C11.1709108,18.9417281 11.6027604,18.7468404 11.8767476,18.5714751 C12.8715501,17.879102 13.5990973,17.2567404 14.0614086,16.6990047 C14.6551598,15.911039 14.9434523,15.0236099 14.9303251,14.0254415 C14.8951511,13.5784451 14.7024512,12.8640251 14.3527304,11.8899231 C14.0195027,10.941234 13.8715698,10.2049354 13.9197027,9.67345404 Z M7.5,14.75 L4.85496636,16.1405765 L5.36012284,13.1952882 L3.22024568,11.1094235 L6.17748318,10.6797118 L7.5,8 L8.82251682,10.6797118 L11.7797543,11.1094235 L9.63987716,13.1952882 L10.1450336,16.1405765 L7.5,14.75 Z" id="Shape"></path>
                    </g>
                </g>
            </g>
        </g>
    </g>
</svg>