<?xml version="1.0" encoding="UTF-8" standalone="no"?>
<svg width="14px" height="20px" viewBox="0 0 14 20" version="1.1" xmlns="http://www.w3.org/2000/svg" xmlns:xlink="http://www.w3.org/1999/xlink" xmlns:sketch="http://www.bohemiancoding.com/sketch/ns">
    <!-- Generator: Sketch 3.4.4 (17249) - http://www.bohemiancoding.com/sketch -->
    <title>Path</title>
    <desc>Created with Sketch.</desc>
    <defs></defs>
    <g id="Page-1" stroke="none" stroke-width="1" fill="none" fill-rule="evenodd" sketch:type="MSPage">
        <g id="discussion-copy" sketch:type="MSArtboardGroup" transform="translate(-14.000000, -1324.000000)" fill="#F15261">
            <g id="Rectangle-910-+-Group" sketch:type="MSLayerGroup" transform="translate(0.000000, 56.000000)">
                <g id="Group" sketch:type="MSShapeGroup">
                    <g transform="translate(14.000000, 1266.000000)" id="Path">
                        <path d="M4.03730623,12.8468292 C4.48122384,14.2614748 5.81726197,15.0802963 7.15343111,15.0802963 C8.78859077,15.0802963 10.423358,13.8540246 10.423358,11.8101731 L10.423358,8.37659293 L13.6934811,6.08750674 C14.102173,5.67881493 14.102173,5.67881493 13.6934811,4.8612351 C13.2845931,4.04385147 13.2845931,4.04385147 12.4672095,4.8612351 L0.613184873,13.0364448 C-0.204394958,13.4451366 -0.204394958,13.4451366 0.613184873,14.2627164 C1.02187669,15.0802963 1.02187669,15.0802963 1.4307647,14.6714083 L4.03730623,12.8468292 Z M7.1532349,2 C5.51827145,2 3.88311179,3.22627164 3.88311179,5.27012312 L3.88311179,8.73743072 L10.2940599,4.31618188 C9.87712758,2.85093442 8.51508314,2 7.1532349,2 Z M12.8759013,10.1752097 C12.0583215,10.1752097 12.0583215,10.1752097 12.0583215,10.9927895 L12.0583215,11.8101731 C12.0583215,14.6714083 10.01447,16.7152597 7.1532349,16.7152597 C5.5836072,16.7152597 4.25923383,16.0938834 3.47441997,15.0802963 L2.06822975,15.9794967 C3.04924707,17.1076667 4.48800706,17.9415314 6.33565507,18.3502232 L6.33565507,20.8027665 C6.33565507,21.6203463 6.33565507,21.6203463 7.1532349,21.6203463 C7.97081473,21.6203463 7.97081473,21.6203463 7.97081473,20.8027665 L7.97081473,18.3502232 C11.6496297,17.5328396 13.6934811,15.0802963 13.6934811,11.8101731 L13.6934811,10.9925933 C13.6934811,10.1752097 13.6934811,10.1752097 12.8759013,10.1752097 Z"></path>
                    </g>
                </g>
            </g>
        </g>
    </g>
</svg>