<?xml version="1.0" encoding="UTF-8" standalone="no"?>
<!-- Generated by IcoMoon.io -->

<svg
   xmlns:dc="http://purl.org/dc/elements/1.1/"
   xmlns:cc="http://creativecommons.org/ns#"
   xmlns:rdf="http://www.w3.org/1999/02/22-rdf-syntax-ns#"
   xmlns:svg="http://www.w3.org/2000/svg"
   xmlns="http://www.w3.org/2000/svg"
   xmlns:sodipodi="http://sodipodi.sourceforge.net/DTD/sodipodi-0.dtd"
   xmlns:inkscape="http://www.inkscape.org/namespaces/inkscape"
   version="1.1"
   width="0.083333336in"
   height="0.22222222in"
   viewBox="0 0 7.5000002 20"
   id="svg2"
   inkscape:version="0.91 r13725"
   sodipodi:docname="draggable.svg">
  <metadata
     id="metadata25">
    <rdf:RDF>
      <cc:Work
         rdf:about="">
        <dc:format>image/svg+xml</dc:format>
        <dc:type
           rdf:resource="http://purl.org/dc/dcmitype/StillImage" />
        <dc:title></dc:title>
      </cc:Work>
    </rdf:RDF>
  </metadata>
  <defs
     id="defs23" />
  <sodipodi:namedview
     pagecolor="#ffffff"
     bordercolor="#666666"
     borderopacity="1"
     objecttolerance="10"
     gridtolerance="10"
     guidetolerance="10"
     inkscape:pageopacity="0"
     inkscape:pageshadow="2"
     inkscape:window-width="1344"
     inkscape:window-height="792"
     id="namedview21"
     showgrid="false"
     units="in"
     fit-margin-top="0"
     fit-margin-left="0"
     fit-margin-right="0"
     fit-margin-bottom="0"
     inkscape:zoom="9.2498083"
     inkscape:cx="-11.448923"
     inkscape:cy="12.60003"
     inkscape:window-x="26"
     inkscape:window-y="13"
     inkscape:window-maximized="0"
     inkscape:current-layer="svg2" />
  <g
     id="icomoon-ignore"
     transform="translate(-2.25,-6)" />
  <path
     d="m 0,0 2.5,0 0,2.8571818 -2.5,0 L 0,0 Z"
     id="path5"
     inkscape:connector-curvature="0"
     style="fill:#b6b6b6" />
  <path
     d="m 0,5.7142727 2.5,0 0,2.8571818 -2.5,0 0,-2.8571818 z"
     id="path7"
     inkscape:connector-curvature="0"
     style="fill:#b6b6b6" />
  <path
     d="m 0,11.428545 2.5,0 0,2.857182 -2.5,0 0,-2.857182 z"
     id="path9"
     inkscape:connector-curvature="0"
     style="fill:#b6b6b6" />
  <path
     d="m 0,17.142818 2.5,0 L 2.5,20 0,20 0,17.142818 Z"
     id="path11"
     inkscape:connector-curvature="0"
     style="fill:#b6b6b6" />
  <path
     d="m 5,0 2.5,0 0,2.8571818 -2.5,0 L 5,0 Z"
     id="path13"
     inkscape:connector-curvature="0"
     style="fill:#b6b6b6" />
  <path
     d="m 5,5.7142727 2.5,0 0,2.8571818 -2.5,0 0,-2.8571818 z"
     id="path15"
     inkscape:connector-curvature="0"
     style="fill:#b6b6b6" />
  <path
     d="m 5,11.428545 2.5,0 0,2.857182 -2.5,0 0,-2.857182 z"
     id="path17"
     inkscape:connector-curvature="0"
     style="fill:#b6b6b6" />
  <path
     d="m 5,17.142818 2.5,0 L 7.5,20 5,20 5,17.142818 Z"
     id="path19"
     inkscape:connector-curvature="0"
     style="fill:#b6b6b6" />
</svg>
