<?xml version="1.0" encoding="UTF-8" standalone="no"?>
<svg width="18px" height="4px" viewBox="0 0 18 4" version="1.1" xmlns="http://www.w3.org/2000/svg" xmlns:xlink="http://www.w3.org/1999/xlink" xmlns:sketch="http://www.bohemiancoding.com/sketch/ns">
    <!-- Generator: Sketch 3.4.4 (17249) - http://www.bohemiancoding.com/sketch -->
    <title>Oval 163</title>
    <desc>Created with Sketch.</desc>
    <defs></defs>
    <g id="Page-1" stroke="none" stroke-width="1" fill="none" fill-rule="evenodd" sketch:type="MSPage">
        <g id="03" sketch:type="MSArtboardGroup" transform="translate(-30.000000, -250.000000)" fill="#8491A1">
            <g id="Group-+-Rectangle-1576-+-2" sketch:type="MSLayerGroup">
                <g id="Group" sketch:type="MSShapeGroup">
                    <g id="sidebar-+-Triangle-1-+-Triangle-1-Copy-+-Triangle-1-Copy-2-+-Group">
                        <g id="sidebar">
                            <g id="Group" transform="translate(0.000000, 88.000000)">
                                <g id="discussion">
                                    <g id="Rectangle-1-Copy-+-#redditeurope-Copy-Copy-Copy-Copy-Copy" transform="translate(0.000000, 151.000000)">
                                        <path d="M32,15 C33.1045695,15 34,14.1045695 34,13 C34,11.8954305 33.1045695,11 32,11 C30.8954305,11 30,11.8954305 30,13 C30,14.1045695 30.8954305,15 32,15 Z M39,15 C40.1045695,15 41,14.1045695 41,13 C41,11.8954305 40.1045695,11 39,11 C37.8954305,11 37,11.8954305 37,13 C37,14.1045695 37.8954305,15 39,15 Z M46,15 C47.1045695,15 48,14.1045695 48,13 C48,11.8954305 47.1045695,11 46,11 C44.8954305,11 44,11.8954305 44,13 C44,14.1045695 44.8954305,15 46,15 Z" id="Oval-163"></path>
                                    </g>
                                </g>
                            </g>
                        </g>
                    </g>
                </g>
            </g>
        </g>
    </g>
</svg>