<?xml version="1.0" encoding="UTF-8" standalone="no"?>
<svg
   xmlns:dc="http://purl.org/dc/elements/1.1/"
   xmlns:cc="http://creativecommons.org/ns#"
   xmlns:rdf="http://www.w3.org/1999/02/22-rdf-syntax-ns#"
   xmlns:svg="http://www.w3.org/2000/svg"
   xmlns="http://www.w3.org/2000/svg"
   xmlns:sodipodi="http://sodipodi.sourceforge.net/DTD/sodipodi-0.dtd"
   xmlns:inkscape="http://www.inkscape.org/namespaces/inkscape"
   viewBox="0 0 20 20"
   height="20"
   width="20"
   xml:space="preserve"
   version="1.1"
   id="svg2"
   inkscape:version="0.48.5 r10040"
   sodipodi:docname="hello.svg"><sodipodi:namedview
     pagecolor="#ffffff"
     bordercolor="#666666"
     borderopacity="1"
     objecttolerance="10"
     gridtolerance="10"
     guidetolerance="10"
     inkscape:pageopacity="0"
     inkscape:pageshadow="2"
     inkscape:window-width="1920"
     inkscape:window-height="1017"
     id="namedview18"
     showgrid="false"
     inkscape:zoom="13.77648"
     inkscape:cx="23.703125"
     inkscape:cy="23.703126"
     inkscape:window-x="-8"
     inkscape:window-y="-8"
     inkscape:window-maximized="1"
     inkscape:current-layer="layer2"
     fit-margin-top="0"
     fit-margin-left="0"
     fit-margin-right="0"
     fit-margin-bottom="0" /><metadata
     id="metadata8"><rdf:RDF><cc:Work
         rdf:about=""><dc:format>image/svg+xml</dc:format><dc:type
           rdf:resource="http://purl.org/dc/dcmitype/StillImage" /><dc:title /></cc:Work></rdf:RDF></metadata><defs
     id="defs6"><clipPath
       id="clipPath16"
       clipPathUnits="userSpaceOnUse"><path
         id="path18"
         d="m 0,38 57.651,0 0,-38 L 0,0 0,38 z"
         inkscape:connector-curvature="0" /></clipPath><clipPath
       id="clipPath16-1"
       clipPathUnits="userSpaceOnUse"><path
         inkscape:connector-curvature="0"
         id="path18-7"
         d="m 0,38 57.651,0 0,-38 L 0,0 0,38 z" /></clipPath><clipPath
       id="clipPath16-1-4"
       clipPathUnits="userSpaceOnUse"><path
         inkscape:connector-curvature="0"
         id="path18-7-0"
         d="m 0,38 57.651,0 0,-38 L 0,0 0,38 z" /></clipPath></defs><g
     inkscape:groupmode="layer"
     id="layer2"
     inkscape:label="calque"
     style="display:inline"
     transform="translate(-0.27784594,-29.018581)"><path
       style="fill:#3aebb9;fill-opacity:1;display:inline"
       d="m 10.284438,29.018581 c -5.5220758,0 -10.00659206,4.484516 -10.00659206,10.006592 0,5.522076 4.48451626,9.993408 10.00659206,9.993408 5.522075,0 9.993408,-4.471332 9.993408,-9.993408 0,-5.522076 -4.471333,-10.006592 -9.993408,-10.006592 z m 0,1.608438 c 4.634146,0 8.38497,3.764008 8.38497,8.398154 0,4.634146 -3.750824,8.38497 -8.38497,8.38497 -4.634146,0 -8.3981544,-3.750824 -8.3981544,-8.38497 0,-4.634146 3.7640084,-8.398154 8.3981544,-8.398154 z"
       id="path2995"
       inkscape:connector-curvature="0" /><g
       transform="matrix(0.52735662,0,0,-0.52735662,0.25817555,49.038568)"
       style="display:inline"
       clip-path="url(#clipPath16-1-4)"
       id="g14"><g
         transform="translate(32.6563,10.7061)"
         id="g20" /><g
         transform="translate(55.6506,17)"
         id="g24" /><g
         transform="translate(42.3726,5.333)"
         id="g28" /><g
         transform="translate(18.9998,24.3174)"
         id="g32"><path
           id="path34"
           style="fill:#3aebb9;fill-opacity:1;fill-rule:nonzero;stroke:none"
           d="m 0,0 c -2.932,0 -5.318,-2.385 -5.318,-5.317 0,-2.932 2.386,-5.317 5.318,-5.317 2.932,0 5.317,2.385 5.317,5.317 C 5.317,-2.385 2.932,0 0,0 m 0,-12.333 c -3.869,0 -7.016,3.147 -7.016,7.016 0,3.869 3.147,7.016 7.016,7.016 3.868,0 7.016,-3.147 7.016,-7.016 0,-3.869 -3.148,-7.016 -7.016,-7.016"
           inkscape:connector-curvature="0" /></g></g></g></svg>