<?xml version="1.0" encoding="UTF-8" standalone="no"?>
<svg width="14px" height="20px" viewBox="0 0 14 20" version="1.1" xmlns="http://www.w3.org/2000/svg" xmlns:xlink="http://www.w3.org/1999/xlink" xmlns:sketch="http://www.bohemiancoding.com/sketch/ns">
    <!-- Generator: Sketch 3.4.4 (17249) - http://www.bohemiancoding.com/sketch -->
    <title>Group Copy 5 + Shape</title>
    <desc>Created with Sketch.</desc>
    <defs></defs>
    <g id="Page-1" stroke="none" stroke-width="1" fill="none" fill-rule="evenodd" sketch:type="MSPage">
        <g id="01-copy-2" sketch:type="MSArtboardGroup" transform="translate(-1011.000000, -501.000000)">
            <g id="Group-+-Group-Copy-6" sketch:type="MSLayerGroup" transform="translate(348.000000, 172.000000)">
                <g id="Group-Copy-6" transform="translate(0.000000, 330.000000)" sketch:type="MSShapeGroup">
                    <g id="Group-Copy-5-+-Shape" transform="translate(663.000000, 0.000000)">
                        <g id="Group-Copy-5">
                            <circle id="Oval-584" fill="#FFFFFF" cx="7" cy="12" r="7"></circle>
                            <path d="M3,7.60988079 L3,3.39011921 L3,3.39011921 C3,1.51780807 4.79535615,0 7,0 L7,0 C9.209139,0 11,1.51795392 11,3.39011921 L11,7.60988079" id="Rectangle-3284" stroke="#FFFFFF" stroke-width="2"></path>
                        </g>
                        <path d="M6.1820872,7.73589682 C5.73086365,7.93894742 5.16683423,8.59322155 4.9976254,9.11212863 C4.81713598,9.65359688 4.92994187,10.3191516 5.33604306,11.1764763 C5.94519484,12.473744 6.65587191,13.1167376 7.28758487,12.9588093 C8.09978725,12.7557587 9.20528493,10.8944616 9.20528493,9.732561 C9.20528493,8.97676156 8.97967315,8.51425743 8.3479602,8.00663095 C7.99826195,7.71333565 7.80649195,7.64565212 7.21990134,7.62309094 C6.79123898,7.60052976 6.38513779,7.64565212 6.1820872,7.73589682 L6.1820872,7.73589682 Z M5.05402834,13.1392987 C4.53512127,13.5792417 4.1064589,14.4365664 4.0162142,15.1472435 C3.83572478,16.6701229 5.17811482,17.6740953 7.24246252,17.5838506 C8.69765844,17.5274477 9.50986082,17.1213465 9.94980377,16.2414606 C10.164135,15.8015176 10.1979767,15.6097476 10.1415738,15.1134017 C10.0513291,14.3801635 9.54370258,13.4664358 8.99095374,13.049054 C8.59613314,12.7444781 8.58485256,12.7444781 8.46076608,12.9588093 C8.20131254,13.432594 7.40039076,14.1319905 7.10709546,14.1319905 C6.7686778,14.1319905 6.11440366,13.6018029 5.82110836,13.105457 C5.70830248,12.9249676 5.584216,12.7783199 5.53909365,12.7783199 C5.49397129,12.7783199 5.27964011,12.9362481 5.05402834,13.1392987 L5.05402834,13.1392987 Z" id="Shape" fill="#4A5274"></path>
                    </g>
                </g>
            </g>
        </g>
    </g>
</svg>