<?xml version="1.0" encoding="UTF-8" standalone="no"?>
<svg width="420px" height="143px" viewBox="0 0 420 143" version="1.1" xmlns="http://www.w3.org/2000/svg" xmlns:xlink="http://www.w3.org/1999/xlink" xmlns:sketch="http://www.bohemiancoding.com/sketch/ns">
    <!-- Generator: Sketch 3.5.2 (25235) - http://www.bohemiancoding.com/sketch -->
    <title>Group</title>
    <desc>Created with Sketch.</desc>
    <defs></defs>
    <g id="Page-1" stroke="none" stroke-width="1" fill="none" fill-rule="evenodd" sketch:type="MSPage">
        <g id="05" sketch:type="MSArtboardGroup" transform="translate(-868.000000, -274.000000)">
            <g id="Rectangle-256-+-Group" sketch:type="MSLayerGroup" transform="translate(360.000000, 274.000000)">
                <g id="Group" transform="translate(491.000000, -81.000000)" sketch:type="MSShapeGroup">
                    <ellipse id="Oval-505" fill="#E42457" cx="278.9556" cy="120.790534" rx="85.4137235" ry="88.0795569"></ellipse>
                    <path d="M269.074782,50.222748 C230.762589,55.0107047 200.722347,86.7853262 197.674786,125.08898 C195.933323,145.546613 202.028444,164.698439 212.477224,179.932847 C213.783322,182.109191 213.783322,184.720804 211.606493,186.02661 C205.511371,190.814567 197.23942,194.731986 191.144299,193.426179 C202.899176,204.743168 218.572346,207.790049 232.068686,204.307899 C235.551613,203.437362 239.469905,203.87263 242.517466,205.613706 C256.884539,213.013275 273.863806,216.060156 291.278439,213.883813 C331.332095,208.225318 361.807703,173.403815 362.243069,133.359087 C363.549166,83.3031759 319.577218,43.6937162 269.074782,50.222748 L269.074782,50.222748 Z" id="path11-path" fill="#FFFFFF"></path>
                    <path d="M83.0993946,167.15005 L95.9863774,181.554884" id="Line-Copy-19" stroke="#FFFFFF" stroke-width="7.5" stroke-linecap="round" stroke-linejoin="round"></path>
                    <path d="M30.9495459,154.973061 L49.8512191,151" id="Line-Copy-20" stroke="#FFFFFF" stroke-width="7.5" stroke-linecap="round" stroke-linejoin="round"></path>
                    <path d="M136,177.00114 L143.900172,159.353474" id="Line-Copy-13" stroke="#FFFFFF" stroke-width="7.5" stroke-linecap="round" stroke-linejoin="round"></path>
                    <path d="M389.244198,81.869217 L397.14437,64.2215509" id="Line-Copy-15" stroke="#FFFFFF" stroke-width="7.5" stroke-linecap="round" stroke-linejoin="round"></path>
                    <path d="M254.949546,231.647666 L262.849718,214" id="Line-Copy-24" stroke="#FFFFFF" stroke-width="7.5" stroke-linecap="round" stroke-linejoin="round"></path>
                    <path d="M163.949546,167.647666 L171.849718,150" id="Line-Copy-25" stroke="#FFFFFF" stroke-width="7.5" stroke-linecap="round" stroke-linejoin="round"></path>
                    <path d="M21.0993946,199.15005 L33.9863774,213.554884" id="Line-Copy-26" stroke="#FFFFFF" stroke-width="7.5" stroke-linecap="round" stroke-linejoin="round"></path>
                    <path d="M148.437437,215.322256 L161.32442,229.72709" id="Line-Copy-2" stroke="#FFFFFF" stroke-width="7.5" stroke-linecap="round" stroke-linejoin="round"></path>
                    <path d="M419.963169,152.601208 L432.850151,167.006042" id="Line-Copy-17" stroke="#FFFFFF" stroke-width="7.5" stroke-linecap="round" stroke-linejoin="round"></path>
                    <path d="M220.099395,160.15005 L232.986377,174.554884" id="Line-Copy-31" stroke="#FFFFFF" stroke-width="7.5" stroke-linecap="round" stroke-linejoin="round"></path>
                    <path d="M267.949546,149 L275.139228,166.949657" id="Line-Copy-32" stroke="#FFFFFF" stroke-width="7.5" stroke-linecap="round" stroke-linejoin="round"></path>
                    <path d="M368.565086,178.86002 L375.754768,196.809677" id="Line-Copy-7" stroke="#FFFFFF" stroke-width="7.5" stroke-linecap="round" stroke-linejoin="round"></path>
                    <path d="M375.065056,133.199683 L393.23058,126.631142" id="Line-Copy-8" stroke="#FFFFFF" stroke-width="7.5" stroke-linecap="round" stroke-linejoin="round"></path>
                    <path d="M155.480323,113.704493 L173.645846,107.135952" id="Line-Copy-9" stroke="#FFFFFF" stroke-width="7.5" stroke-linecap="round" stroke-linejoin="round"></path>
                </g>
            </g>
        </g>
    </g>
</svg>