<?xml version="1.0" encoding="utf-8"?>
<!-- Generator: Adobe Illustrator 16.0.0, SVG Export Plug-In . SVG Version: 6.00 Build 0)  -->
<!DOCTYPE svg PUBLIC "-//W3C//DTD SVG 1.1//EN" "http://www.w3.org/Graphics/SVG/1.1/DTD/svg11.dtd">
<svg version="1.1"
	 id="svg2" xmlns:dc="http://purl.org/dc/elements/1.1/" xmlns:cc="http://creativecommons.org/ns#" xmlns:rdf="http://www.w3.org/1999/02/22-rdf-syntax-ns#" xmlns:svg="http://www.w3.org/2000/svg" xmlns:sodipodi="http://sodipodi.sourceforge.net/DTD/sodipodi-0.dtd" xmlns:inkscape="http://www.inkscape.org/namespaces/inkscape" sodipodi:docname="owner-w.svg" inkscape:version="0.48.5 r10040"
	 xmlns="http://www.w3.org/2000/svg" xmlns:xlink="http://www.w3.org/1999/xlink" x="0px" y="0px" width="15.973px"
	 height="10.648px" viewBox="0 0 15.973 10.648" enable-background="new 0 0 15.973 10.648" xml:space="preserve">
<sodipodi:namedview  inkscape:cy="4.4075349" inkscape:cx="0.17061501" inkscape:zoom="19.488509" showgrid="false" id="namedview3007" guidetolerance="10" gridtolerance="10" objecttolerance="10" borderopacity="1" bordercolor="#666666" pagecolor="#ffffff" inkscape:current-layer="g10" inkscape:window-maximized="1" inkscape:window-y="-8" inkscape:window-x="-8" inkscape:window-height="1017" inkscape:window-width="1920" inkscape:pageshadow="2" inkscape:pageopacity="0">
	</sodipodi:namedview>
<g id="g10" transform="matrix(1.25,0,0,-1.25,0,10.6473)">
	<g id="g12">
		<g>
			<defs>
				<rect id="SVGID_1_" x="-1.597" y="-1.065" width="15.973" height="10.648"/>
			</defs>
			<clipPath id="SVGID_2_">
				<use xlink:href="#SVGID_1_"  overflow="visible"/>
			</clipPath>
			<g id="g14" clip-path="url(#SVGID_2_)">
				<g id="g20" transform="translate(12.6511,5.5491)">
					<path id="path22" fill="#FFFFFF" d="M0,0c0.259,0.458,0.109,1.056-0.348,1.315c-0.469,0.269-1.057,0.109-1.316-0.349
						c-0.239-0.408-0.139-0.937,0.21-1.225c-0.798-0.678-3.238-2.75-3.259-2.75l-1.445,4.055c0.509,0.03,0.897,0.448,0.897,0.956
						c0,0.528-0.428,0.967-0.976,0.967h-0.05c-0.538,0-0.977-0.439-0.977-0.967c0-0.508,0.388-0.926,0.896-0.956L-7.81-3.009
						c-0.01,0-2.451,2.072-3.268,2.75c0.369,0.288,0.469,0.817,0.229,1.225c-0.269,0.458-0.856,0.618-1.325,0.349
						C-12.622,1.056-12.791,0.458-12.522,0c0.259-0.439,0.807-0.608,1.275-0.379l0.896-5.17h8.189l0.897,5.17
						C-0.807-0.608-0.259-0.438,0,0"/>
				</g>
			</g>
		</g>
	</g>
</g>
</svg>
