<?xml version="1.0" encoding="UTF-8" standalone="no"?>
<svg width="25px" height="18px" viewBox="0 0 25 18" version="1.1" xmlns="http://www.w3.org/2000/svg" xmlns:xlink="http://www.w3.org/1999/xlink" xmlns:sketch="http://www.bohemiancoding.com/sketch/ns">
    <!-- Generator: Sketch 3.4.4 (17249) - http://www.bohemiancoding.com/sketch -->
    <title>noun_107</title>
    <desc>Created with Sketch.</desc>
    <defs></defs>
    <g id="Page-1" stroke="none" stroke-width="1" fill="none" fill-rule="evenodd" sketch:type="MSPage">
        <g id="discussion-copy" sketch:type="MSArtboardGroup" transform="translate(-711.000000, -3100.000000)" fill="#D0DAE6">
            <g id="Group" sketch:type="MSLayerGroup" transform="translate(17.000000, 3075.000000)">
                <g id="noun_107" transform="translate(694.000000, 25.000000)" sketch:type="MSShapeGroup">
                    <path d="M14.70575,4.428 C16.6945,4.428 18.42125,5.50824658 19.3745,7.09939726 L24.9935,7.10580822 L24.9935,4.10227397 C24.9935,2.98454795 24.08175,2.07789041 22.96325,2.07789041 L2.024,2.07789041 C0.902,2.07789041 0,2.98454795 0,4.10227397 L0.00575,7.08041096 L10.03375,7.08706849 C10.99375,5.50158904 12.7135,4.428 14.70575,4.428" id="Shape"></path>
                    <path d="M5.2515,1.12438356 L3.38875,1.12438356 L3.1735,1.79383562 L5.40625,1.79383562 L5.2515,1.12438356 L5.2515,1.12438356 Z" id="Shape"></path>
                    <path d="M22.04775,0.767342466 L19.5675,0.767342466 L19.1275,1.8 L22.45,1.8 L22.04775,0.767342466 L22.04775,0.767342466 Z" id="Shape"></path>
                    <path d="M13.53425,1.44345205 L11.3995,1.44345205 L11.3995,0.413753425 L13.53425,0.413753425 L13.53425,1.44345205 L13.53425,1.44345205 Z M15.49125,0 L9.46375,0 L8.222,1.81282192 L16.62825,1.81282192 L15.49125,0 L15.49125,0 Z" id="Shape"></path>
                    <path d="M19.66575,7.63643836 C19.9765,8.31871233 20.16,9.06978082 20.16,9.86917808 C20.16,12.8724658 17.7175,15.3103562 14.706,15.3103562 C11.6905,15.3103562 9.24875,12.8722192 9.24875,9.86917808 C9.24875,9.06978082 9.4295,8.31871233 9.74275,7.6329863 L0,7.6329863 L0,15.8321096 C0,16.9434247 0.902,17.8500822 2.024,17.8500822 L22.963,17.8500822 C24.0815,17.8500822 24.99325,16.9434247 24.99325,15.8321096 L25,7.63643836 L19.66575,7.63643836 L19.66575,7.63643836 Z" id="Shape"></path>
                    <path d="M17.68,8.08150685 C17.5945,7.92986301 17.48675,7.78758904 17.3695,7.65221918 C16.73275,6.88783562 15.77975,6.38531507 14.706,6.38531507 C13.62875,6.38531507 12.67575,6.88487671 12.039,7.64580822 C11.922,7.78463014 11.814,7.92690411 11.72225,8.08150685 C11.40275,8.6059726 11.20925,9.21205479 11.20925,9.86917808 C11.20925,11.7895068 12.77425,13.3493425 14.706,13.3493425 C16.62825,13.3493425 18.1935,11.7895068 18.1935,9.86917808 C18.19325,9.21230137 18.00325,8.60621918 17.68,8.08150685" id="Shape"></path>
                </g>
            </g>
        </g>
    </g>
</svg>