<?xml version="1.0" encoding="UTF-8" standalone="no"?>
<svg width="21px" height="21px" viewBox="0 0 21 21" version="1.1" xmlns="http://www.w3.org/2000/svg" xmlns:xlink="http://www.w3.org/1999/xlink" xmlns:sketch="http://www.bohemiancoding.com/sketch/ns">
    <!-- Generator: Sketch 3.4.4 (17249) - http://www.bohemiancoding.com/sketch -->
    <title>Group</title>
    <desc>Created with Sketch.</desc>
    <defs></defs>
    <g id="Page-1" stroke="none" stroke-width="1" fill="none" fill-rule="evenodd" sketch:type="MSPage">
        <g id="discussion-copy" sketch:type="MSArtboardGroup" transform="translate(-635.000000, -3098.000000)" fill="#D0DAE6">
            <g id="Group" sketch:type="MSLayerGroup" transform="translate(17.000000, 3075.000000)">
                <g transform="translate(618.000000, 23.000000)" id="Shape" sketch:type="MSShapeGroup">
                    <path d="M10.49853,0 C4.70064,0 0,4.70043 0,10.5 C0,16.2981 4.70064,21 10.49853,21 C16.2981,21 21,16.2981 21,10.5 C21,4.70043 16.2981,0 10.49853,0 L10.49853,0 Z M10.499299,19 C5.804753,19 2,15.1943925 2,10.5 C2,5.80560748 5.804753,2 10.499299,2 C15.193845,2 19,5.80560748 19,10.5 C19,15.1943925 15.193845,19 10.499299,19 L10.499299,19 Z"></path>
                    <path d="M8.56254,9.23475 C8.56254,8.30718 7.81074,7.55517 6.88233,7.55517 C5.95539,7.55517 5.20338,8.30718 5.20338,9.23475 C5.20338,10.16232 5.95539,10.91433 6.88233,10.91433 C7.81074,10.91433 8.56254,10.16232 8.56254,9.23475 L8.56254,9.23475 Z"></path>
                    <path d="M14.11599,7.55517 C13.18779,7.55517 12.43599,8.30718 12.43599,9.23475 C12.43599,10.16232 13.18779,10.91433 14.11599,10.91433 C15.04461,10.91433 15.79662,10.16232 15.79662,9.23475 C15.79662,8.30718 15.04461,7.55517 14.11599,7.55517 L14.11599,7.55517 Z"></path>
                    <path d="M13.1292,13.74093 C12.38832,14.2884 11.48574,14.6139 10.49874,14.6139 C9.51195,14.6139 8.60937,14.2884 7.86975,13.74093 C7.56042,13.50972 7.12173,13.57545 6.89199,13.8852 C6.66099,14.19558 6.72672,14.63385 7.03563,14.86506 C7.99974,15.582 9.20115,16.01481 10.49874,16.01481 C11.79633,16.01481 12.99795,15.582 13.96311,14.86506 C14.27223,14.63385 14.33628,14.19558 14.10675,13.8852 C13.87554,13.57545 13.4379,13.51119 13.1292,13.74093 L13.1292,13.74093 Z"></path>
                </g>
            </g>
        </g>
    </g>
</svg>