<?xml version="1.0" encoding="UTF-8" standalone="no"?>
<svg width="14px" height="15px" viewBox="0 0 14 15" version="1.1" xmlns="http://www.w3.org/2000/svg" xmlns:xlink="http://www.w3.org/1999/xlink" xmlns:sketch="http://www.bohemiancoding.com/sketch/ns">
    <!-- Generator: Sketch 3.4.4 (17249) - http://www.bohemiancoding.com/sketch -->
    <title>Shape</title>
    <desc>Created with Sketch.</desc>
    <defs></defs>
    <g id="Page-1" stroke="none" stroke-width="1" fill="none" fill-rule="evenodd" sketch:type="MSPage">
        <g id="05" sketch:type="MSArtboardGroup" transform="translate(-593.000000, -368.000000)" fill="#AFBAC8">
            <g id="Group" sketch:type="MSLayerGroup" transform="translate(360.000000, 155.000000)">
                <g id="Group-Copy-+-Shape-Copy-Copy-Copy-Copy-Copy" sketch:type="MSShapeGroup">
                    <g id="Group-+-Donuts:-+-568-+-Shape-+-Shape-Copy" transform="translate(27.199550, 208.000000)">
                        <g id="568-+-Shape-+-Shape" transform="translate(205.800450, 5.000000)">
                            <path d="M4.56408055,0.14359919 C3.37936245,0.580585376 2.5539441,1.75559268 2.5539441,2.979154 C2.5539441,4.75623115 4.35044286,7.47525631 5.51573936,7.47525631 C6.45768736,7.47525631 7.78806753,5.76615478 8.29302934,3.91139119 C8.54551025,3.01799721 8.49695623,2.42563816 8.13765647,1.68761705 C7.4967434,0.386369294 5.8556175,-0.322519408 4.56408055,0.14359919 L4.56408055,0.14359919 Z M10.3711414,4.68825552 C9.98270926,4.86305 9.49716905,5.42627664 9.35150699,5.87297363 C9.19613412,6.33909223 9.29324217,6.91202967 9.64283111,7.65005079 C10.1672145,8.76679326 10.7789952,9.3203091 11.3228002,9.18435784 C12.0219781,9.00956336 12.9736369,7.40728068 12.9736369,6.40706786 C12.9736369,5.75644398 12.7794208,5.35830101 12.2356158,4.92131482 C11.9345809,4.66883392 11.7694972,4.61056909 11.2645354,4.59114748 C10.8955248,4.57172588 10.5459359,4.61056909 10.3711414,4.68825552 L10.3711414,4.68825552 Z M2.7870034,7.06740254 C1.22356393,8.20356662 0.427277992,10.3205219 0.971083024,11.903383 C1.20414232,12.5831393 2.02956067,13.3988468 2.7967142,13.6804602 C4.4378401,14.3019516 6.61306023,14.3116624 8.22505371,13.690171 L8.51637784,13.5833521 L8.16678889,13.3017388 C6.89467354,12.2529719 7.27339491,9.72816287 8.87567759,8.57257718 L9.35150699,8.23269903 L8.99220724,7.82484526 C8.64261829,7.43641309 7.89488637,6.79550002 7.79777833,6.79550002 C7.76864592,6.79550002 7.66182707,6.94116208 7.56471903,7.10624575 C6.95293837,8.17443421 6.09838761,8.93187693 5.51573936,8.93187693 C5.33123408,8.93187693 5.02048835,8.80563648 4.73887503,8.6211312 C4.29217804,8.32009627 3.5056029,7.37814827 3.37936245,6.9897161 C3.30167602,6.7372352 3.23370039,6.746946 2.7870034,7.06740254 L2.7870034,7.06740254 Z M9.40006101,9.3397307 C8.95336402,9.71845207 8.58435346,10.4564732 8.50666703,11.0682538 C8.35129416,12.3792124 9.50687986,13.243474 11.283957,13.1657875 C12.5366507,13.1172335 13.2358286,12.7676446 13.61455,12.0102018 C13.7990553,11.6314805 13.8281877,11.4663968 13.7796337,11.0391214 C13.7019472,10.4079192 13.2649611,9.62134402 12.7891317,9.26204427 C12.4492535,8.99985256 12.4395427,8.99985256 12.3327239,9.18435784 C12.1093754,9.59221161 11.4199083,10.1942815 11.1674274,10.1942815 C10.8761032,10.1942815 10.3128766,9.73787367 10.0603957,9.31059829 C9.96328765,9.15522543 9.85646881,9.02898497 9.81762559,9.02898497 C9.77878237,9.02898497 9.59427709,9.16493623 9.40006101,9.3397307 L9.40006101,9.3397307 Z" id="Shape"></path>
                        </g>
                    </g>
                </g>
            </g>
        </g>
    </g>
</svg>