<?xml version="1.0" encoding="UTF-8" standalone="no"?>
<svg width="14px" height="21px" viewBox="0 0 14 21" version="1.1" xmlns="http://www.w3.org/2000/svg" xmlns:xlink="http://www.w3.org/1999/xlink" xmlns:sketch="http://www.bohemiancoding.com/sketch/ns">
    <!-- Generator: Sketch 3.4.4 (17249) - http://www.bohemiancoding.com/sketch -->
    <title>Path + Path Copy + Path</title>
    <desc>Created with Sketch.</desc>
    <defs></defs>
    <g id="Page-1" stroke="none" stroke-width="1" fill="none" fill-rule="evenodd" sketch:type="MSPage">
        <g id="discussion-copy" sketch:type="MSArtboardGroup" transform="translate(-14.000000, -1439.000000)" fill="#18C095">
            <g id="Rectangle-910-+-Group" sketch:type="MSLayerGroup" transform="translate(0.000000, 56.000000)">
                <g id="Group" sketch:type="MSShapeGroup">
                    <g id="Group-Copy-12" transform="translate(14.000000, 1381.620346)">
                        <g id="Path-+-Path-Copy-+-Path" transform="translate(0.000000, 2.000000)">
                            <path d="M12.8759013,8.17520969 C12.0583215,8.17520969 12.0583215,8.17520969 12.0583215,8.99278952 L12.0583215,9.81017315 C12.0583215,12.6714083 10.01447,14.7152597 7.1532349,14.7152597 C5.5836072,14.7152597 4.25923383,14.0938834 3.47441997,13.0802963 L2.06822975,13.9794967 C3.04924707,15.1076667 4.48800706,15.9415314 6.33565507,16.3502232 L6.33565507,18.8027665 C6.33565507,19.6203463 6.33565507,19.6203463 7.1532349,19.6203463 C7.97081473,19.6203463 7.97081473,19.6203463 7.97081473,18.8027665 L7.97081473,16.3502232 C11.6496297,15.5328396 13.6934811,13.0802963 13.6934811,9.81017315 L13.6934811,8.99259332 C13.6934811,8.17520969 13.6934811,8.17520969 12.8759013,8.17520969 L12.8759013,8.17520969 Z" id="Path"></path>
                            <path d="M11.4776697,8.17520969 C10.6600899,8.17520969 10.6600899,8.17520969 10.6600899,8.99278952 L10.6600899,9.81017315 C10.6600899,12.6714083 8.61623842,14.7152597 5.75500332,14.7152597 C4.18537562,14.7152597 2.86100224,14.0938834 2.07618839,13.0802963 L0.669998169,13.9794967 C1.65101548,15.1076667 3.08977548,15.9415314 4.93742349,16.3502232 L4.93742349,18.8027665 C4.93742349,19.6203463 4.93742349,19.6203463 5.75500332,19.6203463 C6.57258315,19.6203463 6.57258315,19.6203463 6.57258315,18.8027665 L6.57258315,16.3502232 C10.2513981,15.5328396 12.2952496,13.0802963 12.2952496,9.81017315 L12.2952496,8.99259332 C12.2952496,8.17520969 12.2952496,8.17520969 11.4776697,8.17520969 L11.4776697,8.17520969 Z" id="Path-Copy" transform="translate(6.482624, 13.897778) scale(-1, 1) translate(-6.482624, -13.897778) "></path>
                            <path d="M10.423358,4.33276107 L10.423358,9.36057291 L10.423358,9.81017315 C10.423358,11.8540246 8.78839457,13.0802963 7.1532349,13.0802963 C5.51807524,13.0802963 3.88330799,11.8540246 3.88330799,9.81017315 L3.88330799,6.73729541 L3.88311179,3.27012312 L3.88311179,2.31618188 C4.30004415,0.850934419 5.66208859,2.27373675e-13 7.02393682,2.27373675e-13 C7.04548772,2.27373675e-13 7.06703865,0.000213059643 7.08858586,0.000638242946 C7.11013308,0.000213059643 7.13168401,2.27373675e-13 7.1532349,2.27373675e-13 C8.51508314,2.27373675e-13 9.87712758,0.850934419 10.2940599,2.31618188 L10.423358,4.33276107 Z" id="Path"></path>
                        </g>
                    </g>
                </g>
            </g>
        </g>
    </g>
</svg>