<?xml version="1.0" encoding="UTF-8" standalone="no"?>
<svg
   xmlns:dc="http://purl.org/dc/elements/1.1/"
   xmlns:cc="http://creativecommons.org/ns#"
   xmlns:rdf="http://www.w3.org/1999/02/22-rdf-syntax-ns#"
   xmlns:svg="http://www.w3.org/2000/svg"
   xmlns="http://www.w3.org/2000/svg"
   xmlns:sodipodi="http://sodipodi.sourceforge.net/DTD/sodipodi-0.dtd"
   xmlns:inkscape="http://www.inkscape.org/namespaces/inkscape"
   viewBox="0 0 681.97333 223.08132"
   height="223.08133"
   width="681.97333"
   xml:space="preserve"
   id="svg2"
   version="1.1"
   inkscape:version="0.91pre3 r13670"
   sodipodi:docname="Windows phone logo.svg"><sodipodi:namedview
     pagecolor="#ffffff"
     bordercolor="#666666"
     borderopacity="1"
     objecttolerance="10"
     gridtolerance="10"
     guidetolerance="10"
     inkscape:pageopacity="0"
     inkscape:pageshadow="2"
     inkscape:window-width="1920"
     inkscape:window-height="1017"
     id="namedview243"
     showgrid="false"
     inkscape:zoom="0.4947148"
     inkscape:cx="678.74009"
     inkscape:cy="7.2228495"
     inkscape:window-x="-8"
     inkscape:window-y="-8"
     inkscape:window-maximized="1"
     inkscape:current-layer="g12"
     fit-margin-top="0"
     fit-margin-left="0"
     fit-margin-right="0"
     fit-margin-bottom="0" /><metadata
     id="metadata8"><rdf:RDF><cc:Work
         rdf:about=""><dc:format>image/svg+xml</dc:format><dc:type
           rdf:resource="http://purl.org/dc/dcmitype/StillImage" /><dc:title></dc:title></cc:Work></rdf:RDF></metadata><defs
     id="defs6"><clipPath
       id="clipPath20"
       clipPathUnits="userSpaceOnUse"><path
         id="path18"
         d="m 0,0 5217,0 0,10119.6 -5217,0 z"
         inkscape:connector-curvature="0" /></clipPath><clipPath
       id="clipPath152"
       clipPathUnits="userSpaceOnUse"><path
         id="path150"
         d="m 1108.44,9387.53 -230.628,133.15 c 0,0 -420.156,242.61 -444.859,256.87 -24.699,14.25 -49.305,5.62 -49.305,-24.18 0,-49.65 0,-518 0,-518 0,0 0,-506.15 0,-528.5 0,-22.34 17.59,-31.98 39.047,-19.59 21.45,12.4 455.117,262.79 455.117,262.79 l 230.618,133.14 c 0,0 195.68,112.97 221.69,127.98 26.01,15.03 23.51,35.64 1.56,47.46 -21.94,11.82 -223.24,128.88 -223.24,128.88 z"
         inkscape:connector-curvature="0" /></clipPath><clipPath
       id="clipPath158"
       clipPathUnits="userSpaceOnUse"><path
         id="path156"
         d="m 383.648,9801.89 0,-566.52 0,-566.52 571.336,566.51 z"
         inkscape:connector-curvature="0" /></clipPath><linearGradient
       id="linearGradient166"
       spreadMethod="pad"
       gradientTransform="matrix(-4.95e-5,-1133.04,-1133.04,4.95e-5,669.316,9801.89)"
       gradientUnits="userSpaceOnUse"
       y2="0"
       x2="1"
       y1="0"
       x1="0"><stop
         id="stop160"
         offset="0"
         style="stop-opacity:1;stop-color:#3a7ab6" /><stop
         id="stop162"
         offset="0.88094861"
         style="stop-opacity:1;stop-color:#8ad6b6" /><stop
         id="stop164"
         offset="1"
         style="stop-opacity:1;stop-color:#8ad6b6" /></linearGradient><clipPath
       id="clipPath176"
       clipPathUnits="userSpaceOnUse"><path
         id="path174"
         d="m 1108.44,9387.53 -230.628,133.15 c 0,0 -420.156,242.61 -444.859,256.87 -24.699,14.25 -49.305,5.62 -49.305,-24.18 0,-49.65 0,-518 0,-518 0,0 0,-506.15 0,-528.5 0,-22.34 17.59,-31.98 39.047,-19.59 21.45,12.4 455.117,262.79 455.117,262.79 l 230.618,133.14 c 0,0 195.68,112.97 221.69,127.98 26.01,15.03 23.51,35.64 1.56,47.46 -21.94,11.82 -223.24,128.88 -223.24,128.88 z"
         inkscape:connector-curvature="0" /></clipPath><clipPath
       id="clipPath182"
       clipPathUnits="userSpaceOnUse"><path
         id="path180"
         d="m 1108.44,9387.53 -230.628,133.15 -494.164,285.33 0,-4.12 571.336,-566.53 z"
         inkscape:connector-curvature="0" /></clipPath><linearGradient
       id="linearGradient188"
       spreadMethod="pad"
       gradientTransform="matrix(724.795,0,0,-724.795,383.647,9520.68)"
       gradientUnits="userSpaceOnUse"
       y2="0"
       x2="1"
       y1="0"
       x1="0"><stop
         id="stop184"
         offset="0"
         style="stop-opacity:1;stop-color:#5dc7a6" /><stop
         id="stop186"
         offset="1"
         style="stop-opacity:1;stop-color:#daed84" /></linearGradient><clipPath
       id="clipPath198"
       clipPathUnits="userSpaceOnUse"><path
         id="path196"
         d="m 1108.44,9387.53 -230.628,133.15 c 0,0 -420.156,242.61 -444.859,256.87 -24.699,14.25 -49.305,5.62 -49.305,-24.18 0,-49.65 0,-518 0,-518 0,0 0,-506.15 0,-528.5 0,-22.34 17.59,-31.98 39.047,-19.59 21.45,12.4 455.117,262.79 455.117,262.79 l 230.618,133.14 c 0,0 195.68,112.97 221.69,127.98 26.01,15.03 23.51,35.64 1.56,47.46 -21.94,11.82 -223.24,128.88 -223.24,128.88 z"
         inkscape:connector-curvature="0" /></clipPath><clipPath
       id="clipPath204"
       clipPathUnits="userSpaceOnUse"><path
         id="path202"
         d="m 383.648,8668.85 0,-4.11 494.164,285.33 230.618,133.14 -153.446,152.15 z"
         inkscape:connector-curvature="0" /></clipPath><linearGradient
       id="linearGradient210"
       spreadMethod="pad"
       gradientTransform="matrix(-2.49e-5,-570.62,-570.62,2.49e-5,746.04,9235.36)"
       gradientUnits="userSpaceOnUse"
       y2="0"
       x2="1"
       y1="0"
       x1="0"><stop
         id="stop206"
         offset="0"
         style="stop-opacity:1;stop-color:#ec2d38" /><stop
         id="stop208"
         offset="1"
         style="stop-opacity:1;stop-color:#85379f" /></linearGradient><clipPath
       id="clipPath220"
       clipPathUnits="userSpaceOnUse"><path
         id="path218"
         d="m 1108.44,9387.53 -230.628,133.15 c 0,0 -420.156,242.61 -444.859,256.87 -24.699,14.25 -49.305,5.62 -49.305,-24.18 0,-49.65 0,-518 0,-518 0,0 0,-506.15 0,-528.5 0,-22.34 17.59,-31.98 39.047,-19.59 21.45,12.4 455.117,262.79 455.117,262.79 l 230.618,133.14 c 0,0 195.68,112.97 221.69,127.98 26.01,15.03 23.51,35.64 1.56,47.46 -21.94,11.82 -223.24,128.88 -223.24,128.88 z"
         inkscape:connector-curvature="0" /></clipPath><clipPath
       id="clipPath226"
       clipPathUnits="userSpaceOnUse"><path
         id="path224"
         d="M 1108.44,9387.53 954.984,9235.36 1108.43,9083.21 1372,9235.37 Z"
         inkscape:connector-curvature="0" /></clipPath><linearGradient
       id="linearGradient232"
       spreadMethod="pad"
       gradientTransform="matrix(-1.33e-5,-304.316,-304.316,1.33e-5,1163.5,9387.53)"
       gradientUnits="userSpaceOnUse"
       y2="0"
       x2="1"
       y1="0"
       x1="0"><stop
         id="stop228"
         offset="0"
         style="stop-opacity:1;stop-color:#f4706e" /><stop
         id="stop230"
         offset="1"
         style="stop-opacity:1;stop-color:#fbc15b" /></linearGradient><clipPath
       id="clipPath242"
       clipPathUnits="userSpaceOnUse"><path
         id="path240"
         d="m 0,0 0,10120 5217,0 0,-10120 z"
         inkscape:connector-curvature="0" /></clipPath><clipPath
       id="clipPath298"
       clipPathUnits="userSpaceOnUse"><path
         id="path296"
         d="m 1108.44,7367.61 -230.628,133.15 c 0,0 -420.156,242.61 -444.859,256.87 -24.699,14.26 -49.305,5.62 -49.305,-24.18 0,-49.65 0,-518 0,-518 0,0 0,-506.15 0,-528.51 0,-22.34 17.59,-31.97 39.047,-19.59 21.45,12.41 455.117,262.8 455.117,262.8 l 230.618,133.14 c 0,0 195.68,112.97 221.69,127.98 26.01,15.03 23.51,35.63 1.56,47.45 -21.94,11.83 -223.24,128.89 -223.24,128.89 z"
         inkscape:connector-curvature="0" /></clipPath><clipPath
       id="clipPath304"
       clipPathUnits="userSpaceOnUse"><path
         id="path302"
         d="m 383.648,7781.96 0,-566.51 0,-566.51 571.336,566.5 z"
         inkscape:connector-curvature="0" /></clipPath><linearGradient
       id="linearGradient312"
       spreadMethod="pad"
       gradientTransform="matrix(-4.95e-5,-1133.03,-1133.03,4.95e-5,669.316,7781.96)"
       gradientUnits="userSpaceOnUse"
       y2="0"
       x2="1"
       y1="0"
       x1="0"><stop
         id="stop306"
         offset="0"
         style="stop-opacity:1;stop-color:#3a7ab6" /><stop
         id="stop308"
         offset="0.88094861"
         style="stop-opacity:1;stop-color:#8ad6b6" /><stop
         id="stop310"
         offset="1"
         style="stop-opacity:1;stop-color:#8ad6b6" /></linearGradient><clipPath
       id="clipPath322"
       clipPathUnits="userSpaceOnUse"><path
         id="path320"
         d="m 1108.44,7367.61 -230.628,133.15 c 0,0 -420.156,242.61 -444.859,256.87 -24.699,14.26 -49.305,5.62 -49.305,-24.18 0,-49.65 0,-518 0,-518 0,0 0,-506.15 0,-528.51 0,-22.34 17.59,-31.97 39.047,-19.59 21.45,12.41 455.117,262.8 455.117,262.8 l 230.618,133.14 c 0,0 195.68,112.97 221.69,127.98 26.01,15.03 23.51,35.63 1.56,47.45 -21.94,11.83 -223.24,128.89 -223.24,128.89 z"
         inkscape:connector-curvature="0" /></clipPath><clipPath
       id="clipPath328"
       clipPathUnits="userSpaceOnUse"><path
         id="path326"
         d="m 1108.44,7367.61 -230.628,133.15 -494.164,285.32 0,-4.12 571.336,-566.52 z"
         inkscape:connector-curvature="0" /></clipPath><linearGradient
       id="linearGradient334"
       spreadMethod="pad"
       gradientTransform="matrix(724.795,0,0,-724.795,383.647,7500.76)"
       gradientUnits="userSpaceOnUse"
       y2="0"
       x2="1"
       y1="0"
       x1="0"><stop
         id="stop330"
         offset="0"
         style="stop-opacity:1;stop-color:#5dc7a6" /><stop
         id="stop332"
         offset="1"
         style="stop-opacity:1;stop-color:#daed84" /></linearGradient><clipPath
       id="clipPath344"
       clipPathUnits="userSpaceOnUse"><path
         id="path342"
         d="m 1108.44,7367.61 -230.628,133.15 c 0,0 -420.156,242.61 -444.859,256.87 -24.699,14.26 -49.305,5.62 -49.305,-24.18 0,-49.65 0,-518 0,-518 0,0 0,-506.15 0,-528.51 0,-22.34 17.59,-31.97 39.047,-19.59 21.45,12.41 455.117,262.8 455.117,262.8 l 230.618,133.14 c 0,0 195.68,112.97 221.69,127.98 26.01,15.03 23.51,35.63 1.56,47.45 -21.94,11.83 -223.24,128.89 -223.24,128.89 z"
         inkscape:connector-curvature="0" /></clipPath><clipPath
       id="clipPath350"
       clipPathUnits="userSpaceOnUse"><path
         id="path348"
         d="m 383.648,6648.94 0,-4.13 494.164,285.34 230.618,133.14 -153.446,152.15 z"
         inkscape:connector-curvature="0" /></clipPath><linearGradient
       id="linearGradient356"
       spreadMethod="pad"
       gradientTransform="matrix(-2.49e-5,-570.625,-570.625,2.49e-5,746.04,7215.44)"
       gradientUnits="userSpaceOnUse"
       y2="0"
       x2="1"
       y1="0"
       x1="0"><stop
         id="stop352"
         offset="0"
         style="stop-opacity:1;stop-color:#ec2d38" /><stop
         id="stop354"
         offset="1"
         style="stop-opacity:1;stop-color:#85379f" /></linearGradient><clipPath
       id="clipPath366"
       clipPathUnits="userSpaceOnUse"><path
         id="path364"
         d="m 1108.44,7367.61 -230.628,133.15 c 0,0 -420.156,242.61 -444.859,256.87 -24.699,14.26 -49.305,5.62 -49.305,-24.18 0,-49.65 0,-518 0,-518 0,0 0,-506.15 0,-528.51 0,-22.34 17.59,-31.97 39.047,-19.59 21.45,12.41 455.117,262.8 455.117,262.8 l 230.618,133.14 c 0,0 195.68,112.97 221.69,127.98 26.01,15.03 23.51,35.63 1.56,47.45 -21.94,11.83 -223.24,128.89 -223.24,128.89 z"
         inkscape:connector-curvature="0" /></clipPath><clipPath
       id="clipPath372"
       clipPathUnits="userSpaceOnUse"><path
         id="path370"
         d="M 1108.44,7367.61 954.984,7215.44 1108.43,7063.29 1372,7215.45 Z"
         inkscape:connector-curvature="0" /></clipPath><linearGradient
       id="linearGradient378"
       spreadMethod="pad"
       gradientTransform="matrix(-1.33e-5,-304.316,-304.316,1.33e-5,1163.5,7367.61)"
       gradientUnits="userSpaceOnUse"
       y2="0"
       x2="1"
       y1="0"
       x1="0"><stop
         id="stop374"
         offset="0"
         style="stop-opacity:1;stop-color:#f4706e" /><stop
         id="stop376"
         offset="1"
         style="stop-opacity:1;stop-color:#fbc15b" /></linearGradient><clipPath
       id="clipPath388"
       clipPathUnits="userSpaceOnUse"><path
         id="path386"
         d="m 0,0 0,10120 5217,0 0,-10120 z"
         inkscape:connector-curvature="0" /></clipPath></defs><g
     transform="matrix(1.3333333,0,0,-1.3333333,0,706.54265)"
     id="g10"><g
       transform="scale(0.1,0.1)"
       id="g12"><g
         id="g16"
         clip-path="url(#clipPath20)"><path
           inkscape:connector-curvature="0"
           id="path4380"
           style="fill:#231f20;fill-opacity:1;fill-rule:nonzero;stroke:none"
           d="m 5114.8,3852.08 c 0,-124.86 -101.21,-226.12 -226.05,-226.12 l -4662.645,0 C 101.246,3625.96 0,3727.22 0,3852.08 l 0,1220.89 c 0,124.85 101.246,226.1 226.105,226.1 l 4662.645,0 c 124.84,0 226.05,-101.25 226.05,-226.1 l 0,-1220.89" /></g><path
         d="m 881.20534,4951.3176 c -57.1706,-18.9381 -98.95196,-35.1146 -98.95196,-138.0071 l 0,-49.5303 34.24185,6.5124 0,42.7564 c -0.84787,69.8155 18.39227,84.4103 68.36906,104.7189 -0.23107,13.1958 -1.47283,24.3312 -3.65895,33.5497"
         style="fill:#ffffff;fill-opacity:1;fill-rule:nonzero;stroke:none"
         id="path16-8"
         inkscape:connector-curvature="0" /><path
         d="m 980.75117,4973.3372 c 2.26513,-9.949 4.08211,-20.8039 5.29925,-32.4362 89.49928,12.1291 87.77828,-22.6655 87.77828,-95.3135 l 0,-26.843 33.8729,6.5475 0,20.2955 c 0,112.8021 -18.6899,143.0188 -126.95043,127.7497"
         style="fill:#ffffff;fill-opacity:1;fill-rule:nonzero;stroke:none"
         id="path18-6"
         inkscape:connector-curvature="0" /><path
         d="m 628.05026,4734.728 0,148.3645 c -1.08983,91.9119 49.27903,120.0378 142.26054,140.5962 140.06199,30.962 148.9768,-54.1534 148.9768,-108.2834 l 0,-125.7641 34.2899,6.5299 0,116.4536 c -0.35192,102.4724 -34.24806,179.1978 -190.11015,145.898 -83.95207,-17.943 -169.65907,-38.1216 -169.65907,-172.3706 l 0,-157.8386 34.24198,6.4145"
         style="fill:#ffffff;fill-opacity:1;fill-rule:nonzero;stroke:none"
         id="path20-6"
         inkscape:connector-curvature="0" /><path
         d="m 1038.3403,4344.8224 -263.57838,0 0,179.7224 263.57838,36.3799 z m 0,-254.0252 -263.57838,36.3127 0,192.883 263.57838,0 z m -289.83268,254.0252 -209.08386,0 0,150.4364 209.08386,27.8351 z m 0,-216.1666 -209.08386,27.7795 0,163.5576 209.08386,0 z m 530.59088,689.8433 -942.2795,-177.576 0,-645.861 942.2795,-177.5585 188.3475,64.554 0,871.8714 -188.3475,64.5701"
         style="fill:#ffffff;fill-opacity:1;fill-rule:nonzero;stroke:none"
         id="path22-4"
         inkscape:connector-curvature="0" /><path
         d="m 2247.9844,4466.1262 -28.5428,0 -111.0853,354.1087 c -5.5814,17.9445 -8.7132,32.7051 -9.4108,44.3199 l -1.3953,0 c -0.9303,-10.3027 -4.5272,-24.8397 -10.7908,-43.658 l -118.4032,-354.7706 -28.5426,0 -148.3565,470.6251 38.6512,0 113.8759,-377.0993 c 4.403,-14.8746 8.0155,-28.7672 10.7907,-41.6722 l 1.3953,0 c 0.2325,2.1815 0.7442,4.7955 1.5659,7.8771 0.8222,3.0538 45.4418,140.0082 133.8915,410.8944 l 17.4264,0 113.1628,-377.0993 c 5.5815,-19.258 9.1629,-33.139 10.8063,-41.6722 l 1.3798,0 2.4496,9.8526 120.1396,408.9189 37.2559,0 -146.2636,-470.6251"
         style="fill:#ffffff;fill-opacity:1;fill-rule:nonzero;stroke:none"
         id="path24-0"
         inkscape:connector-curvature="0" /><path
         d="m 2461.9845,4466.1262 0,336.0664 32.0465,0 0,-336.0664 z m 15.6743,420.739 c -6.9612,0 -13.1318,2.3977 -18.4495,7.2218 -5.3489,4.8057 -8.0155,10.9236 -8.0155,18.3784 0,7.2196 2.7287,13.0759 8.1705,17.5514 5.4573,4.4858 11.5504,6.7345 18.2945,6.7345 7.1938,0 13.5194,-2.1917 18.9768,-6.5635 5.4419,-4.3952 8.186,-10.2968 8.186,-17.7224 0,-7.015 -2.6821,-13.0189 -8.0154,-18.0599 -5.3334,-5.0286 -11.7365,-7.5403 -19.1474,-7.5403"
         style="fill:#ffffff;fill-opacity:1;fill-rule:nonzero;stroke:none"
         id="path26-8"
         inkscape:connector-curvature="0" /><path
         d="m 2843.4885,4466.1262 0,195.6067 c 0,80.7231 -30.8992,121.0818 -92.6357,121.0818 -33.8915,0 -61.9845,-11.8033 -84.2791,-35.4433 -22.2791,-23.6299 -33.4264,-53.0415 -33.4264,-88.27 l 0,-192.9752 -32.0311,0 0,336.0664 32.0311,0 0,-61.0312 1.3954,0 c 25.9999,46.1405 66.6201,69.2268 121.8759,69.2268 38.7598,0 68.3101,-12.0253 88.6203,-36.1052 20.3256,-24.0521 30.4806,-58.6246 30.4806,-103.6969 l 0,-204.4599 -32.031,0"
         style="fill:#ffffff;fill-opacity:1;fill-rule:nonzero;stroke:none"
         id="path28-0"
         inkscape:connector-curvature="0" /><path
         d="m 3228.8065,4670.5861 c 0,32.3792 -10.8837,59.1769 -32.5891,80.4089 -21.6745,21.2161 -49.597,31.8197 -83.721,31.8197 -37.8605,0 -68.8373,-13.7773 -92.9923,-41.3508 -24.1395,-27.5691 -36.2171,-64.4341 -36.2171,-110.5804 0,-44.4338 10.5581,-79.7646 31.7054,-106.0202 21.1009,-26.2541 49.783,-39.3767 86.0001,-39.3767 38.2945,0 69.1939,11.324 92.6201,33.9719 23.4729,22.6479 35.1939,52.1166 35.1939,88.4395 z m 0,-204.4599 0,61.0428 -1.3954,0 c -11.8449,-21.2262 -29.1937,-38.0573 -52.093,-50.54 -22.8527,-12.4607 -48.3256,-18.7159 -76.4186,-18.7159 -44.5737,0 -80.5583,15.3304 -107.9535,45.9402 -27.3799,30.6391 -41.1009,72.0936 -41.1009,124.4045 0,34.7887 6.7907,66.0721 20.3876,93.8618 13.5659,27.762 32.8527,49.4281 57.7986,64.9763 24.9611,15.5365 53.3333,23.2923 85.1627,23.2923 53.3799,0 91.442,-20.6608 114.2171,-62.013 l 1.3954,0 0,215.2877 32.031,0 0,-497.5367 -32.031,0"
         style="fill:#ffffff;fill-opacity:1;fill-rule:nonzero;stroke:none"
         id="path30-5"
         inkscape:connector-curvature="0" /><path
         d="m 3513.4733,4782.8147 c -42,0 -75.4884,-13.3959 -100.4652,-40.1921 -24.9613,-26.8152 -37.4419,-63.8234 -37.4419,-111.0772 0,-44.4338 12.3567,-79.8844 37.1008,-106.3445 24.7133,-26.4777 57.8605,-39.7143 99.4109,-39.7143 42.4807,0 75.4575,13.1226 98.8993,39.3767 23.4728,26.2556 35.1938,62.6983 35.1938,109.2961 0,48.1159 -11.5194,84.9356 -34.4961,110.4314 -22.9768,25.4855 -55.721,38.2239 -98.2016,38.2239 z m -2.4186,-324.9016 c -51.5349,0 -92.5737,15.9865 -123.1318,47.9099 -30.5117,31.957 -45.7831,74.0515 -45.7831,126.3784 0,54.8972 15.628,98.3374 46.8528,130.2769 31.2093,31.9409 73.1783,47.9099 125.8761,47.9099 50.8372,0 91.0232,-15.7528 120.4806,-47.2524 29.5039,-31.5186 44.2481,-74.7251 44.2481,-129.6325 0,-52.4994 -15.3178,-94.9182 -45.9691,-127.1835 -30.6511,-32.277 -71.5193,-48.4067 -122.5736,-48.4067"
         style="fill:#ffffff;fill-opacity:1;fill-rule:nonzero;stroke:none"
         id="path32-0"
         inkscape:connector-curvature="0" /><path
         d="m 4063.1635,4466.1262 -29.9381,0 -77.6434,253.3634 c -1.3953,4.3717 -3.2713,13.7947 -5.5814,28.2295 l -1.7519,0 c -0.2175,-4.3951 -2.5426,-13.5902 -6.9612,-27.5735 l -87.0699,-254.0194 -29.938,0 -107.5969,336.0664 35.5194,0 82.8838,-268.1401 c 2.3101,-7.4358 3.9379,-16.8427 4.8837,-28.2295 l 2.7751,0 c 0.4651,5.0454 2.6668,14.4406 6.6047,28.2295 l 90.5427,268.1401 21.9535,0 80.7907,-268.1401 c 1.845,-6.7797 3.4884,-16.1867 4.8682,-28.2295 l 2.7907,0 c 0,5.9074 1.9691,15.3304 5.907,28.2295 l 84.6357,268.1401 33.0698,0 -110.7442,-336.0664"
         style="fill:#ffffff;fill-opacity:1;fill-rule:nonzero;stroke:none"
         id="path34-4"
         inkscape:connector-curvature="0" /><path
         d="m 4217.9542,4480.881 0,36.4428 c 10.6977,-8.7495 24.8062,-16.2496 42.3412,-22.4873 17.5038,-6.2391 32.8837,-9.3499 46.124,-9.3499 55.9535,0 83.938,21.5345 83.938,64.6562 0,13.9833 -5.6434,26.1986 -16.8993,36.5859 -11.2712,10.3889 -31.7364,21.7289 -61.4729,33.9544 -32.248,12.9167 -55.7828,26.7582 -70.4961,41.5291 -14.7442,14.7723 -22.1395,33.6534 -22.1395,56.6198 0,26.6837 10.9922,48.6128 32.9147,65.7989 21.9536,17.1686 49.3955,25.7573 82.3721,25.7573 30.4031,0 56.6203,-5.9016 78.6978,-17.7209 l 0,-34.1385 c -26.7132,16.2101 -54.1085,24.2859 -82.1861,24.2859 -23.2248,0 -42.093,-5.7877 -56.5892,-17.3732 -14.5116,-11.6147 -21.7674,-26.4893 -21.7674,-44.634 0,-12.9342 2.1395,-22.9738 6.4497,-30.1875 4.2945,-7.2371 11.5968,-14.1893 21.9534,-20.8507 10.3256,-6.6775 25.3334,-14.0578 45.0853,-22.1687 38.062,-15.9588 63.8294,-30.7296 77.3024,-44.2848 13.4418,-13.5902 20.2016,-31.3126 20.2016,-53.173 0,-27.556 -10.9304,-49.8386 -32.7443,-66.791 -21.8295,-16.9626 -50.8372,-25.4387 -87.0543,-25.4387 -34.6047,0 -63.2558,7.6711 -86.0311,22.9679"
         style="fill:#ffffff;fill-opacity:1;fill-rule:nonzero;stroke:none"
         id="path36-6"
         inkscape:connector-curvature="0" /><path
         d="m 1872.2478,4293.1967 0,-222.1822 71.0387,0 c 45.2713,0 79.5659,10.0689 102.8993,30.1992 23.3334,20.1363 35.0077,48.7896 35.0077,85.9746 0,70.6776 -43.0853,106.0084 -129.1938,106.0084 z m 0,-252.0497 0,-188.7071 -34.4808,0 0,470.6244 120.4962,0 c 51.7675,0 91.1164,-11.1472 118.0466,-33.4752 26.9303,-22.3118 40.4032,-55.1309 40.4032,-98.4513 0,-45.2959 -15.628,-81.6086 -46.8528,-108.9586 -31.2093,-27.3572 -73.1939,-41.0322 -125.876,-41.0322 l -71.7364,0"
         style="fill:#ffffff;fill-opacity:1;fill-rule:nonzero;stroke:none"
         id="path38-2"
         inkscape:connector-curvature="0" /><path
         d="m 2453.9844,3852.4399 0,201.5083 c 0,39.8283 -7.6744,68.9827 -22.9923,87.4752 -15.3178,18.4704 -39.2403,27.7225 -71.7364,27.7225 -21.5814,0 -41.2713,-5.4677 -59.0233,-16.4088 -17.7675,-10.9485 -31.6279,-26.3184 -41.6125,-46.101 -10,-19.8118 -14.9767,-42.5051 -14.9767,-68.1046 l 0,-186.0916 -32.031,0 0,497.536 32.031,0 0,-221.8447 1.3954,0 c 28.3101,45.7182 69.1783,68.5882 122.5737,68.5882 38.7596,0 68.2015,-11.66 88.2791,-34.9538 20.0775,-23.304 30.1241,-56.9384 30.1241,-100.9222 l 0,-208.4035 -32.0311,0"
         style="fill:#ffffff;fill-opacity:1;fill-rule:nonzero;stroke:none"
         id="path40-8"
         inkscape:connector-curvature="0" /><path
         d="m 2731.7055,4169.1459 c -42.0311,0 -75.5195,-13.4017 -100.4807,-40.1994 -24.9457,-26.8078 -37.4264,-63.8336 -37.4264,-111.0874 0,-44.4221 12.3566,-79.8669 37.0853,-106.3446 24.7133,-26.4615 57.8605,-39.7025 99.4265,-39.7025 42.4806,0 75.4419,13.1212 98.8992,39.3826 23.4264,26.2555 35.1628,62.6807 35.1628,109.2785 0,48.1276 -11.4884,84.9532 -34.4652,110.4489 -22.9922,25.4782 -55.7209,38.2239 -98.2015,38.2239 z m -2.4497,-324.9016 c -51.5348,0 -92.5736,15.969 -123.1008,47.9099 -30.5271,31.957 -45.7829,74.0617 -45.7829,126.3609 0,54.9074 15.6124,98.3374 46.8217,130.2886 31.2248,31.9409 73.1938,47.9157 125.907,47.9157 50.8372,0 90.9924,-15.7527 120.4806,-47.2597 29.473,-31.5113 44.2327,-74.7177 44.2327,-129.6427 0,-52.4994 -15.3333,-94.9066 -45.9691,-127.166 -30.6511,-32.277 -71.5193,-48.4067 -122.5892,-48.4067"
         style="fill:#ffffff;fill-opacity:1;fill-rule:nonzero;stroke:none"
         id="path42-5"
         inkscape:connector-curvature="0" /><path
         d="m 3221.4732,3852.4399 0,195.6067 c 0,80.7231 -30.8527,121.0993 -92.6357,121.0993 -33.8761,0 -61.9845,-11.8091 -84.2637,-35.4506 -22.2945,-23.624 -33.4264,-53.0517 -33.4264,-88.2802 l 0,-192.9752 -32.0465,0 0,336.0663 32.0465,0 0,-61.0311 1.3799,0 c 26.0155,46.1566 66.6513,69.2443 121.8915,69.2443 38.7908,0 68.3102,-12.0253 88.6357,-36.1067 20.3102,-24.0682 30.4652,-58.6406 30.4652,-103.7129 l 0,-204.4599 -32.0465,0"
         style="fill:#ffffff;fill-opacity:1;fill-rule:nonzero;stroke:none"
         id="path44-2"
         inkscape:connector-curvature="0" /><path
         d="m 3591.8454,4046.7286 c -1.3953,38.937 -11.3333,69.0967 -29.7674,90.415 -18.4807,21.3519 -43.7365,32.0023 -75.7675,32.0023 -33.6434,0 -61.4109,-10.6109 -83.2094,-31.8372 -21.8295,-21.2204 -35.3178,-51.4093 -40.4031,-90.5801 z m -230.5272,-27.5735 c 0,-46.5919 11.3488,-82.8009 34.124,-108.6225 22.7287,-25.8157 53.7365,-38.7206 92.9613,-38.7206 40.1861,0 79.1783,13.8985 117.0078,41.6707 l 0,-32.1557 c -37.1318,-24.7374 -78.3411,-37.0827 -123.6124,-37.0827 -46.8993,0 -84.2791,15.9062 -112.1241,47.7492 -27.8605,31.8211 -41.7985,75.3241 -41.7985,130.4492 0,32.3793 6.9147,61.9677 20.7132,88.7814 13.814,26.7977 32.9768,47.7507 57.4729,62.8474 24.4651,15.0908 51.6899,22.6479 81.6435,22.6479 43.4263,0 77.1783,-14.4406 101.3488,-43.3262 24.1395,-28.8696 36.2171,-69.126 36.2171,-120.7794 l 0,-13.4587 -263.9536,0"
         style="fill:#ffffff;fill-opacity:1;fill-rule:nonzero;stroke:none"
         id="path46-5"
         inkscape:connector-curvature="0" /></g></g></svg>