<?xml version="1.0" encoding="UTF-8" standalone="no"?>
<!-- Generated by IcoMoon.io -->

<svg
   xmlns:dc="http://purl.org/dc/elements/1.1/"
   xmlns:cc="http://creativecommons.org/ns#"
   xmlns:rdf="http://www.w3.org/1999/02/22-rdf-syntax-ns#"
   xmlns:svg="http://www.w3.org/2000/svg"
   xmlns="http://www.w3.org/2000/svg"
   xmlns:sodipodi="http://sodipodi.sourceforge.net/DTD/sodipodi-0.dtd"
   xmlns:inkscape="http://www.inkscape.org/namespaces/inkscape"
   version="1.1"
   width="0.83333331in"
   height="2.2222223in"
   viewBox="0 0 74.999998 200.00001"
   id="svg2"
   inkscape:version="0.91 r13725"
   sodipodi:docname="draggable.svg">
  <metadata
     id="metadata25">
    <rdf:RDF>
      <cc:Work
         rdf:about="">
        <dc:format>image/svg+xml</dc:format>
        <dc:type
           rdf:resource="http://purl.org/dc/dcmitype/StillImage" />
        <dc:title></dc:title>
      </cc:Work>
    </rdf:RDF>
  </metadata>
  <defs
     id="defs23" />
  <sodipodi:namedview
     pagecolor="#ffffff"
     bordercolor="#666666"
     borderopacity="1"
     objecttolerance="10"
     gridtolerance="10"
     guidetolerance="10"
     inkscape:pageopacity="0"
     inkscape:pageshadow="2"
     inkscape:window-width="1344"
     inkscape:window-height="792"
     id="namedview21"
     showgrid="false"
     units="in"
     fit-margin-top="0"
     fit-margin-left="0"
     fit-margin-right="0"
     fit-margin-bottom="0"
     inkscape:zoom="1.4142136"
     inkscape:cx="51.791987"
     inkscape:cy="114.14001"
     inkscape:window-x="100"
     inkscape:window-y="13"
     inkscape:window-maximized="0"
     inkscape:current-layer="svg2" />
  <g
     id="icomoon-ignore"
     transform="translate(31.5,84)" />
  <path
     d="m 0,0 25,0 0,28.571818 -25,0 L 0,0 Z"
     id="path5"
     inkscape:connector-curvature="0"
     style="fill:#b6b6b6" />
  <path
     d="m 0,57.142727 25,0 0,28.571818 -25,0 0,-28.571818 z"
     id="path7"
     inkscape:connector-curvature="0"
     style="fill:#b6b6b6" />
  <path
     d="m 0,114.28545 25,0 0,28.57182 -25,0 0,-28.57182 z"
     id="path9"
     inkscape:connector-curvature="0"
     style="fill:#b6b6b6" />
  <path
     d="m 0,171.42818 25,0 L 25,200 0,200 0,171.42818 Z"
     id="path11"
     inkscape:connector-curvature="0"
     style="fill:#b6b6b6" />
  <path
     d="m 50,0 25,0 0,28.571818 -25,0 L 50,0 Z"
     id="path13"
     inkscape:connector-curvature="0"
     style="fill:#b6b6b6" />
  <path
     d="m 50,57.142727 25,0 0,28.571818 -25,0 0,-28.571818 z"
     id="path15"
     inkscape:connector-curvature="0"
     style="fill:#b6b6b6" />
  <path
     d="m 50,114.28545 25,0 0,28.57182 -25,0 0,-28.57182 z"
     id="path17"
     inkscape:connector-curvature="0"
     style="fill:#b6b6b6" />
  <path
     d="m 50,171.42818 25,0 0,28.57182 -25,0 0,-28.57182 z"
     id="path19"
     inkscape:connector-curvature="0"
     style="fill:#b6b6b6" />
</svg>
