<?xml version="1.0" encoding="UTF-8" standalone="no"?>
<svg
   xmlns:dc="http://purl.org/dc/elements/1.1/"
   xmlns:cc="http://creativecommons.org/ns#"
   xmlns:rdf="http://www.w3.org/1999/02/22-rdf-syntax-ns#"
   xmlns:svg="http://www.w3.org/2000/svg"
   xmlns="http://www.w3.org/2000/svg"
   xmlns:sodipodi="http://sodipodi.sourceforge.net/DTD/sodipodi-0.dtd"
   xmlns:inkscape="http://www.inkscape.org/namespaces/inkscape"
   viewBox="0 0 200 200"
   height="200"
   width="200"
   xml:space="preserve"
   version="1.1"
   id="svg2"
   inkscape:version="0.91 r13725"
   sodipodi:docname="hello.svg"><sodipodi:namedview
     pagecolor="#ffffff"
     bordercolor="#666666"
     borderopacity="1"
     objecttolerance="10"
     gridtolerance="10"
     guidetolerance="10"
     inkscape:pageopacity="0"
     inkscape:pageshadow="2"
     inkscape:window-width="1852"
     inkscape:window-height="1035"
     id="namedview18"
     showgrid="false"
     inkscape:zoom="1"
     inkscape:cx="-101.35066"
     inkscape:cy="113.70312"
     inkscape:window-x="68"
     inkscape:window-y="0"
     inkscape:window-maximized="1"
     inkscape:current-layer="layer2"
     fit-margin-top="0"
     fit-margin-left="0"
     fit-margin-right="0"
     fit-margin-bottom="0" /><metadata
     id="metadata8"><rdf:RDF><cc:Work
         rdf:about=""><dc:format>image/svg+xml</dc:format><dc:type
           rdf:resource="http://purl.org/dc/dcmitype/StillImage" /><dc:title></dc:title></cc:Work></rdf:RDF></metadata><defs
     id="defs6"><clipPath
       id="clipPath16"
       clipPathUnits="userSpaceOnUse"><path
         id="path18"
         d="m 0,38 57.651,0 0,-38 L 0,0 0,38 Z"
         inkscape:connector-curvature="0" /></clipPath><clipPath
       id="clipPath16-1"
       clipPathUnits="userSpaceOnUse"><path
         inkscape:connector-curvature="0"
         id="path18-7"
         d="m 0,38 57.651,0 0,-38 L 0,0 0,38 Z" /></clipPath><clipPath
       id="clipPath16-1-4"
       clipPathUnits="userSpaceOnUse"><path
         inkscape:connector-curvature="0"
         id="path18-7-0"
         d="m 0,38 57.651,0 0,-38 L 0,0 0,38 Z" /></clipPath></defs><g
     inkscape:groupmode="layer"
     id="layer2"
     inkscape:label="calque"
     style="display:inline"
     transform="translate(89.722154,60.981419)"><path
       style="display:inline;fill:#3aebb9;fill-opacity:1"
       d="m 10.343766,-60.981419 c -55.220758,0 -100.06592,44.84516 -100.06592,100.06592 0,55.22076 44.845162,99.934079 100.06592,99.934079 55.220747,0 99.934084,-44.713319 99.934084,-99.934079 0,-55.22076 -44.713337,-100.06592 -99.934084,-100.06592 z m 0,16.08438 c 46.34146,0 83.8497,37.64008 83.8497,83.98154 0,46.34146 -37.50824,83.849699 -83.8497,83.849699 -46.34146,0 -83.981543,-37.508239 -83.981543,-83.849699 0,-46.34146 37.640083,-83.98154 83.981543,-83.98154 z"
       id="path2995"
       inkscape:connector-curvature="0" /><g
       transform="matrix(5.2735662,0,0,-5.2735662,-89.918858,139.21845)"
       style="display:inline"
       clip-path="url(#clipPath16-1-4)"
       id="g14"><g
         transform="translate(32.6563,10.7061)"
         id="g20" /><g
         transform="translate(55.6506,17)"
         id="g24" /><g
         transform="translate(42.3726,5.333)"
         id="g28" /><g
         transform="translate(18.9998,24.3174)"
         id="g32"><path
           id="path34"
           style="fill:#3aebb9;fill-opacity:1;fill-rule:nonzero;stroke:none"
           d="m 0,0 c -2.932,0 -5.318,-2.385 -5.318,-5.317 0,-2.932 2.386,-5.317 5.318,-5.317 2.932,0 5.317,2.385 5.317,5.317 C 5.317,-2.385 2.932,0 0,0 m 0,-12.333 c -3.869,0 -7.016,3.147 -7.016,7.016 0,3.869 3.147,7.016 7.016,7.016 3.868,0 7.016,-3.147 7.016,-7.016 0,-3.869 -3.148,-7.016 -7.016,-7.016"
           inkscape:connector-curvature="0" /></g></g></g></svg>