<?xml version="1.0" encoding="UTF-8" standalone="no"?>
<!-- Generator: Adobe Illustrator 18.0.0, SVG Export Plug-In . SVG Version: 6.00 Build 0)  -->

<svg
   xmlns:dc="http://purl.org/dc/elements/1.1/"
   xmlns:cc="http://creativecommons.org/ns#"
   xmlns:rdf="http://www.w3.org/1999/02/22-rdf-syntax-ns#"
   xmlns:svg="http://www.w3.org/2000/svg"
   xmlns="http://www.w3.org/2000/svg"
   xmlns:xlink="http://www.w3.org/1999/xlink"
   xmlns:sodipodi="http://sodipodi.sourceforge.net/DTD/sodipodi-0.dtd"
   xmlns:inkscape="http://www.inkscape.org/namespaces/inkscape"
   version="1.1"
   id="svg2"
   sodipodi:docname="out.svg"
   inkscape:version="0.91 r13725"
   x="0px"
   y="0px"
   viewBox="0 0 303.36201 200.00027"
   enable-background="new 0 0 30.3 20"
   xml:space="preserve"
   width="303.362"
   height="200.00027"><metadata
     id="metadata25"><rdf:RDF><cc:Work
         rdf:about=""><dc:format>image/svg+xml</dc:format><dc:type
           rdf:resource="http://purl.org/dc/dcmitype/StillImage" /><dc:title></dc:title></cc:Work></rdf:RDF></metadata><defs
     id="defs23"><defs
       id="defs8"><rect
         height="20"
         width="30.299999"
         y="9"
         x="13.7"
         id="SVGID_1_" /></defs><clipPath
       id="SVGID_2_"><use
         height="100%"
         width="100%"
         y="0"
         x="0"
         style="overflow:visible"
         id="use12"
         overflow="visible"
         xlink:href="#SVGID_1_" /></clipPath></defs><sodipodi:namedview
     id="namedview18"
     inkscape:cy="100.3517"
     fit-margin-left="0"
     showgrid="false"
     fit-margin-top="0"
     inkscape:cx="-49.085907"
     inkscape:zoom="1"
     borderopacity="1"
     pagecolor="#ffffff"
     bordercolor="#666666"
     inkscape:window-maximized="1"
     inkscape:window-y="0"
     inkscape:window-x="68"
     inkscape:window-height="1035"
     inkscape:window-width="1852"
     inkscape:current-layer="svg2"
     inkscape:pageopacity="0"
     fit-margin-right="0"
     fit-margin-bottom="0"
     inkscape:pageshadow="2"
     guidetolerance="10"
     gridtolerance="10"
     objecttolerance="10" /><g
     id="g20"
     transform="matrix(5.2631651,0,0,-5.2631651,180.52656,123.68438)"><path
       id="path22"
       inkscape:connector-curvature="0"
       d="m 0,0 c -2,-6.6 -8.1,-11.5 -15.3,-11.5 -8.8,0 -16,7.2 -16,16 0,8.8 7.2,16 16,16 C -8.1,20.5 -2,15.6 0,9 l 3.1,0 c -2,8.3 -9.5,14.5 -18.4,14.5 -10.5,0 -19,-8.5 -19,-19 0,-10.5 8.5,-19 19,-19 8.9,0 16.4,6.2 18.4,14.5 L 0,0 Z"
       style="fill:#f54f4f" /></g><g
     id="g24"
     transform="matrix(5.2631651,0,0,-5.2631651,292.66461,110.52646)"><path
       id="path26"
       inkscape:connector-curvature="0"
       d="m 0,0 -24.9,0 c -1.1,0 -2,0.9 -2,2 0,1.1 0.9,2 2,2 L 0,4 C 1.1,4 2,3.1 2,2 2,0.9 1.1,0 0,0"
       style="fill:#f54f4f" /></g><g
     id="g28"
     transform="matrix(5.2631651,0,0,-5.2631651,231.25664,171.93707)"><path
       id="path30"
       inkscape:connector-curvature="0"
       d="m 0,0 c -0.5,0 -1,0.2 -1.4,0.6 -0.8,0.8 -0.8,2 0,2.8 L 8.8,13.7 -1.4,23.9 c -0.8,0.8 -0.8,2 0,2.8 0.8,0.8 2,0.8 2.8,0 L 13.1,15 c 0.4,-0.4 0.6,-0.9 0.6,-1.4 0,-0.5 -0.2,-1 -0.6,-1.4 L 1.4,0.6 C 1,0.2 0.5,0 0,0"
       style="fill:#f54f4f" /></g><g
     id="g32"
     transform="matrix(5.2631651,0,0,-5.2631651,99.764876,72.019042)"><path
       id="path34"
       inkscape:connector-curvature="0"
       d="m 0,0 c -2.9,0 -5.3,-2.4 -5.3,-5.3 0,-2.9 2.4,-5.3 5.3,-5.3 2.9,0 5.3,2.4 5.3,5.3 C 5.3,-2.4 2.9,0 0,0 m 0,-12.3 c -3.9,0 -7,3.1 -7,7 0,3.9 3.1,7 7,7 3.9,0 7,-3.1 7,-7 0,-3.9 -3.1,-7 -7,-7"
       style="fill:#f54f4f" /></g></svg>