<?xml version="1.0" encoding="UTF-8" standalone="no"?>
<!-- Created with Inkscape (http://www.inkscape.org/) -->

<svg
   xmlns:dc="http://purl.org/dc/elements/1.1/"
   xmlns:cc="http://creativecommons.org/ns#"
   xmlns:rdf="http://www.w3.org/1999/02/22-rdf-syntax-ns#"
   xmlns:svg="http://www.w3.org/2000/svg"
   xmlns="http://www.w3.org/2000/svg"
   xmlns:sodipodi="http://sodipodi.sourceforge.net/DTD/sodipodi-0.dtd"
   xmlns:inkscape="http://www.inkscape.org/namespaces/inkscape"
   width="7.3560791mm"
   height="5.6444445mm"
   viewBox="0 0 26.064847 20"
   id="svg4171"
   version="1.1"
   inkscape:version="0.91 r13725"
   sodipodi:docname="plug.svg">
  <defs
     id="defs4173" />
  <sodipodi:namedview
     id="base"
     pagecolor="#ffffff"
     bordercolor="#666666"
     borderopacity="1.0"
     inkscape:pageopacity="0.0"
     inkscape:pageshadow="2"
     inkscape:zoom="2"
     inkscape:cx="-22.569804"
     inkscape:cy="-21.491636"
     inkscape:document-units="px"
     inkscape:current-layer="layer1"
     showgrid="false"
     fit-margin-top="0"
     fit-margin-left="0"
     fit-margin-right="0"
     fit-margin-bottom="0"
     inkscape:window-width="919"
     inkscape:window-height="671"
     inkscape:window-x="295"
     inkscape:window-y="145"
     inkscape:window-maximized="0" />
  <metadata
     id="metadata4176">
    <rdf:RDF>
      <cc:Work
         rdf:about="">
        <dc:format>image/svg+xml</dc:format>
        <dc:type
           rdf:resource="http://purl.org/dc/dcmitype/StillImage" />
        <dc:title></dc:title>
      </cc:Work>
    </rdf:RDF>
  </metadata>
  <g
     inkscape:label="Calque 1"
     inkscape:groupmode="layer"
     id="layer1"
     transform="translate(145.53243,-470.8622)">
    <path
       style="display:inline;fill:#4fedc0;fill-opacity:1"
       d="m -136.55423,481.57085 c -0.11853,-0.15774 -0.17067,-0.28146 -0.2021,-0.47948 -0.0597,-0.37601 0.0935,-0.76083 0.40477,-1.01699 0.16228,-0.13355 0.30977,-0.19597 0.53228,-0.22529 0.11128,-0.0147 1.21173,-0.0232 2.44545,-0.019 1.23372,0.004 2.2604,0.002 2.28151,-0.004 0.0253,-0.007 0.0689,-0.11418 0.12769,-0.31187 0.29662,-0.99799 0.92738,-1.90673 1.76844,-2.54781 0.72836,-0.55519 1.63878,-0.9065 2.55382,-0.98547 0.39887,-0.0344 3.23949,-0.0345 3.34701,-1.3e-4 0.1802,0.0577 0.18482,0.0899 0.17618,1.22823 -0.003,0.42012 0.005,0.77316 0.0185,0.78453 0.0135,0.0113 0.68035,0.0212 1.48213,0.0218 0.8018,4.2e-4 1.5114,0.0146 1.57693,0.031 0.29196,0.0734 0.52162,0.32039 0.56358,0.60617 0.0349,0.23781 -0.0157,0.40252 -0.18012,0.58536 -0.13416,0.14919 -0.2222,0.20186 -0.39599,0.2368 -0.0565,0.0113 -0.76767,0.0194 -1.58041,0.0178 -1.05873,-0.002 -1.4795,0.008 -1.484,0.0361 -0.003,0.0214 -0.009,0.66835 -0.0128,1.4376 -0.005,0.96864 0.005,1.40555 0.0314,1.42115 0.0209,0.0123 0.68321,0.0235 1.47195,0.0247 0.78874,10e-4 1.49429,0.0135 1.56788,0.0273 0.18295,0.0344 0.44844,0.24083 0.51938,0.40382 0.19664,0.45184 -0.0989,0.96873 -0.58814,1.02869 -0.10246,0.0124 -0.80794,0.0206 -1.56779,0.018 -0.75984,-0.002 -1.39467,0.006 -1.41077,0.0185 -0.0161,0.0128 -0.0304,0.36344 -0.0319,0.77903 -0.004,1.10559 -8.4e-4,1.05406 -0.0695,1.14046 -0.036,0.0452 -0.0923,0.0831 -0.13992,0.0943 -0.1163,0.0274 -2.92715,0.0165 -3.2794,-0.0126 -1.09308,-0.0906 -2.15102,-0.55645 -2.93416,-1.29198 -0.52393,-0.4921 -0.87102,-0.96912 -1.15114,-1.58207 -0.1391,-0.30437 -0.23107,-0.55664 -0.29546,-0.81043 -0.0371,-0.14622 -0.0563,-0.18359 -0.0968,-0.18826 -0.0278,-0.003 -1.05963,-0.008 -2.29302,-0.01 -1.23339,-0.002 -2.29851,-0.008 -2.36693,-0.013 -0.0684,-0.005 -0.18158,-0.029 -0.25148,-0.0538 -0.16553,-0.0587 -0.43583,-0.25467 -0.5371,-0.38945 z"
       id="path2996"
       inkscape:connector-curvature="0" />
    <path
       style="display:inline;fill:#4fedc0;fill-opacity:1;fill-rule:nonzero;stroke:none"
       d="m -135.47981,477.1783 c -2.036,-0.0262 -3.71034,1.60844 -3.73653,3.64443 -0.0262,2.03596 1.60847,3.71034 3.64443,3.73653 1.37183,0.0177 2.5726,-0.72321 3.22342,-1.8288 l -1.09202,0 c -0.52092,0.58291 -1.29009,0.94497 -2.1314,0.93414 -1.54291,-0.0199 -2.76964,-1.28582 -2.74976,-2.82871 0.0199,-1.54292 1.28579,-2.7828 2.82871,-2.76293 0.90773,0.0117 1.70748,0.45302 2.21034,1.13149 l 1.05254,0 c -0.60212,-1.18688 -1.82957,-2.00788 -3.24973,-2.02615 z"
       id="path34"
       inkscape:connector-curvature="0" />
    <path
       style="display:inline;fill:#4fedc0;fill-opacity:1;fill-rule:nonzero;stroke:none"
       d="m -135.40087,470.86304 c -5.51277,-0.071 -10.05975,4.36744 -10.13072,9.88075 -0.071,5.51327 4.35481,10.04657 9.86759,10.11757 3.30979,0.0426 6.26809,-1.53713 8.11774,-3.99966 -0.52973,-0.15757 -1.02652,-0.37684 -1.48672,-0.65784 -1.56749,1.9087 -3.94796,3.1129 -6.60471,3.07869 -4.64238,-0.0598 -8.37484,-3.8832 -8.31509,-8.5256 0.0598,-4.64238 3.88322,-8.37487 8.5256,-8.31509 2.65623,0.0342 5.02095,1.30179 6.53892,3.24972 0.46202,-0.26591 0.95887,-0.47452 1.48672,-0.61837 -1.78601,-2.50521 -4.69287,-4.16759 -7.99933,-4.21017 z"
       id="path22"
       inkscape:connector-curvature="0" />
  </g>
</svg>
