<?xml version="1.0" encoding="utf-8"?>
<!-- Generator: Adobe Illustrator 18.0.0, SVG Export Plug-In . SVG Version: 6.00 Build 0)  -->
<!DOCTYPE svg PUBLIC "-//W3C//DTD SVG 1.1//EN" "http://www.w3.org/Graphics/SVG/1.1/DTD/svg11.dtd">
<svg version="1.1" id="Calque_1" xmlns="http://www.w3.org/2000/svg" xmlns:xlink="http://www.w3.org/1999/xlink" x="0px" y="0px"
	 viewBox="0 0 180.5 41.1" style="enable-background:new 0 0 180.5 41.1;" xml:space="preserve">
<style type="text/css">
	.st0{fill:#EE2763;}
	.st1{fill:#FFFFFF;}
	.st2{fill:#192642;}
</style>
<g>
	<g>
		<path class="st0" d="M159,2.3c-8.8,1.1-15.7,8.4-16.4,17.2c-0.4,4.7,1,9.1,3.4,12.6c0.3,0.5,0.3,1.1-0.2,1.4
			c-1.4,1.1-3.3,2-4.7,1.7c2.7,2.6,6.3,3.3,9.4,2.5c0.8-0.2,1.7-0.1,2.4,0.3c3.3,1.7,7.2,2.4,11.2,1.9c9.2-1.3,16.2-9.3,16.3-18.5
			C180.6,9.8,170.6,0.8,159,2.3z"/>
		<g>
			<path class="st1" d="M150.6,24.1c-0.6,0.1-1,0.6-0.9,1.1c0.1,0.6,0.6,1,1.1,0.9c0.6-0.1,1-0.6,0.9-1.1
				C151.7,24.4,151.2,24,150.6,24.1z"/>
			<path class="st1" d="M160.4,16.7c-1,0.1-1.8,0.6-2.4,1.4c-0.7-0.6-1.7-0.9-2.7-0.8c-2,0.2-3.4,2-3.1,4l0.4,3.6
				c0.1,0.6,0.6,1,1.1,0.9c0.6-0.1,1-0.6,0.9-1.1l-0.4-3.6c-0.1-0.8,0.5-1.6,1.3-1.7c0.8-0.1,1.6,0.5,1.7,1.3l0.4,3.6
				c0.1,0.6,0.6,1,1.1,0.9c0.6-0.1,1-0.6,0.9-1.1l-0.4-3.6c-0.1-0.8,0.5-1.6,1.3-1.7c0.8-0.1,1.6,0.5,1.7,1.3l0.4,3.6
				c0.1,0.6,0.6,1,1.1,0.9c0.6-0.1,1-0.6,0.9-1.1l-0.4-3.6C164.2,17.9,162.4,16.5,160.4,16.7z"/>
			<path class="st1" d="M168.9,15.8c-2.2,0.3-3.9,2.3-3.6,4.5c0.3,2.2,2.3,3.9,4.5,3.6l1-0.1c0.6-0.1,1-0.6,0.9-1.1s-0.6-1-1.1-0.9
				l-1,0.1c-0.8,0.1-1.5-0.2-1.9-0.8l4.8-0.6c0.6-0.1,1-0.6,0.9-1.1C173.2,17.1,171.1,15.5,168.9,15.8z M167.5,19
				c0.3-0.6,0.9-1.1,1.6-1.2c0.7-0.1,1.5,0.3,1.9,0.8L167.5,19z"/>
		</g>
	</g>
	<g>
		<path class="st1" d="M104.6,38.1c-0.4,0-0.8,0-1.2,0c-3.8-0.3-7.3-2.1-9.8-5c-2.5-2.9-3.7-6.7-3.4-10.5l1.1-13.1
			c0.2-2.9,2.7-5.1,5.5-5.1c0.1,0,0.3,0,0.5,0c3.1,0.2,5.3,2.9,5.1,6l-1.1,13.1c-0.1,0.9,0.2,1.7,0.8,2.4s1.4,1.1,2.2,1.2
			c0.1,0,0.2,0,0.3,0c1.7,0,3.1-1.3,3.3-3l1.1-13.1c0.2-2.9,2.7-5.1,5.5-5.1c0.1,0,0.3,0,0.5,0c3.1,0.2,5.3,2.9,5.1,6L119,24.9
			C118.4,32.3,112,38.1,104.6,38.1C104.6,38.1,104.6,38.1,104.6,38.1z"/>
		<path class="st2" d="M96.8,6.3c0.1,0,0.2,0,0.3,0c2,0.2,3.4,1.9,3.3,3.8l-1.1,13.1c-0.2,2.9,1.9,5.5,4.8,5.7c0.1,0,0.3,0,0.4,0
			c2.7,0,5-2.1,5.3-4.9l1.1-13.1c0.2-1.9,1.7-3.3,3.6-3.3c0.1,0,0.2,0,0.3,0c2,0.2,3.4,1.9,3.3,3.8L117,24.7
			c-0.5,6.5-6,11.4-12.4,11.4c-0.3,0-0.7,0-1,0c-6.8-0.6-11.9-6.6-11.4-13.4l1.1-13.1C93.4,7.7,95,6.3,96.8,6.3 M96.8,2.3L96.8,2.3
			c-3.9,0-7.2,3.1-7.5,7l-1.1,13.1c-0.4,4.4,1,8.6,3.9,12c2.8,3.3,6.8,5.4,11.2,5.7c0.4,0,0.9,0.1,1.3,0.1c8.5,0,15.7-6.6,16.4-15.1
			l1.1-13.1c0.2-2-0.5-4-1.8-5.5c-1.3-1.5-3.1-2.5-5.2-2.6c-0.2,0-0.4,0-0.6,0c-3.9,0-7.2,3.1-7.5,7l-1.1,13.1
			c-0.1,0.7-0.6,1.2-1.3,1.2c0,0-0.1,0-0.1,0c-0.7-0.1-1.2-0.7-1.2-1.4l1.1-13.1c0.3-4.2-2.8-7.8-6.9-8.2C97.2,2.3,97,2.3,96.8,2.3
			L96.8,2.3L96.8,2.3z"/>
	</g>
	<g>
		<path class="st1" d="M127.4,37.2c-0.6,0-1.2-0.1-1.8-0.3c-2.3-0.9-3.5-3.5-2.8-5.9l3.4-11.7l-2-0.6c-1.3-0.4-2.4-1.3-2.9-2.5
			c-0.6-1.2-0.6-2.6-0.1-3.9c0.7-1.8,2.5-3,4.5-3c0.5,0,1,0.1,1.4,0.2l13.1,3.9c1.3,0.4,2.4,1.3,2.9,2.5c0.6,1.2,0.6,2.6,0.1,3.9
			c-0.7,1.8-2.5,3-4.5,3c0,0,0,0,0,0c-0.5,0-1-0.1-1.4-0.2l-1.9-0.6l-3.5,11.8C131.3,35.8,129.5,37.2,127.4,37.2z"/>
		<path class="st2" d="M125.7,11.4c0.3,0,0.6,0,0.8,0.1l13.1,3.9c1.6,0.5,2.4,2.2,1.8,3.7c-0.4,1.1-1.5,1.7-2.6,1.7
			c-0.3,0-0.6,0-0.8-0.1l-2.8-0.8c-0.1,0-0.2,0-0.3,0c-0.5,0-0.9,0.3-1.1,0.8L130,33.2c-0.4,1.2-1.5,2-2.7,2c-0.3,0-0.7-0.1-1-0.2
			c-1.3-0.5-2-2.1-1.6-3.5l3.7-12.5c0.2-0.6-0.2-1.2-0.7-1.4l-2.9-0.8c-1.6-0.5-2.4-2.2-1.8-3.7C123.5,12,124.5,11.4,125.7,11.4
			 M125.7,7.4c-2.8,0-5.3,1.7-6.3,4.2c-0.7,1.8-0.6,3.8,0.2,5.5c0.8,1.7,2.4,3,4.2,3.5l0.1,0l-2.9,9.8c-1,3.4,0.7,7,3.9,8.3
			c0.8,0.3,1.7,0.5,2.5,0.5c3,0,5.6-2,6.5-4.9l2.9-9.9c0.6,0.2,1.3,0.3,2,0.3c2.8,0,5.3-1.7,6.3-4.2c0.7-1.8,0.6-3.8-0.2-5.5
			c-0.8-1.7-2.4-3-4.2-3.5l-13.1-3.9C127,7.5,126.3,7.4,125.7,7.4L125.7,7.4z"/>
	</g>
	<g>
		<g>
			<g>
				<path class="st1" d="M9.1,38.7c-2.6,0-4.7-1.9-5-4.5L2,15.8c-0.3-2.7,1.7-5.2,4.4-5.5l8-0.9c0.5-0.1,1-0.1,1.5-0.1
					c6.7,0,11.6,5.1,12.5,12.9c1,8.5-3.4,14.8-10.8,15.6l-8,0.9C9.4,38.7,9.3,38.7,9.1,38.7L9.1,38.7z"/>
				<path class="st2" d="M16,11.2c5.7,0,9.7,4.2,10.5,11.1c0.8,7.4-2.7,12.7-9.1,13.4l-8,0.9c-0.1,0-0.2,0-0.3,0
					c-1.5,0-2.8-1.1-3-2.7L4,15.5c-0.2-1.7,1-3.1,2.7-3.3l8-0.9C15.2,11.3,15.6,11.2,16,11.2 M16,7.2c-0.6,0-1.2,0-1.8,0.1l-8,0.9
					c-1.9,0.2-3.5,1.1-4.7,2.6C0.4,12.3-0.2,14.1,0,16l2.1,18.5c0.4,3.6,3.4,6.2,7,6.2c0.3,0,0.5,0,0.8,0l8-0.9
					c8.6-1,13.7-8.1,12.6-17.8C29.5,13,23.8,7.2,16,7.2L16,7.2z"/>
			</g>
		</g>
		<g>
			<path class="st1" d="M12.5,20.2l2.6-0.3c0.1,0,0.2,0,0.3,0c2,0,3.1,2.2,3.3,3.4c0.1,1-0.4,3.8-2.8,4.1l-2.6,0.3L12.5,20.2z"/>
			<path class="st2" d="M15.4,21.9c0.6,0,1.2,1.1,1.3,1.6c0,0.3-0.2,1.8-1,1.9l-0.6,0.1l-0.4-3.5l0.6-0.1
				C15.4,21.9,15.4,21.9,15.4,21.9 M15.4,17.9c-0.2,0-0.4,0-0.6,0l-3.5,0.4c-0.6,0.1-1,0.6-1,1.2l1,9.3c0.1,0.6,0.5,1,1.1,1
				c0,0,0.1,0,0.1,0l3.5-0.4c3.5-0.4,4.8-4.2,4.5-6.3C20.5,21,18.6,17.9,15.4,17.9L15.4,17.9z"/>
		</g>
	</g>
	<g>
		<g>
			<path class="st1" d="M42,39.1c-9.1,0-16.4-7.4-16.4-16.4c0-9.1,7.4-16.4,16.4-16.4c9.1,0,16.4,7.4,16.4,16.4
				C58.4,31.8,51,39.1,42,39.1z"/>
			<path class="st2" d="M42,8.3c8,0,14.4,6.5,14.4,14.4c0,8-6.5,14.4-14.4,14.4s-14.4-6.5-14.4-14.4C27.5,14.7,34,8.3,42,8.3
				 M42,4.3c-10.2,0-18.4,8.3-18.4,18.4c0,10.2,8.3,18.4,18.4,18.4c10.2,0,18.4-8.3,18.4-18.4C60.4,12.5,52.1,4.3,42,4.3L42,4.3z"/>
		</g>
		<g>
			<path class="st1" d="M42,27.4c-2.6,0-4.8-2.1-4.8-4.8c0-2.6,2.1-4.8,4.8-4.8c2.6,0,4.8,2.1,4.8,4.8C46.7,25.3,44.6,27.4,42,27.4z
				"/>
			<path class="st2" d="M42,19.9c1.5,0,2.8,1.2,2.8,2.8s-1.2,2.8-2.8,2.8s-2.8-1.2-2.8-2.8S40.4,19.9,42,19.9 M42,15.9
				c-3.7,0-6.8,3-6.8,6.8c0,3.7,3,6.8,6.8,6.8c3.7,0,6.8-3,6.8-6.8C48.7,19,45.7,15.9,42,15.9L42,15.9z"/>
		</g>
	</g>
	<g>
		<path class="st1" d="M66.1,39.1c-2.9,0-5.4-2.3-5.8-5.3l-2.7-23.2c-0.3-2.9,1.6-5.6,4.4-6.3c0.4-0.1,0.9-0.2,1.3-0.2
			c1.5,0,3.1,0.6,4.2,1.8l9.6,9.5l-0.8-6.8c-0.3-3,1.6-5.9,4.5-6.5C81.4,2,81.8,2,82.2,2c3,0,5.4,2.2,5.8,5.1l2.7,23.2
			c0.3,2.2-0.7,4.4-2.5,5.6c-0.8,0.5-1.7,0.9-2.6,1c-0.2,0-0.4,0-0.7,0l0,0c-1.5,0-3-0.6-4.1-1.7l-9.8-9.6l0.8,7
			c0.2,1.6-0.3,3.3-1.4,4.5c-1.1,1.2-2.6,2-4.3,2C66.2,39.1,66.1,39.1,66.1,39.1z"/>
		<path class="st2" d="M82.2,4c1.9,0,3.6,1.4,3.8,3.4l2.7,23.2c0.2,1.4-0.4,2.9-1.6,3.7c-0.5,0.4-1.1,0.6-1.7,0.6
			c-0.1,0-0.3,0-0.4,0c-1,0-1.9-0.4-2.7-1.1L71.5,23.3c-0.3-0.3-0.7-0.4-1-0.4c-0.8,0-1.6,0.7-1.5,1.7l1,8.4
			c0.3,2.2-1.4,4.2-3.7,4.2c0,0,0,0-0.1,0c-2,0-3.6-1.6-3.8-3.5l-2.7-23.2c-0.2-1.9,1-3.7,2.9-4.1c0.3-0.1,0.6-0.1,0.8-0.1
			c1,0,2.1,0.5,2.8,1.2l10.6,10.5c0.3,0.3,0.7,0.4,1.1,0.4c0.8,0,1.6-0.7,1.5-1.7l-0.9-8.2c-0.2-2,1-3.9,3-4.3C81.7,4,82,4,82.2,4
			 M82.2,0c-0.5,0-1.1,0.1-1.6,0.2C76.7,1,74,4.8,74.5,8.9l0.1,1.2L69,4.5c-1.5-1.5-3.6-2.4-5.6-2.4c-0.6,0-1.2,0.1-1.8,0.2
			c-3.8,0.9-6.4,4.6-5.9,8.5L58.3,34c0.5,4,3.8,7.1,7.8,7.1l0.1,0c2.2,0,4.3-1,5.7-2.7c1.4-1.7,2.1-3.9,1.9-6l-0.2-1.3l5.7,5.6
			c1.5,1.5,3.4,2.3,5.5,2.3c0.3,0,0.6,0,0.9-0.1c1.3-0.1,2.5-0.6,3.5-1.3c2.4-1.6,3.7-4.5,3.3-7.5L90,6.9C89.5,3,86.2,0,82.2,0
			L82.2,0z"/>
	</g>
</g>
</svg>
