<?xml version="1.0" encoding="utf-8"?>
<!-- Generator: Adobe Illustrator 18.0.0, SVG Export Plug-In . SVG Version: 6.00 Build 0)  -->
<!DOCTYPE svg PUBLIC "-//W3C//DTD SVG 1.1//EN" "http://www.w3.org/Graphics/SVG/1.1/DTD/svg11.dtd">
<svg version="1.1"
	 id="svg2" xmlns:sodipodi="http://sodipodi.sourceforge.net/DTD/sodipodi-0.dtd" xmlns:svg="http://www.w3.org/2000/svg" xmlns:dc="http://purl.org/dc/elements/1.1/" xmlns:rdf="http://www.w3.org/1999/02/22-rdf-syntax-ns#" xmlns:inkscape="http://www.inkscape.org/namespaces/inkscape" xmlns:cc="http://creativecommons.org/ns#" sodipodi:docname="deop-w.svg" inkscape:version="0.48.5 r10040"
	 xmlns="http://www.w3.org/2000/svg" xmlns:xlink="http://www.w3.org/1999/xlink" x="0px" y="0px" viewBox="0 0 15.8 21.5"
	 enable-background="new 0 0 15.8 21.5" xml:space="preserve">
<sodipodi:namedview  id="namedview14" inkscape:cy="6.1892007" fit-margin-left="0" showgrid="false" fit-margin-top="0" inkscape:cx="14.16851" inkscape:zoom="21.436579" borderopacity="1" pagecolor="#ffffff" bordercolor="#666666" inkscape:window-maximized="1" inkscape:window-y="-8" inkscape:window-x="-8" inkscape:window-height="1017" inkscape:window-width="1920" inkscape:current-layer="layer4" inkscape:pageopacity="0" fit-margin-right="0" fit-margin-bottom="0" inkscape:pageshadow="2" showguides="true" guidetolerance="10" gridtolerance="10" objecttolerance="10" inkscape:guide-bbox="true">
	<sodipodi:guide  id="guide2996" position="-19.172835,24.164303" orientation="1,0"></sodipodi:guide>
</sodipodi:namedview>
<g id="layer1" transform="translate(38.019685,-128.79678)" inkscape:label="shield" inkscape:groupmode="layer">
	<path id="path26" inkscape:connector-curvature="0" fill="none" stroke="#4FEDC0" stroke-width="1.8328" d="M-30.1,129.7
		c0,0-0.9,2.5-7,2.5v10.1c0,4,7,7.1,7,7.1s7-3.2,7-7.1v-10.1C-29.3,132.2-30.1,129.7-30.1,129.7"/>
</g>
<g id="layer2" transform="translate(38.019685,-128.79678)" inkscape:label="a" inkscape:groupmode="layer" display="none">
	<path id="path3784" inkscape:connector-curvature="0" display="inline" fill="#4FEDC0" d="M-28.2,143.7l-0.7-2.4h-2.6l-0.7,2.4
		h-2.2l2.8-9.5h2.7l2.9,9.5H-28.2z M-30.2,135.8L-30.2,135.8c-0.2,0.6-0.3,1.3-0.5,1.8l-0.5,2h2l-0.6-2
		C-29.9,137.1-30.1,136.4-30.2,135.8"/>
</g>
<g id="layer3" inkscape:label="test" inkscape:groupmode="layer" display="none">
	<text transform="matrix(0.9222 0 0 1 3.48 14.9955)" display="inline" font-family="'SegoeUI-Bold'" font-size="13.596">AM</text>
</g>
<g id="layer4" inkscape:label="star" inkscape:groupmode="layer">
	
		<path id="path2998" sodipodi:arg2="1.4968386" sodipodi:arg1="0.97323987" sodipodi:r2="4.0627708" sodipodi:r1="2.0313854" sodipodi:type="star" sodipodi:sides="6" sodipodi:cx="-5.9711022" sodipodi:cy="9.474494" inkscape:transform-center-y="-0.3002077" inkscape:transform-center-x="-0.8239045" inkscape:randomized="0" inkscape:rounded="0" inkscape:flatsided="false" fill="#4FEDC0" d="
		M6.8,8.5l1.3-3l1.3,3l3.1-0.4l-1.8,2.7l1.8,2.6l-3.1-0.3l-1.3,3l-1.3-3l-3.1,0.4l1.8-2.7L3.7,8.2L6.8,8.5z"/>
</g>
</svg>
