<?xml version="1.0" encoding="UTF-8" standalone="no"?>
<svg
   xmlns:dc="http://purl.org/dc/elements/1.1/"
   xmlns:cc="http://creativecommons.org/ns#"
   xmlns:rdf="http://www.w3.org/1999/02/22-rdf-syntax-ns#"
   xmlns:svg="http://www.w3.org/2000/svg"
   xmlns="http://www.w3.org/2000/svg"
   xmlns:sodipodi="http://sodipodi.sourceforge.net/DTD/sodipodi-0.dtd"
   xmlns:inkscape="http://www.inkscape.org/namespaces/inkscape"
   viewBox="0 0 20.151096 20"
   height="20"
   width="20.151096"
   xml:space="preserve"
   version="1.1"
   id="svg2"
   inkscape:version="0.48.5 r10040"
   sodipodi:docname="kick.svg"><sodipodi:namedview
     pagecolor="#ffffff"
     bordercolor="#666666"
     borderopacity="1"
     objecttolerance="10"
     gridtolerance="10"
     guidetolerance="10"
     inkscape:pageopacity="0"
     inkscape:pageshadow="2"
     inkscape:window-width="1920"
     inkscape:window-height="1057"
     id="namedview18"
     showgrid="false"
     fit-margin-top="0"
     fit-margin-right="0"
     fit-margin-bottom="0"
     fit-margin-left="0"
     inkscape:zoom="6.8882043"
     inkscape:cx="-31.057165"
     inkscape:cy="40.074922"
     inkscape:window-x="1912"
     inkscape:window-y="-8"
     inkscape:window-maximized="1"
     inkscape:current-layer="g10" /><metadata
     id="metadata8"><rdf:RDF><cc:Work
         rdf:about=""><dc:format>image/svg+xml</dc:format><dc:type
           rdf:resource="http://purl.org/dc/dcmitype/StillImage" /></cc:Work></rdf:RDF></metadata><defs
     id="defs6"><clipPath
       id="clipPath16"
       clipPathUnits="userSpaceOnUse"><path
         id="path18"
         d="m 0,38 57.651,0 0,-38 L 0,0 0,38 z"
         inkscape:connector-curvature="0" /></clipPath></defs><g
     transform="matrix(0.88388348,-0.88388348,-0.88388348,-0.88388348,23.739055,29.848517)"
     id="g10"><g
       id="g12"
       transform="matrix(0.36956062,0,0,0.36956062,-4.9537878,11.978348)"><g
         clip-path="url(#clipPath16)"
         id="g14"><g
           transform="translate(34.3447,14.501)"
           id="g20"><path
             id="path22"
             style="fill:#f54f4f;fill-opacity:1;fill-rule:nonzero;stroke:none"
             d="m 0,0 c -1.95,-6.637 -8.085,-11.501 -15.345,-11.501 -8.822,0 -16,7.178 -16,16 0,8.822 7.178,16 16,16 C -8.086,20.499 -1.951,15.636 0,9 l 3.094,0 c -2.029,8.307 -9.515,14.499 -18.439,14.499 -10.476,0 -19,-8.523 -19,-19 0,-10.477 8.524,-19 19,-19 8.925,0 16.411,6.193 18.44,14.501 L 0,0 z"
             inkscape:connector-curvature="0" /></g><g
           transform="translate(55.6509,17.001)"
           id="g24"><path
             id="path26"
             style="fill:#f54f4f;fill-opacity:1;fill-rule:nonzero;stroke:none"
             d="m -4.8779041,-0.23228115 -20.3470679,0 c -1.104,0 -2,0.896 -2,2.00000005 0,1.104 0.896,2 2,2 l 20.3470679,0 c 1.104,0 2,-0.896 2,-2 0,-1.10400005 -0.896,-2.00000005 -2,-2.00000005"
             inkscape:connector-curvature="0"
             sodipodi:nodetypes="csssssc" /></g><g
           transform="translate(43.9834,5.333)"
           id="g28"><path
             id="path30"
             style="fill:#f54f4f;fill-opacity:1;fill-rule:nonzero;stroke:none"
             d="m -4.8779041,-0.23228115 c -0.512,0 -1.024,0.195 -1.414,0.586 -0.781,0.78100005 -0.781,2.04700005 0,2.82800005 l 10.253,10.2540001 -10.253,10.253 c -0.781,0.781 -0.781,2.047 0,2.828 0.781,0.781 2.048,0.78 2.828,0 l 11.668,-11.667 c 0.375,-0.375 0.585,-0.884 0.585,-1.414 0,-0.53 -0.21,-1.039 -0.585,-1.414 l -11.668,-11.66800015 c -0.39,-0.391 -0.902,-0.586 -1.414,-0.586"
             inkscape:connector-curvature="0" /></g><g
           transform="translate(19,24.3174)"
           id="g32"><path
             id="path34"
             style="fill:#f54f4f;fill-opacity:1;fill-rule:nonzero;stroke:none"
             d="m 0,0 c -2.932,0 -5.318,-2.385 -5.318,-5.317 0,-2.932 2.386,-5.317 5.318,-5.317 2.932,0 5.317,2.385 5.317,5.317 C 5.317,-2.385 2.932,0 0,0 m 0,-12.333 c -3.869,0 -7.016,3.147 -7.016,7.016 0,3.869 3.147,7.016 7.016,7.016 3.868,0 7.016,-3.147 7.016,-7.016 0,-3.869 -3.148,-7.016 -7.016,-7.016"
             inkscape:connector-curvature="0" /></g></g></g></g></svg>