<?xml version="1.0" encoding="utf-8"?>
<!-- Generator: Adobe Illustrator 18.0.0, SVG Export Plug-In . SVG Version: 6.00 Build 0)  -->
<!DOCTYPE svg PUBLIC "-//W3C//DTD SVG 1.1//EN" "http://www.w3.org/Graphics/SVG/1.1/DTD/svg11.dtd">
<svg version="1.1"
	 id="svg2" xmlns:sodipodi="http://sodipodi.sourceforge.net/DTD/sodipodi-0.dtd" xmlns:svg="http://www.w3.org/2000/svg" xmlns:dc="http://purl.org/dc/elements/1.1/" xmlns:rdf="http://www.w3.org/1999/02/22-rdf-syntax-ns#" xmlns:inkscape="http://www.inkscape.org/namespaces/inkscape" xmlns:cc="http://creativecommons.org/ns#" sodipodi:docname="out.svg" inkscape:version="0.48.5 r10040"
	 xmlns="http://www.w3.org/2000/svg" xmlns:xlink="http://www.w3.org/1999/xlink" x="0px" y="0px" viewBox="0 0 30.3 20"
	 enable-background="new 0 0 30.3 20" xml:space="preserve">
<sodipodi:namedview  id="namedview18" inkscape:cy="16.514252" fit-margin-left="0" showgrid="false" fit-margin-top="0" inkscape:cx="-223.90809" inkscape:zoom="2.435348" borderopacity="1" pagecolor="#ffffff" bordercolor="#666666" inkscape:window-maximized="1" inkscape:window-y="-8" inkscape:window-x="1912" inkscape:window-height="1057" inkscape:window-width="1920" inkscape:current-layer="svg2" inkscape:pageopacity="0" fit-margin-right="0" fit-margin-bottom="0" inkscape:pageshadow="2" guidetolerance="10" gridtolerance="10" objecttolerance="10">
	</sodipodi:namedview>
<g id="g10" transform="matrix(0.52632311,0,0,-0.52632311,0,20.000278)">
	<g id="g12">
		<g>
			<defs>
				<rect id="SVGID_1_" x="13.7" y="9" width="30.3" height="20"/>
			</defs>
			<clipPath id="SVGID_2_">
				<use xlink:href="#SVGID_1_"  overflow="visible"/>
			</clipPath>
			<g id="g14" clip-path="url(#SVGID_2_)">
				<g id="g20" transform="translate(34.3447,14.501)">
					<path id="path22" inkscape:connector-curvature="0" fill="#F54F4F" d="M0,0c-2-6.6-8.1-11.5-15.3-11.5c-8.8,0-16,7.2-16,16
						s7.2,16,16,16C-8.1,20.5-2,15.6,0,9h3.1c-2,8.3-9.5,14.5-18.4,14.5c-10.5,0-19-8.5-19-19s8.5-19,19-19C-6.4-14.5,1.1-8.3,3.1,0
						L0,0z"/>
				</g>
				<g id="g24" transform="translate(55.6509,17.001)">
					<path id="path26" inkscape:connector-curvature="0" fill="#F54F4F" d="M0,0h-24.9c-1.1,0-2,0.9-2,2s0.9,2,2,2H0
						c1.1,0,2-0.9,2-2S1.1,0,0,0"/>
				</g>
				<g id="g28" transform="translate(43.9834,5.333)">
					<path id="path30" inkscape:connector-curvature="0" fill="#F54F4F" d="M0,0c-0.5,0-1,0.2-1.4,0.6c-0.8,0.8-0.8,2,0,2.8
						L8.8,13.7L-1.4,23.9c-0.8,0.8-0.8,2,0,2.8c0.8,0.8,2,0.8,2.8,0l11.7-11.7c0.4-0.4,0.6-0.9,0.6-1.4s-0.2-1-0.6-1.4L1.4,0.6
						C1,0.2,0.5,0,0,0"/>
				</g>
				<g id="g32" transform="translate(19,24.3174)">
					<path id="path34" inkscape:connector-curvature="0" fill="#F54F4F" d="M0,0c-2.9,0-5.3-2.4-5.3-5.3s2.4-5.3,5.3-5.3
						s5.3,2.4,5.3,5.3S2.9,0,0,0 M0-12.3c-3.9,0-7,3.1-7,7s3.1,7,7,7c3.9,0,7-3.1,7-7S3.9-12.3,0-12.3"/>
				</g>
			</g>
		</g>
	</g>
</g>
</svg>
