<?xml version="1.0" encoding="utf-8"?>
<!-- Generator: Adobe Illustrator 18.0.0, SVG Export Plug-In . SVG Version: 6.00 Build 0)  -->
<!DOCTYPE svg PUBLIC "-//W3C//DTD SVG 1.1//EN" "http://www.w3.org/Graphics/SVG/1.1/DTD/svg11.dtd">
<svg version="1.1" id="Calque_1" xmlns="http://www.w3.org/2000/svg" xmlns:xlink="http://www.w3.org/1999/xlink" x="0px" y="0px"
	 viewBox="0 0 100.7 96.7" style="enable-background:new 0 0 100.7 96.7;" xml:space="preserve">
<style type="text/css">
	.st0{fill:#47EBBB;}
	.st1{fill:none;stroke:#FFFFFF;stroke-width:4.6127;stroke-linecap:round;stroke-linejoin:round;stroke-miterlimit:10;}
</style>
<g>
	<path class="st0" d="M50.2,5C26.3,5,6.8,24.4,6.8,48.4s19.4,43.4,43.4,43.4s43.4-19.4,43.4-43.4S74.2,5,50.2,5z M50.2,64.5
		c-8.9,0-16.1-7.2-16.1-16.1c0-8.9,7.2-16.1,16.1-16.1c8.9,0,16.1,7.2,16.1,16.1C66.3,57.3,59.1,64.5,50.2,64.5z"/>
	<g>
		<line class="st1" x1="73.7" y1="31.2" x2="67.2" y2="24.7"/>
		<line class="st1" x1="75" y1="51.8" x2="81.6" y2="45.3"/>
		<line class="st1" x1="25.5" y1="45.3" x2="18.9" y2="51.8"/>
		<line class="st1" x1="46" y1="22.1" x2="52.6" y2="15.5"/>
		<line class="st1" x1="32.8" y1="31.2" x2="26.3" y2="24.7"/>
		<line class="st1" x1="34.3" y1="72.2" x2="27.7" y2="65.7"/>
		<line class="st1" x1="54.1" y1="74.7" x2="47.6" y2="81.3"/>
		<line class="st1" x1="74.1" y1="72.2" x2="67.6" y2="65.7"/>
	</g>
</g>
</svg>
