<?xml version="1.0" encoding="UTF-8" standalone="no"?>
<!-- Generator: Adobe Illustrator 18.0.0, SVG Export Plug-In . SVG Version: 6.00 Build 0)  -->

<svg
   xmlns:dc="http://purl.org/dc/elements/1.1/"
   xmlns:cc="http://creativecommons.org/ns#"
   xmlns:rdf="http://www.w3.org/1999/02/22-rdf-syntax-ns#"
   xmlns:svg="http://www.w3.org/2000/svg"
   xmlns="http://www.w3.org/2000/svg"
   xmlns:sodipodi="http://sodipodi.sourceforge.net/DTD/sodipodi-0.dtd"
   xmlns:inkscape="http://www.inkscape.org/namespaces/inkscape"
   version="1.1"
   id="Calque_1"
   x="0px"
   y="0px"
   viewBox="0 0 99.999997 99.999997"
   xml:space="preserve"
   inkscape:version="0.48.5 r10040"
   width="100%"
   height="100%"
   sodipodi:docname="default-room.svg"
   inkscape:export-filename="C:\www\chat\design\dessins\default-room.png"
   inkscape:export-xdpi="180"
   inkscape:export-ydpi="180"><metadata
   id="metadata3045"><rdf:RDF><cc:Work
       rdf:about=""><dc:format>image/svg+xml</dc:format><dc:type
         rdf:resource="http://purl.org/dc/dcmitype/StillImage" /><dc:title></dc:title></cc:Work></rdf:RDF></metadata><defs
   id="defs3043" /><sodipodi:namedview
   pagecolor="#ffffff"
   bordercolor="#666666"
   borderopacity="1"
   objecttolerance="10"
   gridtolerance="10"
   guidetolerance="10"
   inkscape:pageopacity="0"
   inkscape:pageshadow="2"
   inkscape:window-width="1858"
   inkscape:window-height="1057"
   id="namedview3041"
   showgrid="false"
   inkscape:zoom="2.4405377"
   inkscape:cx="45.340677"
   inkscape:cy="29.000104"
   inkscape:window-x="54"
   inkscape:window-y="-8"
   inkscape:window-maximized="1"
   inkscape:current-layer="Calque_1"
   fit-margin-top="0"
   fit-margin-left="0"
   fit-margin-right="0"
   fit-margin-bottom="0" />
<style
   type="text/css"
   id="style3017">
	.st0{fill:#47EBBB;}
	.st1{fill:none;stroke:#FFFFFF;stroke-width:4.6127;stroke-linecap:round;stroke-linejoin:round;stroke-miterlimit:10;}
</style>
<path
   style="fill:#ffffff;fill-opacity:1;stroke:none"
   d="m -6.3118044e-8,0 0,100 L 100,100 100,0 -6.3118044e-8,0 z M 49.96875,6.59375 C 73.968747,6.59375 93.375,26.000003 93.375,50 93.375,73.999997 73.968747,93.40625 49.96875,93.40625 25.968753,93.40625 6.5937499,73.999997 6.5937499,50 6.5937499,26.000003 26.068753,6.59375 49.96875,6.59375 z m 2.375,8.15625 A 2.3067304,2.3067304 0 0 0 50.75,15.46875 l -6.59375,6.59375 a 2.3067304,2.3067304 0 1 0 3.25,3.25 L 54,18.71875 A 2.3067304,2.3067304 0 0 0 52.34375,14.75 z M 25.8125,23.96875 a 2.3065803,2.3065803 0 0 0 -1.375,3.96875 l 6.5,6.5 a 2.3201943,2.3201943 0 1 0 3.28125,-3.28125 l -6.5,-6.5 a 2.3065803,2.3065803 0 0 0 -1.90625,-0.6875 z m 40.90625,0 a 2.3065804,2.3065804 0 0 0 -1.375,3.96875 l 6.5,6.5 A 2.3201943,2.3201943 0 1 0 75.125,31.15625 l -6.5,-6.5 a 2.3065804,2.3065804 0 0 0 -1.90625,-0.6875 z m -16.75,9.9375 C 41.06875,33.90625 33.875,41.1 33.875,50 c 0,8.9 7.19375,16.09375 16.09375,16.09375 8.9,0 16.125,-7.19375 16.125,-16.09375 0,-8.9 -7.225,-16.09375 -16.125,-16.09375 z M 25.25,44.5625 A 2.3065804,2.3065804 0 0 0 23.65625,45.25 l -6.59375,6.5 a 2.309172,2.309172 0 1 0 3.25,3.28125 l 6.59375,-6.5 A 2.3065804,2.3065804 0 0 0 25.25,44.5625 z m 56.09375,0 A 2.3065804,2.3065804 0 0 0 79.75,45.25 l -6.59375,6.5 a 2.309172,2.309172 0 1 0 3.25,3.28125 L 83,48.53125 A 2.3065804,2.3065804 0 0 0 81.34375,44.5625 z m -54.125,20.40625 A 2.3065804,2.3065804 0 0 0 25.875,68.9375 l 6.59375,6.5 a 2.3065804,2.3065804 0 1 0 3.21875,-3.28125 l -6.59375,-6.5 a 2.3065804,2.3065804 0 0 0 -1.875,-0.6875 z m 39.90625,0 A 2.3065804,2.3065804 0 0 0 65.75,68.9375 l 6.5,6.5 a 2.309172,2.309172 0 1 0 3.25,-3.28125 l -6.5,-6.5 a 2.3065804,2.3065804 0 0 0 -1.875,-0.6875 z m -13.3125,9 A 2.3065804,2.3065804 0 0 0 52.25,74.6875 l -6.5,6.59375 A 2.3065804,2.3065804 0 1 0 49.03125,84.5 l 6.5,-6.59375 a 2.3065804,2.3065804 0 0 0 -1.71875,-3.9375 z"
   id="rect3864"
   inkscape:connector-curvature="0" />
<g
   id="g3019"
   transform="translate(28.880808,11.84489)">
	
	<g
   id="g3023">
		
		
		
		
		
		
		
		
	</g>
</g></svg>